<svg xmlns="http://www.w3.org/2000/svg" viewBox="0 0 106.74 537.18"><defs><style>.cls-1{fill:none;stroke:#cfbb9f;stroke-miterlimit:10;stroke-width:0.25px;}</style></defs><title>2-screenРесурс 1</title><g id="Слой_2" data-name="Слой 2"><g id="Режим_изоляции" data-name="Режим изоляции"><path class="cls-1" d="M37.5,305.79c-.56-5.29-1.08-10.58-1.53-15.88-.9-10.71-1.56-21.46-2.13-32.19a.35.35,0,0,0-.7,0c0,10.87.39,21.7,1.11,32.54.37,5.42.78,10.83,1.31,16.24a114.23,114.23,0,0,0,2.12,15.66A.67.67,0,0,0,39,322C38.92,316.57,38.07,311.18,37.5,305.79Z"/><path class="cls-1" d="M41,302.21q-.84-6.85-1.52-13.73-1.38-13.92-2.13-27.89c-.06-1.12-1.79-1.13-1.74,0q.55,14.13,1.77,28.24c.4,4.59.85,9.16,1.34,13.74a112.38,112.38,0,0,0,2,13.93.91.91,0,0,0,1.78-.24C42.32,311.58,41.53,306.86,41,302.21Z"/><path class="cls-1" d="M35.65,243.39a.76.76,0,0,0-1.51,0c0,1.63,0,3.26-.08,4.89a14.29,14.29,0,0,0,.27,4.43.92.92,0,0,0,1.75,0C36.75,249.86,35.89,246.28,35.65,243.39Z"/><path class="cls-1" d="M22.46,251c-.13-1.72-2.82-1.73-2.69,0,1,14,1.44,28.18,3.71,42,.13.81,1.37.58,1.39-.19C25.11,278.94,23.45,264.91,22.46,251Z"/><path class="cls-1" d="M27.2,278.75c0-1.14-1.82-1.15-1.78,0,.27,8.45.65,17.25,2.74,25.48a.59.59,0,0,0,1.16-.16C28.78,295.61,27.52,287.23,27.2,278.75Z"/><path class="cls-1" d="M61.86,254.86a.61.61,0,0,0-.62-.63.18.18,0,0,0-.15-.27.18.18,0,0,0-.13.3.62.62,0,0,0-.41.6c0,6.92-.14,13.85,0,20.78a.62.62,0,0,0,1.24,0C62,268.71,61.9,261.78,61.86,254.86Z"/><path class="cls-1" d="M89.28,216.8c-.33-3.4-.58-6.8-.84-10.21s-.47-6.81-.62-10.23c-.07-1.64-.13-3.29-.18-4.94s.08-3.08-.92-4.45a.43.43,0,0,0-.73,0c-1,1.39-.82,2.8-.79,4.45s.06,3.3.1,4.94c.11,3.53.26,7.06.49,10.58s.57,7.05,1,10.56a64.19,64.19,0,0,0,1.63,10.05.88.88,0,0,0,1.72-.23C90.12,223.84,89.61,220.27,89.28,216.8Z"/><path class="cls-1" d="M77,285.85a.18.18,0,0,0,0,.36A.18.18,0,0,0,77,285.85Z"/><path class="cls-1" d="M68.5,358.49a.18.18,0,1,0,0,.35A.18.18,0,0,0,68.5,358.49Z"/><path class="cls-1" d="M88.56,362.91a.18.18,0,0,0,0,.35A.18.18,0,1,0,88.56,362.91Z"/><path class="cls-1" d="M57.09,347.18c-.25-2.81-.9-5.62-1.4-8.41-.54-3-1-6-1.83-8.88-.1-.35-.69-.3-.66.09.14,1.61.37,3.2.64,4.79-.27-.12-.64,0-.61.37.4,5.62.93,11.24,1.35,16.86q.3,4.17.51,8.34c.07,1.4.12,2.79.17,4.18a28.69,28.69,0,0,0,.2,3.62.49.49,0,0,0-.39.45c0,.33.08.47.34.66a.5.5,0,0,0,.61-.08c.61-.55.39-1.47.38-2.21,0-1.4,0-2.79-.1-4.18-.11-3.13-.3-6.26-.53-9.39-.38-5.15-.85-10.3-1.38-15.44l.08.44c.53,3,.92,6,1.71,8.92a.46.46,0,0,0,.9-.13Z"/><path class="cls-1" d="M40,337c-.75-3.84-.69-7.59-1-11.45,0-.39-.68-.56-.75-.1-.63,3.84,0,8,.79,11.82C39.14,337.94,40.13,337.66,40,337Z"/><path class="cls-1" d="M42.71,326.29a.35.35,0,0,0-.16-.27A22.11,22.11,0,0,0,41,321.89c-.21-.48-1-.14-.84.35.69,1.76,1,3.58,1.55,5.36a.52.52,0,0,0,1-.14A11.57,11.57,0,0,0,42.71,326.29Z"/><path class="cls-1" d="M41.74,321.93a.18.18,0,0,0,0,.36A.18.18,0,0,0,41.74,321.93Z"/><path class="cls-1" d="M105,252.76a3.88,3.88,0,0,0-4.22-.7l.3-3.67c.59-6.89.86-13.95,2.1-20.75a1.61,1.61,0,0,0-1.94-1.94c-2.41.42-4.77,1.06-7.14,1.69l-.18.07c-.32-7.28-.83-14.55-1.45-21.8-.15-1.67-2.75-1.69-2.63,0,.59,8.05,1,16.12,1.27,24.19a.37.37,0,0,0-.31.4c.16,6.44.13,12.92.53,19.35a.39.39,0,0,0,.42.38c0,1.19,0,2.39.07,3.58a1.11,1.11,0,0,0-1.21,1.06c-.21,3.69-.39,7.37-.57,11.06,0-4.81.06-9.62.09-14.42a.34.34,0,0,0,.35-.35c.15-6.9-.51-13.89-.82-20.78,0-.5-.79-.5-.77,0,.21,5.92.18,11.93.62,17.86a.71.71,0,0,0-.64.31c0-5.22-.34-10.46-.77-15.66,0-.47-.77-.47-.73,0,.43,5.49.58,11,.91,16.48a.3.3,0,0,0,.46.23c-1.08,29.69-2.14,59.41-1.64,89.12a.45.45,0,0,0,.49.47q-.61,10.8-1,21.62a.58.58,0,0,0,0,.54.6.6,0,0,0,0,.63c-.07,2.1-.13,4.19-.19,6.29-.12.2-.23.4-.35.59l.12-4.37c.23-9.52.38-19-.33-28.52,0-.26-.43-.27-.41,0,.59,9.49.31,19,0,28.52-.11,3.43-.21,6.87-.31,10.3a1.37,1.37,0,0,0-.46-.35l-.05,0c-.32-11-.41-22-.21-33,.06.34.13.69.21,1a.49.49,0,0,0,1-.13c-.08-3.24-.49-6.46-.62-9.7s-.15-6.49-.1-9.73c.1-6.28.46-12.55.75-18.82s.54-12.54.39-18.82c0-.86,0-1.72-.07-2.59A19.22,19.22,0,0,0,87,280.48c.19-.39-.31-.86-.63-.49-.17.19-.33.39-.49.6a112.83,112.83,0,0,1,.09-12.2.69.69,0,0,0,.32-.4A37.26,37.26,0,0,0,87.91,258c.13-3.51.1-7,0-10.52-.24-6.81-.84-13.59-1.33-20.38s-.72-13.67-1-20.51c-.13-3.54-.23-7.09-.31-10.63,0-1.66-.14-3.31-.23-5-.06-1,.17-2.39-.6-3.19a.62.62,0,0,0-.58-.15.83.83,0,0,0-.62.5.46.46,0,0,0,0,.48l.1.15a.45.45,0,0,0,.19.15.91.91,0,0,0,0,.64c0,.47-.08.95-.11,1.42l-.15,2.13c-.12,1.65-.16,3.3-.2,5-.07,3.3-.14,6.61-.11,9.92,0,6.71.35,13.44.78,20.14s1,13.11,1.2,19.68-.21,13.3,0,19.94a.72.72,0,0,0,0,.22,66.12,66.12,0,0,0-.46,8.44.38.38,0,0,0-.29.26c-.09.3-.2.6-.31.9,0-.27,0-.53,0-.79a.52.52,0,0,0-1,0c0,1.05,0,2.11-.07,3.16-.43.83-.88,1.64-1.32,2.47-.1-1.76-.24-3.5-.43-5.24a.32.32,0,0,0,.2-.42L81,276a.35.35,0,0,0-.68.09c-.11,2.95,0,5.93,0,8.9,0,.13-.11.25-.15.38-.07-3.69-.19-7.37-.34-11.06q-.59-14.9-2-29.73a.74.74,0,0,0-.37-.57c.06-2.6-.12-5.24-.12-7.81,0-3.7-.12-7.37-.25-11.06-.27-7.25-.54-14.51-.86-21.76-.62-14.39-1.26-28.77-2-43.15-.15-2.93-.32-5.84-.68-8.75a.6.6,0,0,0,0-.4c-.05-.19-.09-.38-.14-.56-.05-.34-.09-.67-.14-1,.08-.61.15-1.22.25-1.8.29-1.87.58-3.73.85-5.6q.77-5.16,1.43-10.34c.77-6,1.4-12.05,2-18.09.2,4.8.5,9.59.84,14.38q.61,9,1.41,18.07c.51,5.72.75,11.62,1.77,17.27.62,3.43,1.37,6.84,1.66,10.32.27,3.25.33,6.51.89,9.72.14.8,1.47.62,1.42-.19-.24-3.8-1.11-7.52-1.5-11.3s-.13-7.55-.47-11.31c-.69-7.55-1.29-15.1-1.85-22.66-.12-1.67-.24-3.34-.35-5a1,1,0,0,0,1.24,0,.86.86,0,0,0-.15.64c1.46,10.95,2,22,3.72,32.94.1.66,1.09.46,1.12-.15a119.15,119.15,0,0,0-.56-16.67,16.53,16.53,0,0,0,.51,2.13,1.16,1.16,0,0,0,.86.83c0,7.79,0,15.58.11,23.38,0,4.39,0,8.78.1,13.17,0,2.14,0,4.27,0,6.41a27.4,27.4,0,0,0,.33,6.65.92.92,0,0,0,1.75,0,24.58,24.58,0,0,0,.5-6.3c0-2.13.08-4.27.12-6.4.09-4.51.08-9,0-13.53-.09-8.92-.56-17.8-1.17-26.69a.89.89,0,0,0-.18-.51c-.06-2.41-.49-4.88-.71-7.22-.3-3.18-.58-6.36-.79-9.55q-.63-9.91-.91-19.83c-.23-8-.37-16-.47-24.07a.45.45,0,0,0,.47-.47c.23-5.74-.34-11.62-.64-17.38A116.54,116.54,0,0,0,86.18,56l0-.56a.51.51,0,0,0,.26-.39L89.51,39c.27-1.39.55-2.79.81-4.19a3.66,3.66,0,0,0,.07-2.22c-.63-1.35-3.1-2-4.41-2.42-.39-.13-1-.32-1.58-.47v0a.41.41,0,0,0-.78-.22s0,.07,0,.1a2.67,2.67,0,0,0-2.33.47c-.57.6-.62,2-.77,2.75-.25,1.24-.5,2.48-.72,3.73a118,118,0,0,0-2,14.87,16.32,16.32,0,0,0-3.45,1.44,1,1,0,0,0-.55,1,.35.35,0,0,0-.46.37c.47,5,.89,9.92,1.3,14.88a.25.25,0,0,0,0,.09c-1.24,8.58-1.74,17.29-2.75,25.9-.52,4.46-1.08,8.92-1.76,13.36-.15,1-.3,2-.47,3l-1-12c-.43-5.25-.91-10.51-1.41-15.76a45.88,45.88,0,0,0-.67-7.95,2,2,0,0,0-.06-.79.23.23,0,0,0-.06-.13c-.06-.5-.11-1-.16-1.49s-.11-1.26-.17-1.89c-.09-2.06-.22-4.12-.39-6.16.82-.39.61-2,.6-2.78,0-2.92-.27-5.83-.52-8.74-.23-2.73-.47-5.46-.64-8.19a1.09,1.09,0,0,0,.13-.42c.28-3.29.12-6.65.1-10,0-.65,0-1.31,0-2,.11-.2.21-.41.31-.61a.81.81,0,0,0-.35-1c0-.15,0-.3,0-.45q-.07-2.77-.18-5.52-.16-4.74-.35-9.46c0-2.56.11-5.11.26-7.66s.56-6-1.59-7.94a1.11,1.11,0,0,0-1.87.29h-.12c-2.08-.08-4.33,1-6.29,1.7-.07-.48-.9-.37-.87.12l.06.77a1.11,1.11,0,0,0,0,.44c.21,2.94.46,5.88.73,8.81-.32-.09-.71.07-.67.48.24,2.62.76,5.22,1.26,7.82l.54,8.39c.19,3.05.37,6.09.55,9.14a63.79,63.79,0,0,0,.66,8.63.73.73,0,0,0,.11.27c0,3.42.11,6.84.32,10.26,0,.43,0,.87,0,1.31a18.5,18.5,0,0,0,.81,7.1,1.14,1.14,0,0,0,.1.19c.72,6.94,1.2,13.91,1.84,20.86a176,176,0,0,0-.72,20.54c-.24-.12-.57,0-.53.31q1.2,9.92,2.22,19.85c.39,4.17.8,8.33,1.19,12.49-.45,11.81-.65,23.63-1.16,35.43q-.42,9.6-1,19.18c-.39,6.61-1.1,13.25-1.29,19.87,0,.89,1.25.84,1.35,0,.8-6.57,1-13.27,1.39-19.87q.57-9.59,1-19.18c.34-7.76.65-15.54.8-23.33q.36,3.91.7,7.84c.43,4.67.65,9.43,1.29,14.1l-.06.23a.18.18,0,0,0,.12.21c0,.14,0,.29.07.43.89,16.52,1.86,33.05,3.77,49.47a.51.51,0,0,0,1,0c.11-19.72-1.61-39.45-3.65-59.07.36.77,1.58.44,1.65-.43.1-1.1.14-2.21.14-3.33.41,3.43.87,6.85,1.38,10.29.1.65,1.19.5,1.16-.16-.47-9-1.28-17.9-2.42-26.86a1,1,0,0,0-1.43-.71q-.33-3.52-.69-7.05c-.1-.87-.19-1.74-.29-2.61.25-1.52.69-3,1-4.37.26-1,.55-2,.83-3l.07.38A28,28,0,0,0,68,131.6c0,.58.78.61,1,.13l.18-.56q.16,1.07.27,2.13c-.06.31-.25,1.22-.32,1.91a.19.19,0,0,0-.1,0h-.16a.48.48,0,0,0-.42.24.86.86,0,0,0,.48,1.29.78.78,0,0,0,.74-.15c0,.76.07,1.53.13,2.29-.56-.23-1.36.12-1.07.84a20.57,20.57,0,0,0,.82,3.1c.16,1,.27,1.95.39,2.91-.11.71-.21,1.43-.31,2.15v0a.78.78,0,0,0,0,.14h0a.67.67,0,0,0,1,.53c0,.29.07.59.1.88.3,3.23.36,6.48.47,9.72.22,7.13.42,14.26.71,21.4q.52,13.19,1.07,26.36-.73-8-1.64-16c-.13-1.08-1.83-1.11-1.72,0,1.67,15.87,3.15,31.78,4.71,47.66a.38.38,0,0,0,.28.34,55.71,55.71,0,0,0,.83,8.19.81.81,0,0,0,1.15.62Q77,261,77.41,274.3c.13,4.68.22,9.37.32,14.05a.55.55,0,0,0-.73,0,3.63,3.63,0,0,0-.41.46c0-.64-.08-1.27-.13-1.91,0,0,0,0,0-.06a64.41,64.41,0,0,0,.35-7.44c.06-4,0-7.93-.17-11.89-.21-5.79-.66-11.55-1.43-17.27a2.35,2.35,0,0,0-.38-2.7q-.23-1.45-.48-2.91c-.14-.8-1.45-.61-1.42.19S73,246.28,73,247h0c-.06-1.08-.11-2.16-.17-3.24l-.51-8.57c-.17-2.82-.12-6-1.2-8.67a.39.39,0,0,0-.75,0c-.8,2.72-.44,5.87-.33,8.67s.22,5.72.32,8.57c.22,6,.49,11.91.71,17.86s.46,11.91.68,17.87c.2,5.79.09,11.64,1.14,17.35.17.91,1.39.57,1.49-.2l.08,0c0,.85.11,1.69.17,2.54l-.39.46a.53.53,0,0,0,.48.86c0,.25,0,.5,0,.75.05.73.09,1.47.13,2.2a.82.82,0,0,0-.23.63c0,.11,0,.22,0,.33-.14.28-.27.56-.41.83a.5.5,0,0,0,.46.71c.82,21.87,1.56,43.73,2.62,65.58a.48.48,0,0,0-.59,0A7,7,0,0,0,75.58,373a9.56,9.56,0,0,1-.91,1.09c-.33-7.94-.81-15.87-1.12-23.8-.6-14.69-1.06-29.39-1.53-44.09a.92.92,0,0,0-1.84,0c0,.88,0,1.76,0,2.63a.46.46,0,0,0-.3.07c-.15-2.15-.32-4.31-.5-6.46s-.41-4.5-.64-6.74c.24-12.45-.42-25-.45-37.4,0-6.91,0-13.82.15-20.73s-.16-13.82.09-20.72c0-.67-1-.67-1,0-.31,6.92-1,13.8-1.21,20.72S66,251.41,66,258.32c0,11.58-.24,23.32.63,34.91a.26.26,0,0,0-.45,0l-.59.85c-.39-3-.69-5.94-.86-8.92-.05-.87-.07-1.73-.08-2.6.21-12.85.64-25.7,1.13-38.54.32-8.49.56-16.95.33-25.44a.25.25,0,0,0-.5,0c-1.79,15.05-2.31,30.24-3,45.37s-1.11,30.38-.88,45.57q.09,6.24.31,12.46c.07,2.13.16,4.27.25,6.4a29.77,29.77,0,0,0,.57,6.33,1.1,1.1,0,0,0,1.06.75c0,10.84.35,21.66,1,32.48q.51,8.49,1.37,17c.23,2.27.56,4.54.92,6.81-.16-.18-.5-.14-.48.16.22,3.27.44,6.53.67,9.8-.35,2.15-1,4.28-1.42,6.39s-.95,4.42-1.42,6.63Q64.24,411.3,64,408c-.16-2-.32-4-.47-5.93a140.72,140.72,0,0,0-1.29-18.43h0s0-.07,0-.1c-.06-.44-.81-.34-.78.1.41,6.26.81,12.51,1.28,18.76a145.12,145.12,0,0,1-.77,15.87c-.2-15-.43-30.08-.79-45.11-.17-6.9-.3-13.79-.52-20.69-.16-4.94-.08-10-.44-15,.17-2.66,0-5.35-.11-8-.09-3.32-.16-6.65-.23-10-.13-7-.21-14-.3-21-.16-12.55-.09-25.1-.46-37.65,0,.2,0,.39.08.58a.29.29,0,0,0,.55-.15,6.08,6.08,0,0,0-.16-1,.26.26,0,0,0-.49,0l0-1.12a.17.17,0,0,0,.17.17.18.18,0,0,0,0-.36.16.16,0,0,0-.17.17c0-.8,0-1.6-.08-2.39a.75.75,0,0,0-1.4-.36c0-.45,0-.91-.05-1.36a.82.82,0,0,0,1.08-.66c.46-4.29.11-8.77.06-13.08s-.1-8.73-.09-13.09q0-13.08.65-26.15c0-1-1.54-1-1.61,0-.59,8.82-1,17.66-1.14,26.51-.08,4.36-.11,8.72,0,13.08,0,2.25,0,4.56.13,6.86a.43.43,0,0,0-.39.37c-.27,4.1.1,8.31.16,12.42.06,3.84-.34,7.95.2,11.75-.28,8.46-.29,16.92-.24,25.4,0,6.89.2,13.79.43,20.67q.16,5.17.37,10.33c.14,3.4.06,6.94.89,10.25a.8.8,0,0,0,.1.23c0,.51,0,1,0,1.52-1.85-6.81-3.24-13.7-4.48-20.64a60.65,60.65,0,0,0,2.18-7.15c.07-.38-.45-.65-.65-.28a29.24,29.24,0,0,0-2,5.06.29.29,0,0,0-.49.19l.09,1.14c-.22.74-.43,1.47-.64,2.19-.47,1.55-.93,3.1-1.32,4.67a11.8,11.8,0,0,0-.3,1.17c.25-2.06.32-4.16.44-6.22s.73-4.73-.46-6.46a.39.39,0,0,0-.33-.18c-.47-5-1.21-10-1.82-15-.84-6.87-1.78-13.73-2.69-20.6q-1.5-11.37-3-22.73c-.07-7.28-1.08-14.52-1.86-21.75-.91-8.53-1.3-17.1-1.44-25.67,0-2.84-.07-5.69-.08-8.53a1.82,1.82,0,0,1,1.34-.18c1.25.36,1.53,1.7,1.59,2.84.11,2.25-.21,4.56-.23,6.82a111,111,0,0,0,.84,14.11A167.42,167.42,0,0,0,48.44,252a.88.88,0,0,0,.2.33c.12,2.92.31,5.82.6,8.71a.86.86,0,0,0,1.17.76c-.23,6.69-.4,13.39-.36,20.08,0,3.42.09,6.83.33,10.25s-.2,7.2.78,10.43c.19.6,1.16.68,1.3,0,.58-2.86.08-6.1.09-9,0-3.07.16-6.13.2-9.2.09-6.36.21-12.73.4-19.1.37-12.5,1.06-25,1.1-37.51,0-6.92.28-14-.76-20.9a.64.64,0,0,0-.71-.56c0-3.49-.2-7-.27-10.45-.1-5.33-.12-10.67-.21-16s-.08-10.44-.15-15.65c-.07-5.45-.45-10.93-.41-16.37a.69.69,0,0,0-1.38,0c-.18,5.46-.69,10.89-.81,16.37,0,1,0,1.94,0,2.91q-.24-10.46-.55-20.9c0-.07,0-.13,0-.19,0-2.53.08-5,.19-7.57a.57.57,0,0,0,.73-.05c.35-.3.68-.62,1-.93.18,2.24.39,4.48.76,6.68a0,0,0,0,0,0,0c0,.18,0,.37,0,.55a.45.45,0,0,0,0,.2l-.11.07c-1.17.82-.1,2.73,1.14,1.95a8.93,8.93,0,0,1,2.48-1.12.65.65,0,0,0,.65.31,1,1,0,0,0,0,.13,29.14,29.14,0,0,0-.3,4.08c-.18.14-.38.26-.57.38-.05-.23-.1-.45-.17-.67a.59.59,0,0,0-1.13,0c-.1.48-.17,1-.23,1.45l0,0a.62.62,0,0,0-.07,1.1c-.17,2.24-.08,4.52-.06,6.73,0,3.17,0,6.33,0,9.5,0,6.43-.42,12.92-.08,19.35a1,1,0,0,0,1.59.9c-.07,2.5-.12,5,0,7.47,0,.64,1.06.87,1.19.16.69-3.81.81-7.75,1.31-11.58.51-4,.61-8.1.88-12.14.33-5,.7-10,1.07-15,.13,2.26.25,4.52.34,6.78.14,3.3.22,6.61.26,9.92,0,3.53-.16,7.12.11,10.64a.5.5,0,0,0,1,0c.87-6.71.35-13.82.06-20.56-.22-5.08-.62-10.13-1.12-15.17l.06-.84a1.12,1.12,0,0,0-.23-.82c-.13-1.23-.27-2.45-.41-3.68a.59.59,0,0,0-.49-.57,2.89,2.89,0,0,0-2.36-.65c-.85-15-1.16-30-1.16-45.11,0-15.83.15-31.67-.53-47.49-.19-4.48-.42-9-.8-13.44-.13-1.45-.86-1.72-2.22-2.29A8.49,8.49,0,0,0,46.6,34v0a.56.56,0,0,0-.34.39.46.46,0,0,0-.14.24c0,.23-.09.46-.14.68a.4.4,0,0,0-.48.4c0,.83,0,1.66-.07,2.49C43.85,47.5,43.78,57,44.09,66.33c.35,10.79,1,21.58,1.51,32.36q1.5,33.21,2.3,66.45v.2a6.52,6.52,0,0,0-2.85-.55.68.68,0,0,0-.67.67c.84,9.38-.72,18.69-1.56,28q-.24-3.35-.51-6.67c-.21-2.47-.61-5-.11-7.46a.4.4,0,0,0-.27-.46c-.07-3-.26-6-.37-8.91q-.24-6.9-.47-13.8-.42-13.62-.82-27.26c0-.27-.26-.61-.57-.57a4.43,4.43,0,0,1-3.12-.74c-.47-.3-1,.42-.61.78a4.66,4.66,0,0,0,3.17,1.14q.11,6.44.25,12.86a.33.33,0,0,0-.14,0,12.8,12.8,0,0,1-1.66-.31.34.34,0,0,0-.25-.08h-.07a16.25,16.25,0,0,1-2.83-1.1h0c1.38-7.66,1.14-16,.61-23.73a158.19,158.19,0,0,0-3-21.47c.79-11.16-.53-22.33-.72-33.5-.22-12.48.72-24.94.44-37.42-.05-1.8.66-5.14-1.62-5.72a14.48,14.48,0,0,0-2.22-.34c0-.12,0-.24,0-.36a.3.3,0,0,0-.59,0v.31c-.53,0-1.05-.09-1.55-.15l-5.4-.66h-.06a.29.29,0,0,0-.27-.29.44.44,0,0,0-.75.3l.06,2.48c0-.26-.05-.51-.07-.77s-.58-.37-.56,0c.31,5.88.66,11.75,1,17.62q.77,33.75,1.49,67.5a.48.48,0,0,0,.34.45l.48.1c.66,8.75,0,17.63-.06,26.37,0,5.42.14,10.84.38,16.25A108.6,108.6,0,0,0,24,164.25c.16.8,1.37.58,1.38-.19.14-5.66-.32-11.27-.58-16.93-.05-1.15-.09-2.31-.13-3.46.24,3.84.56,7.68.87,11.51,0,.5,0,1,0,1.48.08,2.85.15,5.7.23,8.54a48.49,48.49,0,0,0,.58,8.52,1,1,0,0,0,.42.64c.16,2.86.33,5.72.56,8.59a.27.27,0,0,0,.54,0c0-2.79,0-5.57-.06-8.36a1.29,1.29,0,0,0,.28-.08c-.32,10.07-.24,20.16.1,30.22q-.15,8.78,0,17.56.11,6.78.34,13.58a.74.74,0,0,0-.48.65,50.65,50.65,0,0,0-.36,8.17c0,2.93,0,5.87.1,8.81q.18,8.81.66,17.61c.64,11.85,1.79,23.68,3.28,35.45l.51,3.91a.64.64,0,0,0-1,.54q.06,4.29.11,8.59c-.58-.72-1.18-1.43-1.77-2.16l-5.35-6.5a1,1,0,0,0-1.46-.05c-.35-1.85-.73-3.7-1.15-5.53a.56.56,0,0,0-1.09.14c0,3.53.15,7.06.46,10.58-.57-.77-1.13-1.55-1.69-2.33-.32-5.85-.5-11.71-.64-17.56s-.27-11.55-.4-17.33c.54,4.58,1.24,9.14,2.16,13.69a.69.69,0,0,0,1.35-.19C21,273.43,18.56,254.57,18,235.63a1,1,0,0,0,1.19-.91c-.09-3.64-.65-7.17-1-10.8-.36-3.4-.55-6.82-.71-10.24-.32-6.44-.64-12.88-1.08-19.32a17.3,17.3,0,0,0,.47,2.21,1,1,0,0,0,1.73.31,50.06,50.06,0,0,0,.72,8.27c.21,1.06,1.6.66,1.72-.23.53-4.12,0-8.59-.13-12.74-.13-4.36-.36-8.72-.64-13.08-.41-6.53-1-13-1.73-19.55a1.62,1.62,0,0,0,1.86-1.48c.24-7.52-.75-15.19-1.36-22.68s-1.12-15.08-1.86-22.6-1.64-15.06-2.19-22.61q-.42-5.66-.77-11.32c-.21-3.33.06-7.31-1.18-10.48a55.11,55.11,0,0,0-.6-6.42c.36-3.1-.16-6.49-.33-9.55q-.33-5.83-.74-11.65-.4-5.65-.88-11.29c-.16-1.88-.35-3.76-.54-5.63A13.88,13.88,0,0,0,9,18.92a.56.56,0,0,0-.42-.32,1.79,1.79,0,0,0-2.21-1.49c-1.66.42-3.69.58-5.09,1.62a1.12,1.12,0,0,0-.42.65.52.52,0,0,0-.1.18A15.75,15.75,0,0,0,.13,25c0,2.1.06,4.21.15,6.32A54.38,54.38,0,0,0,.9,39.79c0,2.8-.05,5.59.1,8.41A67.87,67.87,0,0,0,2.17,59.4a.75.75,0,0,0,.26.44c.08.88.19,1.76.31,2.64-.15,5.92.26,11.83.57,17.75q.57,10.63,1.13,21.28t1.07,21.28c.34,6.85.51,13.72,1.17,20.55.36,3.7.83,7.4,1.55,11.06a49.06,49.06,0,0,0,1.2,5.25c1.07,11.4,2.17,22.8,3.09,34.22.58,7,1,14.12,1.54,21.18a106.72,106.72,0,0,0,1.59,14.31c.47,14.16.37,28.31.33,42.47-.05,13.69.23,27.35.93,41a1,1,0,0,0-.14,1.34c.07.1.15.2.22.31,0,.35,0,.71.05,1.07q.33,6,.79,12c.17,2.1.34,4.21.53,6.31a27.27,27.27,0,0,0,.85,5.91,1.12,1.12,0,0,0,2.18-.29c.28-3.55-.64-7.34-1-10.88,0-.3-.06-.6-.08-.9l2.42,3q.46,3.4,1,6.79c.27,1.86.55,3.73.9,5.58a20,20,0,0,0,1.26,5.08c.56,1.19,2.1.44,2.22-.6a22.51,22.51,0,0,0-.52-5.29c-.23-1.64-.49-3.27-.75-4.9-.1-.64-.19-1.27-.29-1.9l.63.79a36.71,36.71,0,0,0,1.88,6.06,1.09,1.09,0,0,0,1.59.45c-.16,5.23-.3,10.45-.31,15.68,0,4.4.07,8.8.18,13.2.1,3.88.16,7.86.62,11.74-.32,15.43-.16,30.87,1,46.27.7,9.33,1.94,18.59,3,27.88s1.74,18.7,2.06,28.11c.09,2.64.18,5.28.3,7.92-.35-2.51-.83-5-1.23-7.51q-1.17-7.32-2.12-14.67c-.25-1.91-3.28-1.93-3,0l.15,1.11a54.29,54.29,0,0,0,.39,7.41c-.14-.92-.28-1.83-.43-2.74a1,1,0,0,0-.95-.85c-.15-1.64-.3-3.29-.51-4.93a1,1,0,0,0-.51-.79c-.12-3.16-.56-6.35-.92-9.44q-.86-7.26-2-14.49c-.27-1.69-2.79-.95-2.56.71q1,7.38,1.73,14.82c.43,4.67.51,9.53,1.7,14.1a.86.86,0,0,0,.56.64,96,96,0,0,0,1.52,12.15,1,1,0,0,0,1.62.7c.3,2.49.57,5.41,2.24,7.14.49,7,1.93,14,3.14,21-1.53-.43-2.27-2-3-3.59a20,20,0,0,1-1.2-3.73c-.39-4.16-.63-8.32-1.14-12.48a.86.86,0,0,0-1.72,0c-.06,1-.08,1.95-.08,2.93a1.6,1.6,0,0,0-1.15.68,2.67,2.67,0,0,0-.25.43c-.34-2.16-.82-4.31-1.16-6.43-.65-4.06-1.16-8.14-1.66-12.22a81,81,0,0,0-1.55-14.57c-.33-3.58-.62-7.17-.89-10.76-1.25-16.84-2.64-33.7-3.53-50.56-.37-7-.19-14.17-1.21-21.14a29.62,29.62,0,0,0,0-5.49c-.09-2.57-.15-5.15-.21-7.73q-.16-7.44-.32-14.9c-.21-10-.46-19.94-.86-29.92-.79-19.92-.89-39.92-.87-59.86,0-11.17-.21-22.32,0-33.49,0-.93-1.39-.92-1.44,0-.33,6.63-.73,13.26-1,19.9a.57.57,0,0,0-.43.47,256,256,0,0,0-3.26,25.44c-.6,8.7-.75,17.41-.52,26.12.46,17.45,2.18,34.84,2.19,52.31,0,9.81-.29,19.59-1.2,29.36a1.28,1.28,0,0,0,.39,1.13c-.31,6.13.53,12.39,1.09,18.47.58,6.3,1.37,12.59,2.28,18.85,1.75,11.93,3.94,23.76,6.09,35.62.46,6.1,1,12.19,1.64,18.26.49,4.52,1.12,9,1.85,13.5s1.22,9.52,3.32,13.67a.82.82,0,0,0,1.22.28c.11.91.25,1.82.43,2.71a19.17,19.17,0,0,0,3.91,9,5.82,5.82,0,0,0,3.67,2A10.54,10.54,0,0,0,38,522a21.4,21.4,0,0,1,2.53.21c2.84,0,3.21-2.92,3.06-5.35a4.63,4.63,0,0,0,2.18.33.69.69,0,0,0,.64-.1,6,6,0,0,0,1.64-.59,12.11,12.11,0,0,0,2.66-1.92,9.31,9.31,0,0,0,2,6.42c1.73,2.16,5.32,5.33,7.37,1.72a1.77,1.77,0,0,0-.27-2.06c-.63-.78-1.28-.4-2.06-.27.32-.12.35-.16.09-.11a1.16,1.16,0,0,0,.42-.9,45.4,45.4,0,0,0,0-6.8c-.13-1.05-1.82-1.55-2-.28a38.83,38.83,0,0,0-.37,6.38l-.21-.23A6.38,6.38,0,0,1,54,515.17a1.26,1.26,0,0,0,.2-.58c.58-6-.09-12.21-.29-18.21s-.37-12.14-.51-18.22q-.36-14.22-.52-28.43c.74-4,1.53-7.9,2.4-11.83.37,6.69.58,13.41,1.25,20.06a.37.37,0,0,0,0,.12c0,2.2,0,4.41,0,6.61-.09-1-.18-2-.25-3q-.51-7.35-1.14-14.69c0-.42-.69-.42-.66,0q.6,7.51,1.06,15c.29,4.76.16,9.72.92,14.43a.25.25,0,0,0,.1.17v.11a.31.31,0,0,0,.61,0V465q.93,9.23,2.07,18.42a.4.4,0,0,0,.07.19c.12,4.75.29,9.5.55,14.25.17,3.17.38,6.34.65,9.51a1,1,0,0,0-.48,1c.15,6.29.42,12.57.92,18.84.16,2.11-.19,5.49,1.4,7.16,1.2,1.25,5,1.94,6.15.5a1.3,1.3,0,0,0,.32-1,1.51,1.51,0,0,0,.37-1.11c0-.59,0-1.19-.07-1.78.06.2.12.4.17.6a.86.86,0,0,0,1.22.59,7.94,7.94,0,0,0,.4,1.88c.54,1.45,2.17,1.7,3.52,1.95,2.66.48,5.68.14,7.2-2.09a4.28,4.28,0,0,0,.58,1l.09.12c.15.36.3.72.48,1.07a2,2,0,0,0,3,.48c1.06,1.06,3.27.71,3.07-1.12l-.06-.62c.41-.2.81-.38,1.19-.53h0a.46.46,0,0,0,.37.4c1.81.28,4.68,1.31,6.38.16A3.93,3.93,0,0,0,98,533.17c1.17-1,1.86-2.53,1.09-3.82a.47.47,0,0,0-.11-.13c-.06-1-.15-1.89-.25-2.82a14,14,0,0,0,0-1.83.41.41,0,0,0,.56-.34c0-5.22-.63-10.51-1-15.71q-.39-6.13-.77-12.25a.48.48,0,0,0,0-.22c-.24-6.72-.59-13.43-.91-20.14-.08-1.58-.15-3.16-.21-4.75a.81.81,0,0,0,.07-.33c.3-8.32,0-16.65.08-25,.11-7,0-14-.1-21,.76,1.07,2.62.43,2.78-1,.65-5.88.26-11.87.53-17.79s.76-12.1,1.14-18.15.66-11.86.54-17.81-.64-12-.87-18a309.57,309.57,0,0,1,.47-36.17c.93-12,2.42-23.85,3.59-35.78.66-6.78,1.28-13.57,1.75-20.37C106.69,257.4,106.86,254.59,105,252.76ZM62,2.6a1,1,0,0,0,.45-.86.37.37,0,0,0,.07-.47,1.32,1.32,0,0,1,.89.84c.1.27.19.53.29.79A7.77,7.77,0,0,1,63.93,5a2.81,2.81,0,0,1,0,.29,1,1,0,0,0-.46-.08c-.1-.78-.2-1.56-.31-2.35a.41.41,0,0,0-.6-.24,3.73,3.73,0,0,0-1.45,1.13c-.07-.2-.16-.4-.25-.61A6.66,6.66,0,0,0,62,2.6Zm-.09,4.05a16.28,16.28,0,0,0-.4-1.84s0-.06,0-.09a1.62,1.62,0,0,1,.91-1.18c0,.68.07,1.37.11,2.06a.52.52,0,0,0-.65.54C61.84,6.31,61.85,6.48,61.86,6.65Zm.06,22.67c.59-4.78.29-9.79.23-14.59v-1c.11,2.38.24,4.77.39,7.15.06.94.11,1.89.16,2.84,0,1.85.11,3.69.17,5.54,0,1.3,0,2.61,0,3.92A14.88,14.88,0,0,0,61.46,35c-.06-1.72-.12-3.44-.17-5.15v-.13A.46.46,0,0,0,61.92,29.32ZM60.6,6.09c.72,3.23.38,6.91.4,10.06,0,1,0,1.94,0,2.91,0-.89,0-1.77-.08-2.65C60.79,13,60.57,9.52,60.6,6.09ZM56.52,12.7,56.4,11a.67.67,0,0,0-.13-.35q-.37-3.07-.81-6.14l.17,0,.62-.14a.51.51,0,0,0,0,.22c.4,4.76.72,9.53,1,14.3C57,16.83,56.76,14.76,56.52,12.7Zm.72-8.24a.44.44,0,0,0-.14-.26c.79-.16,1.61-.32,2.4-.54q-.11,1.9-.09,3.84c-.24-.11-.56,0-.54.32q.74,9.93,1.05,19.87C60,31,60,34.25,60,37.54l-.31.62A198.2,198.2,0,0,0,57.24,4.46Zm3.81,105.87.15,1.37c-.06-.42-.11-.84-.16-1.26a1,1,0,0,0,0-.1q-.15-5,0-10c.16,3,.42,6,.71,9A.85.85,0,0,0,61.05,110.33ZM60.5,62a.89.89,0,0,0-.82-.76c-.08-.85-.16-1.7-.22-2.55,0-.27,0-.54,0-.82q.06-4.08,0-8.18c0-2.2-.14-4.4-.25-6.6a.52.52,0,0,0,.34-.49c0-.59,0-1.19.08-1.78a.62.62,0,0,0,.41-.11c0,1.44,0,2.88.1,4.32a32.9,32.9,0,0,0,.18,3.56c0,.91.08,1.81.13,2.72A84.26,84.26,0,0,0,61.24,61c.09.51.88.37.88-.12,0-1.23,0-2.46-.08-3.69,0,0,0,0,0,0,0-6.2-.25-12.4-.46-18.6.45-.61.91-1.22,1.38-1.82.08,2.79.25,5.57.59,8.3.16,2.58.37,5.15.69,7.69.1,1.15.2,2.3.29,3.46,0,.55,0,3.84.23,5.94a.49.49,0,0,0-.35.49c0,1.82.09,3.65.19,5.49a.9.9,0,0,0-.81.51c0-.54-.09-1.09-.13-1.63-.11-1.44-2.36-1.45-2.25,0,.14,1.77.27,3.55.41,5.33C61.42,68.83,61,65.39,60.5,62Zm2.33,35.08a108.58,108.58,0,0,0,.08-11.27c.27,3.23.56,6.48,1.11,9.66.14.82,1.4.6,1.42-.19,0-3-.12-6-.33-9q.56,6.74,1.16,13.48l1.11,12a.56.56,0,0,0-.55.35c-.92,2.54-1.4,5.28-2.11,7.91q-.7-4.65-1.57-9.27c-.47-4.41-.91-8.82-1.18-13.25A.53.53,0,0,0,62.83,97.06Zm2.78,60.67-1.35-14.56c-.11-1.18-.21-2.36-.32-3.54,0-1,0-2,0-3a.44.44,0,0,0-.26-.42c-.37-4.22-.72-8.45-1.13-12.67.56,4.84,1.12,9.68,1.65,14.53q.75,6.85,1.36,13.72c.18,2,.31,4,.48,6.05A.75.75,0,0,0,65.61,157.73Zm.63-26.48c-.37-3.11-.78-6.23-1.23-9.33a.61.61,0,0,0,.63-.45,59.24,59.24,0,0,0,2-7.35l.06.6c.06.63.11,1.26.16,1.89a.48.48,0,0,0-.11.28,27.76,27.76,0,0,0,.27,7.33C67.26,126.52,66.74,128.94,66.24,131.25Zm11.11-22.07.21-1.21,0,1.14A.73.73,0,0,0,77.35,109.18ZM78.13,71a25.14,25.14,0,0,1,2.8-3.12,30.18,30.18,0,0,0-2.73,3.89C78.18,71.5,78.15,71.24,78.13,71Zm.39,4.48-.18-2.09c.86-1.35,1.79-2.65,2.73-4,0,1,0,1.94.05,2.91C80.21,73.34,79.34,74.4,78.52,75.46Zm3.62,25.7c-.26-8.24-.35-16.49-.89-24.71a.49.49,0,0,0-1,0c-.33,3.81-.51,7.63-.6,11.45-.31-3.14-.59-6.29-.88-9.43-.06-.58-.11-1.16-.16-1.74.81-1,1.67-2,2.54-2.88,0,.74.07,1.49.12,2.24a1.11,1.11,0,0,0,2.21,0c.17-1.68.26-3.36.29-5l.18-.19c-.08,6.72-.1,13.45,0,20.16,0,2.79.1,5.58.19,8.37a.47.47,0,0,0-.53.13C83.12,100.05,82.63,100.61,82.14,101.16Zm2.08.41c0,.73,0,1.45.08,2.18a1.44,1.44,0,0,0-.66.07c-.17,0-.24.2-.38.26-.93.45-1,.75-.68-.08S83.74,102.41,84.22,101.57Zm-1.92,4.35a3.47,3.47,0,0,0,1.19-.54c.35-.22.32-.54.28-.22a4.73,4.73,0,0,1-.64,1.16l-.76,1.37C82.35,107.1,82.33,106.51,82.3,105.92Zm.15,4,1.82-3.3.13-.24c.06,1.34.12,2.67.19,4a5,5,0,0,0-1.64.33,4.81,4.81,0,0,0-.46.22C82.47,110.58,82.46,110.24,82.45,109.91Zm.09,2.29a9.39,9.39,0,0,1,2.09-.89c0,.43.05.86.07,1.29a.48.48,0,0,0-.21.17c-.62.83-1.23,1.67-1.82,2.52C82.62,114.26,82.58,113.23,82.54,112.2Zm.24,5.89,0-.69c.66-1.05,1.33-2.08,2-3.1.06,1.14.13,2.28.19,3.42a.43.43,0,0,0-.74,0A26.07,26.07,0,0,1,82.89,120C82.85,119.34,82.81,118.71,82.78,118.09Zm3.56,22.85c.09,1.6.11,3.28.19,5-.48-4.22-1.06-8.42-1.63-12.59-.12-.86-1.2-1-1.82-.6a1,1,0,0,0,.2-.53A86.67,86.67,0,0,0,83,121.75a8.25,8.25,0,0,0,2-3.51q.33,5.87.69,11.73C85.93,133.63,86.14,137.28,86.34,140.94ZM88,34.59c.19.43.85.19.84-.23a2.73,2.73,0,0,0-2.61-2.51,4.19,4.19,0,0,0-2.39.49l.3-1.41c.48.12.93.27,1.21.36a11.93,11.93,0,0,1,2.76,1.15c1.3.83,1,1.7.75,3-.4,2.1-.8,4.19-1.21,6.29-.64,3.31-1.27,6.61-1.91,9.92l-.33-.17a.52.52,0,0,0-.58-.25A9.94,9.94,0,0,0,80,50.86q1.09-5.47,2.22-11a8.15,8.15,0,0,1,1-.15c-.24,1.08-.47,2.16-.71,3.24-.45,2.06-1.23,4.28-1.23,6.39,0,.44.68.68.89.24.88-1.93,1.1-4.24,1.55-6.3l.78-3.56a7.16,7.16,0,0,0,1.6,0,.43.43,0,0,0,.22-.79,3.43,3.43,0,0,0-1.19-.41.51.51,0,0,0-.32-.29c.13-.56.25-1.13.37-1.69l.19,0a3.75,3.75,0,0,0,1.41-.39.5.5,0,0,0-.12-.89,4,4,0,0,0-1.5.08l-1.67.24a.51.51,0,0,0-.43.32c.13-.62.27-1.24.4-1.86C85,33,87,32.39,88,34.59Zm-5.5,4.08L83,36.13a.7.7,0,0,0,.81.75h0c-.11.5-.23,1-.34,1.52l-.56.05A.74.74,0,0,0,82.49,38.67Zm-.88-4.91c.13-.63.23-2.45.71-2.81a1.37,1.37,0,0,1,.94-.17c-.22.78-.44,1.56-.65,2.35-.3.23-.6.48-.87.73a.6.6,0,0,0,.41,1c-.37,1.41-.71,2.83-1.05,4.25l-.55.23C80.88,37.5,81.23,35.62,81.61,33.76ZM80.38,40.4l.11,0,.35-.11q-.75,3.28-1.38,6.58C79.74,44.69,80,42.54,80.38,40.4ZM76.63,54.3c.07,1.54.38,3.12.56,4.6.24,1.9.39,3.83.8,5.69a.61.61,0,0,0,1.2-.16C79,61,77.93,57.52,77.73,54.07c.31,0,.63-.09,1-.12q.1,2.88.37,5.75a17,17,0,0,0,.82,5c.21.5.86.17.91-.25.19-1.75-.34-3.66-.52-5.42s-.3-3.43-.4-5.16a23.94,23.94,0,0,0,4.43-.45c-.12,5.39-.23,10.8-.3,16.2l-.18.15c0-4.71-.36-9.44-.7-14.1C83,54.34,81,54.3,81,55.66c.09,3.56,0,7.14,0,10.72A19.63,19.63,0,0,0,78,69.5c-.43-5.06-.89-10.12-1.5-15.17Zm-2.45.18a1.16,1.16,0,0,0,1.12.26c-.17,2.39-.27,4.77-.31,7.16C74.73,59.43,74.46,57,74.18,54.48Zm-3.44,69.43c.13-.82.27-1.63.42-2.42q1-5.14,1.85-10.31Q74.71,101.1,76,91c.1-.78-1.11-.77-1.21,0q-1.34,10.48-3.11,20.91-.63,3.66-1.32,7.32c-.09-.88-.18-1.76-.26-2.63.11-.39.2-.74.23-.9.18-1,.36-2.07.53-3.1q.51-3.1,1-6.23.85-6,1.51-12c.7-6.51,1.42-13.07,1.8-19.63.19,2.27.37,4.54.56,6.8a.37.37,0,0,0,0,.15c.25,3.14.56,6.28.91,9.41,0,.46.09.92.14,1.38a.53.53,0,0,0-.3.42q-1.35,11-3.29,21.89c-.61,3.42-1.27,6.85-2,10.26-.1.49-.21,1-.32,1.48C70.84,125.65,70.8,124.78,70.74,123.91Zm.27,8q1.26-5.62,2.34-11.29c1.55-8.13,2.78-16.32,3.76-24.54.12,1,.25,2,.41,3,0,1.82,0,3.64,0,5.47a.53.53,0,0,0-.71.43L73.1,126.73c-.57,3.36-1.18,6.73-1.77,10.09C71.23,135.17,71.14,133.52,71,131.87Zm1.51,13.45a23.45,23.45,0,0,0-.7-2.65c.94-5.3,1.72-10.64,2.6-15.94l2.31-13.81c-.64,6.18-1.39,12.34-2.2,18.49q-.73,5.53-1.56,11C72.83,143.41,72.67,144.36,72.52,145.32Zm.66,105.92h0c.15,3.32.3,6.64.43,10C73.49,257.89,73.34,254.57,73.18,251.24Zm1.94,41.38.66-.82c0,.54,0,1.08,0,1.63-.19.24-.38.49-.58.73C75.21,293.65,75.16,293.13,75.12,292.62Zm.24,3,.53-.6.09,2.34c-.14.21-.29.41-.44.61Zm.48,6.27-.09-1-.1-1.42.4-.51c0,.31,0,.61,0,.91,0,.47,0,.93,0,1.4Zm-24.78-90.4c0,.18.06.35.1.53a.56.56,0,0,0,.64.49q-.11,3.54-.18,7.09L51,221.27ZM51,222a.48.48,0,0,0,.57,0c-.14,7.34-.25,14.68-.5,22,0-4.83-.14-9.67-.11-14.5C51,227,51,224.52,51,222Zm4.51-67.69c-.07-.8-.17-1.6-.3-2.39l.31-.17v1C55.52,153.23,55.51,153.77,55.51,154.32Zm1.39.4c0-.55-.08-1.11-.1-1.65,0-.7,0-1.41,0-2.12a4.46,4.46,0,0,0,.43-.33C57.11,152,57,153.36,56.9,154.72Zm-.39-9a.62.62,0,0,0,.46,0l.32-.15a3.63,3.63,0,0,0,.94-.17c.08.72.15,1.45.22,2.17a1.31,1.31,0,0,0-1.05,1l-.6.66c0-.95,0-1.89,0-2.84a.5.5,0,0,0-.41-.45A.67.67,0,0,0,56.51,145.73Zm0,13.75c-.2,2.73-.41,5.47-.6,8.21,0-2.78-.11-5.56-.21-8.34,0-.51,0-1,0-1.56a7,7,0,0,0,.34,1.38A.49.49,0,0,0,56.53,159.48ZM46.34,82.84c-.1-1.92-.19-3.84-.29-5.76a18.12,18.12,0,0,0,.32-2.7c0,.88.05,1.77.08,2.65C46.41,79,46.37,80.9,46.34,82.84Zm0-39.57c0-1.26,0-2.51,0-3.77.06-.55.13-1.11.2-1.66Q46.46,40.55,46.38,43.27Zm4.22,78.49c-.51-4.63-1-9.27-1.6-13.89.25-2,.76-4.09,1.2-6.07.46,5.69.69,11.4,1.11,17.09-.12,3.62.07,7.28.13,10.9Q51,125.77,50.6,121.76Zm.64-23.88-.06-.55c.2-.86.39-1.71.56-2.57.22,4.84.47,9.69.6,14.55C52,105.48,51.62,101.66,51.24,97.88Zm3.65,45a.64.64,0,0,0-.62.69,13.28,13.28,0,0,0-1.65.78v0a.46.46,0,0,0,.13-.35c0-1-.07-2.06-.15-3.1l0-5.07.14-.14c.54-.53,1.14-1.05,1.66-1.62Q54.57,138.48,54.89,142.9ZM54,121.33c.08,3.7.18,7.42.32,11.13A11.63,11.63,0,0,0,52.55,134c0-1.13,0-2.26,0-3.39,0-1.81,0-3.64,0-5.47a.52.52,0,0,0,.32-.49,125.18,125.18,0,0,0-.34-13,.57.57,0,0,0,1-.36C54,105.71,53.36,100,53,94.39s-.47-11.36-.38-17q.23-15.39.47-30.79C54.26,71.46,53.43,96.4,54,121.33ZM51.1,36.06a9.62,9.62,0,0,1,1.38.66c.15,2,.27,4,.39,6a.55.55,0,0,0-.84.45c-.2,10.38-.44,20.76-.63,31.14a.71.71,0,0,0-.4-.48c0-2.13.37-17.23.37-18.73C51.38,48.76,51.26,42.41,51.1,36.06Zm-1,20.46q0,5.1-.15,10.2c0,1.63-.06,3.26-.1,4.9-.45-5.61-.68-11.24-.66-16.86q0-4.23.21-8.44c.09-1.93.4-4,.52-6a.49.49,0,0,0,.2-.11C50.13,45.66,50.11,51.09,50.07,56.52ZM46.94,35.05c1.1.21,2.11.39,3.1.66v.06c0,1.21,0,2.43,0,3.65a.38.38,0,0,0-.15-.09,16.72,16.72,0,0,0-.07-2.13.41.41,0,0,0-.81-.11,22.48,22.48,0,0,0-.69,5.8h0a.54.54,0,0,0,0,1.07h0c0,.56,0,1.12,0,1.67Q48.06,50,48,54.4q0,9,.71,17.92a.61.61,0,0,0,1,.41,3.25,3.25,0,0,0,.39,2.42.68.68,0,0,0,.8.1l.24-.1a.51.51,0,0,0,.23-.25c0,.81,0,1.62,0,2.44-.08,4.73.06,9.45.25,14.16a.45.45,0,0,0-.27.27c-.2.58-.37,1.17-.54,1.77q-.33-2.92-.69-5.83c.25-1.19.49-2.39.71-3.58.09-.47-.6-.68-.72-.2s-.22.83-.32,1.25q-.9-6.71-2-13.37a.53.53,0,0,0-.11-.25q-.09-3-.14-5.94-.27-14.69.11-29.39a.49.49,0,0,0-.78-.39C46.87,35.58,46.9,35.32,46.94,35.05Zm1.93,53.76-.39,1.66c-.08-1-.17-2-.22-2.9-.1-1.91-.19-3.83-.27-5.74C48.3,84.16,48.59,86.48,48.87,88.81Zm-2.14,1.92a.63.63,0,0,0,.3-.07,21.77,21.77,0,0,0,.52,4.46c.15.58.9.39,1-.13,0-.32.07-.64.08-1a.48.48,0,0,0,.21-.31c.13-.64.27-1.28.41-1.92.22,1.94.42,3.89.62,5.84-.25,1.27-.48,2.54-.73,3.79-.18.93-.39,1.88-.58,2.83-.19-1.37-.39-2.75-.6-4.12-.06-.36-.52-.41-.76-.22C47,96.86,46.88,93.79,46.73,90.73Zm.6,12.84c.17,1.71.35,3.41.54,5.11a13.16,13.16,0,0,0,0,1.66.5.5,0,0,0,.25.43c.44,3.9.89,7.79,1.31,11.69.3,2.82.59,5.65.88,8.47h-.07a.18.18,0,0,0,0,.36.18.18,0,0,0,.1,0c.07.72.15,1.44.22,2.16s.15,1.61.21,2.42c-.53.53-1.06,1.07-1.56,1.63.06-1.25.13-2.49.21-3.74,0-.51-.55-.63-.87-.37Q48,118.46,47.33,103.57Zm-.58,62.73a1.73,1.73,0,0,1,1.19.9q.2,8.25.35,16.52c.05,3.21.11,6.43.15,9.65,0,1.55.05,3.09.07,4.64l0,2.15a16.48,16.48,0,0,1,.08,2,.55.55,0,0,0-.44.18,1,1,0,0,0,.57,1.75,1,1,0,0,0,.68-.14q-.82,12.77-.93,25.58c0,4.68-.1,9.39-.07,14.09-1.68-9-3.57-18.06-4.1-27.28-.16-2.87-.22-5.74-.12-8.62,0-1.28.23-2.66.21-4a.38.38,0,0,0,.33-.33c.34-2.4.58-4.81.78-7.23a17,17,0,0,0,1.93-2.74.43.43,0,0,0-.67-.51,10.71,10.71,0,0,0-1.1,1.13c.07-1,.13-2.05.2-3.08a11.71,11.71,0,0,0,1.27-1.27c.28-.34-.07-.9-.49-.64a8.17,8.17,0,0,0-.7.5c0-.67.07-1.33.11-2,.46-.59.92-1.18,1.35-1.79.25-.36-.29-.74-.58-.45s-.46.46-.69.69c0-.29,0-.59.05-.89C46.55,178.86,46.92,172.56,46.75,166.3Zm-.82-.14s0,0,0,.06l-.06,1.14c0-.41,0-.81-.08-1.22Zm-.84,18.4a1.21,1.21,0,0,0,0,.19c-.11,2-.25,3.91-.4,5.87l-.09.07a.46.46,0,0,0,0,.74c-.12,1.46-.23,2.92-.34,4.38l-.34.47C44.22,192.37,44.68,188.46,45.09,184.56Zm-1.28,13.65.33-.4c-.07,1-.14,2.06-.2,3.09l0-.08c-.06-.14-.13-.28-.2-.42C43.74,199.67,43.77,198.94,43.81,198.21ZM2.77,22.43a13.83,13.83,0,0,0-.23-1.59l.32.05C2.82,21.4,2.79,21.92,2.77,22.43ZM14.52,129.37c-.54-4.41-1.16-8.8-1.95-13.19a1.08,1.08,0,0,0-.18-.44c-.13-2-.31-4.07-.46-6.07-.13-1.63-.26-3.26-.42-4.89.42-.44.87-.85,1.32-1.26C13.19,112.15,13.84,120.76,14.52,129.37ZM11.59,99.32a67.08,67.08,0,0,0-.16-11.42c.05.23.09.45.15.67a.87.87,0,0,0,.73.62c.16,4.25.29,8.51.46,12.76a11.51,11.51,0,0,0-1.42,1.21c-.11-1-.23-2.09-.36-3.13A.88.88,0,0,0,11.59,99.32Zm-1.4-39.15a44.35,44.35,0,0,0,0,6,11.91,11.91,0,0,0-4.73,1.56c.06-1,.09-2,.09-3a.87.87,0,0,0,.47.13H6c.07.37.15.75.24,1.12a.52.52,0,0,0,1-.14c0-2,0-4-.1-6.06,1-.35,1.94-.71,2.88-1.14C10.1,59.17,10.13,59.67,10.19,60.17Zm-4.68,2c0,.32.11.63.17.94l-.15.07C5.53,62.84,5.52,62.5,5.51,62.16ZM9,38.87c0,.75.11,1.5.16,2.24.26,3.56.48,7.11.69,10.67-.33,0-.65.06-1,.12-.19-4.11-.73-8.24-1-12.34A1.69,1.69,0,0,0,9,38.87ZM7.87,55.27c.13.6,1.06.45,1.06-.15,0-.4,0-.8,0-1.2.33-.11.67-.23,1-.36,0,.83,0,1.68.06,2.53A24.07,24.07,0,0,0,7,57.19c-.06-.89-.13-1.78-.21-2.66l.86-.24ZM6.55,38.88a.86.86,0,0,0,.15.22,125.94,125.94,0,0,0,.68,13.16l-.72.23C6.34,49,6,45.57,5.68,42.12l0-.09a19.31,19.31,0,0,0,.34-4.7A5.85,5.85,0,0,0,6.55,38.88Zm-1.33-18c.21,2.76.26,5.53.37,8.29,0,1.45.12,2.89.2,4.34-.07-.85-.15-1.7-.2-2.52-.22-3.38-.4-6.72-.92-10.06Zm1,58.85c.24,3.51.4,7,.55,10.55q-.24-4.14-.5-8.28C6,77.7,5.8,73.4,5.44,69.1h.08a14.83,14.83,0,0,0,4.8-.87c.11,1.53.22,3.05.28,4.55.1,2.59.19,5.18.3,7.77,0,.8,0,1.64.07,2.5C10.51,78.52,9.88,74,9.16,69.48c-.15-.9-1.73-.7-1.62.22.64,5,1.08,10.07,1.46,15.13.23,3.1.33,6.22.55,9.33a.35.35,0,0,0-.25.37c.31,3.25.69,6.48,1,9.73l-.38.46c-.24-2.58-.54-5.15-.79-7.67-.59-5.78-1.31-11.53-1.82-17.32C7.27,79,6.17,79,6.22,79.73Zm2.57,43q-.4-6.33-.8-12.66c.18,1.53.4,3,.68,4.55.19,1,1.62.69,1.65-.23a68.08,68.08,0,0,0-.23-7.93c.13-.17.26-.35.4-.52.13,1.36.25,2.73.35,4.09.12,1.78.19,3.56.24,5.34a1.14,1.14,0,0,0-.91,1.15c.08,2.15.21,4.3.36,6.44A1.16,1.16,0,0,0,8.79,122.72Zm6.46,54.11c.22,3.3.41,6.61.59,9.92,0,.63.06,1.28.08,1.95-.67-8.19-1.54-16.35-2.69-24.47a1.06,1.06,0,0,0,.32-.68c.18-3.23-1.08-6.33-1.72-9.46a97.1,97.1,0,0,1-1.45-9.75c-.32-3.1-.57-6.2-.79-9.31a33.79,33.79,0,0,0,1.33,8,.88.88,0,0,0,1.56.26l.06.62c.27,2.64.14,6.08,1.53,8.41a1.34,1.34,0,0,0,2.33-.09l.06.45a.66.66,0,0,0-.27.63c.26,4.07.48,8.14.7,12.22-.31-3-.65-5.92-1-8.88-.15-1.26-2.12-1.32-2,0C14.38,163.38,14.8,170.1,15.25,176.83ZM20,323.8q-.24-2.87-.43-5.74c.62.84,1.25,1.67,1.88,2.5q.33,2.88.71,5.76Zm5.8,6.75c-.21-1.34-.41-2.69-.6-4-.08-.51-.15-1-.22-1.53l.76.92c.14,1.73.31,3.48.54,5.22Zm5,5.92c-.28-.37-.58-.75-.88-1.11-.37-2-.81-4-1.25-6,.75.85,1.51,1.68,2.27,2.51C30.93,333.4,30.88,334.94,30.83,336.47ZM28.7,325.72c-.36-.41-.7-.83-1.06-1.25l-.3-1.52a.92.92,0,0,0-1.4-.51c-.55-.67-1.09-1.35-1.63-2-.35-2.42-.72-4.83-1.14-7.24L27.62,319a56.12,56.12,0,0,0,3.78,4.69c0,1.74.05,3.48.08,5.22C30.54,327.82,29.61,326.78,28.7,325.72ZM11.85,285.08c.21-5.61.51-11.26,1-16.88q-.13,13.35,0,26.7.15,17.93.33,35.86C12.16,315.54,11.3,300.35,11.85,285.08ZM14.46,410c-.78-6.62-1-13.45-2.29-20a1.57,1.57,0,0,0,.91-1.34q.51-6.47.78-12.91l.09,3.81c.07,2.69-.17,5.57.79,8.11a1.58,1.58,0,0,0,1.06,1c.29,5.48.39,11,.53,16.47.2,8.55.7,17.08,1.28,25.61l.51,7.87C16.71,429.06,15.59,419.53,14.46,410Zm44.21,30.07q-.48-5.64-1.15-11.28c.35-1.46.7-2.93,1-4.4Zm-.34-35.2q.09,8.73.17,17.45c-.48,1.34-.9,2.71-1.28,4.09-.41-3.29-.87-6.58-1.36-9.87q.45-3.21.63-6.41a.18.18,0,0,0,.23-.15,64.71,64.71,0,0,0,.47-9.24q.12-4.77.17-9.54c0-1.17,0-2.33,0-3.49.25-.19.48-.4.71-.59l.06-.05Q58.23,396,58.33,404.86Zm-8.5-82.8c0,.63-.1,1.25-.15,1.88-.13-.64-.27-1.28-.42-1.91A.92.92,0,0,0,49.83,322.06ZM39.63,234.5c.17,1.64.36,3.27.54,4.91-.07-.5-.13-1-.2-1.49a.68.68,0,0,0-.68-.58c-.39-4.68-.68-9.36-1-14.05-.31-5.24-.64-10.49-1-15.74a.52.52,0,0,0,0-.23c0-10.15.44-20.27,1-30.39L38.26,188c0,3.7-.07,7.4-.07,11.11a1.48,1.48,0,0,0-.35,1.48.46.46,0,0,0,.35.34A323.46,323.46,0,0,0,39.63,234.5Zm-.11-77.18q0-3.57,0-7.14c0-.18,0-.35,0-.53.07,2.18.13,4.36.2,6.54q.22,6.72.48,13.45c.18,4.59.18,9.24.76,13.8a.6.6,0,0,0,.06.19c0,.59,0,1.19.07,1.79.14,2.69.3,5.39.47,8.08.11,1.72.23,3.44.34,5.17a3.74,3.74,0,0,0-2-.35,3.35,3.35,0,0,0-.87.21C39.11,184.8,39.41,171.05,39.52,157.32Zm-.72-14.16c0,.31,0,.62,0,.92a4.39,4.39,0,0,0-1-1.1C38.15,143.05,38.47,143.11,38.8,143.16Zm-.14,3.91,0,.62c-.47,15.12-1.87,30.25-2.23,45.38-.15-2.48-.31-5-.46-7.45-.44-7.23-.94-14.46-1.35-21.69a.4.4,0,0,0-.79,0q-.18,12.6,0,25.19c-.36-2.9-.74-5.81-1.15-8.71a1.21,1.21,0,0,0-1.17-1c-.1-1.31-.23-2.62-.41-3.91,0-.29-.48-.2-.49.06-.05,1.32,0,2.65,0,4a1.72,1.72,0,0,0-.37.22c0-1,0-2.06,0-3.1q.24-3.94.53-7.91c.18-2.39.38-4.77.59-7.16a.81.81,0,0,0,.69-.84c.09-2.58.12-5.16.11-7.74,0-.32.07-.64.11-1l0,.6a.33.33,0,0,0,.66,0c0-3.43-.1-6.87-.21-10.31h0c.42.11.84.2,1.25.27a2.87,2.87,0,0,0-.4.31.44.44,0,0,0,.31.75,10.48,10.48,0,0,0,2.63-.51C37.8,143.83,38.57,145.86,38.66,147.07Zm-3.18,44.2c.09,1.68.19,3.35.29,5a1.17,1.17,0,0,0-.53.32c-.13.14-.26.3-.39.45,0-1.22,0-2.43-.05-3.65C35,192.7,35.26,192,35.48,191.27Zm-.76-3.22c0-3.77-.07-7.55-.08-11.32.22,3.75.43,7.51.65,11.26A.86.86,0,0,0,34.72,188.05Zm-9.16-106-1,1.64c-.08-1.11-.16-2.21-.25-3.32a15.35,15.35,0,0,1,.46-4.49c.58-1.95,1.93-3.24,2.87-5,.1-.18.21-.38.31-.6,0,.82.09,1.64.14,2.46l0,1.23a.33.33,0,0,0,.14.31c0,.54.07,1.07.11,1.6a.37.37,0,0,0,.42.35v.13a.4.4,0,0,0,0,.13q.91,11.49,2,23a.46.46,0,0,0,.41.45,1.23,1.23,0,0,1,0,.19.28.28,0,0,0-.49.18c.17,8.72.47,17.44.74,26.16q.14,4.44.24,8.9c-.18-3.92-.39-7.82-.58-11.73-.58-12.32-1.45-24.64-1.8-37a.68.68,0,0,0-1.35,0c-.11,2.14-.2,4.28-.25,6.42a20,20,0,0,0-2.18,2.56q-.39-4.89-.77-9.77l1.89-3.17A.63.63,0,0,0,25.56,82.05Zm-1.13-16.6c0,1,.09,2,.14,3-.15.21-.3.41-.46.61a.65.65,0,0,0,.54,1,1,1,0,0,1,0,.17.34.34,0,0,0,.68,0c0-.14,0-.28,0-.42.6-.26,1.47-.61,1.61-.31s-.78,1.49-.95,1.75a17.28,17.28,0,0,0-2.07,3.35l0,.07v-.1c-.07-4.67,0-9.36,0-14a1.38,1.38,0,0,0,.41.18c0,1.19.07,2.38.11,3.57l-.15.34A.78.78,0,0,0,24.43,65.45Zm.95-3.58v0c0-.34,0-.67,0-1C25.59,61,25.56,61.25,25.38,61.87Zm1.07,3.53c.68,0,.79-.44.14.36-.41.51-.8,1-1.19,1.56V65.48C25.75,65.44,26.1,65.41,26.45,65.4Zm3.94,125.06a.62.62,0,0,0-.25,0c0-1.79,0-3.58.05-5.37.16,1.8.32,3.59.47,5.38A.54.54,0,0,0,30.39,190.46Zm.36,1.09c.13,1.45.25,2.91.37,4.36-.35.9-.68,1.81-1,2.72,0-2.22,0-4.43,0-6.65v-.36a.67.67,0,0,0,.26,0A.58.58,0,0,0,30.75,191.55Zm-.65,11.2a1.34,1.34,0,0,0,1.5-.83c0,.34,0,.69.08,1-.47,1.22-.88,2.44-1.31,3.6-.05.15-.15.41-.28.75C30.09,205.78,30.09,204.27,30.1,202.75Zm2.56-85.27c.16,3.81.3,7.61.29,11.42s-.27,7.85-.13,11.75a.9.9,0,0,0,1.16.77c.29.18.58.35.88.5a15.41,15.41,0,0,1-1.87-.29.36.36,0,0,0-.23,0c-.16-5.07-.38-10.15-.55-15.21-.28-8.49-.53-17-.9-25.47C32,106.46,32.42,112,32.66,117.48ZM28.5,19.74c1.52.19,2,.24,2.25,1.84a36.56,36.56,0,0,1,.13,5.64c0,1.88,0,3.77,0,5.65-.08,7.41-.42,14.82-.5,22.24-.14,12.66,1.51,25.41.9,38.07a.31.31,0,0,0-.13,0q-.88-9.93-1.67-19.85c.17-8.33.1-16.66.12-25,0-8.78.29-17.61,0-26.39a.26.26,0,0,0,.28-.2A1.69,1.69,0,0,0,29.5,20c-.19-.23-.53,0-.54.22-.25,5.9-.25,11.83-.22,17.76-.18-3-.38-6-.63-9-.07-.76-.12-1.53-.17-2.3q0-3.5,0-7Zm-.79,46.67.05-.07c0,.62.06,1.24.1,1.86A1.5,1.5,0,0,0,26.53,68C26.92,67.46,27.32,66.94,27.71,66.41Zm-.26-7.49c.06,1.73.13,3.47.21,5.2a4.24,4.24,0,0,0-1.78,0,23.18,23.18,0,0,0,1-2.43,1.85,1.85,0,0,0,.17-1.24c-.25-.7-1.1-.74-1.74-.79v-.08a9,9,0,0,1,2.09-.61Zm-.11-39.33c0,.51,0,1,0,1.54a2.44,2.44,0,0,0-1.4-1.72Zm-.16,9c0,3.47-.06,7-.06,10.42q-.54-9.1-1-18.22c1,1.36.8,4.82.91,6.1C27.09,27.4,27.14,28,27.18,28.54Zm-1.73-9.19a.47.47,0,0,0-.31.44Q26.07,38.9,27.4,58l-.12,0a5.08,5.08,0,0,0-2,.21c-.14-4.56-.37-9.13-.55-13.67C24.39,36,24,27.54,23.34,19.09ZM22.71,19c.37,8.49.86,17,1.18,25.47.18,4.7.24,9.42.34,14.13l-.37.22c0-13.42-.17-26.82-2.89-40ZM22.65,100c-.09-.42-.17-.84-.26-1.27a.46.46,0,0,0-.36-.37l-.09-3.61L21.7,84Q21.45,73,21.21,62l0-.75c.49,8.7.93,17.41,1.27,26.11a.54.54,0,0,0,0,.6q.23,5.83.38,11.66A.78.78,0,0,0,22.65,100ZM23,61.83q-1.39-20.28-2.46-40.57C23,34.66,23,48.24,23,61.83Zm.8,36.42q-.07-3.27-.17-6.53a.31.31,0,0,0,0-.1c0-1.23-.07-2.45-.11-3.67,0,0,0,0,0,0l0-.06c.21,3.12.49,6.23.89,9.33C24.22,97.55,24,97.89,23.8,98.25Zm5.51,79.69q-.19,3-.34,5.95c.05-5.94.21-11.88.52-17.81Q29.39,172,29.31,177.94Zm-.43-17.33c-.07-1.21-.13-2.41-.16-3.59-.16-5.81-.32-11.63-.51-17.44-.36-11.51-.48-23.06-1.63-34.52a.81.81,0,0,0-1.61,0l0,.56c-.14-1.78-.28-3.57-.41-5.35a1.09,1.09,0,0,0-.15-.46l.35-.51c.09.62.18,1.24.28,1.86s1,.41.95-.13c-.09-1-.17-2.08-.25-3.12.66-.92,1.31-1.84,2-2.77-.16,9.49.22,19,.55,28.48.35,9.72.55,19.47,1.32,29.16C29.29,155.38,29.06,158,28.88,160.61Zm3.9,199.92.09,1.05-.08.1C32.79,361.29,32.78,360.91,32.78,360.53Zm.6-38.17q-.3-4-.57-7.92L33,316c.35,2.43.52,5.07,1,7.54C33.85,323.12,33.62,322.74,33.38,322.36Zm1,2.31c.11.39.22.77.35,1.15.18,2.36.38,4.72.64,7.08-.45-.44-.89-.87-1.28-1.29q-.22-3.18-.46-6.37A.9.9,0,0,0,34.34,324.67Zm-1.5,40.83a1.3,1.3,0,0,0,.37-.31l0-.05c.18,1.47.38,2.94.62,4.39a.14.14,0,0,0,0,.07l-1,1.41C32.87,369.17,32.86,367.34,32.84,365.5Zm.43,15.63a1.06,1.06,0,0,0,1.54-.45q1.29-2.48,2.73-4.86A19.16,19.16,0,0,0,40,371.24a1,1,0,0,0-1.68-1c-2.36,1.89-3.82,5.3-5.11,8.15L33,374.62a1.25,1.25,0,0,0,.23-.23l2.82-3.92a14,14,0,0,0,2.42-3.79c.23-.76-.72-1.6-1.43-1.1a6.55,6.55,0,0,0-1.33,1.35c0-1.63.05-3.27,0-4.91a1.34,1.34,0,0,1,.11-.14,18.69,18.69,0,0,0,2.51-3.57c.32-.76-.42-1.89-1.29-1.29a9.21,9.21,0,0,0-1.43,1.29c0-.88-.07-1.77-.11-2.66l.68-.82a1.2,1.2,0,0,0,0-1.64,1.24,1.24,0,0,0-.83-.34c-.25-4.24-.56-8.48-.8-12.69-.09-1.58-.19-3.15-.29-4.73a19.31,19.31,0,0,0,1.5,1.37c.74,5.7,1.65,11.38,2.6,17,2.12,12.6,4.6,25.13,7.12,37.66.84,4.17,1.65,8.35,2.54,12.51a.43.43,0,0,0,0,.17q0,5.58.07,11.18l-.09.05-.61.49v-.22l.18-.24a.39.39,0,0,0-.2-.56c0-.53,0-1.06,0-1.58-.18-5.86-.57-11.71-1.13-17.54,0-.42-.69-.43-.65,0,.5,5.44.85,10.9,1,16.37a1,1,0,0,0-.15-.32c0-.15,0-.3,0-.46l.05-.09a.45.45,0,0,0-.1-.55c-.09-1.23-.19-2.46-.29-3.69a.42.42,0,0,0,0-.48c-.46-5.5-1-11-1.42-16.46-.08-1-1.57-1-1.51,0,.11,2.08.21,4.17.31,6.25h0c-.52.38-1,.79-1.55,1.2,0-2.21-.1-4.42-.16-6.63.78-.67,1.57-1.35,2.34-2,1-.88-.45-2.25-1.43-1.43l-1,.86c0-.69,0-1.39-.08-2.08h0a.46.46,0,0,0,0-.63q-.22-6.84-.5-13.67a.47.47,0,0,0-.94,0c-.07,2.85-.14,5.7-.19,8.56-1,1.11-2,2.27-2.94,3.46,0-.81-.09-1.61-.13-2.42.8-1,1.58-2.09,2.34-3.17.21-.3-.27-.57-.48-.29-.74,1-1.48,1.95-2.24,2.91a.57.57,0,0,0-.83.53V382c-.71.88-1.44,1.77-2.18,2.63ZM45.66,486.65c-.07-.77-.15-1.54-.21-2.31l1.24-2,.09,2.42Zm1.16-.17c0,1.27,0,2.55.07,3.83l-.77,1.32-.33-3.54C46.12,487.55,46.47,487,46.82,486.48Zm-1.1,18.06c-.28.6-.56,1.19-.85,1.78-.58.64-1.17,1.27-1.76,1.9.76-1.71,1.58-3.4,2.42-5.07C45.59,503.62,45.66,504.08,45.72,504.54Zm-.42-22c0-.69-.11-1.38-.17-2.07.46-.75.94-1.49,1.43-2.23,0,.72,0,1.43.07,2.15C46.18,481.15,45.74,481.87,45.3,482.59ZM44,468.42c0-.46-.09-.91-.13-1.37.69-1.26,1.39-2.51,2.11-3.75,0,.52,0,1,.07,1.55C45.39,466,44.71,467.22,44,468.42Zm.06,23.43a.54.54,0,0,0-.33-.1.58.58,0,0,0-.19,0c.14-.25.29-.49.44-.74C44.05,491.31,44.07,491.58,44.1,491.85Zm1.24-46.72.06,1.79c-.65,1.15-1.27,2.31-1.92,3.43l-.85,1.52q-.08-1.26-.12-2.52A39.32,39.32,0,0,0,45.34,445.13Zm-2.92,1.44,0-1.84.87-1.5c.37-.62.76-1.23,1.15-1.85l.81-.92c0,.75,0,1.5.05,2.24l-.62,1A32.26,32.26,0,0,0,42.42,446.57Zm1.74,4.17c.42-.73.85-1.45,1.3-2.18l0,1.11c-1,1.51-1.86,3.08-2.71,4.68v-.07c0-.33,0-.67-.06-1C43.19,452.43,43.67,451.59,44.16,450.74Zm-.29,3.57c.54-1,1.11-1.91,1.69-2.85,0,.18,0,.35,0,.53-.61,1.08-1.19,2.18-1.76,3.25-.29.53-.56,1.07-.84,1.61l-.06-.81C43.23,455.46,43.54,454.88,43.87,454.31Zm.47,1.61c.41-.78.85-1.54,1.3-2.31,0,.92.07,1.83.1,2.75q-1.27,2-2.45,4.16c-.06-.75-.13-1.49-.19-2.23C43.5,457.5,43.91,456.71,44.34,455.92Zm.13,4.33c.44-.75.89-1.49,1.34-2.23l.15,3.72q-1.14,1.93-2.18,3.95c-.12-1.21-.23-2.41-.35-3.62C43.78,461.46,44.12,460.85,44.47,460.25Zm1.67,6.07c0,.58,0,1.16.07,1.74-.66,1-1.29,2.1-1.9,3.18,0-.48-.09-1-.14-1.44C44.84,468.64,45.5,467.48,46.14,466.32Zm-1.62,6.28c.56-1,1.16-1.93,1.75-2.89l.06,1.89c-.6.8-1.18,1.63-1.75,2.47,0-.45-.08-.91-.13-1.36Zm1.86.41.12,3.63c-.51.76-1,1.54-1.49,2.34l-.3-3.51Zm.25-12.37c-.05-1.23-.09-2.47-.14-3.7,1-1.64,2.08-3.26,3.08-4.91,0,1.42,0,2.84,0,4.26C48.55,457.68,47.56,459.14,46.63,460.64Zm-.2-5.34-.12-2.83c1.1-1.85,2.22-3.71,3.14-5.65.09-.19-.15-.43-.31-.24a32.71,32.71,0,0,0-2.9,4.24c0-.14,0-.29,0-.44.84-1.36,1.66-2.72,2.39-4.13.14-.26-.23-.6-.44-.34-.71.89-1.38,1.82-2,2.77,0-.38,0-.77,0-1.16a61.53,61.53,0,0,0,3.1-5.54.3.3,0,0,0-.51-.31A43.05,43.05,0,0,0,46,445.85c0-.6,0-1.21-.09-1.81l.21-.42a.53.53,0,0,0,0-.41A41.94,41.94,0,0,0,49.29,438c.13-.26-.21-.57-.43-.33a29.77,29.77,0,0,0-3.08,4.21c0-.64-.07-1.29-.11-1.94a38.06,38.06,0,0,0,3.77-5.35c0,5.46.06,10.91.12,16.37C48.45,452.33,47.41,453.79,46.43,455.3Zm3-31.77a.47.47,0,0,0-.3.11l-.15.12c0-2.44-.1-4.89-.13-7.31,0-3.1-.05-6.21-.08-9.32.23,1,.47,2.05.72,3.07Q49.45,416.86,49.43,423.53Zm-.57,5.2c.06-.87.09-1.73.11-2.6.15-.22.31-.44.46-.67v7.67a1,1,0,0,0-.88-.24c.11-.19.2-.38.29-.57a.24.24,0,0,0-.37-.29,22,22,0,0,0-3.94,4.83c-.76.91-1.48,1.85-2.19,2.82v-1.95c2-2.25,4.1-4.48,6.09-6.79a.32.32,0,0,0-.45-.45c-.94.84-1.85,1.71-2.74,2.61a22.58,22.58,0,0,0,1.4-2.2.25.25,0,0,0,.5,0c.11-.9.19-1.82.25-2.74.27-.33.54-.65.8-1,0,.52.06,1.05.11,1.58A.28.28,0,0,0,48.86,428.73Zm-10.36,23c1-1.77,1.93-3.53,2.93-5.28l.09,1.49c-.91,1.38-1.76,2.81-2.61,4.21a.59.59,0,0,0,.32.83l-.76,1.36c-.1-.81-.19-1.61-.29-2.42A.33.33,0,0,0,38.5,451.69Zm-.44-.82c-.11-.87-.21-1.75-.31-2.62l.37-.56a.67.67,0,0,0,.69-.2c.82-.9,1.67-1.8,2.52-2.72,0,.07,0,.13,0,.2Q39.66,447.9,38.06,450.87Zm3.31-.05.28-.36c0,.22,0,.43,0,.65l.09,2.26q-1.43,2.53-2.82,5.09l-.33-2.82C39.52,454,40.44,452.42,41.37,450.82Zm-2.17,8.74c.87-1.58,1.75-3.15,2.63-4.73,0,.42,0,.84.05,1.26-.91,1.78-1.76,3.57-2.59,5.33,0-.26,0-.52-.08-.77s-.08-.64-.11-1A.34.34,0,0,0,39.2,459.56Zm4.53-55.9c.06,1.27.12,2.55.19,3.82L42,408.89c0-.88,0-1.77-.05-2.66A12.46,12.46,0,0,0,43.73,403.66Zm-1.79,1c0-.19,0-.37,0-.56l1-1.08A7,7,0,0,1,41.94,404.69Zm1.59-4.1-1.64,1.55c0-.18,0-.35,0-.52,0-.53,0-1.05,0-1.57.55-.55,1.09-1.11,1.61-1.68,0,.73.07,1.46.1,2.19Zm-4,62q1.14-2.39,2.36-4.72l0,1q-1.26,2.55-2.41,5.13c0-.4-.08-.81-.12-1.22A.32.32,0,0,0,39.57,462.61Zm.21,2.7q1.06-2.43,2.23-4.83l.06,2.29q-1.16,2.21-2.23,4.41c-.05-.58-.1-1.16-.16-1.74A.34.34,0,0,0,39.78,465.31Zm2.28-54.16c0-.38,0-.75,0-1.12l1.62-1.21Zm2-1.29c0,.79.09,1.58.14,2.38-.58.58-1.16,1.15-1.73,1.73l-.37.29c0-.52,0-1,0-1.54Zm.31,5,.15,2c-.81.69-1.58,1.41-2.33,2.16,0-.2,0-.39,0-.59C42.94,417.25,43.67,416.07,44.38,414.87Zm.22,2.95,0,.35c-.43.59-.86,1.2-1.29,1.8l-1.05,1.12,0,.06c0-.35,0-.7,0-1C43,419.31,43.78,418.55,44.6,417.82Zm-1.35,4.23c.51-.53,1-1.06,1.57-1.59,0,.43.09.85.13,1.27-.91.84-1.8,1.69-2.67,2.57,0-.41,0-.83,0-1.25Zm1.77.43v.15q-1.34,1.83-2.72,3.63c0-.38,0-.75,0-1.13C43.17,424.22,44.08,423.33,45,422.48Zm.11,1.14c.12,1.12.24,2.24.38,3.36-1,1.06-1.93,2.17-2.87,3.29l-.3.34c0-.94,0-1.88,0-2.82,0-.16,0-.31,0-.46C43.28,426.1,44.21,424.87,45.13,423.62Zm.75,6.19c0,.19,0,.38.07.56a.58.58,0,0,0,.11.25,31,31,0,0,0-3.71,4.88v-2l1.73-1.82C44.68,431.08,45.29,430.45,45.88,429.81Zm.59-17.12a.64.64,0,0,0,.1-.26l0,.87c0,.6,0,1.21,0,1.82C46.58,414.31,46.53,413.5,46.47,412.69Zm1.64,11.78-.58.52c0-1.59,0-3.17,0-4.76a.24.24,0,0,0,0-.23l-.06-2.31c.22-.26.44-.53.65-.8C48.12,419.41,48.07,422,48.11,424.47Zm-8.42-36c0,.51,0,1,0,1.51l-2.33,2.1,0-.67C38.1,390.41,38.9,389.42,39.69,388.44Zm-2.51.6L37,385.31c1-1.18,1.94-2.38,2.84-3.61,0,1.49-.06,3-.08,4.47C38.83,387.08,38,388.07,37.18,389Zm2.44,5.44v0c-.55.27-1.09.56-1.6.87.55-.7,1.09-1.42,1.61-2.15,0,.19,0,.37,0,.55A.52.52,0,0,0,39.62,394.48ZM38.86,396c-.38.72-.78,1.44-1.19,2.14,0-.45-.05-.91-.08-1.36C38,396.52,38.43,396.27,38.86,396Zm.74.64c0,.92,0,1.85,0,2.78-.6.54-1.18,1.08-1.77,1.64l-.06-1.23C38.41,398.81,39,397.75,39.6,396.66Zm0,6.1v1.52l-.19.18-1.33,1.18c0-.23,0-.46,0-.7Zm0,3.84c0,.41,0,.82,0,1.24l-.37.52c-.32.45-.65.9-1,1.36L38.19,408C38.67,407.56,39.14,407.08,39.61,406.6Zm0,2.82c0,.4,0,.81,0,1.21l-1.29,1c0-.12,0-.25,0-.37Zm0,2.35c0,.91,0,1.82.06,2.74-.39.55-.77,1.11-1.16,1.67,0-1.16-.1-2.32-.16-3.48Zm.16,7,.06,1.51c-.35.53-.7,1.06-1.06,1.58,0-.32,0-.65,0-1l-.06-1.2Zm.13,3.79c0,.31,0,.62,0,.92-.35.37-.7.73-1,1.1,0-.26,0-.52,0-.78Zm.15,3.46,0,.54c-.36.39-.72.79-1.06,1.19v-.13Zm.07,1.39c0,.48.05,1,.07,1.45l-1.12,1.38q0-.78,0-1.56C39.47,428.27,39.82,427.85,40.19,427.43Zm-3.91-25.11-.44.35.43-.59Zm-2.87-17a.28.28,0,0,0,.32-.09c.64-.75,1.26-1.5,1.88-2.26,0,.82.06,1.65.08,2.48-.72.93-1.44,1.86-2.17,2.78C33.48,387.27,33.45,386.3,33.41,385.33Zm.15,4.09,0,0c.71-.87,1.43-1.73,2.16-2.6,0,1.25.09,2.49.13,3.74L33.69,393C33.64,391.8,33.6,390.61,33.56,389.42Zm.16,4.46,2.18-2.4v.11l-2.18,2.66C33.73,394.13,33.72,394,33.72,393.88Zm.09,2.43a.88.88,0,0,0,1.23.1l1-.84,0,.7c-.58.67-1.17,1.33-1.78,2l-.39.36Zm.15,3.61c.33-.32.65-.65,1-1s.79-.72,1.2-1.05l.09,2.59c-.66,1-1.37,1.95-2.11,2.88Zm.29,6.17a.87.87,0,0,0,1-.12l1.09-1c0,.19,0,.38,0,.58l-2,2.85ZM35,420.41c-.2-3.2-.39-6.41-.55-9.62.62,0,1.43-.6,2.06-1.18,0,.79.07,1.58.1,2.37l-1.41,2c-.27.37.27.92.64.64l.85-.63c.07,1.54.13,3.08.2,4.62l-.29.41C36.11,419.46,35.58,419.94,35,420.41Zm.15,2.22L37,421.11c0,1.07.09,2.15.14,3.23-.51.76-1,1.51-1.55,2.27-.27.39.37.9.67.52l1-1.21c0,.16,0,.31,0,.47l-.91,1c-.55.58.32,1.45.88.88l.12-.13c0,.24,0,.48,0,.73-.52.85-1,1.71-1.52,2.57Q35.5,427,35.19,422.63ZM36,432.82v-.05c.49-.71,1-1.4,1.52-2.09l.12,1.37c-.5.6-1,1.2-1.54,1.8C36.09,433.51,36.05,433.16,36,432.82Zm.19,1.86h0l1.53-1.77.12,1.13a.63.63,0,0,0,1.25,0c0-.92,0-1.85,0-2.78l1.17-1.43.18,3-4,4.73C36.4,436.58,36.3,435.63,36.21,434.68Zm.87,7.91c-.14-1.19-.28-2.38-.41-3.57a.64.64,0,0,0,.63-.21l3.37-3.53c.06.81.12,1.63.17,2.44L40,439C39,440.19,38,441.39,37.08,442.59Zm.21,1.86c.91-1.41,1.83-2.79,2.77-4.18l.89-1,.15,2.15c-1.2,1.72-2.36,3.46-3.53,5.11,0,0,0,0,0,.05C37.46,445.87,37.38,445.16,37.29,444.45Zm3.1,72.39a14.16,14.16,0,0,1-.29,1.46c-.07-.16-.64-.24-1.25-.28-1.21-7.07-2.16-14.32-4.07-21.24a.91.91,0,0,0,.17-.91,8.67,8.67,0,0,1-.4-2.05,39.59,39.59,0,0,0,1.87,6.45.85.85,0,0,0,1.48.2c0,.13,0,.26,0,.38.37,5.08.6,10.64,2.22,15.5a1.76,1.76,0,0,0,.25.47ZM40,468.67q1-2.12,2.16-4.2c0,1.42.09,2.83.14,4.25-.63,1.31-1.24,2.64-1.83,3.95-.16.34.35.64.5.29.45-1,.91-1.93,1.39-2.87l.06,1.36-2,3.61Q40.22,471.87,40,468.67Zm.51,7.49q1-1.7,2-3.39c0,.57,0,1.15.09,1.73-.67,1.27-1.31,2.55-1.95,3.81C40.56,477.59,40.52,476.88,40.47,476.16Zm.18,3.41c.65-1.23,1.31-2.45,2-3.66,0,.34,0,.67.07,1-.69,1.08-1.36,2.17-2,3.25Zm.09,1.81c.67-1.06,1.36-2.1,2.06-3.14.11,1.33.23,2.67.35,4-.77,1.42-1.5,2.85-2.2,4.26C40.89,484.79,40.82,483.08,40.74,481.38Zm.29,7c0-.12,0-.24,0-.35.73-1.46,1.49-2.89,2.27-4.31.06.68.13,1.36.2,2-.82,1.47-1.61,2.93-2.39,4.38Zm.1,2.72a.35.35,0,0,0,.44-.18c.66-1.22,1.35-2.41,2.06-3.6.08.77.16,1.55.25,2.33q-1.34,2.24-2.62,4.5C41.21,493.15,41.17,492.14,41.13,491.12Zm.2,4.54c.62-1.08,1.24-2.17,1.88-3.25a.56.56,0,0,0,1,.32c.07.63.14,1.25.22,1.88-1,1.71-1.92,3.44-2.84,5.19C41.48,498.42,41.4,497,41.33,495.66Zm.42,6.57c0-.34,0-.68-.07-1q1.41-2.67,2.89-5.31l.21,1.68-.48,1-.6.63a1,1,0,0,0-.23,1.1c-.52,1.11-1,2.21-1.55,3.3l0,.09C41.84,503.2,41.79,502.72,41.75,502.23Zm.65,5.49c-.17-1.25-.34-2.51-.48-3.77a.39.39,0,0,0,.71.06c.48-1,1-2,1.5-3a.87.87,0,0,0,1.07-.21c0,.19,0,.39.08.58C44.26,503.47,43.31,505.61,42.4,507.72Zm1.05,6h-.27c-.06-.59-.13-1.18-.2-1.77l.49-1A30.66,30.66,0,0,0,46,508.59a41.42,41.42,0,0,0,.24,4.4A3.81,3.81,0,0,1,43.45,513.73Zm2.95-19.3c0-.48-.1-1-.14-1.44l.65-1.06,0,1.51C46.76,493.77,46.58,494.09,46.4,494.43Zm.53-25.22c0-.17,0-.35,0-.52.85-1.37,1.68-2.74,2.42-4.16a.28.28,0,0,0-.48-.28c-.69.91-1.36,1.85-2,2.82,0-.65,0-1.29-.07-1.94.56-1,1.1-2.08,1.62-3.13a.24.24,0,0,0-.41-.24c-.43.66-.85,1.33-1.25,2l-.06-1.58c1-1.67,2-3.33,2.94-5q.12,8.52.29,17.05l0,1.5c-.93,1.19-1.81,2.43-2.65,3.7,0-.71,0-1.42-.08-2.13.84-1.27,1.68-2.53,2.42-3.85.15-.27-.22-.59-.44-.34-.71.82-1.39,1.69-2,2.59,0-1.22-.09-2.43-.13-3.65.64-1,1.26-1.93,1.87-2.91.13-.23-.2-.5-.38-.29-.53.61-1,1.25-1.54,1.9C47,470.23,47,469.72,46.93,469.21Zm2.83,11.28a24.11,24.11,0,0,0-2.32,3.19l-.09-2.41c.89-1.43,1.77-2.87,2.62-4.32,0,1.17.05,2.33.08,3.5A.2.2,0,0,0,49.76,480.49Zm.3.49.12,4.78a.23.23,0,0,0-.29.07,28.12,28.12,0,0,0-2.24,3.2c0-1.2-.11-2.4-.15-3.6A35.3,35.3,0,0,0,50.06,481Zm-2.75,22.39c-.11-1-.21-2.05-.32-3.08.08-.14.15-.29.23-.44,0,.61.09,1.21.16,1.81a.27.27,0,0,0,.53,0c.05-1.09.07-2.19.07-3.28.57-1.1,1.12-2.21,1.67-3.32l.18-.25a.52.52,0,0,0,.12-.36l.09-.18a.31.31,0,0,0-.48-.38.68.68,0,0,0-.81.09l-.84.83,0-.88c.64-1.25,1.26-2.5,1.83-3.76a.32.32,0,0,0-.55-.33c-.48.7-.93,1.42-1.37,2.14l-.06-1.35c.88-1.38,1.74-2.77,2.47-4.21.07,2.72.14,5.45.22,8.17,0,1.63.09,3.26.14,4.89a17.76,17.76,0,0,0-2.07,2.41C48.09,502.38,47.7,502.87,47.31,503.37ZM47,345.71l.54,2.24a21.44,21.44,0,0,0-1.31,3.89c-.16-.64-.32-1.29-.47-1.94C46.16,348.5,46.59,347.11,47,345.71Zm-1.85,1.5c-.09-.41-.17-.81-.25-1.21.45-1.27.91-2.54,1.29-3.83,0,.15.06.29.1.44.07.34.15.68.23,1A25.85,25.85,0,0,0,45.13,347.21ZM48,350q1.11,4.49,2.33,9a.41.41,0,0,0,.34.32c-.07,1.68-.14,3.37-.2,5a2,2,0,0,1-.09-.47.33.33,0,0,0-.28-.29A72,72,0,0,1,46.77,354C47.15,352.62,47.61,351.27,48,350ZM51,510a3.2,3.2,0,0,0-2,.79c0-.42,0-.84,0-1.27a7.9,7.9,0,0,0-.52-3.42v0a32.64,32.64,0,0,0,2.34-2.66l.06,1.5c.08,1.63.13,3.27.22,4.9A.57.57,0,0,0,51,510Zm-.18-153.19c-.76-3-1.48-6.09-2.18-9.14v0a.4.4,0,0,0-.1-.37c-.48-2.12-1-4.25-1.41-6.37q-1-4.46-1.83-8.93l-.81-4.12c-.14-.74-.11-1.74-.88-2.09a.52.52,0,0,0-.68.18l-.07.11a.48.48,0,0,0,0,.49l.07.13a.43.43,0,0,0,.3.22,17.93,17.93,0,0,1,.53,3.34c.25,1.37.52,2.75.8,4.12q.57,2.85,1.19,5.68a34.23,34.23,0,0,0-1.31,3.56c-1.11-5.68-2-11.4-3.29-17-.11-.5-1-.4-.91.13a119.47,119.47,0,0,0,2.6,15.41,6.71,6.71,0,0,0-.66-1.48.45.45,0,0,0-.65-.1.58.58,0,0,0-.93.27c-.43,3.16.5,6.33,1.35,9.35a.47.47,0,0,0-.12.44c1.91,9,3.76,18.13,6.5,26.9a.6.6,0,0,0,1.15-.32c-.9-3.85-1.88-7.67-2.87-11.49.11.32.22.65.31,1,.51,1.73,1,3.44,1.58,5.16a.73.73,0,0,0,1.39,0c.44-1.06-.25-2.3-.57-3.33-.05-.18-.11-.35-.17-.53.45.31,1.22,0,1-.68a7.89,7.89,0,0,0-2.44-3.6.72.72,0,0,0-.73-.11,5.43,5.43,0,0,1-.06-.55c0-.41-.68-.55-.76-.1a3.43,3.43,0,0,0,0,1.06c-.81-3.11-1.61-6.21-2.37-9.33a.49.49,0,0,0,.77-.31c.16-.71.33-1.4.52-2.1.17.75.35,1.51.54,2.25a14.15,14.15,0,0,0-.41,5.45c.09.52,1,.41.93-.12a11.94,11.94,0,0,1,.06-3.16,32.7,32.7,0,0,0,3.44,8.19.54.54,0,0,0,.84.07,2.72,2.72,0,0,0,0,.28c-.42,10.72-.67,21.44-.82,32.16-1.34-7.44-2.88-14.85-4.26-22.26C43,362.71,40.8,350.26,38.8,337.76a.88.88,0,0,0,0-.51l-.1-.2c-.59-3.67-1.21-7.33-1.82-11a.94.94,0,0,0,0-.3c.08-3.55-1-7.29-1.46-10.8q-.84-5.76-1.53-11.54Q32.57,292.21,31.71,281c-.57-7.5-1-15-1.31-22.53-.14-3.75-.25-7.51-.31-11.27,0-1.31,0-2.63,0-4a4.46,4.46,0,0,0,.06-1.47.65.65,0,0,0-.07-.21,33.52,33.52,0,0,0-.42-5.14,1.05,1.05,0,0,0,0-.19,2.09,2.09,0,0,1,0-.25,10.84,10.84,0,0,0,.67,2.19.38.38,0,0,0,.37.24,58.24,58.24,0,0,0,.28,6.34c.12,2.28.22,4.55.49,6.81a.66.66,0,0,0,1.32,0,42.67,42.67,0,0,0,.08-7.15,33.38,33.38,0,0,0-.67-6,1,1,0,0,0-.24-.82.64.64,0,0,0-.75-.28q-.54-6.83-1-13.67c0-3-.05-5.92-.06-8.89V214l.21,0c1.19-.24,1.61-1.25,2-2.28.06,1.05.14,2.1.2,3.15.11,1.87.22,3.75.36,5.62s.56,3.73.85,5.62a1,1,0,0,0,.15.42c.21,2,.45,4,.75,6a.32.32,0,0,0,.46.23c0,.81.07,1.62.11,2.43a.33.33,0,0,0-.19.46,6.89,6.89,0,0,1,.26.81c0,.71.06,1.42.1,2.13a.45.45,0,0,0,.89,0,5.84,5.84,0,0,0-.1-2.1c-.16-3.26-.3-6.52-.44-9.78a1.24,1.24,0,0,0,.55-1c.11-1.9.32-3.73.25-5.63s-.19-3.75-.32-5.62q-.36-5.21-.8-10.4c.25-.57.49-1.14.73-1.72.7,11.85,1.23,23.74,2.25,35.57a.57.57,0,0,0,0,.23c0,.38.09.77.13,1.15s.05.55.07.83c.36,3.86.8,7.71,1.36,11.54q1.4,12,2.81,24a.82.82,0,0,0-.88.93c.5,6.77,1,13.54,1.63,20.3.31,3.33.6,6.66,1,10,.27,2.52.39,5.17.92,7.69a.81.81,0,0,0-.14.55l0,.41c-.25-1.23-.51-2.46-.76-3.69-.12-.57-1-.32-.86.24,2.13,12.63,4.54,25.28,7.42,37.77C51,352.18,50.87,354.51,50.78,356.84Zm-9.16-13.35.45,1c.24.52,1.08.25,1.06-.29,0-.3,0-.6-.08-.88.2.9.41,1.81.61,2.72-.14.46-.29.93-.44,1.38s.5.85.88.57l.36,1.67c-.34,1.4-.64,2.8-.92,4.17-.26-1.07-.51-2.15-.75-3.23a.35.35,0,0,0,.08-.29C42.65,348,41.83,345.78,41.62,343.49Zm8.16-6.1a1.34,1.34,0,0,0,1.17-.08c.08,2,.1,4.07.09,6.1Zm3.67,11.09a105.85,105.85,0,0,0-2.38-19.43.38.38,0,0,0-.06-.16l.14,0c.17,0,.24-.19.26-.33l0-.14a.24.24,0,0,0-.09-.22.51.51,0,0,0,.06-.28c.1-.33.2-.66.31-1,.2-.66.39-1.32.58-2s.45-1.48.67-2.22a104.21,104.21,0,0,0,4.36,19.85.49.49,0,0,0,.7.28c0,2.5,0,5,0,7.48,0,6.07,0,12.13,0,18.19q0,8.76.11,17.51l-.48.42-.28.23q0-7.44-.23-14.89a.23.23,0,0,0-.45,0q0,7.74,0,15.48a4.73,4.73,0,0,0-.44.46.33.33,0,0,0,.39.51l0,0c0,.89,0,1.78,0,2.66,0,3.07-.1,6.13-.18,9.19a92.55,92.55,0,0,0-.17,9.85A.21.21,0,0,0,56,410l-.6,3.69c-.23-1.47-.47-2.93-.72-4.39l.06-1c.17-3.18.29-6.37.33-9.55.07-6.5-.15-13-.62-19.46,0-.35-.56-.35-.54,0,.41,6.36.58,12.73.47,19.1,0,2.58-.13,5.16-.26,7.73-.08-.48-.17-1-.25-1.45s-.66-.22-.59.16l.69,4c-.06.73-.12,1.45-.19,2.18-.05-.52-.1-1-.16-1.56,0-.3-.5-.31-.47,0,.13,1.5.25,3,.38,4.51-.09,1.19-.15,2.37-.14,3.55a.28.28,0,0,0,.44.21c.1,1.23.19,2.46.29,3.69q-.61,3.53-1.36,7c0-20,.26-39.95.51-59.93C53.39,361.81,53.59,355.14,53.45,348.48Zm1.65,67.25c-.16,1-.34,2.06-.51,3.09-.1-1.09-.2-2.19-.31-3.28.14-1.09.22-2.19.29-3.29C54.75,413.41,54.93,414.57,55.1,415.73Zm-.2,20.64q-1.08,5-2,9.95c0-1.53,0-3.07,0-4.6,0-3.46,0-6.93-.05-10.39.58-2.21,1.12-4.45,1.61-6.7.24,3.06.46,6.13.67,9.19l.09,1.37C55.07,435.58,55,436,54.9,436.37Zm0-14.16c.23-1.17.44-2.35.64-3.53.44,3.14.86,6.28,1.23,9.43-.37,1.46-.71,2.92-1,4.39Q55.37,427.36,54.9,422.21Zm2.32,35.87a.37.37,0,0,0-.08-.18c.07-7.56-.64-15.19-1.2-22.74.36-1.51.74-3,1.12-4.53q.59,5.36,1,10.71c.29,3.52.36,7.1.71,10.63q.13,10.78.33,21.58C58.55,468.39,57.91,463.22,57.22,458.08ZM98.8,229.28l1.22-.18c-.07,1.87-.21,3.73-.37,5.6a.05.05,0,0,0,0,0l-.84.72C98.8,233.38,98.8,231.33,98.8,229.28Zm-.06,7.52.79-.76-.21,2.06a.37.37,0,0,0-.6-.11C98.73,237.59,98.74,237.2,98.74,236.8Zm-.81-7.41c-.06,2.35-.16,4.69-.26,7l-.44.4c-.1-2.27-.22-4.54-.32-6.81a1.21,1.21,0,0,0-.11-.48Zm-.33,8.49-.06,1.51-.19.24-.06-1.45Zm-1.94,6.88c-.51.73-1,1.48-1.47,2.23,0-.75,0-1.51,0-2.26a.55.55,0,0,0,.71-.16l.61-.81C95.58,244.09,95.62,244.43,95.66,244.76Zm-1.24-15h0a1.34,1.34,0,0,0,0,.21c.3,4.07.54,8.15.93,12.22l-1.15,1.56c0-3.43,0-6.86-.11-10.3,0-1.24-.08-2.48-.13-3.72A1.16,1.16,0,0,0,94.42,229.8Zm-2.87,89.38q.18-20.51.7-41c.14-5.65.26-11.29.4-16.94.34.16.77.09.84-.39a104.43,104.43,0,0,0,.67-12.13.53.53,0,0,0,.19-.18c.55-.89,1.14-1.76,1.73-2.63a.88.88,0,0,0,1.21-.11c0,1.51-.08,3-.09,4.54,0,.46.65.43.7,0,.33-2.7.54-5.41.68-8.13l.19-.3a.35.35,0,0,0-.16-.5c0-.64,0-1.28.07-1.92l.6-.93c-.32,3.05-.68,6.1-1,9.14q-.93,10.06-1.78,20.13c-.11,1.36-.23,2.73-.34,4.09a1.57,1.57,0,0,0-.22.64q-2,20.83-2.47,41.77c-.14,6.86-.09,13.72.08,20.57.07,2.74.17,5.47.28,8.2a.69.69,0,0,0-.38.62c.09,7-.2,14.06-.32,21.08v0a.8.8,0,0,0-.85-.74,53.08,53.08,0,0,0,.06-6.9.6.6,0,0,0-.78-.55c.11-2.23,0-4.5-.07-6.69q0-5.17,0-10.35Q91.47,329.35,91.55,319.18Zm4.5,165.32.24,4.14q-.23-3.11-.49-6.2C95.89,483.13,96,483.81,96.05,484.5ZM87.71,358.57q.23-10.26.69-20.51,0,5.19,0,10.38c0,3.25-.3,6.72.21,10a12.33,12.33,0,0,0-.91.86Zm0,3.41a.63.63,0,0,0,.22-.59c.38-.4.78-.78,1.18-1.15a1.23,1.23,0,0,0,2-.25l-.06,1.28c-.36-.6-1.42-.69-1.57.15-.17,1-.33,2.07-.47,3.11a8.3,8.3,0,0,0-1.35,1.55C87.69,364.71,87.7,363.35,87.7,362Zm2.26,103c0,.31,0,.62,0,.93,0-.31,0-.61,0-.92Zm-1.22-98.08c-.45,3.84-.72,7.7-.94,11.57,0-1.27,0-2.54-.06-3.81,0-2.11,0-4.23,0-6.34.28-.41.56-.81.86-1.19Zm-1.59,17,.06-1.08c0,1.14.05,2.28.08,3.42a.21.21,0,0,0-.17.1Zm-1.37-5.37c.07-2.86.15-5.72.22-8.58a.64.64,0,0,0,.33.07q-.14,5.69-.19,11.37l-.42.33C85.73,380.59,85.75,379.53,85.78,378.47Zm-.36,15.19c0-.86,0-1.72,0-2.57.22-2.65.26-5.33.28-8l.41-.26q-.08,7.28,0,14.55a.42.42,0,0,0,.84,0c.08-3.5.13-7,.17-10.5a.19.19,0,0,0,.19,0c0,.3,0,.61,0,.91a.86.86,0,0,1,0,.16q-.3,6.72-.45,13.45c-.28,13.37-.3,26.76.1,40.13.11,3.79.25,7.57.41,11.36a54.21,54.21,0,0,0,1.29,11.29.94.94,0,0,0,.4.55q.11,4,.34,8c0,.59.07,1.18.11,1.76,0,1.3-.1,2.6-.14,3.9-.45-5.27-1.06-10.54-1.47-15.8q-.9-11.85-1.51-23.7c-.73-13.79-1-27.56-1-41.36a.34.34,0,0,0,.2-.35C85.55,396,85.48,394.83,85.42,393.66ZM80.8,503.37l.07-.07c.43-.64.88-1.26,1.32-1.89l0,.21c.07.88.15,1.76.24,2.65L82,505.36c-.13.32.43.56.57.24v0l.12,1.13c-.3.54-.6,1.08-.91,1.62a.31.31,0,0,0,.54.31l.48-.87c0,.12,0,.25,0,.37-.47.77-1,1.54-1.45,2.3-.2-2-.39-3.91-.56-5.88a.19.19,0,0,0,.07-.18C80.86,504,80.83,503.7,80.8,503.37ZM80.41,479c0-.13,0-.25,0-.38,0-.75.08-1.5.13-2.25l2.09-7.4c.54-1.91,1.16-3.83,1.68-5.77l.15,2.76c-.76,2.06-1.42,4.17-2,6.32a.21.21,0,0,0-.11.18c0,.09,0,.17,0,.25-.6,2.17-1.14,4.36-1.67,6.53A1.48,1.48,0,0,0,80.41,479Zm.15.71c-.08.3-.15.61-.23.91,0-.33,0-.66,0-1a1.1,1.1,0,0,1,0-.18ZM85.84,495a2.64,2.64,0,0,0,0-.29c0-.48-.08-1-.11-1.44.13-.38.27-.75.4-1.13,0,.77.09,1.53.13,2.3Zm.51,1.62.15,2.71-.3.62c0-.85-.11-1.71-.17-2.56C86.14,497.16,86.25,496.91,86.35,496.65Zm-.57-6-.27.23-.06-.85c.15-.4.3-.8.46-1.2v.15c0,.52.06,1.05.1,1.58A.5.5,0,0,0,85.78,490.61Zm-.25-2.95c-.09,0-.16.11-.24.16q-.42-5.83-.69-11.69L85,474.8q.41,6.4.84,12.82A.39.39,0,0,0,85.53,487.66Zm-2.14-7.61c.22-.72.45-1.44.67-2.17.15,3.44.42,6.88.71,10.31a8.77,8.77,0,0,0-.72.63C83.82,485.9,83.6,483,83.39,480.05Zm.41,15.69c-.06.14-.13.28-.19.43l-.06-.8c.07-.12.13-.24.19-.36Zm-1.08-3.59c0,.59.09,1.19.13,1.79l-.38.84c0-1-.1-1.95-.14-2.92A.43.43,0,0,0,82.72,492.15Zm-.08-14.26c0,.54.07,1.07.1,1.61,0,.11-.06.21-.08.32C82.65,479.17,82.64,478.53,82.64,477.89ZM83,496.26c0,.34,0,.67.08,1l-.45,1c0-.44-.06-.87-.08-1.31A7.66,7.66,0,0,0,83,496.26Zm-.32-14.06.15-.48c.16,2.63.32,5.26.5,7.9a3.15,3.15,0,0,0-.22.29C83,487.34,82.8,484.77,82.71,482.2ZM84,474.78c-.26,1-.51,1.91-.76,2.86-.09-1.3-.19-2.6-.28-3.91.09-.32.18-.64.28-1,.25-.84.51-1.67.78-2.51C84,471.76,84,473.27,84,474.78Zm-.51,16.31.09,1.27c-.06.15-.13.3-.19.44,0-.44-.07-.89-.1-1.33C83.32,491.34,83.39,491.21,83.46,491.09Zm1.34-1.78-.6,1.5-.06-.76A6.59,6.59,0,0,1,84.8,489.31ZM85,491l0,.27-.25.3C84.87,491.41,85,491.22,85,491Zm-.57-18c0-1.27-.09-2.54-.13-3.8.1-.29.19-.58.28-.87.07,1.15.14,2.3.2,3.45C84.7,472.2,84.57,472.6,84.46,473Zm-1.84,17.85a7.1,7.1,0,0,0-.3.81v0c-.11-2.35-.21-4.69-.37-7l.27-.88C82.31,486.14,82.45,488.5,82.62,490.86Zm.21,9.63.48-.69c.06.67.11,1.33.16,2L83,502.85c-.05-.53-.11-1.05-.15-1.58C82.86,501,82.85,500.75,82.83,500.49Zm.76,2.69c0,.55.09,1.09.13,1.64l-.42.78c0-.47-.09-1-.14-1.42C83.3,503.84,83.44,503.51,83.59,503.18Zm.23,2.77,0,.49-.4.66c0-.14,0-.28,0-.43Zm0-6.86.22-.31.12,1.38-.23.54C83.89,500.16,83.86,499.63,83.82,499.09Zm.46,2.45c0,.65.11,1.29.17,1.93l-.29.55c0-.63-.08-1.26-.13-1.9C84.11,501.93,84.2,501.74,84.28,501.54Zm.28,3.07c0,.19,0,.38,0,.57l-.33.56c0-.19,0-.37,0-.56Zm-.09-10.48,0-.42c.17-.3.35-.6.54-.89C84.81,493.26,84.64,493.7,84.47,494.13Zm.85.2,0,.41c0,.29.05.58.08.87-.25.36-.51.71-.76,1.06v0c0-.2,0-.4,0-.59C84.86,495.47,85.09,494.9,85.32,494.33Zm.2,2.36,0,.16c-.24.56-.47,1.12-.7,1.68,0-.26,0-.52-.07-.78Zm.14,1.59.21,2.38c-.23.49-.47,1-.71,1.46-.07-.73-.13-1.45-.2-2.18Zm.09,4.11c.07-.15.16-.3.24-.45,0,.28,0,.57.07.85L85.33,504l-.06-.7Zm.42,1.77a119.74,119.74,0,0,1,.42,13.64c-.33-4.17-.73-8.34-1.13-12.51C85.7,504.92,85.93,504.54,86.17,504.16Zm.12-2.79c.09-.18.19-.36.29-.54,0,.34,0,.69,0,1l-.29.46C86.32,502,86.31,501.69,86.29,501.37Zm.23-12.43c-.36-5.19-.72-10.38-1.11-15.57l.33-1.19c.2,1.92.41,3.83.66,5.74q.48,7.69.86,15.41a.39.39,0,0,0-.32.16l-.07.1C86.74,492,86.62,490.49,86.52,488.94Zm.78,5.47c0,1,.1,2.06.14,3.09l-.21.41c-.08-.92-.16-1.85-.23-2.77Zm.2,4.62c0,.46,0,.92,0,1.38l-.1.17c0-.41-.07-.83-.1-1.24Zm.1,2.71c0,.44,0,.87,0,1.31l-.09-1.22A.41.41,0,0,1,87.6,501.74Zm-2.39-35.27c.09,1,.18,2.06.28,3.1l-.3.93L85,467.31C85,467,85.12,466.75,85.21,466.47Zm-.46-5c0,.36.06.72.1,1.08l.18,1.94c-.09.21-.17.42-.26.64-.07-.93-.15-1.86-.23-2.79Q84.66,461.93,84.75,461.5Zm-.86-180.86a11.94,11.94,0,0,0,.67-1.57c0,1.07,0,2.15.07,3.23l-.78,1.19C83.87,282.54,83.88,281.59,83.89,280.64Zm-1.11,2-.06,2.6-.87,1.31a1.64,1.64,0,0,0-.14.22c0-.71,0-1.42-.08-2.13C82,283.93,82.38,283.27,82.78,282.61Zm-2.41,3.62.09,2.31-.23.22c0-.88,0-1.75,0-2.62A.51.51,0,0,0,80.37,286.23Zm-.13,3.41a.8.8,0,0,0,.26-.05c.08,2.08.15,4.16.18,6.23,0,3.28,0,6.57-.06,9.86-.06,2.24-.27,4.51-.34,6.76-.06-1.47-.11-2.93-.17-4.4s-.13-2.87-.19-4.31A108.56,108.56,0,0,0,80.24,289.64Zm-3.53.94a8.42,8.42,0,0,0,1-1.56c0,.61,0,1.21,0,1.82-.33.43-.65.88-1,1.32Zm.18,3.31c.31-.37.61-.74.9-1.13,0,.6,0,1.2,0,1.81-.29.41-.55.86-.81,1.31C77,295.21,76.92,294.55,76.89,293.89Zm.29,3.57.65-.93c0,.56,0,1.12,0,1.68-.25.38-.49.77-.73,1.17,0-.59,0-1.18-.08-1.77Zm-2.05,78a7.88,7.88,0,0,0,2.24-3.1c0,.55,0,1.09.08,1.63a8.35,8.35,0,0,0-1.48,1.6c-.38.46-.78.92-1.18,1.37l-.06-1.32A.63.63,0,0,0,75.13,375.45Zm2.4,0c0,.33,0,.67,0,1l0,0a6.5,6.5,0,0,0-1.68,1.82c-.33.44-.65.88-1,1.33,0-.43,0-.87,0-1.3a.52.52,0,0,0,.39-.18c.56-.61,1.11-1.24,1.64-1.88C77.09,376,77.32,375.77,77.53,375.49Zm-7.08-32.65a4.37,4.37,0,0,0-1.83.48c-.37.15-.72.31-1.07.49a17.3,17.3,0,0,0,.2-1.78,8.64,8.64,0,0,1,1-.36c.55-.15,1.12-.22,1.66-.39ZM67.53,325l.5-.21.36.7c-.33.15-.66.28-1,.42,0-.23,0-.45,0-.68Zm-.2-5.06.68-.31.13.26ZM69,330.24l.13.24c-.21.42-.4.84-.59,1.28H68.2l-.11-.18a.59.59,0,0,0-.48-.3c.27-.63.54-1.26.82-1.89C68.62,329.68,68.81,330,69,330.24Zm-.25-7.17.52-.92c.11.23.22.45.34.68A6.9,6.9,0,0,0,68.74,323.07ZM67.6,333.22a3.21,3.21,0,0,0,.19.31c-.08.2-.16.4-.23.6l0-.91Zm2.8,7a5.39,5.39,0,0,0-2.61.45c0-.5,0-1,0-1.51.48-.16,1-.35,1.45-.47s.77-.17,1.15-.29C70.37,339,70.39,339.57,70.4,340.18Zm-.06-2.95a5.78,5.78,0,0,0-2.63.63c0-.54-.06-1.07-.08-1.6a.53.53,0,0,0,.27-.28c.18-.44.37-.87.58-1.3a4.82,4.82,0,0,0,1.2,1.61.44.44,0,0,0,.64-.13C70.33,336.52,70.34,336.87,70.34,337.23Zm-.07-4c0,.66,0,1.32,0,2a12.84,12.84,0,0,0-.93-1.52l-.23-.37,0-.05C69.54,333.26,69.91,333.25,70.27,333.22Zm-.12-23c0,.59,0,1.17,0,1.76,0-.48-.1-1-.14-1.43Zm0,18.47,0,0c-.1.15-.19.3-.28.45l-.22-.3Zm-1.06-12.18c.21.56.43,1.12.66,1.67-.16.3-.31.61-.46.91l-.07-.15a.71.71,0,0,0-.43-1l-.1,0-.21-.4.11-.18C68.74,317.05,68.91,316.77,69.08,316.49Zm-1.26-.19c-.13-.24-.25-.48-.39-.71.24-.55.48-1.08.73-1.62l.39,1.09C68.29,315.46,68.06,315.88,67.82,316.3ZM66,305.62l0,.14c-.07-.17-.15-.33-.22-.5l.93-1.78c.4,1.47.8,2.95,1.17,4.43-.16.33-.31.67-.47,1L66.54,307l.37-1.13C67.09,305.3,66.23,305.08,66,305.62ZM68.28,311l-.37-.85c.11-.25.22-.5.32-.75.1.39.2.79.29,1.19ZM68,300.59c0,.74.1,1.48.16,2.22l.18,2.52c-.3-1.07-.6-2.14-.94-3.2A6.16,6.16,0,0,0,68,300.59Zm-1.18-4.49c.1,1,.19,2,.3,3a.53.53,0,0,0-.71.08l-.51-1.46c.29-.5.58-1,.86-1.51Zm-1-1.57.7-1.08a.3.3,0,0,0,0-.08c0,.24,0,.47.05.7a8.7,8.7,0,0,0-.91,1.41c0-.28-.08-.55-.11-.83A.27.27,0,0,0,65.86,294.53Zm-1.4,1.64c.11.31.21.63.32.95l-.18.3a.64.64,0,0,0,.58.95c.19.61.38,1.21.56,1.82l-.29.46c-.33.51.23,1,.69.93l0,.13c-.21.41-.41.84-.62,1.24l-.47.91-.64-1.33Q64.45,299.35,64.46,296.17Zm0,11.13a.52.52,0,0,0,.37-.3l.32-.59.3.71c-.07.18-.13.35-.2.52-.16.44.31.71.67.6.28.67.55,1.35.83,2L66,311.92c-.29.64.67,1.19,1,.55.12-.28.24-.56.35-.85.09.23.18.45.26.68-.31.63-.6,1.29-.86,1.95q-1.09-1.94-2.2-3.82ZM67,317.55l-.32,0,.12-.33h0Zm-2.47-4.92c.54,1,1.07,2.09,1.6,3.15,0,.12-.08.23-.13.35a2.15,2.15,0,0,0-1.4.91C64.55,315.57,64.53,314.1,64.51,312.63Zm.11,6.27.38.63-.36.18C64.63,319.44,64.62,319.17,64.62,318.9Zm.06,2.41,1.26-.08-1,.49a.55.55,0,0,0-.22.16C64.68,321.69,64.68,321.5,64.68,321.31Zm1.42,12.63a1,1,0,0,0-.44-.84l.46,0c0,.53,0,1.07,0,1.61Zm0-9.21a.53.53,0,0,0,0,.13v.37c-.07.1-.13.2-.19.3a.47.47,0,0,0,.2.72v.18a.69.69,0,0,0,0,1.19c0,.4,0,.79,0,1.18h0a.65.65,0,0,0,0,1.22c0,.62,0,1.24,0,1.87l-1,.08c.06-2.75-.3-5.57-.38-8.26,0-.36,0-.72,0-1.07a.69.69,0,0,0,.88.23l1.1-.51c.17.31.35.6.52.91-.09.17-.19.34-.29.51l-.4.16A.7.7,0,0,0,66.07,324.73Zm1.31,68c.46,2.85,1,5.71,1.44,8.55a.68.68,0,0,0,.82.54c.09,1.87.18,3.73.26,5.6a.24.24,0,0,0-.39.14c-.24.75-.47,1.51-.68,2.28q-.27-4.21-.61-8.41a7.84,7.84,0,0,0-.08-2,.22.22,0,0,0-.11-.16C67.83,397.06,67.62,394.88,67.38,392.7Zm-2.3,23.18q1-4.53,2-9.06c.15-.7.35-1.43.54-2.19q.26,4,.5,7.92c-.91,3.66-1.64,7.38-2.47,11,0,.23-.1.47-.16.7-.2-2.39-.43-4.78-.67-7.16ZM62,423.29q.95-6.59,1.3-13.2c.2,2.57.39,5.15.6,7.73L62,426.57C62,425.48,62,424.38,62,423.29Zm.08,6.24,2-9.19q.3,3.48.71,6.93-1.35,6-2.64,12.06C62.13,436.07,62.1,432.8,62.06,429.53Zm1.78,94.11c-.17-1.66-.33-3.33-.49-5l.09-.17c.11-.22.2-.45.29-.67a58.21,58.21,0,0,0,.19,6.36c0,.15,0,.31,0,.46C63.91,524.3,63.87,524,63.84,523.64Zm7.53-17.57c0-.33-.05-.67-.07-1a1.12,1.12,0,0,0-1.61-.95c-1.11-24-1.27-48-1.06-72a.38.38,0,0,0-.75,0c-.88,24.62-.25,49.36,1.25,74q.12,9.13.82,18.24a1.56,1.56,0,0,0-.68,0,1.3,1.3,0,0,0-.42.18,1.09,1.09,0,0,0,0-.18c-.08-1.39-.17-2.78-.3-4.16a23.66,23.66,0,0,0-.88-3.79,1.11,1.11,0,0,0-1.3-.86,1.42,1.42,0,0,0,0-.2,1.18,1.18,0,0,0-2-.49,24.21,24.21,0,0,0-.11-3.69c-.27-3-.51-6.07-.7-9.11-.39-6.08-.62-12.17-.77-18.26-.3-12.15-.37-24.31-.51-36.47L62.18,440a.26.26,0,0,0,.44-.12c.85-3.42,1.67-6.85,2.49-10.27.13.92.26,1.84.41,2.76,0,.29.53.22.51-.07-.07-1.74-.19-3.48-.32-5.22.26-1.09.52-2.17.77-3.26.55-2.36,1.15-4.73,1.72-7.11,0,5.18.34,10.36.6,15.54.07,4.33.14,8.67.32,13a.45.45,0,0,0,.9,0c.28-8.88-.26-17.86-.7-26.73-.09-1.81-.19-3.62-.29-5.42.35-1.63.66-3.26.91-4.89.14,3.26.26,6.51.35,9.77.12,4,.19,8.07.24,12.1,0,2.14,0,4.27,0,6.41,0,1.42-.09,2.87,0,4.3q-.5,16.38,0,32.78c.22,6.75.66,13.5.91,20.25C71.66,497.93,71.55,502,71.37,506.07ZM77,521.8a1,1,0,0,0-2,.28,31.5,31.5,0,0,0,.16,5.49.91.91,0,0,0-.64.57,6.93,6.93,0,0,0-.18,2.28c0,.59,0,1.17,0,1.75l-.19,0a49.73,49.73,0,0,1-.85-6.12q-.45-3.48-.82-7c-.25-2.32-.46-4.64-.65-7,1-5.74.72-11.84.55-17.6-.2-6.86-.67-13.72-.92-20.59q-.57-15.72-.32-31.45a.27.27,0,0,0,.21-.2c0-.15,0-.29.07-.43.27,10.53.6,21.07.93,31.6.23,7.45.43,14.91.53,22.36s-.14,15.14-.09,22.72a.43.43,0,0,0,.86,0c.46-7.54.26-15.17.16-22.72q-.08-6.09-.24-12.19a183.16,183.16,0,0,0,2.6,26.08,1.49,1.49,0,0,0-.06.77,126.78,126.78,0,0,1,1.33,12.92C77.27,522.83,77.13,522.32,77,521.8Zm1.52-12a1.27,1.27,0,0,0-1.88-.68c-.41-4.81-1.07-9.6-1.5-14.4q-.7-7.86-1-15.76c-.46-10.52-.44-21.07,0-31.58,0-.33-.49-.33-.51,0Q73,458.65,73.1,470q-.69-20.71-1.65-41.42l0-.06c-.05-3.5-.14-7-.26-10.51q-.28-8.37-.85-16.72a.66.66,0,0,0,0-.2c-.42-5.62-.52-11.28-1-16.9s-.93-11.06-1.34-16.59c-.56-7.33-1-14.68-1.35-22a.55.55,0,0,0,.55,0,12.73,12.73,0,0,1,2-1c.41-.16.87-.25,1.27-.45,0,.22,0,.44,0,.66a8.9,8.9,0,0,0-.95.36c-.67.27-1.33.57-2,.9s-.09,1.53.66,1.14a19,19,0,0,1,1.89-.87c.13-.06.26-.1.4-.15l0,1.33a8.78,8.78,0,0,0-2.6,1.1.61.61,0,0,0,.61,1.06c.65-.39,1.35-.67,2-1l0,1.45a4.45,4.45,0,0,0-1.17.43c-.51.21-1,.44-1.52.66-.79.34-.11,1.54.68,1.17l1.4-.66c.21-.09.44-.19.65-.3,0,.7,0,1.41,0,2.11a.55.55,0,0,0-.43-.11,11.4,11.4,0,0,0-2.44.91.69.69,0,1,0,.54,1.27,12.62,12.62,0,0,0,2.35-1.26c.35,13.41.67,26.9,2.44,40.19a1,1,0,0,0,1.69.55q.93,10,1.27,20.07c.11,3.09.18,6.17.2,9.26a1.39,1.39,0,0,0-1.76,1.2c-.21,4.72.16,9.51.4,14.23s.5,9.49.76,14.24.54,9.25.8,13.88c.14,2.37.31,4.74.49,7.12.09,1.18.15,2.38.28,3.56.06.48.16,1,.21,1.45s0,1.16.25,1.05a1,1,0,0,0,.27,2h.12c0,.41.09.82.13,1.22l0,.58a158.94,158.94,0,0,0,.18,18.9c0,2.34.16,4.68.34,7Q78.67,510.22,78.49,509.77Zm1.05-18.61,0-.17c-.15-1.66-.3-3.32-.42-5,0-1.11,0-2.23.07-3.34a2.2,2.2,0,0,0,.68-.77C79.67,485,79.56,488.06,79.54,491.16Zm.06-34.4q-.42-7.83-1-15.66c-.37-5.21-.62-10.51-1.51-15.67,0-3.36-.1-6.72-.23-10.08-.19-5-.51-9.94-.92-14.9a.53.53,0,0,0,.63-.51,46.15,46.15,0,0,0-1.55-11.84c0-2.3-.06-4.61-.13-6.91a.23.23,0,0,0,.07-.07c.57-.78,1.16-1.53,1.76-2.28.28-.36.61-.7.89-1.08,0,1.05.1,2.1.16,3.15.38,7.18.42,14.48,1.46,21.6a.75.75,0,0,0,.42.61q.25,7.85.63,15.67.22,4.63.49,9.27a82.19,82.19,0,0,0,.67,9c.07.4.68.28.69-.1.1-3.07-.32-6.2-.5-9.26s-.37-6.19-.54-9.28q-.42-7.64-.71-15.27a1.05,1.05,0,0,0,.76-.91c.38-6.38-.14-12.83-.38-19.21s-.5-12.8-.8-19.21q-.9-19-2-38.05c-.25-4.41-.58-8.81-.91-13.21a.44.44,0,0,0,.46-.38,84.68,84.68,0,0,0-.27-10.31c.24-.43.48-.85.71-1.28.07,1.16.17,2.32.31,3.47a.86.86,0,0,0,.42.67c0,.62,0,1.25,0,1.87.09,4.05.21,8.09.33,12.13s.24,7.85.37,11.77a109.32,109.32,0,0,0,.48,11.6c.12.81,1.3.54,1.35-.18a102.19,102.19,0,0,0-.3-11.06l-.42-11.42-.15-3.66a.4.4,0,0,0,.72-.14,52.14,52.14,0,0,0,.67-9.26c.09-3.41.1-6.82.06-10.22,0-2.5-.06-5-.11-7.56.34-.45.63-1,.9-1.41,0,1.58-.08,3.16-.13,4.75-.15,5-.73,10.14-.37,15.1,0,.48.82.67.9.13.73-4.85.51-10,.63-14.88q.07-3.41.13-6.8c.28-.41.57-.81.86-1.22.13,6.4-.08,12.8-.38,19.19s-.68,13-.77,19.52a113.33,113.33,0,0,0,.44,15.5q-.63,17.81-.22,35.61a1.47,1.47,0,0,0-1,1.13.9.9,0,0,0,.23.85l.17.15a.91.91,0,0,0,.38.21l0,.43a6.87,6.87,0,0,0-.12,1.42c-.06.82-.12,1.65-.16,2.48q-.15,2.84-.27,5.67c-.15,3.66-.27,7.32-.34,11q-.18,10.81,0,21.62c.2,13.61.84,27.2,2,40.75-1.09,2.9-1.78,6-2.62,9-.38,1.39-.77,2.78-1.16,4.17.06-.71.13-1.42.2-2.13,0-.18-.25-.17-.27,0-.13,1.21-.24,2.42-.35,3.64l0,.11c0-.6-.05-1.19-.06-1.78,0-1-.06-2-.09-3,1.33-4.4,2.77-8.83,3.66-13.31.07-.33-.43-.6-.58-.25-.29.69-.6,1.37-.92,2a23.13,23.13,0,0,0,.69-2.39.18.18,0,0,0-.34-.1c-1,2.28-1.84,4.56-2.82,6.82C79.81,460.61,79.71,458.69,79.6,456.76Zm.37,7c.53-1,1-2.06,1.5-3.13.31-.6.64-1.19,1-1.78-.85,2.8-1.58,5.65-2.32,8.49C80.08,466.12,80,464.93,80,463.74Zm.28,18.88a.29.29,0,0,0,.32-.23c.12-.48.25-1,.37-1.43a1.15,1.15,0,0,1,0,.26c0,.24.35.24.37,0a2.88,2.88,0,0,0-.14-1.12c.33-1.23.66-2.46,1-3.69,0,1.79,0,3.58,0,5.36-.11.43-.22.87-.34,1.3,0-.31,0-.63-.07-.95a.22.22,0,0,0-.44,0,111.58,111.58,0,0,0,.44,14.14l-.39.8a.44.44,0,0,0,.51.62l.15,1.83c-.43.85-.89,1.7-1.36,2.54,0-.35-.07-.7-.11-1-.16-2.28-.28-4.56-.34-6.85Q80.08,488.4,80.25,482.62Zm.46,35.11c-.08-.91-.15-1.83-.22-2.74a10,10,0,0,0,.13-2.61c0-.55,0-1.1,0-1.65.27,2,.58,4.06,1,6.08A3.5,3.5,0,0,0,80.71,517.73ZM82,516.59l-.57-5.4.09-.09,1.39-2c.08.75.17,1.5.26,2.26.22,1.84.41,3.71.69,5.56A2.07,2.07,0,0,0,82,516.59Zm1.82-6c-.1-.83-.19-1.66-.28-2.49l.37-.56.81,9.61C84.49,515,84.12,512.82,83.86,510.63Zm3.41,12.44v0a1.2,1.2,0,0,0-1.61-.72c-.05-.43-.09-.87-.14-1.3a14.42,14.42,0,0,0-.36-2.41q-.41-5.82-.79-11.64l.37-.56c.48,4.81,1,9.6,1.69,14.37h0v.05c0,.23.39.17.39-.05,0-5.7-.12-11.35-.4-17,.1-.17.2-.34.31-.51.25,4.21.57,8.41,1.1,12.57A.22.22,0,0,0,88,516c0,2.25,0,4.5,0,6.75A1.34,1.34,0,0,0,87.27,523.07Zm1.32-14.71c.24,5.52.38,11.06.71,16.58-.07-.45-.14-.91-.23-1.37a1.17,1.17,0,0,0-.16-.41c0-3.15-.13-6.31-.19-9.43C88.68,511.94,88.64,510.15,88.59,508.36Zm1.55,25.27a.22.22,0,0,0-.14,0,7.62,7.62,0,0,0-1.27.32v0a1.5,1.5,0,0,0,1.22-1c0,.16,0,.32,0,.48a.28.28,0,0,0,.18.22Zm.18-11.54c0,.33,0,.72-.06,1.16-.26-5.68-.69-11.37-1-17-.12-2.34-.24-4.69-.37-7a.43.43,0,0,1,0-.07.22.22,0,0,0,0-.26l-.6-11.44a1,1,0,0,0,.53.13l.39,5.59q.06,4.82.34,9.63C89.94,509.21,90.42,515.64,90.32,522.09Zm.16,10.77c0-1,0-1.9,0-2.86a4.56,4.56,0,0,0,.55,1.27A15.67,15.67,0,0,1,90.48,532.86Zm3,.58a2.2,2.2,0,0,0,.7.6,18.36,18.36,0,0,1-2.86-.38c.22-.49.4-1,.57-1.5a2.08,2.08,0,0,0,.36.2l.15.44c.15.43.93.56,1,0a.77.77,0,0,0,0-.15,4.75,4.75,0,0,0,.65,0h.11s0,.09,0,.14a.29.29,0,0,0,0,.13l-.4-.11C93.42,532.67,93.23,533.16,93.45,533.44Zm.09-1.84c.08-.74.14-1.47.19-2.21.1.71.19,1.43.29,2.15A2.1,2.1,0,0,1,93.54,531.6Zm1.2,1.42a.34.34,0,0,0,.24-.36c0-.07,0-.13,0-.2l.4-.14a.51.51,0,0,0,.74-.23,6,6,0,0,0,0,.85A2.73,2.73,0,0,1,94.74,533Zm-.4-6.36c.22,1.49.47,3,.72,4.47l-.23.11C94.67,529.71,94.51,528.18,94.34,526.66Zm3.57,3.24a16.91,16.91,0,0,1-.88,2.5c0-.3,0-.59,0-.89v-.44a6.11,6.11,0,0,0,.85-1.34A1,1,0,0,1,97.91,529.9Zm-.06-9.19-.06-.13c-.3-.53-1-.15-.94.39q.54,2.73.81,5.46A9,9,0,0,1,97,528.8c0-.92-.06-1.84-.11-2.76a26.59,26.59,0,0,0-.81-6.9.35.35,0,0,0-.69.09c-.21,2.77.43,5.73.56,8.52l.09,2.59a1.85,1.85,0,0,0-.14.14c-.49-3.29-.78-6.6-1.24-9.9-.06-.49-.78-.4-.91,0a1.24,1.24,0,0,0,0,.87.43.43,0,0,0,0,.12c0,.29,0,.59.07.88l0-.25c-.08-.64-1-.68-1,0,0,2.44,0,4.87-.13,7.3a14.36,14.36,0,0,1-.07-2.18.51.51,0,0,0-.79-.44c-.11-6.57-.56-13.15-.95-19.69q-.28-4.59-.61-9.16c-.23-5.5-.28-11-.22-16.51l.39,4.59c.41,4.53,1.27,9.19.6,13.71-.08.52.67.76.81.23,1-4.1,0-8.74-.41-12.88-.42-4.58-.82-9.16-1.12-13.74,0-.4,0-.79-.07-1.19.08-2.52.17-5.05.27-7.57a.88.88,0,0,0,.24-.49c.94-6.41.21-13,0-19.45s-.28-13.1-.34-19.64c0,.43.09.87.14,1.3.19,1.55,2.48,1.65,2.49,0,.09-10.27-.39-20.55-.37-30.83,0-5,.18-10,.31-15q0,6.25,0,12.51c0,8.33.08,16.66.17,25s-.09,16.46.44,24.63c.62,9.39.59,18.82,1.42,28.19a.78.78,0,0,0,.37.64c.07,1.46.15,2.91.22,4.36-.7-6-1.43-12-2.53-17.95a.16.16,0,0,0-.32,0c.68,6,1.57,11.94,2.28,17.92a.22.22,0,0,0-.35.19c.21,7.89,1,15.79,1.59,23.66Q97,510.19,97.85,520.71Zm-1-133.82c-.18,2.84-.38,5.68-.57,8.53q-.09-12.27-.11-24.52c0-4.78.06-9.58-.08-14.37a1.27,1.27,0,0,0,1-1c.16,4.85.42,9.7.43,14.56C97.51,375.71,97.22,381.31,96.88,386.89Zm6.62-127.1q-.27,4.4-.63,8.78c-.44,5.62-1,11.24-1.49,16.85-1.06,11.33-1.84,22.69-2.86,34-.81,9.08-1.48,18.2-1.56,27.32l-.09-2c-.12-3.31-.22-6.62-.28-9.93-.14-7-.13-13.95,0-20.92q.06-4.81.21-9.62c.6-5.2.82-10.46,1.21-15.69q.75-10.06,1.5-20.14.52-7,1.11-14.11a1.09,1.09,0,0,0,.42-.11c1.09-.57,2.15.79,2.42,1.69A11.08,11.08,0,0,1,103.5,259.79Z"/><path class="cls-1" d="M65.27,178a.18.18,0,0,0,0,.36A.18.18,0,0,0,65.27,178Z"/><path class="cls-1" d="M40.66,122.08a.18.18,0,0,0,0,.36A.18.18,0,0,0,40.66,122.08Z"/></g></g></svg>