<svg xmlns="http://www.w3.org/2000/svg" viewBox="0 0 180.77 219.36"><defs><style>.cls-1{fill:none;stroke:#cfbb9f;stroke-miterlimit:10;stroke-width:0.25px;}</style></defs><title>4-screenРесурс 1</title><g id="Слой_2" data-name="Слой 2"><g id="Режим_изоляции" data-name="Режим изоляции"><path class="cls-1" d="M104.29,72.61a.1.1,0,0,0,0,.2A.1.1,0,0,0,104.29,72.61Z"/><path class="cls-1" d="M124.12,73.16c-3-.42-6.13-.49-9.18-.79-1.58-.15-3.16-.26-4.73-.4-1.42-.12-3-.48-4.42-.06a.32.32,0,0,0-.08.58,10.74,10.74,0,0,0,4.1.76c1.58.15,3.16.3,4.74.37a85.7,85.7,0,0,0,9.48.18C124.37,73.78,124.51,73.21,124.12,73.16Z"/><path class="cls-1" d="M47.66,48s0,0,0,0A0,0,0,0,0,47.66,48Z"/><path class="cls-1" d="M109.18,53.2a57.43,57.43,0,0,0-8.8-2.63c-2.91-.71-5.86-1.28-8.81-1.81a101.41,101.41,0,0,0-17.79-2c-.3,0-.38.48-.08.53,5.89,1,11.84,1.66,17.73,2.73,2.89.52,5.75,1.14,8.62,1.75s6,1.44,9,1.86A.21.21,0,0,0,109.18,53.2Z"/><path class="cls-1" d="M103.16,48.45c-.34-1.13-1.87-1.09-2.84-1.28-1.62-.32-3.25-.57-4.88-.9A91.83,91.83,0,0,0,86,44.92c-.28,0-.27.4,0,.43,2.93.39,5.86.87,8.77,1.38a40.33,40.33,0,0,1,4.09.92c.67.19,1.35.35,2,.55a8.89,8.89,0,0,1,1.6.81A.5.5,0,0,0,103.16,48.45Z"/><path class="cls-1" d="M132.58,58.66a26.65,26.65,0,0,0-4.23-1.87c-1.4-.61-2.81-1.12-4.18-1.79a22,22,0,0,0-8.12-2c-.35,0-.43.55-.09.6,2.86.48,5.44,1.64,8.18,2.48,1.34.41,2.58,1,3.88,1.54a24.33,24.33,0,0,0,4.32,1.65A.31.31,0,0,0,132.58,58.66Z"/><path class="cls-1" d="M138.08,66.28a8.16,8.16,0,0,0-2.28-1.63,25.32,25.32,0,0,0-5.71-3c-2.34-.82-4.78-1.41-7.15-2.11s-4.78-1.52-7.12-2.46c-.33-.13-.46.39-.15.52q3.31,1.4,6.7,2.59c2.34.84,4.77,1.36,7.13,2.14a19.54,19.54,0,0,1,6.18,3.11,5.25,5.25,0,0,1,1.2,1.15c.38.58,0,.87-.23,1.46a1.35,1.35,0,0,0,.51,1.63c.67.44,1.22-.59.61-1.05-.11-.09.47-1.18.5-1.38A1.43,1.43,0,0,0,138.08,66.28Z"/><path class="cls-1" d="M131.91,64.65a30,30,0,0,0-8-2.28c-.39-.07-.56.51-.17.6a50.41,50.41,0,0,1,6.5,1.9,7.37,7.37,0,0,1,2.79,1.61c.93,1,.76,1.82.63,3-.11.89,1.25,1,1.5.21C135.84,67.62,133.55,65.46,131.91,64.65Z"/><path class="cls-1" d="M127.9,64.86c-.57-.29-1.06.55-.5.86a21.71,21.71,0,0,1,2.49,1.16c.58.43.55,1,.83,1.54a4.71,4.71,0,0,1-1.23.34,6.45,6.45,0,0,1-1.47.36c-.33,0-.66,0-1,0-1.53,0-3,0-4.57,0l-4.37,0c-1.58,0-3.2-.14-4.77,0a.32.32,0,0,0,0,.63h0c2.55.2,5.19,0,7.75,0l3.77,0a15.19,15.19,0,0,1,4.52.17,1.55,1.55,0,0,0,1.77-.39c.22-.24.21-.47.32-.75s.28-.36.29-.62C131.83,66,129.18,65.54,127.9,64.86Z"/><path class="cls-1" d="M180.37,177.72a8.91,8.91,0,0,0-3.8-4.48,32.17,32.17,0,0,0-6.15-2.94c-2.28-.88-4.62-1.62-7-2.29-19.88-5.74-39.88-11.13-60.34-14.35l-.74-.11a57.85,57.85,0,0,0,.14-6.84q0-4,0-8,0-8.28.06-16.55c0-10.9.06-21.81-.12-32.71,0-2.71-.1-5.42-.19-8.13a88.75,88.75,0,0,0,9.44,1.15,59.72,59.72,0,0,0,10.53-.31c5.54-.74,11.19-2.36,15.83-5.58a22.49,22.49,0,0,0,5.76-5.71,6.14,6.14,0,0,0,1.44-4.3,11,11,0,0,0-1.87-4.2C139.88,57,133.93,54.08,128,52c-7-2.41-14-4.52-21-6.76-2.54-.81-5.07-1.67-7.63-2.41a1,1,0,0,0,.75-.91c.21-3.52,0-7.14-.13-10.66s-.25-7.1-.48-10.65a56.53,56.53,0,0,0-1.18-9.44c-.69-2.9-1.77-5.88-3.93-8S89,.48,86,.22a17.79,17.79,0,0,0-8.81,1.22c-5.18,2.32-8,7.65-9,13a78.25,78.25,0,0,0-.81,10.93l-.22,6.07a39.07,39.07,0,0,0,0,4.84c-.67,0-1.33,0-2,0A162.69,162.69,0,0,0,43.1,37.85c-3.66.49-7.29,1.14-10.89,2-3.36.79-6.82,1.22-10.13,2.23-2.52.76-5.26,2.06-6.54,4.5a6.29,6.29,0,0,0,.23,6.2c.08.12.17.23.26.34a1.82,1.82,0,0,0-.27.35.24.24,0,0,0,.11.34.24.24,0,0,0,.33-.16h0a.49.49,0,0,0,.48.14A4.65,4.65,0,0,0,18,54.5a.56.56,0,0,0,.21,0c.34.3.69.59,1,.88,1.29,1,2.62,2,4,3a71.73,71.73,0,0,0,9,5.25,112,112,0,0,0,21,7.45c2.15.56,4.3,1.09,6.46,1.61l3.15.74a6.64,6.64,0,0,0,3.08.37c0,2.12.07,4.24.1,6.36.07,5.64.12,11.27.12,16.91,0,11.34-.19,22.68-.36,34q-.12,8.9-.2,17.78C58,148,50.15,147.51,43,150.12a10.4,10.4,0,0,1-3.49.9,15.12,15.12,0,0,1-3.37-.78,14.27,14.27,0,0,0-6.17,0c-4.32.91-8.08,3.34-12,5.22s-8.7,2.7-12.54,5.09c-3.27,2-5.85,5.59-5.14,9.6a7.32,7.32,0,0,0,.47,1.55.49.49,0,0,0,0,.29,14.85,14.85,0,0,0,4,5.09A26.43,26.43,0,0,0,10,180.56c4.09,2.08,8.55,3.55,12.81,5.23a68,68,0,0,0,6.59,2.35,52.74,52.74,0,0,0,6.69,1.32c4.65.66,9.26,1.42,13.84,2.45a150.91,150.91,0,0,1,14.89,4.19c0,.89,0,1.78,0,2.66,0,2.64,0,5.29,0,7.93a50.51,50.51,0,0,0,.29,8,.74.74,0,0,0,.5.62l.06,0A16.76,16.76,0,0,0,70.07,217c1.55.43,3.12.76,4.71,1.06a70.18,70.18,0,0,0,18.84.95c1.59-.14,3.18-.33,4.76-.57,1.36-.2,3.12-.17,4-1.4v0a1.93,1.93,0,0,0,.15-2.44l0-.05c.12-1.81,0-3.65,0-5.45q0-3.87,0-7.75c0-.68,0-1.36,0-2l.24,0a81.09,81.09,0,0,1,15-3.47,79.68,79.68,0,0,1,15.44.29c9.12.85,18.27,2.1,27.33.16,7.38-1.57,14.64-5.3,18.67-11.9C180.28,182.34,181.1,180,180.37,177.72Zm-73.81-97.8c-.65-.06-1.3-.15-1.94-.26l.28,0c.69,0,1.38.07,2.06.12,1.37.08,2.74.23,4.11.34C109.57,80.1,108,80.08,106.56,79.92Zm10,.18a46.68,46.68,0,0,1-5,.05h-.21a.37.37,0,0,0,0-.69,22.73,22.73,0,0,0-5.31-.92,8.14,8.14,0,0,0-2.9.06,4.69,4.69,0,0,1-.15-1.53V77a8.36,8.36,0,0,0,3.93,1.35c1.58.28,3.17.49,4.76.7s3.39.44,5.08.63c.68.07,1.37.17,2.06.25C118.06,80,117.32,80.05,116.58,80.1ZM68.35,32.83c.07-1.7.12-3.39.19-5.09.11-3.16.15-6.33.42-9.48C69.4,13.06,70.88,6.84,75.75,4A14,14,0,0,1,84,2.61c2.55.21,5.6.35,7.72,2a7.85,7.85,0,0,1,1.56,1.64.5.5,0,0,0-.06.28l.09,2.19a.43.43,0,0,0,.86,0l0-1a21.45,21.45,0,0,1,1.52,3.81,43,43,0,0,1,1.4,8.36c.33,3.66.61,7.32.77,11s0,7.39.26,11.06a1,1,0,0,0,.27.65l-1.56-.41c.1-.91.28-1.79.31-2.72s0-2.09,0-3.14c0-2,.05-3.92.05-5.88,0-4.05.09-8.13-.32-12.17a.43.43,0,0,0-.86,0c-.41,4-.31,8.12-.32,12.17,0,2,0,3.92,0,5.88,0,1,0,2.1,0,3.14,0,.88.19,1.7.3,2.55-.42-.09-.84-.18-1.26-.25a15.9,15.9,0,0,0,.39-4.85c0-2.09,0-4.19,0-6.28,0-4.21-.38-8.36-.67-12.56a.35.35,0,0,0-.69,0c-.29,4.2-.64,8.35-.67,12.56,0,2.09,0,4.19,0,6.28a17.33,17.33,0,0,0,.31,4.64l-.5-.07c.07-.78,0-1.61,0-2.19,0-1.62,0-3.25,0-4.88,0-3.27-.27-6.5-.51-9.76a.39.39,0,0,0-.77,0c-.24,3.26-.52,6.49-.51,9.76,0,1.56,0,3.13,0,4.69,0,.72,0,1.44.1,2.16-2-.23-3.9-.42-5.84-.78a79.93,79.93,0,0,1-9.57-2.79c.71-1.4.45-3.47.48-5,0-2,.09-3.92.1-5.88s0-3.92,0-5.87a23.64,23.64,0,0,0-.38-5.65.61.61,0,0,0-1.17,0A23.14,23.14,0,0,0,74.8,21c0,2,0,3.92,0,5.87s.07,3.92.1,5.88c0,.91,0,1.83.08,2.74a7.5,7.5,0,0,0,.3,2A21.24,21.24,0,0,0,73,36.88a6.82,6.82,0,0,0,.32-2.22c.05-1.18.06-2.36.09-3.53.06-2.29.06-4.59,0-6.88,0-4.59,0-9.19-.48-13.75a.43.43,0,0,0-.86,0c-.42,4.56-.44,9.16-.47,13.75,0,2.22,0,4.45,0,6.68,0,1.18,0,2.36.09,3.54a7.9,7.9,0,0,0,.26,2.24c-.6-.09-1.2-.16-1.8-.22a17.62,17.62,0,0,0,.29-4c0-1.63,0-3.26,0-4.89a59,59,0,0,0-.29-9.5.52.52,0,0,0-1,0,59,59,0,0,0-.29,9.5c0,1.57,0,3.13,0,4.69a19.37,19.37,0,0,0,.28,4.08l-1.19-.08A27.2,27.2,0,0,0,68.35,32.83Zm-50,13.22a8.34,8.34,0,0,0,1,1l-.31.22c-.22.17-.43.35-.63.53-.27-.3-.54-.6-.83-.89A6.7,6.7,0,0,1,18.37,46.05Zm-1.82,4.41a5.13,5.13,0,0,1,.29-2.2,5.73,5.73,0,0,1,.35-.75,7.72,7.72,0,0,0,.51,1A6.18,6.18,0,0,0,16.55,50.46Zm2,2.48c-.42-.3-.84-.56-1.27-.82a3.53,3.53,0,0,0,.15-.39c.16-.47.29-1,.48-1.42a7.74,7.74,0,0,1,.52-.83c.25.29.51.58.79.86A3.93,3.93,0,0,0,18.52,52.94Zm.57-4.41,0,0c.27-.28.56-.54.85-.8l.12-.1.88.66a7.41,7.41,0,0,0-1.11,1.13C19.59,49.11,19.34,48.82,19.09,48.53Zm45.15,22.6-3-.68q-2.77-.65-5.54-1.32L55.26,69c-.81-.28-1.64-.53-2.45-.8q-2.37-.81-4.72-1.7-4.87-1.82-9.59-4c-3.08-1.44-6.09-3-9.08-4.66q-2.19-1.2-4.35-2.48c-1.38-.82-2.85-2.08-4.4-2.54a.27.27,0,0,0-.26.45c1,1.25,2.81,2.11,4.15,3s2.83,1.78,4.27,2.63c3,1.78,6.19,3.37,9.38,4.85l1.53.71a83.65,83.65,0,0,1-14-6.52c-1.66-1-3.28-2-4.84-3.18-.46-.33-.91-.68-1.36-1,0,0,0,0,0,0,.53-.5.52-1.15.76-1.79.05-.13.11-.25.17-.37.88.71,1.79,1.33,2.61,1.87A76.61,76.61,0,0,0,32,58.29a186,186,0,0,0,21.1,8.51c2.07.7,4.16,1.35,6.26,2a28.79,28.79,0,0,0,6.23,1.59.75.75,0,0,0,.26,0c0,.45,0,.89,0,1.33A6.35,6.35,0,0,0,64.24,71.13ZM66,63.29a17.25,17.25,0,0,0-.21,1.76c-.82-.21-1.66-.37-2.46-.56-1.29-.3-2.5-.75-3.77-1.14Q55.92,62.23,52.27,61c-4.92-1.62-9.69-3.65-14.52-5.51-.32-.12-.53.39-.23.55A122.57,122.57,0,0,0,52,62q3.7,1.32,7.5,2.38c1.27.36,2.54.63,3.81,1,.8.24,1.62.51,2.46.71,0,.82,0,1.66,0,2.49a36.12,36.12,0,0,0-5-1.54c-1.73-.52-3.46-1.08-5.19-1.63-3.51-1.13-7-2.37-10.44-3.65s-6.84-2.65-10.22-4.09c-3.13-1.33-6.42-2.51-9.41-4.14a27,27,0,0,1-4.44-2.95l0,0a6.78,6.78,0,0,1,.69-.73,7,7,0,0,1,.69-.53c1,.72,2.08,1.41,3.16,2,1.38.84,2.81,1.59,4.27,2.29,1.28.61,3,1.71,4.48,1.57a.43.43,0,0,0,.3-.71c-1-1.07-2.79-1.46-4.08-2.06s-2.8-1.38-4.15-2.13c-1-.53-1.87-1.09-2.79-1.67a17.39,17.39,0,0,1,2.76-.89l1.49-.35c1.91,1.18,3.83,2.35,5.83,3.35,2.48,1.25,5,2.42,7.55,3.53s5,2.09,7.56,3A58.47,58.47,0,0,0,56.91,60c.61.13,1.1-.8.46-1.08-2.49-1.06-5.12-1.8-7.66-2.73s-5.19-2-7.75-3.06-5.12-2.21-7.64-3.4c-1.83-.87-3.68-1.66-5.52-2.5,2.83-.61,5.7-1.08,8.55-1.52a79.44,79.44,0,0,1,11.42-1,81.87,81.87,0,0,1,11.71,1,.41.41,0,0,0,.22-.79A20.37,20.37,0,0,0,56,43.6a43.42,43.42,0,0,0-4.83-.49,66,66,0,0,0-9.94.44c-3.27.37-6.52.92-9.77,1.49-3,.52-6.28.78-9,2.21-.18.09-.35.19-.52.29l-.87-.65c.45-.28.92-.53,1.41-.78,1-.52,2.08-.87,3-1.46a.1.1,0,0,0-.08-.19A21,21,0,0,0,22,45.69c-.5.21-1,.45-1.53.71a15.82,15.82,0,0,0-1.36-.89,12.93,12.93,0,0,1,3.66-1.64C29,42,35.63,41.45,42.11,40.69c6.76-.78,13.58-1.28,20.39-1.45a48,48,0,0,1,9.81.5c3.17.57,6.25,1.42,9.35,2.25a74.29,74.29,0,0,0,9.83,1.6A55.72,55.72,0,0,1,101.1,46l4.72,1.52c.26.16.52.32.77.49a3.61,3.61,0,0,1,1.65,1.94c.16.63-.18,1.25.07,1.85a.49.49,0,0,0,.59.34c1.49-.43.77-2.57.11-3.43l-.17-.21,11.94,3.88c5.74,1.86,11.88,3.6,16.58,7.57a17,17,0,0,1,4.9,6.22,2.16,2.16,0,0,1,0,2c-.13.26-.28.51-.43.76a3,3,0,0,0,0-.61,4.75,4.75,0,0,0-1.55-2.6,19,19,0,0,0-5.79-3.79A99.59,99.59,0,0,0,119.25,56a.52.52,0,0,0-.28,1,97.74,97.74,0,0,1,14.33,5.58A22.26,22.26,0,0,1,138.92,66a8.46,8.46,0,0,1,1.14,1.25,1.73,1.73,0,0,1,.27,1.88c-.26.68-.45,1.3,0,1.85l-.38.42a.63.63,0,0,0-.35-.07c-1.89.12-3.79.23-5.68.41a27.41,27.41,0,0,0-5.42.74.44.44,0,0,0-.29.63.32.32,0,0,0,.22.52,36.23,36.23,0,0,0,6,.18c.25,0,.37-.43.06-.49a4.54,4.54,0,0,0-.51-.09l.15,0c1.48-.11,3-.27,4.44-.43a22.92,22.92,0,0,1-5.42,3.57,30.16,30.16,0,0,0-3.16-.29c-1.15,0-2.3-.06-3.45-.12s-2.16-.14-3.24-.24a12.86,12.86,0,0,0-3.39-.14.59.59,0,0,0-.14,1.07,8.88,8.88,0,0,0,3.15.71c1.2.15,2.41.24,3.62.3s2.26.07,3.39,0a40.07,40.07,0,0,1-4.62,1.27q-1.2.25-2.43.45a.55.55,0,0,0-.44-.52,40,40,0,0,0-4.87-.61c-1.7-.19-3.4-.4-5.09-.63s-3.44-.46-5.15-.72c-1.44-.23-2.84-.82-4.28-1h-.11c0-.34,0-.68-.09-1,0-.14,0-.29,0-.43a47.38,47.38,0,0,0,7.52,1.92c2.45.43,5.14,1,7.63.62.31,0,.23-.47,0-.56-2.39-.91-5.12-1.07-7.62-1.55s-5.11-1-7.68-1.48c-.08-.5-.17-1-.25-1.5a1.29,1.29,0,0,0,.37-.66c.84-3.43-3.87-4-6.13-4.54-3-.79-6-1.59-9.06-2.35,0-.25-.11-.5-.17-.74a.25.25,0,0,0-.48,0c-.05.18-.09.36-.13.54l-.37-.09a56.48,56.48,0,0,0-10.14-1.83c-1-.06-2.05-.14-3.07-.18a.41.41,0,0,0-.82,0c-.35,0-.7,0-1.06,0h-.49c.08-1.41-2.66-1.39-2.45.09a4.16,4.16,0,0,0-1.91.7h0A.52.52,0,0,0,66,63.29Zm34,8.16a1.35,1.35,0,0,0,.63.66c-.15,2.45-.26,4.91-.35,7.37l-.06.1c0-.57,0-1.14,0-1.7,0-1.46,0-2.92-.09-4.38C100.16,72.81,100.14,72.13,100.07,71.45Zm.12,81.77h-.07a3.91,3.91,0,0,0-.37-.81,1,1,0,0,0,.16-.3c0-.21.11-.43.15-.64C100.09,152.05,100.12,152.64,100.19,153.22Zm-2.47-10.09c0,2.93-.21,5.93.53,8.78l-.1.05-.66.42a1.88,1.88,0,0,0-.1-.34,1.35,1.35,0,0,0-.15-.32,50.92,50.92,0,0,0,.1-7.2q0-4.08,0-8.16,0-8.25,0-16.51,0-16.3,0-32.62,0-4.59,0-9.16A58.57,58.57,0,0,0,97,69.49l.13,0c.44.11.91.21,1.36.33a11.58,11.58,0,0,0-.38,2.84c-.08,1.46-.11,2.92-.12,4.38,0,2.65,0,5.31-.06,8q0,8.16,0,16.31c0,10.87-.11,21.75-.12,32.62C97.71,137,97.72,140.08,97.72,143.13Zm-2.88-41.58,0,32.62V148.1c0,1,0,2,0,3-.56-.6-1.86-.37-1.75.62a5.07,5.07,0,0,0,.09.54L91.49,152q.08-3.6.22-7.18a60.52,60.52,0,0,0,.05-8.08.64.64,0,0,0-1.27,0,58.89,58.89,0,0,0,.06,8.08q.15,3.54.21,7.08l-1.9-.24c0-5.49.33-11-.18-16.51a.55.55,0,0,0-1.09,0,158.55,158.55,0,0,0-.18,16.32c-3.28-.42-6.56-.81-9.84-1.19.21-2.66,0-5.41,0-8.07V116.37q0-17.09,0-34.16c0-3.18,0-6.36-.1-9.54a62.32,62.32,0,0,0-.28-8.07c2.32.4,4.63.94,6.9,1.5l2.38.6c-.07,1-.1,2-.13,3-.06,2,0,4-.08,5.93-.06,4,0,7.91,0,11.87l0,11.86a86.32,86.32,0,0,0,.37,12,.66.66,0,0,0,1.26,0,86.32,86.32,0,0,0,.37-12c0-4,0-7.91,0-11.86s0-7.91,0-11.87c0-2,0-3.95-.09-5.93,0-.86,0-1.73-.1-2.59l2,.52c-.12,1.64-.46,3.24-.54,4.89s-.11,3.44-.14,5.16c-.06,3.5-.05,7-.05,10.52,0,6.94-.22,13.91.34,20.83a.66.66,0,0,0,1.32,0c.56-6.92.35-13.89.34-20.83,0-3.44,0-6.88,0-10.32,0-1.72,0-3.44-.13-5.16s-.41-3.29-.54-4.94l1.68.45a1.36,1.36,0,0,0,.25.39,9.56,9.56,0,0,1-.11,2.51c-.06.86-.08,1.73-.1,2.59-.06,1.79-.07,3.57-.07,5.36,0,3.45,0,6.89,0,10.33,0,7-.07,13.92.27,20.86.2,4,0,8,.3,11.93a.5.5,0,0,0,1,0c.3-3.49.14-7,.23-10.53s.27-6.89.3-10.34q.09-10.42,0-20.86c0-2,0-4,0-6,0-.92,0-1.85-.09-2.78a14.53,14.53,0,0,1-.17-3l1.47.39a47.55,47.55,0,0,0-.48,7.82c0,2.72,0,5.44,0,8.16Q94.83,93.29,94.84,101.55ZM75.15,150l-.52-.06a6.31,6.31,0,0,1-.08-.76,1.18,1.18,0,0,0-1.31-1,4.91,4.91,0,0,1,.27-1.49,5.66,5.66,0,0,0,.4-.82,4.49,4.49,0,0,0,0-1.1c0-1.46,0-2.91,0-4.37,0-2.78,0-5.56,0-8.33,0-5.63,0-11.25-.06-16.88-.09-11.31-.11-22.63-.16-33.94,0-5.66.18-11.41-.31-17.06.58,0,1.15.09,1.72.16l.51.07a52.93,52.93,0,0,0-.3,7.11c-.06,2.85-.1,5.69-.11,8.54q0,8.64,0,17.28V141C75.15,144,74.94,147,75.15,150Zm-4.39-9.64q0-4.17,0-8.34,0-8.43,0-16.87c0-11.31,0-22.63-.09-33.94l-.06-9.53c0-1.52,0-3-.06-4.56,0-1-.13-2-.08-3l.48,0,1.24,0c-.43,5-.29,10.11-.31,15.13l-.07,16.88c-.05,11.31-.14,22.63-.15,33.94l0,9.53c0,1.52,0,3,0,4.56a4.68,4.68,0,0,0,.24,2.14,4.32,4.32,0,0,1,.35,1.11,1.07,1.07,0,0,0-.78.24.86.86,0,0,0-.74-.38c.09-.83.07-1.69.08-2.51C70.77,143.26,70.76,141.81,70.76,140.35ZM67.82,82.16c0-3.18-.06-6.37-.11-9.55,0-1.52-.07-3-.11-4.57a32,32,0,0,0-.22-3.92,6.72,6.72,0,0,0,1.35.06c0,.78-.06,1.58-.07,2.33,0,1.46,0,2.91-.06,4.37,0,2.78,0,5.55-.06,8.33,0,5.63-.09,11.25-.09,16.88l0,33.94v9.53c0,1.52,0,3,0,4.56a13.65,13.65,0,0,0,.45,4.77.8.8,0,0,0,.36.42L68,149.16C68.46,126.83,68,104.49,67.82,82.16ZM39.59,186.86a64.59,64.59,0,0,1-13.18-2.94c-4.24-1.56-8.48-3.2-12.66-4.92a34.4,34.4,0,0,1-6.23-3.16c-1.85-1.26-3.38-3-5.25-4.25-.06-.15-.12-.29-.17-.44a4.56,4.56,0,0,1,.6-2c.89,2.87,3.63,5.13,6.1,6.62A46.62,46.62,0,0,0,19.26,180c8.35,2.55,16.65,5.22,25,7.67C42.73,187.35,41.16,187.09,39.59,186.86Zm58.28,29.22c-1.53.2-3.07.34-4.62.44a74.68,74.68,0,0,1-9.1.07,79.16,79.16,0,0,1-9.09-1c-1.47-.26-2.92-.57-4.38-.87l-.57-.13c1.8-.09,3.62-.28,5.42-.35,2.88-.11,5.77-.09,8.65,0s5.64.38,8.45.7c1.41.17,2.82.36,4.23.58.67.1,1.33.21,2,.33C98.51,216,98.18,216,97.87,216.08Zm2.35-22.53c0,2.58-.08,5.17-.09,7.75l0,7.56c0,1.47-.07,3,0,4.47-.36-.06-.73-.1-1.08-.13l-.06-.1a1.16,1.16,0,0,0-.71-.55,1.37,1.37,0,0,0-.57,0l-.24,0a1.9,1.9,0,0,0-.25,0,.55.55,0,0,0-.4.38c-3-.38-6.07-.64-9.12-.76-3.46-.13-6.92-.09-10.38.07l-2.92.13A4.49,4.49,0,0,0,74,210a.93.93,0,0,0-1.58,0,5.15,5.15,0,0,0-.38,2.49l-.67.07a.91.91,0,1,0-1.36.18,20.26,20.26,0,0,0-2.94.67,65.4,65.4,0,0,0,.13-6.56c0-2.71,0-5.42,0-8.13,0-1.27,0-2.55,0-3.84v-.24a81.31,81.31,0,0,0-.38-10.37l.09,0c.36-.09.73-.17,1.1-.24-.15,1.69-.12,3.39-.14,5.08,0,2.31,0,4.62,0,6.93s0,4.49,0,6.73a57.19,57.19,0,0,0,.25,6.93.48.48,0,0,0,.95,0,56,56,0,0,0,.24-6.73q0-3.47,0-6.93c0-2.24,0-4.49,0-6.73,0-1.82,0-3.66-.15-5.48l.53-.08A110,110,0,0,0,69.47,195c0,4.07.06,8.11.46,12.17a.66.66,0,0,0,1.31,0c.41-4.06.44-8.1.46-12.17a102.53,102.53,0,0,0-.27-11.36l1.29-.07a32.78,32.78,0,0,0-.18,4.95q0,3,0,6.09A110.85,110.85,0,0,0,73,206.92a.61.61,0,0,0,1.22,0,110.85,110.85,0,0,0,.47-12.36q0-3,0-6.09a33.14,33.14,0,0,0-.19-5,79,79,0,0,1,8.57.37c1.31.12,2.61.3,3.91.51l0,0a5.13,5.13,0,0,0-.48,2.51c0,1-.08,2-.09,2.94s0,2,0,2.94.18,2.09.26,3.14a.63.63,0,0,0,1.26,0c.07-1,.25-2.09.26-3.14s0-2,0-2.94-.06-2-.1-2.94a5.11,5.11,0,0,0-.46-2.48c1.3.22,2.6.48,3.89.78-.14,1.94-.25,3.87-.26,5.83l0,6.08c0,2,0,4.06.06,6.08a41.56,41.56,0,0,0,.39,6,.47.47,0,0,0,.89,0,41.56,41.56,0,0,0,.39-6c0-2,.07-4.05.06-6.08l0-6.08c0-1.86-.11-3.69-.24-5.54,1,.25,2,.52,3,.81a.84.84,0,0,0-.17.45c-.31,3.83-.18,7.71-.16,11.56,0,1.86,0,3.72,0,5.58s-.24,4,.25,5.76a.65.65,0,0,0,1.23,0c.49-1.77.22-3.93.25-5.76s0-3.72,0-5.58c0-3.85.15-7.73-.17-11.56,0,0,0,0,0,0,.35.11.7.24,1,.36a1.07,1.07,0,0,0-.07.27,89.33,89.33,0,0,0,.07,17.15.62.62,0,0,0,1.23,0,88.76,88.76,0,0,0,.08-16.94c.43.15.85.31,1.28.44A50.94,50.94,0,0,0,100.22,193.55Zm75.21-9.27a20.67,20.67,0,0,1-3.6,3.64,27.42,27.42,0,0,1-9.28,4.59c-6.89,2-14,1.88-21.05,1.28a.31.31,0,0,0-.23-.35,14.05,14.05,0,0,0-1.56-.25c-.57,0-1.15,0-1.72,0a.53.53,0,0,0-.5.26c-4.67-.46-9.35-1-14.05-1a58.19,58.19,0,0,0-14.51,1.85c-2.19.55-4.35,1.19-6.51,1.83,0-.53,0-1.06,0-1.59,2.2-.6,4.33-1.53,6.53-2.16a61.39,61.39,0,0,1,6.71-1.51,58.49,58.49,0,0,1,14.17-.62c5.09.42,10,1.33,15.17,1.14a88,88,0,0,0,13.36-1.28,25.51,25.51,0,0,0,6.65-2.27c1.65-.85,4.95-2.54,3.5-4.83a1.11,1.11,0,0,0-2.05.55c-.08.75-1.29,1.35-1.85,1.69a16.35,16.35,0,0,1-2.71,1.36,30.39,30.39,0,0,1-5.77,1.49c-2,.34-4,.46-6.05.6-2.35.15-4.7.31-7.06.34-4.73.06-9.37-.88-14.09-1a64.28,64.28,0,0,0-13.07.87,62.59,62.59,0,0,0-7.4,1.74,34.91,34.91,0,0,0-6.06,2.21,47.52,47.52,0,0,0-.26-4.78,1.29,1.29,0,0,0,.09-2.34,43.58,43.58,0,0,0-9.43-3,71.18,71.18,0,0,0-10-1.62,60.6,60.6,0,0,0-9.9-.09,23.65,23.65,0,0,0-4.88.71c-1.19.35-3.21.9-3.69,2.15a.67.67,0,0,0,.46.81,1.8,1.8,0,0,0,.38.07c-.08.76-.15,1.52-.2,2.28-.09-.08-.19-.14-.27-.2a3.66,3.66,0,0,0-1.5-.47.68.68,0,0,0,0,1.36,3.21,3.21,0,0,1,1.14.49,1,1,0,0,0,.56.22c-.06,1.5-.08,3-.08,4.5l-2.13-.69a.42.42,0,0,0-.18-.38,8.54,8.54,0,0,0-2.89-1.08c-1.14-.35-2.26-.74-3.4-1.07s-2.1-.81-3.18-1.15l-3.4-1.07q-6.51-2.07-13-4.09c-4.35-1.35-8.74-2.58-13.1-3.87a85.61,85.61,0,0,1-11.27-3.76,22,22,0,0,1-5.06-3.06,9.83,9.83,0,0,1-3.55-4.86l.2-.22a4.09,4.09,0,0,1,1.84-1c3.67,6,10.56,8.49,17.06,10.16,7.9,2,15.89,3.58,23.54,6.48A66.84,66.84,0,0,1,52.58,186c2,1,4,2.35,6.08,3.17.71.28,1.15-.72.7-1.2a18.24,18.24,0,0,0-5-3.39c-1.69-.9-3.42-1.7-5.19-2.43a95.48,95.48,0,0,0-11.41-3.82c-3.89-1.06-7.83-2-11.76-2.88a78.26,78.26,0,0,1-10.2-2.84c-3.53-1.31-6.91-3.22-9.17-6.3a9.26,9.26,0,0,0,1-.33c1.27-.52,2.51-1.16,3.83-1.57a10.65,10.65,0,0,1,4.7-.17,1.14,1.14,0,0,0,1-.57,1.37,1.37,0,0,0,.16-.59,1.2,1.2,0,0,0-.85-1.11c-3.92-1.29-7.31,1.51-10.82,2.67a6.91,6.91,0,0,0-3.47,1.93,9.31,9.31,0,0,1,2.3-3.12c3.21-3,7.78-3.61,11.69-5.19s7.63-3.85,11.67-5.23a15.18,15.18,0,0,1,5.85-.92c2.14.15,4.07,1.38,6.23,1.25s4.36-1.25,6.56-1.78a30,30,0,0,1,6.8-.77,119.43,119.43,0,0,1,14,1.18c9.87,1.1,19.73,2.26,29.56,3.72s19.47,3.17,29.07,5.4,19.09,5,28.6,7.57c4.56,1.25,9.19,2.4,13.65,4a36.65,36.65,0,0,1,6,2.68c.26.15.53.31.79.49a23,23,0,0,1-3.61,7.92,17.51,17.51,0,0,1-3,3.22c-.57.48-1.17.94-1.78,1.36a9.55,9.55,0,0,0-1.84,1.3.75.75,0,0,0,.52,1.26c1.48,0,3.12-1.27,4.24-2.15a19.63,19.63,0,0,0,3.54-3.69,15.76,15.76,0,0,0,3.18-8.27,4,4,0,0,1,1.28,2.22C177.88,180.94,176.49,182.87,175.43,184.28Z"/><path class="cls-1" d="M89.84,9.58a11.63,11.63,0,0,0-.51-3c-.11-.36-.73-.32-.69.09.09,1,.23,1.92.27,2.89s-.13,1.95,0,2.91a.42.42,0,0,0,.81.11A8.28,8.28,0,0,0,89.84,9.58Z"/><path class="cls-1" d="M91.89,5.16c-.12-.64-1.21-.5-1.14.15.21,2.16,0,4.42.46,6.52a.54.54,0,0,0,1,0C92.78,9.7,92.29,7.31,91.89,5.16Z"/><path class="cls-1" d="M88,9.3a8.94,8.94,0,0,0-.81-3.18.39.39,0,0,0-.7.09,16.34,16.34,0,0,0,0,3.28,15.16,15.16,0,0,0,.21,3.37.66.66,0,0,0,1.27,0A8.89,8.89,0,0,0,88,9.3Z"/><path class="cls-1" d="M82.06,169.8c-.94-.73-3-1.48-2.81-2.94a4.73,4.73,0,0,0,.16-3.46,1.48,1.48,0,0,0-.34-1.35l0-.06a11.13,11.13,0,0,1-.33-2.5,24.62,24.62,0,0,0,.09-2.57.69.69,0,0,0-1.27-.34,7.36,7.36,0,0,0-.76,4.39c0,.13,0,.25,0,.38l-3,0c-4.18,0-8.36,0-12.53.05-8.23.07-16.46.16-24.67.76-4.7.34-9.4.73-14.11,1.05-.66,0-.68,1.07,0,1,7.16-.17,14.32.07,21.47,0S58.32,164,65.48,164l6.17.05,3,0h2.17a1.42,1.42,0,0,0,.3.25,1.37,1.37,0,0,0,.31.13,3.15,3.15,0,0,1-.15,1.3,3.49,3.49,0,0,0,.59,3.7,7.24,7.24,0,0,0,1.5,1.31c.25.17.51.33.76.51a4.37,4.37,0,0,1,.48.37c.08.11.14.18.2.2-.19.94.77,2,1.73,1.34C84,172.19,83.23,170.71,82.06,169.8Z"/><path class="cls-1" d="M165.31,176.77c-.55.78-.88,1.69-1.44,2.46a7.68,7.68,0,0,1-2.21,2,20.9,20.9,0,0,1-6,2.15,62.69,62.69,0,0,1-13.25,1.46c-8.64.17-17.38-.61-26,.54a42.72,42.72,0,0,0-13.49,4c-.59.3-.17,1.35.46,1.09,17.13-6.94,36-.56,53.61-5a19.27,19.27,0,0,0,6.7-2.73c1.7-1.23,3.5-3.23,3.53-5.43A1,1,0,0,0,165.31,176.77Z"/><path class="cls-1" d="M172.38,174.81a.41.41,0,0,0-.7,0,11.21,11.21,0,0,0-.56,1.84,10.65,10.65,0,0,1-.88,2c-.63,1.14-2,2-2.15,3.34-.05.37.34.64.65.66,1.58.11,2.74-2.08,3.28-3.31S173.08,176.12,172.38,174.81Z"/><path class="cls-1" d="M157.72,191.87a11.1,11.1,0,0,0-1.73,0l-1.74.21c-1.23.14-2.46.24-3.69.32-2.39.14-4.81.41-7.2.36-.54,0-.51.76,0,.82a45.71,45.71,0,0,0,7.39.55c1.17,0,2.34-.12,3.5-.24.59-.06,1.19-.13,1.78-.22l.77-.13a5.12,5.12,0,0,0,1.08-.44A.62.62,0,0,0,157.72,191.87Z"/><path class="cls-1" d="M163.31,191a.34.34,0,0,0,0,.67A.34.34,0,0,0,163.31,191Z"/><path class="cls-1" d="M44.61,177.67a10.7,10.7,0,0,0-1.82-1c-.75-.29-1.51-.53-2.28-.76-1.42-.43-2.85-.8-4.29-1.15-2.92-.72-5.87-1.36-8.77-2.16-5.3-1.44-10.68-3.44-15-7-.63-.52-1.52.32-.91.91,4,4,9.17,6.2,14.53,7.76,2.93.85,5.9,1.52,8.85,2.25,1.5.37,3,.75,4.48,1.17.71.2,1.41.42,2.12.64a21.86,21.86,0,0,0,2.53.53A.68.68,0,0,0,44.61,177.67Z"/><path class="cls-1" d="M59.94,185.07a14.34,14.34,0,0,0-2.94-2c-1-.61-2.09-1.2-3.17-1.74-1.9-1-4.17-2.4-6.38-2.27a.92.92,0,0,0,0,1.83,6.84,6.84,0,0,1,3,1l3.13,1.42c1,.46,2,.89,3,1.35a17.19,17.19,0,0,0,2.94,1.25A.49.49,0,0,0,59.94,185.07Z"/><path class="cls-1" d="M64.14,189.11a14.7,14.7,0,0,1-2.54-.8.75.75,0,1,0-.58,1.38,5.08,5.08,0,0,0,3.12.36A.49.49,0,0,0,64.14,189.11Z"/><path class="cls-1" d="M53.37,177.83a7.51,7.51,0,0,0-3.06-1.71c-1.12-.46-2.26-.9-3.4-1.34-2.33-.89-4.67-1.76-7-2.58a96.59,96.59,0,0,0-14.41-4.11.66.66,0,0,0-.35,1.28c4.6,1.79,9.34,3.21,14,4.84q3.45,1.2,6.86,2.51l3.4,1.33a8.11,8.11,0,0,0,3.49,1A.72.72,0,0,0,53.37,177.83Z"/><path class="cls-1" d="M59.14,179.85c-.75-.42-1.48-.86-2.21-1.31-1.24-.75-2.17,1.46-.76,1.81.83.21,1.66.42,2.49.65A.63.63,0,0,0,59.14,179.85Z"/><path class="cls-1" d="M92.93,163.31a6.71,6.71,0,0,1-.32-2.27,1,1,0,0,0-1.91-.26c-.38,1.6-.57,4.71,1.64,5a.71.71,0,0,0,.63-.36A2.47,2.47,0,0,0,92.93,163.31Z"/><path class="cls-1" d="M112.86,163.52a12.56,12.56,0,0,0-3.52-.61,35.83,35.83,0,0,0-3.58-.22c-1.15,0-2.3,0-3.44-.1A8.66,8.66,0,0,1,99,162l-.12-.05c-.18-1-1.72-1.38-2-.2a4.07,4.07,0,0,0,.56,3.17,1.12,1.12,0,0,0,2-.39,6.55,6.55,0,0,0,1.61.43c1.2.17,2.42.21,3.64.26s2.56.12,3.83.08c.7,0,1.4-.11,2.11-.14a5.94,5.94,0,0,0,1.93-.22C113.24,164.75,113.54,163.84,112.86,163.52Z"/><path class="cls-1" d="M133.16,168.43c-1.36-1.86-4.17-2.58-6.33-2.92a17,17,0,0,0-3.9-.17c-.29,0-.61.08-.92.12.06-.25.12-.51.19-.75.3-1.06-1.37-1.84-1.83-.77-.17.39-.38.8-.57,1.21l-.07.07h0a.89.89,0,0,0-.29,1,.69.69,0,0,0,0,.2c-.25.85,1,2,1.73,1.08l0,0a19.27,19.27,0,0,0,3,0,26,26,0,0,1,4.4.49c1.39.28,2.63.84,4,1.25C133,169.32,133.44,168.8,133.16,168.43Z"/><path class="cls-1" d="M137.47,169.31Z"/><path class="cls-1" d="M138.39,169.47h-.16l-.08,0a2.83,2.83,0,0,0-.41,0l-.18,0-.09,0v0h0l0,0h0v0s0-.09,0,0l0-.08,0,0c.45-.72-.47-1.71-1.2-1.2a1.63,1.63,0,0,0-.76,1.36,2.07,2.07,0,0,0,.53,1.4,1.87,1.87,0,0,0,1.46.6,1.74,1.74,0,0,0,.75-.15,1.57,1.57,0,0,0,.42-.34l.2-.17C139.23,170.22,139,169.41,138.39,169.47Z"/><path class="cls-1" d="M141,170a.82.82,0,0,0,0,1.63A.82.82,0,0,0,141,170Z"/><path class="cls-1" d="M130.35,169.5a3.32,3.32,0,0,0-2.11-1c-.86-.2-1.71-.36-2.59-.49s-1.57,1.09-.63,1.51,1.64.69,2.49,1a3.52,3.52,0,0,0,2.5.29A.78.78,0,0,0,130.35,169.5Z"/><path class="cls-1" d="M153.28,171a8.46,8.46,0,0,0-4-1c-1.5-.14-3-.17-4.49-.18a.63.63,0,0,0-.16,1.23c1.44.38,2.89.75,4.37,1a8.5,8.5,0,0,0,4.16.11A.66.66,0,0,0,153.28,171Z"/><path class="cls-1" d="M156.33,171.94h-.19c-.12,0-.13.19,0,.18l.19,0A.08.08,0,1,0,156.33,171.94Z"/><path class="cls-1" d="M158.13,173.21s0,0,0,0S158.14,173.21,158.13,173.21Z"/><path class="cls-1" d="M165.41,173.8a2.49,2.49,0,0,0-2.54-.69,1,1,0,0,0,.51,1.86l.11,0h.1l.07,0,.13,0,.18.23a1,1,0,0,0,1.44,0A1.05,1.05,0,0,0,165.41,173.8Z"/><path class="cls-1" d="M131.21,171a1.19,1.19,0,0,0,0,2.38A1.19,1.19,0,0,0,131.21,171Z"/><path class="cls-1" d="M128.62,171.65c-3.2,0-6.39-.12-9.59-.27s-6.38-.47-9.56-.32a.25.25,0,0,0-.07.48,56.27,56.27,0,0,0,9.44,1c3.25.17,6.52.24,9.78.26A.56.56,0,0,0,128.62,171.65Z"/><path class="cls-1" d="M151.58,176.32a22.47,22.47,0,0,0-6-1.13l-5.88-.66q-6-.65-12-1.17c-4-.35-8-.76-12-1-2-.12-3.94-.24-5.9-.46-1.59-.17-3.27-.53-4.91-.62a.42.42,0,0,0-.56-.31l-.94.33a.46.46,0,0,0,0,.87,38.9,38.9,0,0,0,6,.49c2.06.15,4.11.39,6.15.67,4,.54,8,1,11.91,1.48s8.11,1.07,12.16,1.61l6,.81a21.81,21.81,0,0,0,5.92.37C152.32,177.5,152.09,176.53,151.58,176.32Z"/><path class="cls-1" d="M158,177.85c-1.37.19-2.76.24-4.14.46s-2.81.41-4.22.53a72.3,72.3,0,0,1-8.06.2c-2.71-.07-5.41-.27-8.11-.49a71.74,71.74,0,0,0-8.27-.62.56.56,0,0,0-.14,1.09,51.36,51.36,0,0,0,8.22,1.18c2.82.29,5.65.49,8.49.55a70.89,70.89,0,0,0,8.24-.26c1.31-.12,2.63-.27,3.93-.48.73-.13,1.48-.27,2.19-.47s1.4-.59,2.1-.86A.43.43,0,0,0,158,177.85Z"/><path class="cls-1" d="M85.21,126a25.34,25.34,0,0,0-.4-5.71.48.48,0,0,0-.92,0,24.23,24.23,0,0,0-.4,5.71,30.16,30.16,0,0,0,.17,5.78.72.72,0,0,0,1.37,0A31,31,0,0,0,85.21,126Z"/><path class="cls-1" d="M58.25,55.51a0,0,0,1,0,0,.07A0,0,0,1,0,58.25,55.51Z"/><path class="cls-1" d="M63.83,60.37a2,2,0,0,0-1.36-1.08A9.15,9.15,0,0,0,61,59a1.31,1.31,0,0,0-.35,2.56,8.28,8.28,0,0,1,1.11.31,2.25,2.25,0,0,0,1.45,0A1.08,1.08,0,0,0,63.83,60.37Z"/><path class="cls-1" d="M59.8,56.6c-.63-.87-1.61-1-2.62-1.19-1.18-.27-2.34-.59-3.49-.94a.68.68,0,0,0-.78.33,1.2,1.2,0,0,0,0-1.12,4,4,0,0,0-2.68-1.55A9.09,9.09,0,0,0,47,51.6a1.17,1.17,0,0,0-.6.25l0-.11C46,50.64,45,50.38,44,50.06s-1.92-.56-2.89-.79-1.91,1.38-.8,1.88c.86.39,1.71.8,2.54,1.24s1.71,1.12,2.7.74a1.34,1.34,0,0,0,.43-.25,1.08,1.08,0,0,0,.46.67,17.51,17.51,0,0,0,2.85,1.2,4.53,4.53,0,0,0,2.85.69,1,1,0,0,0,.67-.48.63.63,0,0,0,.31.83c1.09.51,2.2,1,3.33,1.42s2,.88,3.08.38A.73.73,0,0,0,59.8,56.6Z"/><path class="cls-1" d="M38.4,48.21l-.14-.06a1,1,0,0,0-.89-.48,2.06,2.06,0,0,0-.26,0l-.33-.11a1.2,1.2,0,0,0-1.47.84,1.22,1.22,0,0,0,.84,1.48,12.5,12.5,0,0,0,1.34.47,1.2,1.2,0,0,0,1.4-.69A1.18,1.18,0,0,0,38.4,48.21Z"/><path class="cls-1" d="M42.48,58.5a6.7,6.7,0,0,0-2.35-1.15l-2.29-.92a.92.92,0,0,0,.06-1.38,9,9,0,0,0-1.46-1,.66.66,0,0,0-.19-.09,1.81,1.81,0,0,0,.61-.13.83.83,0,0,0,.56-.73c.07-1.25-.91-1.66-1.91-2.09a12.48,12.48,0,0,0-3.17-.9C31,50,30.4,51.89,31.77,52.21a10.38,10.38,0,0,1,2.66,1,7.19,7.19,0,0,0,1.41.75,1,1,0,0,0-.85.52,1.06,1.06,0,0,0,.38,1.45c.39.2.8.44,1.22.61a.76.76,0,0,0,.2,1.17l2.69,1.21a6.72,6.72,0,0,0,2.47.88A.76.76,0,0,0,42.48,58.5Z"/><path class="cls-1" d="M124.05,76.55a11.05,11.05,0,0,0-2.81-.3c-1.38,0-1.78,2.24-.33,2.5a21,21,0,0,1,2.46.73c.91.27,2.26.23,2.45-.93S124.92,76.79,124.05,76.55Z"/><path class="cls-1" d="M118,72a1.27,1.27,0,0,0-1.23,1.61,14.34,14.34,0,0,0-1.6-.26,1.1,1.1,0,0,0-1.31.74,1.08,1.08,0,0,0,.75,1.31l1.34.28a1.94,1.94,0,0,0,1.58-.12.82.82,0,0,0,.39-1H118A1.31,1.31,0,0,0,118,72Z"/><path class="cls-1" d="M106.41,67.85a1.07,1.07,0,0,0,0,2.13A1.07,1.07,0,0,0,106.41,67.85Z"/><path class="cls-1" d="M112.35,65.76c-.53-.37-1.08-.71-1.64-1.05a1.27,1.27,0,1,0-1,2.32c.64.14,1.28.27,1.93.37a.9.9,0,0,0,.68-1.64Z"/><path class="cls-1" d="M82.76,68.34a10.56,10.56,0,0,0-.45-1.15,1.5,1.5,0,0,0-2.21-.44,2.4,2.4,0,0,0,0-1.22l-.19-.82a1.38,1.38,0,0,0-2.65,0l-.19.82a2,2,0,0,0,.17,1.64,1.56,1.56,0,0,0,2.27.45c0,.13,0,.26-.07.4a1.28,1.28,0,0,0-1.25,1.27l.19,2a1.3,1.3,0,0,0,1.27,1.27,1.28,1.28,0,0,0,1.27-1.27l0-.28a2.3,2.3,0,0,0,.26,0,1.67,1.67,0,0,0,1.47-.84A2.33,2.33,0,0,0,82.76,68.34Z"/><path class="cls-1" d="M83.89,72a1.29,1.29,0,0,0-1.23,1.61l.21.9a2.2,2.2,0,0,0,.51.92.72.72,0,0,0,1,0,2.12,2.12,0,0,0,.5-.92l.21-.9A1.29,1.29,0,0,0,83.89,72Z"/><path class="cls-1" d="M81,76.87a1.23,1.23,0,0,0-1.21,1.2,9.1,9.1,0,0,0,.18,2.15,1.08,1.08,0,0,0,2.06,0,9.66,9.66,0,0,0,.17-2.15A1.22,1.22,0,0,0,81,76.87Z"/><path class="cls-1" d="M86.3,67.09a1.38,1.38,0,0,0-2.7.36,2.73,2.73,0,0,1,0,.41s0,.29,0,.29a6.72,6.72,0,0,1-.28.9,1.68,1.68,0,1,0,3.3.45A7.52,7.52,0,0,0,86.3,67.09Z"/><path class="cls-1" d="M56.74,157.71a22.53,22.53,0,0,0-6.45-.59,24.26,24.26,0,0,0-3.41.16c-1.06.2-2,.82-3.1,1-.68.1-.63,1.19,0,1.32,1.09.24,2,.9,3.1,1.1a16.42,16.42,0,0,0,3.9-.07,14.23,14.23,0,0,0,6.09-1.89A.56.56,0,0,0,56.74,157.71Z"/><path class="cls-1" d="M42,158a7.55,7.55,0,0,1-.77-.53,3.61,3.61,0,0,0-1.68-.46,5,5,0,0,0-2.91.48,1.71,1.71,0,0,0-.33,2.63,3.86,3.86,0,0,0,3.63,1,2.86,2.86,0,0,0,1.56-.75,6.27,6.27,0,0,0,.8-1.2A.83.83,0,0,0,42,158Z"/><path class="cls-1" d="M36.24,155a3.72,3.72,0,0,0-2.46-.7,11.29,11.29,0,0,0-2.64.95c-.68.24-.63,1.4.19,1.35s1.73.26,2.63.23a4.73,4.73,0,0,0,2.28-.71A.66.66,0,0,0,36.24,155Z"/><path class="cls-1" d="M29.39,155.69a2.54,2.54,0,0,0-3.46,0,1.65,1.65,0,0,0,0,2.31,2.54,2.54,0,0,0,3.46,0A1.61,1.61,0,0,0,29.39,155.69Z"/><path class="cls-1" d="M33,159a4.46,4.46,0,0,0-2.75-.49,26.56,26.56,0,0,1-3,.64c-1.37.13-2,2.39-.36,2.63,2.31.35,5.07.72,6.37-1.65A.84.84,0,0,0,33,159Z"/><path class="cls-1" d="M24.81,157.72l-3.81.55c-1.21.18-.61,2.33.72,1.7l3.36-1.62C25.46,158.16,25.17,157.67,24.81,157.72Z"/><path class="cls-1" d="M44.43,154.4a1.74,1.74,0,0,0-1.61-1.22,3.29,3.29,0,0,0-1.17,0,6.85,6.85,0,0,0-.84.36l-1.4.59a1.42,1.42,0,0,0-.65,1.59,1.46,1.46,0,0,0,1.36,1l1.58.05a3.3,3.3,0,0,0,.94-.05,6.33,6.33,0,0,0,1-.48A1.7,1.7,0,0,0,44.43,154.4Z"/></g></g></svg>