<svg xmlns="http://www.w3.org/2000/svg" viewBox="0 0 108.33 136.1"><defs><style>.cls-1,.cls-2{fill:none;stroke-miterlimit:10;stroke-width:0.25px;}.cls-1{stroke:#908374;}.cls-2{stroke:#cfbb9f;}</style></defs><title>5-screenРесурс 1</title><g id="Слой_2" data-name="Слой 2"><g id="Режим_изоляции" data-name="Режим изоляции"><path class="cls-1" d="M106.56,67.24c-.51-6-.91-12-2.27-17.9a49.6,49.6,0,0,0-6.75-15.22A60.28,60.28,0,0,0,86.7,20.88c-.06-.16-.19-.24-.54-.48a.52.52,0,0,0-.19-.06,13,13,0,0,0-3.06-6.76.64.64,0,0,1,0-.07.45.45,0,0,0-.2-.21l-.53-.67c-.32-.38-1,.14-.7.54h0a.31.31,0,0,0,0,.23,23.81,23.81,0,0,1,1.63,3.94,11.61,11.61,0,0,1,.08,3.23,8.18,8.18,0,0,1-1.54,3.91,46,46,0,0,1-11.5,5.35,66.8,66.8,0,0,1-14.42,2.07c-.8,0-1.59.06-2.37.07,0-.48,0-1,0-1.44s-.94-.62-1,0,0,1-.08,1.43a41.82,41.82,0,0,1-4.5-.26c.07-.33.12-.66.19-1a.3.3,0,0,0-.57-.16c-.1.35-.19.71-.28,1.06a38.41,38.41,0,0,1-7.59-1.78c-1.94-.67-3.89-1.34-5.81-2.1a1.4,1.4,0,0,0,.1-.16.31.31,0,0,0-.53-.31l-.16.24a45.2,45.2,0,0,1-6.55-3.22c.17-.26.34-.52.52-.77a.42.42,0,0,0-.65-.5c-.14.15-.27.31-.41.47a14.28,14.28,0,0,1-.64-4.56c0-.52.09-1,.14-1.4a10.45,10.45,0,0,1,.63-2.21c.22-.4.44-.8.68-1.2a.3.3,0,0,0,0-.24,13.15,13.15,0,0,1,1-1.5c.22-.26-.14-.64-.38-.38a11.71,11.71,0,0,0-1.05,1.36c.22-.71.46-1.41.74-2.11,0-.13-.15-.19-.22-.09a14.71,14.71,0,0,0-1.44,2.75.26.26,0,0,0-.11.12,23.17,23.17,0,0,0-2.44,7.13.27.27,0,0,0-.11,0C10.12,30.44,4.86,47.75,3.69,62.79c-.75,9.58,0,19.24,1,28.78.9,8.48,1.7,17.63,5.23,25.49.18.41.83.12.71-.3A152.61,152.61,0,0,1,4.75,65c1-16.11,6.45-31.39,18.2-42.73A10.6,10.6,0,0,0,23,24C11.19,36.6,7.67,53.83,6.7,70.72a138.84,138.84,0,0,0,9,57.06c.28.76,1.5.43,1.21-.33A135.34,135.34,0,0,1,7.81,80.51c.07.33.13.66.22,1a.35.35,0,0,0,.08.16,169.46,169.46,0,0,0,7.24,36.2c.52,2.08,1.16,4.13,1.81,6.14.18.56.36,1.14.55,1.72-.36,0-.5.49-.14.57l.34.07a15.06,15.06,0,0,0,2.76,5.37c.31.33.76-.15.49-.49a14.39,14.39,0,0,1-2.26-4.69l1,.21a.38.38,0,0,0,.22.68.37.37,0,0,0,.31-.57l1.72.34c.31.83.64,1.65,1,2.47.45,1,.7,2.39,1.89,2.68a.32.32,0,0,0,.17-.61c-.84-.32-1.52-2.89-1.94-4.33h0c.18.53.36,1.07.56,1.6.31.84.43,1.92,1.25,2.39a.23.23,0,0,0,.27,0l.1-.12c.15-.16-.05-.47-.25-.32.2-.15-.15-1.55-.68-3.28,1,.19,2,.39,3,.57.43,1.48.89,2.95,1.42,4.35a.42.42,0,0,0,.71.15l.24.42h-.65a.5.5,0,0,0-.2,1c.62.22,1.82.72,2.33.1a.48.48,0,0,0,.07-.56,1,1,0,0,0-.69-.45,33.79,33.79,0,0,1-1.47-4.5c.58,1.28,1.18,2.53,1.79,3.73.24.47.91,0,.7-.41-.49-1.09-.94-2.18-1.38-3.29,1.48.27,3,.52,4.46.76.48,1.73,1,3.46,1.51,5.15a.36.36,0,0,0,.69-.19c0-.12-.07-.25-.1-.38l.06.16c.07.16.32.07.32-.09a26.8,26.8,0,0,0-.38-4.34c2.26.33,4.52.62,6.8.86.24.83.5,1.65.81,2.45.09.24.51.24.49-.07s-.09-.84-.14-1.25a.38.38,0,0,0,.41,0l.12.83c.12.87,1.45.5,1.32-.37l-.18-1.31,2.09.15c0,.4,0,.79-.07,1.19a.48.48,0,0,0,.67.48c0,.21,0,.42,0,.63a.45.45,0,0,0,.9,0c0-.74,0-1.49,0-2.24h.27c0,.42,0,.85,0,1.28a.5.5,0,0,0,1,0c0-.41,0-.83,0-1.24,1.93.05,3.86,0,5.79,0L57.3,134a.53.53,0,0,0,.78.49.4.4,0,0,0,.67-.25c.06-.74.11-1.47.17-2.2,1.77-.2,3.55-.42,5.32-.65-.15.91-.31,1.83-.48,2.75a4.5,4.5,0,0,0-.15.83c-.09.61.85.88,1,.26a.44.44,0,0,1,0-.13.64.64,0,0,0,.84-.53c.12-1.12.21-2.25.31-3.38,1.74-.23,3.47-.49,5.2-.76,0,.25-.05.51-.07.77s-.07.42-.1.63a.27.27,0,0,0-.07.48c-.1.64-.2,1.28-.29,1.92a.39.39,0,0,0,.56.41c0,.3.05.6.09.9s.68.43.65,0,0-.65,0-1a.51.51,0,0,0,.62-.37c.41-1.38.78-2.78,1.13-4.19l1.41-.23,2.6-.5c-.27,1.1-.52,2.21-.7,3.33a.46.46,0,0,0,.43.52h0a.38.38,0,0,0,.74.2l0-.12a.45.45,0,0,0,.49.08c-.26.71-.52,1.41-.77,2.12s.73.85.94.26c.57-1.6,1.17-3.2,1.58-4.84a.33.33,0,0,0-.52-.34q.28-.87.51-1.77c1.11-.23,2.23-.46,3.34-.71l.8-.17a39.89,39.89,0,0,0-1.55,5.73c-.07.36.45.65.63.27l.12-.27a.37.37,0,0,0,.36-.23c.78-1.94,1.51-3.9,2.2-5.86a31.49,31.49,0,0,0,3.38-.84l-1.38,4.59c-.22.74.89,1,1.14.32.64-1.82,1.21-3.66,1.76-5.5.21-.1.42-.19.62-.3a.42.42,0,0,0-.21-.78h-.09c.06-.18.12-.37.17-.55l1.4-.46a.53.53,0,0,0-.28-1l-.76.19c1.16-4.17,2.15-8.39,2.93-12.65.54-2.44,1-4.89,1.45-7.35a110.51,110.51,0,0,0,1.2-21.6c0-.32,0-.64,0-1l.32-.11a.23.23,0,0,0-.07.18l0,.38a.24.24,0,0,0,.47,0l0-.38c0-.17-.11-.25-.25-.26a29.21,29.21,0,0,0,3.51-1.56c.13.88.25,1.76.36,2.65.6,13.3-.74,26.69-5,39.37-.24.71.84,1,1.11.31A76.63,76.63,0,0,0,103.48,89a.56.56,0,0,0,.29-.51,83.7,83.7,0,0,0-.77-10.6c.14-.09.3-.17.43-.27a.3.3,0,0,0-.23-.55c-.1,0-.2.06-.3.09-.08-.62-.19-1.23-.28-1.84a.45.45,0,0,0,0-.23c0-.13,0-.25-.07-.38a1.63,1.63,0,0,0-.07-1.47.29.29,0,0,0-.21-.14,174.24,174.24,0,0,0-4.78-19.23c-2.82-9.43-5.68-20.68-13.11-27.67A.41.41,0,0,0,84,26.1a4.6,4.6,0,0,0,1.25-1.6c3.46,4.94,7.07,9.71,10.19,14.89a51.64,51.64,0,0,1,6.85,18,146.49,146.49,0,0,1,2.32,20.78c.23,6.92-.56,13.55-1.27,20.4,0,.47.69.55.81.11a59.19,59.19,0,0,0,1.66-12.11c0,.54.85.5.91-.05A96.05,96.05,0,0,0,106.56,67.24ZM53.29,33.78a40.26,40.26,0,0,0,4.24-.4c5.59-.33,12-1.09,17.52-3.29A29.84,29.84,0,0,1,69,32.26a.6.6,0,0,0-.27,1c-1.09.24-2.17.51-3.26.7s-2.18.34-3.27.49l0-.12.58-.08h.14c.51-.07.39-.93-.12-.9a43.86,43.86,0,0,0-4.45.48c-1.66.14-3.33.22-5,.22C53.28,33.93,53.29,33.85,53.29,33.78Zm-5.81-.17a47.23,47.23,0,0,0,4.76.19,1.48,1.48,0,0,1,0,.21,45,45,0,0,1-4.77-.33S47.47,33.63,47.48,33.61ZM41.74,82.5c-.06-.83-.12-1.65-.2-2.47A.28.28,0,0,0,41,80l0,2.55-.11,0c0-4.56.14-9.11.39-13.65,0-.36-.52-.35-.55,0-.31,4.41-.6,8.92-.76,13.47-1.91-.36-3.85-.62-5.79-.88,0,0,0,0,0,0,1-5.73.85-11.7,1.48-17.48.17-1.59.35-3.17.55-4.75a157.35,157.35,0,0,1,6.63-24.37c1.13.24,2.26.45,3.36.61-3.53,15-4.41,30.41-4.5,45.76C41.73,81.65,41.74,82.07,41.74,82.5Zm-.56,12.08c-.12-2.35-.23-4.7-.26-7,0-.24,0-.47,0-.7l.16,0C41.11,89.43,41.16,92,41.18,94.58Zm-7.5-11.82v-.09l.36.06c1.92.32,3.91.73,5.9,1v.09C37.86,83.44,35.77,83.11,33.68,82.76Zm6.23,2.52v.4l-1.42-.19c-1.6-.24-3.19-.55-4.77-.89,0-.17,0-.34,0-.51Q36.8,84.8,39.91,85.28Zm-26.5-12c0-.25,0-.5.07-.74.31-2.83.73-5.66,1.19-8.47a116.75,116.75,0,0,1,4.19-15.46,150,150,0,0,1,9-19.1,26.53,26.53,0,0,0,3,1.68C22.47,44.86,18.18,60.08,16.75,75.74A36.32,36.32,0,0,1,13.41,73.28Zm3.24,3.54c0,.35,0,.71-.07,1.06-1.16-.47-2.31-1-3.47-1.47.06-.73.13-1.47.2-2.2A29.73,29.73,0,0,0,16.65,76.82ZM37.17,32c0-.12,0-.23,0-.35l.44.12.63.3a28.84,28.84,0,0,0,3.4,1.26l-2.22-.59C38.7,32.53,37.93,32.28,37.17,32ZM17.77,79.44c1.94.78,3.92,1.45,5.91,2,0,.14,0,.27,0,.41q-3-.94-5.91-2C17.76,79.74,17.76,79.59,17.77,79.44Zm.06-1.07c0-.26,0-.52.05-.77a31.83,31.83,0,0,0,5.87,2.76.28.28,0,0,1,0,.09C21.74,79.83,19.78,79.13,17.83,78.37ZM18,76.5c.23-2.88.56-5.76,1-8.62A118.34,118.34,0,0,1,31.73,31.59a38.74,38.74,0,0,0,4,1.48,116.87,116.87,0,0,0-8,22.89c-1.1,4.42-2,8.9-2.67,13.41-.43,2.95-1,6.1-1.15,9.17,0,.24,0,.47-.06.71A34,34,0,0,1,18,76.5Zm13.61,5.88c-1.31-.24-2.61-.51-3.89-.83-.75-.18-1.49-.38-2.23-.59v0a59.91,59.91,0,0,0,6.1,1.4v0S31.56,82.36,31.57,82.38ZM25.41,82l1.48.41c1.69.44,3.42.89,5.18,1.31,0,.18,0,.36,0,.54-2.24-.53-4.46-1.14-6.66-1.81C25.39,82.28,25.4,82.13,25.41,82ZM32,85.16c-.06,2.26-.09,4.52,0,6.77a.64.64,0,0,0,.7.64c0,.67,0,1.34,0,2,0,3-.05,6-.07,9-.25-1.37-.48-2.74-.64-4.1-.59-4.88-1-9.78-1.28-14.69C31.13,84.92,31.58,85.05,32,85.16Zm-.4-4A47.56,47.56,0,0,1,26.32,80l-.81-.25c0-.5,0-1,.08-1.49.35-3,.49-6.1.93-9.07q1-6.51,2.52-12.91c1-4.1,2.18-8.13,3.5-12.13q1-3,2.08-6c.42-1.15.86-2.3,1.3-3.44.1-.26.36-.92.6-1.49l.21.06c0,.17-.1.35-.17.57s.16.18.2,0a4.38,4.38,0,0,0,.15-.57c1,.28,2.06.53,3.08.74.7.2,1.41.38,2.11.55-1.49,4-2.83,8-4,12.15.12-.75.24-1.5.38-2.25.07-.42-.56-.61-.65-.18q-1.3,6.06-2.23,12.17c-.05.23-.12.46-.17.7.15-1.12.29-2.23.43-3.35,0-.3-.45-.35-.52-.07C33,62.68,32.18,72,31.63,81.12Zm7.08-49.95a41.4,41.4,0,0,0,4.83,1.38c-1-.15-2-.31-2.94-.52l-.53-.12a26.75,26.75,0,0,1-3-1.31ZM33,29.25c1,.54,2,1.12,3.07,1.68-1.12-.32-2.26-.68-3.37-1.11Zm-3.85-2.09.46.24a.38.38,0,0,0,.25.5,17.64,17.64,0,0,1,2.46,1c-.12.18-.24.38-.36.57-1-.64-2-1.33-3-2.07ZM25.64,25.8a17.68,17.68,0,0,0,2,2.13l0,.06c-.79-.53-1.55-1.11-2.29-1.72Zm-1.4-2.09a9.59,9.59,0,0,0,.55,1.41c-.11.13-.22.28-.33.42l-.2-.18c-.09-.47-.18-.94-.23-1.41Zm-16,46.47c0-1.49,0-3,.16-4.52.49-5.65,2.18-10.78,3.5-16.25a.31.31,0,0,0-.56-.23c-.2.39-.39.81-.57,1.22.38-1.66.8-3.31,1.28-4.94a58.06,58.06,0,0,1,11-20.36l.13.18a9.66,9.66,0,0,0,.43,1.32A75.73,75.73,0,0,0,12.76,47.4a83.49,83.49,0,0,0-3.6,14.18c-.34,2.15-.61,4.32-.79,6.49C8.31,68.77,8.28,69.47,8.24,70.18Zm9.46,52.16a1.33,1.33,0,0,0-.05-.19l-.24-.87a.46.46,0,0,0,0-.39c-.23-.66-.44-1.32-.67-2-.49-1.94-1-3.88-1.57-5.79a.41.41,0,0,0-.35-.27A167.68,167.68,0,0,1,8.71,81.78.39.39,0,0,0,9,81.37c-.14-1.81-.31-3.59-.44-5.36A.68.68,0,0,0,8.83,76c1.05-.53.67-2,.69-3,.06-2.27.2-4.55.45-6.82a82.76,82.76,0,0,1,3.24-15.56C15.87,42,20,34.46,24.81,27.09A18.36,18.36,0,0,0,27,28.92a86.57,86.57,0,0,0-9,17.89.44.44,0,0,0-.58.28c-.49,1.72-.94,3.44-1.37,5.16A79,79,0,0,0,11.86,71.4a.58.58,0,0,0,.54.61c0,.12,0,.25-.05.37q-.78-.69-1.53-1.44a.25.25,0,0,0-.36.35c.58.68,1.18,1.31,1.8,1.92-.07.64-.14,1.28-.2,1.92,0-.54-.07-1.08-.1-1.62s-.84-.53-.82,0l.09,2.06-1-.44a.24.24,0,0,0-.24.42c.4.26.83.5,1.24.74.12,2.72.26,5.45.46,8.19v.41a48.19,48.19,0,0,0,.75,7.93,149.1,149.1,0,0,0,4.22,23.37c.15.55.93.31.84-.23-1.29-7.63-2.59-15.18-3.64-22.77-.13-1.3-.33-2.59-.52-3.89s-.31-2.63-.45-4c0-.33-.05-.66-.06-1a69.74,69.74,0,0,1,.19-7.08c1.13.59,2.29,1.14,3.46,1.64,0,.18,0,.35,0,.52l-2.85-1c-.18-.06-.31.24-.13.32,1,.42,2,.83,3,1.23a162.73,162.73,0,0,0,1.37,31.49.25.25,0,0,0-.14.27,58.9,58.9,0,0,0,3.12,11.75C19.78,123.1,18.74,122.74,17.7,122.34Zm.15.52c1.06.47,2.14.91,3.22,1.33,0,.09.06.18.1.27.09.26.19.51.28.77q-1.61-.39-3.18-.84Zm.85,3c-.09-.3-.18-.6-.26-.9,1.09.33,2.18.65,3.27,1l.2.53Zm3.39-2c-.27-.76-.54-1.52-.79-2.29-.77-2.43-1.38-4.9-2.1-7.34a.53.53,0,0,0,.19-.34c.68,3,1.55,5.9,2.42,8.81l.36,1.18Zm0-3.54c-1-3.5-1.79-7.06-2.91-10.53-.06-.91-.12-1.82-.19-2.73.15.68.29,1.36.46,2,.1.38.74.32.71-.09-.38-4.93-1.32-9.81-1.81-14.73-.36-3.55-.61-7.1-.78-10.66,0-1.06.07-2.11.12-3.17q2.93,1.17,5.89,2.19a142.25,142.25,0,0,0,0,18.81,101.36,101.36,0,0,0,.77,12.94.29.29,0,0,0,.27.27,98.2,98.2,0,0,0,2,10.56c-1.09-.28-2.17-.59-3.26-.92C22.83,122.42,22.25,120.76,22.13,120.34Zm1.62,4.82c1.06.37,2.13.72,3.21,1l.06.2c-1-.19-2-.39-3.06-.61Zm.56,1.73-.1-.31c1,.25,2,.47,3.06.69l.05.14Zm9.88,0c-1.64-.28-3.27-.59-4.88-1C28.6,123.94,28,122,27.4,120c-.88-3.15-1.34-6.39-2-9.58-.08-.93-.17-1.86-.24-2.79-.05-5-.21-10-.12-14.93.05-3.16.19-6.31.35-9.46,1.5.49,3,.94,4.55,1.36.13,5.17.46,10.31,1,15.44.44,3.94.7,8.36,1.72,12.31v.32a.49.49,0,0,0,.17.38c.1.32.21.64.31,1,.34,2.46.8,4.92,1.19,7.31.14.89.27,1.8.4,2.73-.68-3.62-1.28-7.25-1.95-10.89-.07-.39-.7-.3-.69.09A68.66,68.66,0,0,0,34.19,126.85Zm2.35.38c-.38-1.91-.81-3.81-1.1-5.66-.62-3.95-.91-8-1.71-12,.18-8,.24-16,0-24,1.66.38,3.33.72,5,1l1.12.16a124.64,124.64,0,0,0,.73,16.67c-.05,1.35-.07,2.71,0,4.08l-.09-.45c-.08-.43-.83-.34-.77.11.45,3.85,1.1,7.68,1.88,11.48.36,2.86.73,5.81,1.32,8.69-.23,0-.47,0-.7,0s-.38.46-.08.58h-.68C39.82,127.65,38.17,127.47,36.54,127.23Zm.3,1.64s0-.07,0-.11a65.32,65.32,0,0,0,6.57.48c0,.13.08.27.11.4C41.28,129.43,39.06,129.16,36.84,128.87Zm7.8-1.53q-1-4.71-2-9.44c0-.2,0-.39-.08-.58-.46-3.95-.63-7.92-.91-11.87a.33.33,0,0,0,.14-.27c.09-2.75.18-5.51.22-8.28.45,10.18,1.38,20.34,2.73,30.45ZM43,85.69c.85.08,1.69.16,2.53.2a.37.37,0,0,0,.38-.26q1.52.18,3,.3l0,.6q-3-.16-6-.48Zm5.81,44.37q-1.15-.06-2.31-.15c0-.23-.06-.46-.1-.69.82,0,1.64,0,2.46,0C48.82,129.49,48.8,129.78,48.79,130.06Zm.4-20.37q-.11,7,0,13.94c-.09,1.29-.16,2.57-.23,3.86-.93,0-1.87,0-2.8-.09A339.24,339.24,0,0,1,43,87.08q3,.33,6,.51c.07.73.12,1.45.22,2.17v.09l-.13,0a.57.57,0,0,0,0,1.14.42.42,0,0,0,.12,0c0,2.19,0,4.4.17,6.57C49.27,101.58,49.24,105.67,49.19,109.69Zm1,20.45c0-.56,0-1.13,0-1.69h.2c0,.57,0,1.13.05,1.69Zm.44-22.81c-.09.74-.16,1.5-.25,2.24a.3.3,0,0,0-.1.14c.05-2.33.14-4.67.22-7,0,1.5.1,3,.18,4.49A.38.38,0,0,0,50.65,107.33Zm.21-36.87c-.07,4.71-.2,9.45-.3,14.2H50.3q0-5.52-.06-11.06,0-13.2.22-26.39a.37.37,0,0,0-.73,0q-.21,6.67-.34,13.35a.3.3,0,0,0-.28.28,109.93,109.93,0,0,0-.44,16c0,2.58.06,5.19.19,7.79-.23,0-.45,0-.67,0a.32.32,0,0,0-.33.35l-3.24-.2c-.55-.13-1.1-.28-1.66-.4,0-.15,0-.31,0-.46h.81a.35.35,0,0,0,.09-.69c-.3-.09-.6-.16-.91-.23A253.56,253.56,0,0,1,47.11,35.6c.64.09,1.26.17,1.87.23.37,0,.42-.52.09-.62l-1.8-.49,0-.14a42,42,0,0,0,4.88.37Q51.13,52.68,50.86,70.46Zm6.52,59.8c-1.93,0-3.85,0-5.78-.06l0-1.65.61,0c1.71.14,3.44.24,5.18.29C57.41,129.34,57.39,129.8,57.38,130.26Zm.79-29.59c-.17,9-.5,18-.72,26.92-1.93,0-3.87,0-5.8,0,.06-4.29,0-8.63-.37-12.91.06-1.27.11-2.55.13-3.81a.43.43,0,0,0,.37-.43c.33-7.54.26-15.1.2-22.67h.27c2,.08,4,.16,6,.2C58.26,92.19,58.25,96.44,58.17,100.67Zm.11-13.91c-1.64,0-3.28,0-4.92,0L52,86.67v-.53l1.8.11c1.48.07,3,.17,4.52.24C58.29,86.58,58.28,86.67,58.28,86.76Zm0-2.17c-2.11,0-4.22,0-6.33.06,0-4.73,0-9.47.07-14.19.3-11.84.73-23.67,1.21-35.51.41,0,.82,0,1.22,0a.45.45,0,0,0,.56.43c1-.26,2-.46,3.07-.63s2.23-.21,3.34-.35a.59.59,0,0,1,0,.14c-1.54.2-3.09.37-4.64.49a.51.51,0,0,0-.27.91c-.17,5.5.16,11,.33,16.55s0,11.4.64,17a.47.47,0,0,0,.93,0c0,.18,0,.37,0,.55a.32.32,0,0,0,.1.18C58.39,75,58.33,79.8,58.3,84.59Zm.24-48.14c0-.41-.68-.44-.67,0,.1,5.6.47,11.19.56,16.79,0,2,0,4-.12,6-.11-2.26-.24-4.51-.32-6.74-.2-5.48-.23-11-.75-16.49,1.41,0,2.89-.08,4.39-.18.82,6.53,2,13,2.83,19.55.43,3.33.8,6.67,1.14,10S66,72.22,66.77,75.5a.31.31,0,0,0,.32.24c.07,2.33.15,4.65.3,7a.5.5,0,0,0,.34.47,2.76,2.76,0,0,0-.45,1.54l-.37,0a82.16,82.16,0,0,0-.53-10.89c0-.35-.57-.24-.59.07-.21,3.57-.05,7.18.06,10.78-1.64-.06-3.28-.08-4.92-.09a159.3,159.3,0,0,0-1.16-19.45c.16-3.78-.13-7.7-.21-11.33A165,165,0,0,0,58.54,36.45Zm8.39,51.86c0-.26,0-.52,0-.77a.24.24,0,0,0,0-.41v-.54l.23,0a.22.22,0,0,0,.17.25v0a.36.36,0,0,0-.14.29Q67.1,92.56,66.93,98C67,94.76,67,91.53,66.93,88.31ZM64,86.86c-1,0-2-.08-3.07-.09v-.2c1,0,2,0,3-.07A.34.34,0,0,0,64,86.86ZM59.78,97.28c-.09,4.27-.25,8.53-.44,12.79.07-3.13.13-6.27.19-9.4.07-3.66.17-7.34.25-11C59.81,92.19,59.82,94.73,59.78,97.28Zm4.71,32.54c-1.52.16-3,.31-4.57.38l-.87,0c0-.43.06-.86.1-1.3,1.81.07,3.63.12,5.45.14C64.56,129.31,64.53,129.57,64.49,129.82Zm1-8.2c-.19,2-.44,4-.72,5.94l-5.57,0c.77-10.27,1.4-20.56,1.6-30.87q.09-4.33.11-8.75c1.68,0,3.34-.1,5-.27,0,.39,0,.78,0,1.17,0,5-.2,10,.1,15a.22.22,0,0,0,.2.22q.07,6.73-.38,13.46C65.77,118.89,65.65,120.26,65.53,121.62Zm5.57,7.59-1.26.23c-1.33,0-2.65.11-4,.24l.06-.61c1.74,0,3.48,0,5.22-.08A1.7,1.7,0,0,1,71.1,129.21Zm.45-2.1-.46.06c-1.52.16-3,.28-4.56.38h-.48c.44-5,.83-9.94,1.12-14.92,0,.9,0,1.81.1,2.72a.32.32,0,0,0,.63,0c.33-5.39.14-10.85.15-16.25,0-2.62,0-5.23,0-7.85,0-1.31,0-2.62,0-3.92a5.11,5.11,0,0,0,0-.52c2.23,0,4.53-.16,6.85-.39.08,4,.06,8-.11,12a.36.36,0,0,0,.56.31C75.08,108.23,73.17,117.74,71.55,127.11Zm-2.15-41c1.81-.33,3.62-.67,5.42-1.06v.43C73,85.77,71.22,86,69.4,86.14ZM72.74,127l-.33,0q1.22-6.87,2.39-13.76l.24-1.47A138.6,138.6,0,0,1,72.74,127Zm7.2-7.39c-.47,2.2-1.09,4.37-1.69,6.54-1.36.25-2.72.47-4.1.67a119.37,119.37,0,0,0,2.31-31.66c0-.91-.09-1.83-.18-2.75A.54.54,0,0,0,76,92c.14-1.9.28-3.81.41-5.71,1.89-.24,3.78-.57,5.64-1-.07,5-.16,10-.32,15a.52.52,0,0,0-.13.3C81.05,106.82,80,113.27,79.94,119.57ZM76.5,85.25l0-.5.62-.1v0a.3.3,0,0,0,.19.19c1.09.24,2.5-.55,3.51-.9l.24-.1,1-.22c0,.14,0,.28,0,.41-.6.16-1.21.33-1.83.46C79,84.81,77.76,85,76.5,85.25Zm9.55,37.28c-.21.7-.43,1.41-.67,2.11-1.52.35-3,.68-4.58,1a49,49,0,0,0,.58-6.63.4.4,0,0,0-.25-.4c.16-1,.3-2.11.42-3.17,1.53-5.47,1.89-11.58,2.39-17.19.4-4.54.6-9.09.68-13.64a40.56,40.56,0,0,0,5.87-2.14l.34-.08c.23,4,.36,8.8.46,12.44-.53,6.3-1.06,12.62-2.64,18.76C87.88,116.58,86.93,119.55,86.05,122.53ZM83.91,78.86a88.88,88.88,0,0,0-2.27-12C80,60,78.39,53.21,76.76,46.42c1.73,5,3.41,10.07,3.67,11,2,7.06,2.81,14.08,3.62,21.32A.35.35,0,0,0,83.91,78.86Zm5.21,2.28,1.61-.4c0,.22,0,.43,0,.65-1.1.35-2.21.68-3.34.94a.33.33,0,0,0-.26.28l-2.52.76V83A40.12,40.12,0,0,0,89,81.41.21.21,0,0,0,89.12,81.14ZM95,102a136.44,136.44,0,0,1-3.14,16.38c-.46,1.69-1,3.38-1.45,5.07l-3.18.77a124.62,124.62,0,0,0,3.9-14.85c.58-3,1.13-6.1,1.55-9.23,1.32-6,1-12.39,1-18.45q1.15-.3,2.28-.66c0,.1,0,.2,0,.3A160.91,160.91,0,0,1,95,102ZM91.66,82.19l.26-.07a.6.6,0,0,0,.83,0c0,1,0,2,0,3a.31.31,0,0,0-.17.27c-.1,1-.2,2-.28,3C92.07,86.32,91.86,84.22,91.66,82.19Zm1.12-2c1-.27,2-.56,3-.87l0,.29c-1,.37-2,.73-2.93,1.07C92.81,80.54,92.8,80.37,92.78,80.21Zm8.5-2.56c-1.33.43-2.65.91-4,1.4a2.44,2.44,0,0,0,0-.27,27.88,27.88,0,0,0,3.29-1.47.34.34,0,0,0,.15-.44l.37-.16C101.17,77,101.23,77.33,101.28,77.65ZM96.22,54.77a170.09,170.09,0,0,1,4.67,20.57,4,4,0,0,1-.66.55,19,19,0,0,1-3,.93c0-.66,0-1.31-.07-2a.34.34,0,0,0-.18-.27c-.06-.55-.1-1.1-.17-1.65a.47.47,0,0,0-.2-.34c-.5-3.5-1.18-7-2-10.37,1.23,4.5,2.08,9,3.15,13.64a.22.22,0,0,0,.42-.06c-.37-8-2.87-16.19-6.38-23.78A99.21,99.21,0,0,0,81.12,28.6a.41.41,0,0,0-.71.42c2.25,4.43,4.38,8.89,6.29,13.44-.69-1.15-1.4-2.28-2.12-3.38a.13.13,0,1,0-.22.13c1.32,2.12,2.53,4.32,3.68,6.55,1.37,3.5,2.6,7.07,3.64,10.73a127.89,127.89,0,0,1,3.72,20,29,29,0,0,0-2.87,1.14C91,63.9,86.73,50.3,81,37.76c-.22-.48-.88-.09-.73.38a57.67,57.67,0,0,0-3.45-5.63.34.34,0,0,0-.59.35c3.69,7,7,14.15,9.13,21.86a84.47,84.47,0,0,1,2.33,11.79c.33,2.65.42,5.43,2.08,7.62a.54.54,0,0,0-.22,0c-.35.07-.26.61.09.61s.66,1.55.88,3.88c-1.08.53-2.16,1.07-3.24,1.54l-2.64,1.22c0-.42,0-.84,0-1.27a.34.34,0,0,0,.18-.26c.94-8.18-1.38-17-3.82-24.78-1.27-4-2.74-8-4.35-11.86-.69-1.66-1.4-3.31-2.15-5-.46-1-.65-2.27-1.79-2.58a.32.32,0,0,0-.36.14c-.17.34-.18.4,0,.73a.28.28,0,0,0,.38.1l.15-.06a.2.2,0,0,0,.08-.1c.58,1.15,1.86,4.63,3.2,8.44a.4.4,0,0,0-.52.45c1.5,6.7,3,13.41,4.47,20.11.79,3.49,1.52,6.93,2,10.4q0,3.14-.08,6.25c-1.84.42-3.67.87-5.5,1.32a49,49,0,0,0-.12-10.69,91.88,91.88,0,0,0-3.26-20.38c-.46-2-.95-3.94-1.48-5.89a64.31,64.31,0,0,0-3.16-10c-.18-.44-.88-.28-.74.21l1.26,4.58c.72,2.86,1.33,5.76,1.88,8.66a.2.2,0,0,0-.22.24c.73,4.72,1.55,9.4,2.25,14.11.15,1.3.33,2.6.54,3.89.28,2.17.52,4.35.7,6.54.26,3.06.41,6.14.51,9.22l-.72.17c-1.92.27-3.85.49-5.79.7l-.43,0a2.28,2.28,0,0,1,.48-1.62.17.17,0,0,0,0-.19.52.52,0,0,0,.07-.23c.62-7.71-.16-15.81-.9-23.5-.72-7.48-1.86-14.9-3.3-22.28-.09-.48-.82-.27-.74.21,1.38,7.68,2.36,15.41,3,23.19.1,1.23.17,2.46.23,3.69q-.51-4.91-1.17-9.78c-.82-6.16-1.65-12.43-3.07-18.5a28.2,28.2,0,0,0,9.94-2.29.43.43,0,0,0,.09-.66,19.6,19.6,0,0,0,8.56-5.22,6.7,6.7,0,0,0,2.19-2.64c0,.16-.08.32-.13.49l-.6.88a.31.31,0,0,0,.35.45,3.11,3.11,0,0,0,.41-.2.58.58,0,0,0,.32,0,.47.47,0,0,0,.07.17C90,35.17,93.26,44.71,96.22,54.77Zm-6,17.63a41.14,41.14,0,0,1-1.07-5.46Q89.75,69.66,90.25,72.4Zm15.67,10.43c0-1.74,0-3.47-.06-5.16a138.43,138.43,0,0,0-2.19-20.61C101.45,44.53,94.39,33,85.53,23.89h0A8.53,8.53,0,0,0,86,21.43c7.32,8.87,14.66,17.78,17.15,29.33a145,145,0,0,1,2.23,18.13A138,138,0,0,1,105.92,82.83Z"/><path class="cls-2" d="M108.09,66.93c-.34-6.66-1.17-14-4-20.07-.07-.16-.28,0-.25.1.64,3.63,1.41,7.17,2,10.74l-.06,0C103.28,42,96.64,27,85.73,15.46c-.72-.86-1.45-1.72-2.19-2.54a.28.28,0,0,0-.36,0l-.86-.82c0-.19,0-.39-.07-.58v0l-.24-2h0c0-.06,0-.11,0-.17h0c-.23-.61-1.17-.63-1.27,0a2,2,0,0,0-.33-.15.35.35,0,0,0,0-.11,2.64,2.64,0,0,0-.11-.92c-.2-.84-1.6-.22-1,.56l.23.26h-.09a.27.27,0,0,0-.39,0,7.21,7.21,0,0,0-2,.26.59.59,0,0,0-.45.49c-.22-.45-.44-.89-.67-1.32a.27.27,0,0,0-.45,0,6.74,6.74,0,0,0-1.6-2.54l.68-.06h0l.2,0a.19.19,0,0,0,.14-.09l.38.09a.35.35,0,0,0,.39-.5,2.23,2.23,0,0,0-.47-.5l0-.06-.08-.12.18-.18c.19-.18,0-.43-.23-.4s-.34.18-.5.28a21.76,21.76,0,0,0-2.94-.92.74.74,0,0,0-.86.43l-1.11-.08a19.17,19.17,0,0,0-2.84-.64A1,1,0,0,0,66.6,3a.22.22,0,0,0,0-.08,1.76,1.76,0,0,0-3.45-.17c-1.26-.05-2.52,0-3.74,0a.57.57,0,0,0,0-.18.7.7,0,0,0,.87-.68C60.19.75,59.09-.34,58,.33a1.31,1.31,0,0,0-.44,1.78,39.32,39.32,0,0,0-4.1-.22.32.32,0,0,0-.37-.23,1.27,1.27,0,0,0-2.45.28l-.68,0A1,1,0,0,1,50,1.82c.14-.31-.3-.58-.47-.28s-.16.32-.24.47L49,2A1.84,1.84,0,0,0,46.23.59a1.72,1.72,0,0,0-.63.68,1.07,1.07,0,0,0,.13,1l.1.17c-1.32.19-2.62.41-3.91.69L41.85,3a1.51,1.51,0,0,0-1.1-.35,13.71,13.71,0,0,0-1.55,0,.36.36,0,0,0-.45-.28,2.19,2.19,0,0,0-.16-.3.64.64,0,0,0-1.16.49,2.09,2.09,0,0,1,0,.49c-13.6,7.42-24.7,21.31-30.89,35.22-7.7,17.29-7.8,36.52-4.06,54.81a164.79,164.79,0,0,0,10,32.33c.2.47,1,.14.82-.34-.42-1.44-.86-2.87-1.31-4.3h0a14.27,14.27,0,0,0,1.76-1.43c.13-.12.28-.25.42-.39a49.78,49.78,0,0,0,3.21,5.93.56.56,0,0,0,1-.56c-1-2.23-1.95-4.46-2.84-6.7l.14,0a.52.52,0,0,0,.71.07,2.88,2.88,0,0,1,.35-.26,6.53,6.53,0,0,0,1.82-.79q.9,2.44,1.91,4.84a.64.64,0,0,0,.71.29l2.1-.46a.63.63,0,0,0,.37-.92c-.84-1.77-1.6-3.58-2.3-5.4a.61.61,0,0,0,.14-.07l.1-.07a.62.62,0,0,0,.86.65l1.88-.83c.28-.12.59-.22.87-.37.53,2,1,4,1.4,6.07a.68.68,0,0,0,.81.46l3.55-.6a.66.66,0,0,0,.46-.81c-.76-2-1.45-4-2.12-6a1.67,1.67,0,0,0,1.6-.25c.58,2.2,1.18,4.39,1.82,6.57a.68.68,0,0,0,.64.48l2.12.26c.44,0,.74-.47.64-.85-.62-2.31-1.19-4.64-1.74-7,1.6,0,3.85.09,5.22-.84a.41.41,0,0,0,.15-.44.39.39,0,0,0,.08-.1h.1q.46,3.23,1,6.45a.47.47,0,0,0,.44.41l-.06.07a.51.51,0,0,0,.3.74,5.72,5.72,0,0,0,2.47,0,.58.58,0,0,0,.4-.4.53.53,0,0,0-.22-.59h0c-.2-1.9-.35-3.8-.49-5.7a.77.77,0,0,0,.27.08c1.31.09,2.94.28,4.09-.44,0,0,0,0,.06-.06q.23,3.53.49,7.07a.45.45,0,0,0,0,.23.49.49,0,0,0,.78.28c.58.06,1.16.13,1.74.15s1.15.11,1.49-.32a.65.65,0,0,0,.16-.61l0-.07a.72.72,0,0,0-.42-.36c-.22-2.3-.39-4.62-.55-7a.41.41,0,0,0,.24.16s.06,0,.09,0c-.18.33.14.91.58.74l.08,0a.46.46,0,0,0,.39.19,22.05,22.05,0,0,0,3.8-.24.63.63,0,0,0,.5.09,2.36,2.36,0,0,0,.74-.33l.48-.13c-.27,2.74-.91,8.67,3.12,7.3a.39.39,0,0,0,.28-.37l.06-2.49a.46.46,0,0,0,.14-.33c0-1.17.08-2.34.13-3.52h0a2.32,2.32,0,0,0,.5-.37,2.89,2.89,0,0,0,2.9,0,.43.43,0,0,0,.13-.17.68.68,0,0,0,.45.12h0a.77.77,0,0,0,.34-.12c-.11,2.06-.18,4.11-.16,6.12h0a.47.47,0,0,0,.25.66l.56.26c0,.07,0,.15,0,.23,0,.48.61.54.82.2a11.23,11.23,0,0,1,1.2.83c.41.3.92-.12.94-.54.09-1.8.19-3.61.29-5.42,1.84-.2,4.08,1.36,5.8.52-.43,1.53-.9,3-1.4,4.57a.55.55,0,0,0,.53.69q1.48.21,3,.39c.28,0,.48-.26.5-.51.15-1.73.39-3.45.67-5.18l.61.23a.32.32,0,0,0,.13.29,2.26,2.26,0,0,0,2.37.57c.28-.11.17-.53-.07-.6l-.11,0a.91.91,0,0,0,.13-.08.43.43,0,0,0,.11-.43.34.34,0,0,0-.07-.11.6.6,0,0,0,0-1,4.83,4.83,0,0,0-2.81-.64l.09-.47a4.34,4.34,0,0,1,1.24.1,7.29,7.29,0,0,0,1.54.45.58.58,0,0,0,.55-.7.43.43,0,0,0,.21-.48c-.11-.43-.4-.55-.79-.74l-1.26-.6a.6.6,0,0,0-.82.75l-.45,0c.38-2,.78-4.09,1.14-6.14a.36.36,0,0,0,.49-.23c1.62-6.39,2.1-13.24,2.56-19.83.75-6,1.12-12.23,1.36-18.33a91.26,91.26,0,0,0,.54-15.16.72.72,0,0,0,.17.18c.16.12.47.4.81.64a.42.42,0,0,0,.54.31.57.57,0,0,0,.76-.15c.46-.7-1.12-1.52-1.52-1.81a.49.49,0,0,0-.77.25c0-.22,0-.45,0-.68a4.12,4.12,0,0,1,1.32.49,4.28,4.28,0,0,0,1.17.7.47.47,0,0,0,.58-.57c-.2-1.07-1.9-1.61-2.81-1.75a.83.83,0,0,0-.32,0c0-.27,0-.55,0-.83.55.35,1.12.67,1.68,1a4.83,4.83,0,0,0,1.81.81c.48,0,.6-.56.36-.86a5.08,5.08,0,0,0-1.68-1c-.63-.33-1.25-.66-1.9-.94a.55.55,0,0,0-.33,0c-.06-.87-.12-1.74-.19-2.6,0-.34-.55-.35-.53,0,.1,1.81.15,3.6.16,5.4-.21-2.49-.5-5-.89-7.36a.15.15,0,0,0-.25-.07C85,34.94,82.16,26.7,78.77,20l0-.05A111.3,111.3,0,0,0,73.19,6.39a8.68,8.68,0,0,1,.89,1.18,15.09,15.09,0,0,1,1,2.58.35.35,0,0,0,.69-.09,3.07,3.07,0,0,0,0-.67c1.35,3.49,2.42,7,3.65,10.54a.33.33,0,0,0,.54.15A140.63,140.63,0,0,1,84.76,36c0,.17.35.14.33,0a56.29,56.29,0,0,0-5.27-17.51,37.62,37.62,0,0,0-2.87-8,.64.64,0,0,0,.46.07,5.58,5.58,0,0,1,.81-.09.6.6,0,0,0,.4.47,4.94,4.94,0,0,1,1.43.58,2.58,2.58,0,0,1,.36.38,97.68,97.68,0,0,1,7.21,16.76c2.1,6.51,2.82,13.12,4.28,19.75a.31.31,0,0,0,.6-.08c0-.34,0-.68,0-1,.08.94.14,1.87.2,2.81a1.07,1.07,0,0,1-.73-.55.57.57,0,0,0-1.07.18l-.51.51a.51.51,0,0,0,.36.86c.73.09.56.85.53,1.32a.41.41,0,0,0,.61.35,1.26,1.26,0,0,0,.33-1.5,1.54,1.54,0,0,0,.43,0,.37.37,0,0,0,.14,0c0,.8.1,1.6.16,2.4a.26.26,0,0,0,.38.21c0,1,0,1.91,0,2.86a.24.24,0,0,0,.35.2c0,4.92,0,9.85-.14,14.77,0,.2.28.19.29,0,.33-6.09.59-12.24.63-18.39.46.41.93.8,1.42,1.16l-.3-.18A.63.63,0,0,0,95,55.33l.57.34a.49.49,0,0,0,.37.61,4.73,4.73,0,0,0,1.11.21.29.29,0,0,0,.24-.12.55.55,0,0,0,.17,0,.42.42,0,0,0,.22-.38.81.81,0,0,0-.34-.65,1.44,1.44,0,0,0,.5.07.44.44,0,0,0,.42-.44,1,1,0,0,0,.63,0,.42.42,0,0,0,.29-.39c0-.74-.87-1.08-1.44-1.4a14.46,14.46,0,0,0-1.51-.67,1.86,1.86,0,0,0,.34-.07.36.36,0,0,0,0-.7,3.09,3.09,0,0,0-1-.12.46.46,0,0,0-.41.66.41.41,0,0,0-.11.07l-.08-.05a.55.55,0,0,0-.41-.13c0-.72,0-1.44,0-2.17A54,54,0,0,0,91,28.34a56.41,56.41,0,0,0-7.32-14.11c.09.1.18.19.26.29,3,4.37,6.19,8.57,8.88,13.13,3,5.09,4.29,11.17,5.42,16.92A125.7,125.7,0,0,1,99.87,79a.44.44,0,0,0-.32.37c-.26,2.4-.55,4.78-.87,7.17a.34.34,0,0,0-.09.18q-.86,6.09-2.11,12.11c-.59,2.45-1.26,4.88-1.84,7.32a.45.45,0,0,0-.41.34q-2.31,7.56-4.72,15.09s0,0,0,0,0,0,0-.08c.15-.4-.42-.57-.64-.27a3.18,3.18,0,0,0-.67,1.55c-.06.49.55.88.86.45v0a.45.45,0,0,0,.86,0l1-3a.3.3,0,0,0,.53,0c.54-1.12,1-2.29,1.46-3.49a.42.42,0,0,0,.18.11h0c-.55.17-.69,1.09,0,1.23a3.76,3.76,0,0,0,.48.13l.44.17a1.62,1.62,0,0,0-.07.61c.07.5.74,1,1.15.48a5,5,0,0,0,.64-1.55c.19-.54.48-1,.63-1.61a.58.58,0,0,0-.82-.64l-.16-.12a.58.58,0,0,0-.35-.25H95l-.07,0a.33.33,0,0,0-.34,0,10.38,10.38,0,0,0-1.12-.14c.86-2.62,1.54-5.33,2.17-8A88.77,88.77,0,0,0,98.49,95a111.37,111.37,0,0,0,1.62-11.65.17.17,0,0,0,.33,0,4.32,4.32,0,0,0,0-1.39.13.13,0,0,0-.2-.08c.06-.85.13-1.71.16-2.56a.25.25,0,0,0,0-.15.26.26,0,0,0,.32-.17A64.93,64.93,0,0,0,102,61.88a.32.32,0,0,0-.59-.16q0-.6,0-1.2a.86.86,0,0,0,.23.13,5.15,5.15,0,0,1,2.08,1.4.72.72,0,0,0,1.12-.15c.25-.56.09-1.29-.59-1.35a5.23,5.23,0,0,0-.64-.5.75.75,0,0,0,.49-.91.67.67,0,0,0,.32-.55l.45,0a89.3,89.3,0,0,1-1.07,34.29.48.48,0,0,0,0,.24c-1.22,5.06-2.21,10.15-3.82,15.13-.31,1-.65,1.9-1,2.85-1.22,3-2.39,6.09-3.69,9.07-.83,1.82-1.69,3.62-2.62,5.4-.25.46.46.87.7.41,5.13-9.93,9.89-21.38,11.22-32.66a.48.48,0,0,0,.09-.19A92.36,92.36,0,0,0,106,58.6l.06-.06a72.43,72.43,0,0,1,1,8.92A113.13,113.13,0,0,1,105.81,89a144.76,144.76,0,0,1-4.06,19.34A74.45,74.45,0,0,1,97.14,120a3.9,3.9,0,0,0-.7.47.47.47,0,0,0,.08.79c-1.17,2.32-2.42,4.6-3.7,6.83-.42.74.76,1.4,1.12.66,1.12-2.35,2.28-4.67,3.41-7a.67.67,0,0,0,.77-.16,2.39,2.39,0,0,0,.78-1.32.56.56,0,0,0-.52-.68,83.94,83.94,0,0,0,4.2-10.46A132.16,132.16,0,0,0,107,87.68,110.81,110.81,0,0,0,108.09,66.93ZM63.49,4l.06.19H60.78a1.35,1.35,0,0,0-.28-.49C61.5,3.71,62.5,3.82,63.49,4ZM53.6,3C54.73,3,55.86,3,57,2.9a.39.39,0,0,0,.28.66c.42,0,.83,0,1.25,0,0,0-.07,0-.09.09a.29.29,0,0,0,0,.3.4.4,0,0,0,0,.13.15.15,0,0,1,0,.07c-1.61,0-3.22.08-4.82.19,0-.2,0-.4,0-.6a.44.44,0,0,0,0-.3c0-.09,0-.19,0-.29A.18.18,0,0,0,53.6,3Zm-2.18,2.6c-.39,3.28-.79,6.59-1.11,9.92a65.85,65.85,0,0,1,.89-8.29C51.28,6.86,51.33,6.27,51.42,5.64ZM48.79,4.57l2.37-.3c0,.1,0,.2-.06.3-.81.08-1.62.17-2.43.29Zm-.15,1.12h-.29l0-.07c.86-.1,1.71-.16,2.57-.23C49,14.36,49,23.82,48.59,32.93c0,.92-.07,1.84-.12,2.76a.37.37,0,0,0-.6.27c-.2,2-.3,4-.36,6h0a3.94,3.94,0,0,1-1.64,0c-.37-.12-.63.47-.27.62a2.46,2.46,0,0,0,1.56.16.17.17,0,0,0-.11.06,1.13,1.13,0,0,0-.12.18.28.28,0,0,0-.47.15l-.33,1.25a4.35,4.35,0,0,0-.23,1c-1.3.09-2.61.31-3.92.37a1.24,1.24,0,0,0,.17-.5l.23,0a.34.34,0,0,0,.56.11s0,0,0,0a3,3,0,0,0,1.2,0,.36.36,0,0,0,.09-.64,2.74,2.74,0,0,0-1-.28l0-.24c0-.2,0-.39.08-.58a1.79,1.79,0,0,0,.57,0A.32.32,0,0,0,44,43a1.92,1.92,0,0,0-.54-.19l0-.2c.07-.52-.72-.77-.82-.22l-.05.32-.25,0c0-.23-.35-.4-.48-.12s-.19.43-.28.65l.09-1.55c.73-11.93,2-24,6.33-35.17l.61-.07A.36.36,0,0,0,48.64,5.69Zm-5.58,7.39v0a38.33,38.33,0,0,1,2.5-6.29l1.56-.17a72.33,72.33,0,0,0-4.43,14.88c0-.22,0-.44.07-.66a.21.21,0,0,0-.19-.21c.23-2.42.5-4.82.84-7.23A.26.26,0,0,0,43.06,13.08ZM48,4.68c-.05.11-.09.22-.14.32l-1.44.27.22-.41Zm-1.55-1.1s0,0,0,0c-1.23.2-2.44.47-3.62.77a1.6,1.6,0,0,0,0-.21C43.93,4,45.16,3.74,46.41,3.58ZM38.3,6.28A.64.64,0,0,0,38.52,6a.86.86,0,0,0,.14-.18,1.54,1.54,0,0,0,.08-.19l.1,0a.46.46,0,0,0,.21-.62l1.76-.37a.62.62,0,0,0,0,.33c-.27.08-.54.15-.8.24a.44.44,0,0,0,.24.85c1.72-.38,3.43-.67,5.14-.93-.09.14-.17.29-.26.44l-.5.09a.21.21,0,0,0-.12.08,36.55,36.55,0,0,0-6.47.77ZM31,10.93a37.14,37.14,0,0,0-5.32,7.48A32.68,32.68,0,0,0,21,27.72.48.48,0,0,0,21,28,85,85,0,0,0,17,49a.33.33,0,0,0-.37,0l-.07.05c0-.16-.05-.33-.09-.49a.48.48,0,0,0-.9-.07,14.46,14.46,0,0,0-4,1.44C13.35,35,19.64,20.55,31,10.93ZM18.53,65.6c0,.08,0,.17,0,.25a.44.44,0,0,0-.16.23,4.94,4.94,0,0,0-.05,2.23.43.43,0,0,0,.55.33c0,.22,0,.45.07.67a.28.28,0,0,0-.12.21,11.53,11.53,0,0,0,0,1.44.45.45,0,0,0-.18.41c0,.29,0,.58,0,.87a.66.66,0,0,0-.27-.12c-.15-2.64-.27-5.3-.35-8a.44.44,0,0,0,.63-.29c.33-1.61-.28-3.56-.62-5.14a.38.38,0,0,0-.09-.15c0-.42,0-.83,0-1.25.21.36.88.3.86-.21a15.26,15.26,0,0,1,.05-1.66c.07,3.31.22,6.61.41,9.9A.42.42,0,0,0,18.53,65.6Zm.39-10.87h0c0-.33-.51-.58-.68-.19a3.7,3.7,0,0,0-.19.59,106.52,106.52,0,0,1,1.81-17.84A111.89,111.89,0,0,0,18.92,54.73Zm-7-2.25a.52.52,0,0,0,0,.25,5,5,0,0,1-.58.21c0-.35.07-.71.1-1.06l.09-.24a.39.39,0,0,0,0-.4c0-.21,0-.43.05-.64a.39.39,0,0,0,.15,0,26.46,26.46,0,0,0,3.94-1.33c0,.24.05.47.06.7v0l-.13.33a.29.29,0,0,0-.11-.11h0a.34.34,0,0,0-.24-.37c-.88-.14-1.86.51-2.65.84a.41.41,0,0,0-.24.33l-.55.38A.61.61,0,0,0,11.89,52.48ZM21.94,18.63A62,62,0,0,0,12.58,38a66.28,66.28,0,0,0-1.9,9,.41.41,0,0,0-.67.25c-.08.43-.16.86-.22,1.29,0,0,0,0,0,.07-.18,1.25-.32,2.52-.41,3.78l-.14,0a1.94,1.94,0,0,0-.39.12.5.5,0,0,0-.77.29.45.45,0,0,0-.06.12.34.34,0,0,0-.23,0,1.93,1.93,0,0,0-.35.35l-.26.17a.39.39,0,0,0-.2.42L6.85,54a67.19,67.19,0,0,1,12-31.47C19.86,21.16,20.89,19.88,21.94,18.63ZM10.11,114.89c-1.8-5.56-3.59-11.13-5-16.83a117,117,0,0,1-3.6-28.9,79.83,79.83,0,0,1,.66-9.31.58.58,0,0,0,1,.26c.29-.33.62-.63.93-.94a.44.44,0,0,0,0-.65,10.19,10.19,0,0,0,.61-1.76.62.62,0,0,0-1-.6,3.67,3.67,0,0,0-1.2,1.77.54.54,0,0,0,.22.63l-.46.83a76.24,76.24,0,0,1,9.52-28A69.36,69.36,0,0,0,8.53,39c-6.28,17.63-4,37.18-1.16,55.29a109.08,109.08,0,0,0,4.68,19.5,4.05,4.05,0,0,0-1.05.45A4.16,4.16,0,0,0,10.11,114.89Zm1.72,1a2.69,2.69,0,0,1,0,.58l0,0a.53.53,0,0,0-.43-.26c-.06-.15-.12-.31-.17-.46a.48.48,0,0,0-.09-.14,3.7,3.7,0,0,1,.51-.29,6.66,6.66,0,0,1,.9-.26l.12.27h-.2A.59.59,0,0,0,11.83,115.84Zm1.26,2.73c-.17.19-.35.36-.52.53a5.09,5.09,0,0,0-.16-1.18,2.73,2.73,0,0,0,.58-1.5h.09c.2.48.38,1,.59,1.43C13.46,118.07,13.29,118.34,13.09,118.57Zm.63-5.68a102.43,102.43,0,0,1-4-14.54A224.78,224.78,0,0,1,6.39,70a92.52,92.52,0,0,1,0-11.66.63.63,0,0,0,.44-.58,6.88,6.88,0,0,0-.07-1,.69.69,0,0,0,.4-1l0-.55.38,0h0a.33.33,0,0,0,0,.29c0,.1.17.33.18.41a.68.68,0,0,0,1.13.43.52.52,0,0,0,.3-.51c0-.82,0-1.64-.07-2.46l.22-.19c-.07,1.1-.12,2.2-.14,3.29a1.11,1.11,0,0,1,0,.19A.4.4,0,0,0,9.3,57a10.12,10.12,0,0,0-.22,2.57.43.43,0,0,0,.07.24A37.64,37.64,0,0,0,9,65.12a.46.46,0,0,0,.05.21c.14,3.29.49,6.59.74,9.86a.43.43,0,0,0,.14.31c.09.85.19,1.71.36,2.53.33,4.49.93,9,1.71,13.44a122.69,122.69,0,0,0,4.81,20.27C15.81,111.53,14.48,112.35,13.72,112.89Zm3,3.39-.13,0c.37-.69.64-1.48.25-2a1.19,1.19,0,0,0-.23-.22.5.5,0,0,0-.17-.66l-.11-.06a.47.47,0,0,0-.68.32,7.59,7.59,0,0,0-.84.86l-.06.07-.07.09h0l-.09.12a.37.37,0,0,0-.07.16c-.14-.36-.29-.72-.42-1.08a.42.42,0,0,0,.14-.06,7.21,7.21,0,0,1,1.6-.85,4.53,4.53,0,0,0,1.24-.52c.34,1,.71,2,1.07,3A9,9,0,0,0,16.7,116.28Zm3.35-4.79c-.3-.89-.59-1.77-.87-2.66-.09-.35-.19-.69-.28-1a60.29,60.29,0,0,0-1.69-6.13c-1.12-4.45-2.06-9-3-13.42C13.32,83.55,12.53,78.8,12,74c0-.59,0-1.19,0-1.79a.5.5,0,0,0-.22-.44,105.57,105.57,0,0,1-.48-17.6l.13,0a12.4,12.4,0,0,0,2.43-.36.6.6,0,0,0-.15-1.17c.16-.12.32-.23.47-.36.34-.31.09-.71-.26-.8l.15-.07a3.65,3.65,0,0,0,1.41-.65,3.42,3.42,0,0,0,0,.46.53.53,0,0,0,.32.55h0v0a.61.61,0,0,0-.61.57l-.12.06a.67.67,0,0,0,.51,1.22,6.41,6.41,0,0,0,1.33-.4c-.23,6.48,0,13,.36,19.47.47,7.91.91,15.83,2.85,23.55,1.16,4.57,2.61,9.06,3.94,13.57a6,6,0,0,0-3.86,1.55A.13.13,0,0,0,20.05,111.49Zm0-34.44A.54.54,0,0,0,20.3,77c.08.77.16,1.53.25,2.29l-.06,0c0-.23-.1-.45-.15-.69C20.23,78.05,20.12,77.55,20.05,77.05ZM21.24,88.8a.53.53,0,0,0,.66-.07c.18,1.07.39,2.13.59,3.2-.07-.19-.14-.39-.22-.57a.38.38,0,0,0-.49-.25ZM21,114.05c-.22-.59-.44-1.18-.65-1.77a.35.35,0,0,0,.35-.07,2,2,0,0,0,.19-.12,5,5,0,0,0-.23.72,1,1,0,0,0,.49.84,1.31,1.31,0,0,0,.28.09Zm2.88-.4-1.55.71,1.56-1.14a.53.53,0,0,0-.13-1,1.29,1.29,0,0,0-.33,0l.12-.07c.61-.36-.23-1.21-.59-.59l-.14.22a.36.36,0,0,0,.18.5,2.5,2.5,0,0,0-.47.18,4.15,4.15,0,0,1-.6.29.61.61,0,0,1-.19,0c0-.11.08-.34.09-.45a.84.84,0,0,0-.1-.44.58.58,0,0,0-.23-.18,5.78,5.78,0,0,1,1-.46c.56-.19,1.18-.22,1.73-.41.23.79.46,1.59.68,2.38A6.86,6.86,0,0,0,23.85,113.65Zm5.54,4.1s0,0,0,0c.17.48.33,1,.51,1.42l-.57.1c0-.24-.05-.49-.07-.73a.73.73,0,0,0-.1-.28A.42.42,0,0,0,29.39,117.75Zm-.52-5.58C23.32,94.83,21,77.05,20.36,58.74c-.08-2.68-.1-5.43-.07-8.2a.58.58,0,0,0,.75-.15h0a5.05,5.05,0,0,0,1.16-.76.39.39,0,0,0-.38-.64,2.64,2.64,0,0,0-.7.24V49c.16-.38.53-.6.85-1a.31.31,0,0,0,.07-.25.32.32,0,0,0-.11-.46,1.18,1.18,0,0,0-1.3.11.48.48,0,0,0-.29,0c.54-14.54,3.68-29.42,15-39C28.05,19.09,25,32.57,24,45.62a1,1,0,0,0-.85,0,.43.43,0,0,0-.21.61l-.53.17a.52.52,0,0,0,.28,1l1-.25c-.05.11-.1.21-.13.29a2,2,0,0,0-.13.75l-.18.12c-.34.29,0,.74.38.68a.51.51,0,0,0,.2.21c-.16,3-.25,6-.24,8.87A217.57,217.57,0,0,0,29.82,109a5.26,5.26,0,0,1-1,.28.51.51,0,0,0-.35.86.38.38,0,0,0,.44.27c.68-.08.53.57.59,1,0,.22.22.48.48.37a.79.79,0,0,0,.46-.43c0,.16.09.32.13.49A3.46,3.46,0,0,1,28.87,112.17ZM26.82,65.11c.2-4.81.4-9.64.47-14.44l.09-.74c0,1.65,0,3.3-.07,4.94-.08,4.21-.29,8.45-.15,12.66a.45.45,0,0,0-.45.5c0,3.23.23,6.49.54,9.74a.54.54,0,0,0-.2-.22c-.07-.76-.16-1.52-.22-2.28-.14-1.81-.18-3.66-.37-5.48l0-.92a.31.31,0,0,0,.19-.33c0-.32,0-.64,0-1a.26.26,0,0,0,.06-.14l0-2.3S26.82,65.12,26.82,65.11Zm.33,20.29a.28.28,0,0,0,.22.26l.69,4.42a.41.41,0,0,0-.36.38c0,.56,0,1.13,0,1.7l-.27-1.57q-1.28-8.16-1.91-16.39C25.87,78,26.64,81.83,27.15,85.4ZM31,104.63c-.06-.27-.1-.54-.16-.8-.18-1.55-.37-3.09-.56-4.64q1.23,6.91,2.81,13.75Q32,108.82,31,104.63Zm3.05,6.82c-.13-.58-.28-1.17-.41-1.75l.44,0a.44.44,0,0,0,0,.32c.11.31.22.62.34.93l0,.13Zm3-.19c-.46.06-.92.1-1.38.13a.62.62,0,0,0,0-.55l-.11-.23a.37.37,0,0,1,.25-.2.57.57,0,0,0,.5-.81c.54,0,1.07,0,1.6-.12a1.74,1.74,0,0,0-.08.94.51.51,0,0,0,.72.41V111s0,.08,0,.12C38.1,111.12,37.6,111.2,37.09,111.26Zm2.35-2.9c-1.92-.29-4,.35-5.85.83h0c-1.09-4.86-2.05-9.76-2.85-14.69-1.42-8.8-2-17.64-3-26.48a.42.42,0,0,0,0-.12c.35-4.32.3-8.7.39-13,.08-3.79.27-7.61.14-11.41l.12-1.15c.33-2.63.6-5.25.68-7.89l.2-.47a.18.18,0,0,0,0-.19,28,28,0,0,0,.89-3.93A95.6,95.6,0,0,1,33.5,18c0-.1-.13-.18-.18-.08s-.13.29-.2.43c.17-.6.34-1.21.56-1.81.59-1.66,1.51-3.15,2.14-4.78,0-.12-.14-.23-.22-.13-2.14,2.55-3.34,6.47-3.82,9.72a40.06,40.06,0,0,0-1.45,4.29.12.12,0,0,0-.15.1c-.47,2.12-.95,4.3-1.33,6.47a.14.14,0,0,0-.06.11l-.06.62c-.08.52-.17,1-.25,1.56a.25.25,0,0,0,.1.23c-.19,2.16-.4,4.32-.65,6.48a.13.13,0,0,0-.1.13c0,.2,0,.4-.06.6v-.22a.23.23,0,0,0-.45-.06A11.53,11.53,0,0,0,27,43c.15-1.13.27-2.27.34-3.4a.21.21,0,0,0-.4,0,54.49,54.49,0,0,0-1.13,7.74c0,.26.4.32.46.06.23-1.14.43-2.29.6-3.46-.17,1.52-.19,3.11-.28,4.53,0,.22.17.27.32.22,0,.38,0,.75,0,1.11A56.1,56.1,0,0,0,26,55.81c0-.31-.06-.61-.11-.93s-.59-.24-.62.09c-.06.88-.14,1.76-.22,2.63a2.55,2.55,0,0,0-.15,1.46.53.53,0,0,0,.35.48c0,1.26.07,2.51.11,3.77a.5.5,0,0,0,.11.3q0,1.89,0,3.78s0,0,0,0a30.39,30.39,0,0,0-.12,4.28c-.25-3.81-.43-7.63-.48-11.45a121.88,121.88,0,0,1,2.79-29.76,84.09,84.09,0,0,1,9.61-23l1.53-.08c-.09.18,0,.45.24.44a.7.7,0,0,0,.71-.52c1.54-.13,3.1-.29,4.64-.46a32.11,32.11,0,0,0-1.51,3.32.18.18,0,0,0-.18.17c0,.17-.05.35-.08.52a60.11,60.11,0,0,0-2.8,12.42c-.88,6.58-1.5,13.22-2,19.86a.31.31,0,0,0-.5.19l-.12.54a1.88,1.88,0,0,0-.33,0,.27.27,0,0,0-.17-.47,5.7,5.7,0,0,0-1.62.33.34.34,0,0,0,.18.65l.32-.07a.38.38,0,0,0,.46.31,5.39,5.39,0,0,1,1,.07c-.05.19-.09.37-.13.56s-.07.25-.11.38v0a.51.51,0,0,0-.49-.49h-.74a.46.46,0,0,0,0,.92.41.41,0,0,0,0,.29c-.84.07-1.69.17-2.54.29a.33.33,0,0,0-.16-.38A3.33,3.33,0,0,0,31,46.07a1.46,1.46,0,0,0,.87-.52.32.32,0,0,0-.18-.47,1.9,1.9,0,0,0-1.25.2L29,45.77c-.52.18-.3,1,.23.84l.4-.13a4.09,4.09,0,0,0-.9.57.37.37,0,0,0,0,.59.27.27,0,0,0,.19.46A33.35,33.35,0,0,0,37,47.21a1.59,1.59,0,0,0,.07.38.48.48,0,0,0,.48.28q-.2,3.26-.33,6.52a306.13,306.13,0,0,0,2.28,54Zm1-76.13c-.13,2-.19,3.91-.16,5.85a.27.27,0,0,0,.39.27c0,.43-.07.85-.1,1.28-.52,7.71-1,15.46-1.27,23.21-.08-8.14,0-16.27.09-24.41.33-3.83.69-7.66,1.12-11.48.27-2.36.58-4.72,1-7.07l-.09.75c-.45,3.7-1.25,7.57-1.19,11.3A.32.32,0,0,0,40.42,32.23ZM38.33,55.06c0,4.71.14,9.41.32,14.11a.35.35,0,0,0,.43.34v.15c-.09,1.47-.14,3-.16,4.43-.09-1.83-.19-3.66-.31-5.49a.31.31,0,0,0-.57-.16q0-5.89.21-11.81C38.27,56.11,38.3,55.58,38.33,55.06Zm3.08,51.08a17.8,17.8,0,0,0-.17,2.2c-.06-1-.11-1.92-.17-2.89a.3.3,0,0,0-.6,0c0,.3,0,.59-.06.89-1.15-8.8-1.84-17.64-2.16-26.5.24,3.37.59,6.74,1,10.06a.37.37,0,0,0,.2.29c0,.59.11,1.17.16,1.76.24,4.62.9,9.27,1.58,13.79a.28.28,0,0,0,.34.26A.19.19,0,0,0,41.41,106.14ZM42.51,98q-.12,1.88-.15,3.75c-.23-3.22-.47-6.44-.76-9.65a.42.42,0,0,0,.13-.39c-.21-1.31-.4-2.61-.57-3.92-.1-2-.25-4-.54-6a.27.27,0,0,0-.08-.16c-.06-.86-.12-1.73-.17-2.6,0-5.76.08-11.52.3-17.28.24-1.77.51-3.54.83-5.3,0-.31-.4-.45-.48-.13s-.1.49-.15.73c.16-3.53.35-7,.56-10.58a.19.19,0,0,0,.11,0,15.37,15.37,0,0,0,4.73-.19l0,.16a.44.44,0,0,0,.85,0s0-.09,0-.13l.25.25c0,1.36,0,2.73-.06,4.09-.06,3.53-.25,7.14-.18,10.71a.34.34,0,0,0-.45-.16c.17,3-.19,6.07-.09,9.2a123.73,123.73,0,0,1,.1,14.41c.09,1.84.17,3.67.25,5.5q.34,8.61.89,17.2a10.4,10.4,0,0,0-2.89-.15,2.59,2.59,0,0,0-1.54.39c-.2-3.26-.37-6.52-.54-9.78A.2.2,0,0,0,42.51,98Zm.56,19.94c-.2-2.08-.26-4.23-.41-6.36h.11q.3,3.15.77,6.3ZM44.38,110a.24.24,0,0,0-.28,0,.71.71,0,0,0-.3.84l-.13,0c0-.36-.06-.72-.08-1.08h.06a6.59,6.59,0,0,1,.89,0ZM48,111a8.14,8.14,0,0,0-2.76-.19c.32-.31.62-.65.93-1a.59.59,0,0,0-.26-1,6.07,6.07,0,0,0-2.4-.06.66.66,0,0,1,0-.14c.21.11.49.09.53-.22,0,0,1.72.06,3,.07.08.59,0,1.65.62,2h0a.48.48,0,0,0,.22.15l.07,0h.09l0,.41A.52.52,0,0,0,48,111Zm1-4a.25.25,0,0,0-.12.21c0,.21,0,.41,0,.62-.33-5.83-.63-11.66-.85-17.49-.16-4.1-.2-8.22-.25-12.34.32,7.09.87,14.2,1.32,21.24a.29.29,0,0,0-.22.29C48.87,102,48.93,104.46,49.05,107Zm.16-40.9a.32.32,0,0,0-.48.15c-.12-1.32-.25-2.64-.4-4v0c0-1,.07-2,.09-3q.33-6,.63-12h.35c-.13,2.71-.27,5.42-.45,8.13,0,.3.25.4.48.33C49.33,59.14,49.26,62.61,49.21,66.07Zm.23-19.84a1.31,1.31,0,0,1-.34,0l.15-3.35a1.67,1.67,0,0,1,.31.05h0C49.55,44.06,49.49,45.14,49.44,46.23Zm.35-15.64q0,4.46,0,8.89L49.64,42c-.11,0-.23,0-.35-.06.16-3.2.31-6.41.44-9.61.08-2.09.15-4.17.2-6.26.2.08.44,0,.48-.22.35-2.38.6-4.8.8-7.23,0,.65,0,1.3-.05,1.95a.36.36,0,0,0,0,.11c0,.33-.07.65-.12,1s.29.31.33.09.09-.52.14-.78a.37.37,0,0,0,.45-.29A77.63,77.63,0,0,0,53,12c.26-2.24.44-4.48.57-6.73,1.67-.08,3.33-.1,5-.09.42,3.34,1,6.67,1.57,10-.07,5.7.51,11.49.83,17.17.13,2.4.25,4.82.39,7.24a.34.34,0,0,0-.59.22l-.09,2.73a13.53,13.53,0,0,0-7.36-.25,9.3,9.3,0,0,0-1.34.23.41.41,0,0,0-.46.29c0,.12-.07.25-.11.38a1.59,1.59,0,0,0-.28-.36c0-.71,0-1.42,0-2.13.08-3.88.23-7.76.39-11.65a.54.54,0,0,0,.22.05.57.57,0,0,0,0-1.14.47.47,0,0,0-.17,0c.08-1.74.15-3.48.23-5.22,0-.35-.51-.34-.54,0q-.39,4.59-.63,9.18a.23.23,0,0,0-.11-.14c0-.39,0-.78,0-1.17A.34.34,0,0,0,49.79,30.59Zm7.73,14.7c.22.07.5.12.79.18l-2.18.26a.21.21,0,0,0-.11,0,18.33,18.33,0,0,0-2.1,0,.33.33,0,0,0-.23-.2s0,0,0,0l-.23-.08a5.13,5.13,0,0,0,1.91-.42.33.33,0,0,0-.08-.59,3.5,3.5,0,0,0-.65-.08A10.43,10.43,0,0,0,55.83,44c.31-.12.31-.63-.08-.62a16.65,16.65,0,0,0-1.73.2.49.49,0,0,0-.4.29,1.23,1.23,0,0,0-.33-.72h.37a4.08,4.08,0,0,0,1.39.07.31.31,0,0,0,.18-.46,18.73,18.73,0,0,1,2.13.14.45.45,0,0,0,.12.2,1.48,1.48,0,0,0,1.06.33,3.56,3.56,0,0,0,1.3-.12l.4.09c-.09.33-.18.66-.24,1-.23,0-.46.07-.69.08a4.86,4.86,0,0,1-1.51-.19A.52.52,0,0,0,57.52,45.29Zm-6.06,73a7.31,7.31,0,0,0-.8.05l-.64.07c0-.16,0-.32,0-.48.1.38.67.4.67,0,0-1.89,0-3.81-.08-5.73.28,2.07.61,4.12.94,6.12ZM57,111c-1.22.1-2.44.22-3.65.33,0,0,0,0,0,0a1.47,1.47,0,0,0-.07-.17c.28-.11.56-.2.85-.29a.54.54,0,0,0,.16-1,1.61,1.61,0,0,0,.78-.37.5.5,0,0,0-.35-.83h0c-.45,0-.83,0-1.22,0,.47,0,.94-.08,1.41-.09l1,0a.7.7,0,0,0,0,.32.77.77,0,0,0-.05.66s0,0,0,0h0a7.28,7.28,0,0,0-.71.31c-.52.25,0,1.11.52.67.11-.09.21-.2.31-.29a.54.54,0,0,0,.34.18c.23,0,.47.07.72.11a1.35,1.35,0,0,0,.06.34Zm1.73-1.77a4.57,4.57,0,0,0-.47-.29.72.72,0,0,0-.16-.52.5.5,0,0,0-.13-.87,11,11,0,0,0-6.35.28c-.11-1.44-.21-2.88-.33-4.32.22-5.95-.32-12-.6-17.95-.19-4.18-.31-8.4-.65-12.6.05-.71.07-1.42.09-2.13.15,4.42.36,8.83.6,13.19a.33.33,0,0,0,.66,0c.14-9.51.17-19.26-.38-28.8.08-2.67.07-5.35,0-8a.49.49,0,0,0,.4-.2,1.69,1.69,0,0,0,.12-.28h.1a.42.42,0,0,0,.64.26,1.83,1.83,0,0,1,.3-.18l1,0c-.08.23,0,.53.34.5,1.13-.1,2.3-.13,3.44-.27.9.07,1.8.14,2.7.14a.42.42,0,0,0,.34.06c-.1,4.13-.1,8.27.19,12.37v.18s0,0,0,0c0,.43,0,.86.09,1.3a.38.38,0,0,0,.16.27c-.08,1.33-.15,2.66-.24,4a100.46,100.46,0,0,0-.57,11.09.27.27,0,0,0,.29.25c-.08,3.68-.11,7.38,0,11.07-.2,2.11-.33,4.23-.42,6.36-.51,5.07-.73,10.19-1,15.27A.79.79,0,0,0,58.74,109.18Zm2.82-3.2c-.25,3.25-.14,6.59-.19,9.84a.45.45,0,0,0,.18.38,3.49,3.49,0,0,1-.12,1.3c-1.62-.41-2.28-1.27-2-2.57l.15-2.29c.07-.92.13-1.85.19-2.77,0,2.06,0,4.12.15,6.14a.35.35,0,0,0,.34.34,1.69,1.69,0,0,0,0,.23c0,.57.9.57.88,0-.06-1.32-.09-2.63-.12-4a.28.28,0,0,0,.3-.27c0-2.69-.19-5.36-.1-8.06a.29.29,0,0,0-.17-.29c0-.93,0-1.86,0-2.78A.31.31,0,0,0,61,101c0-1.88,0-3.77,0-5.66a.26.26,0,0,0,.52,0c.09-.84.15-1.68.2-2.53Q61.6,99.37,61.56,106ZM62,66.2c-.13,3.63-.63,7.41-.29,11a.3.3,0,0,0,.34.26c-.09,3.41-.16,6.82-.24,10.23,0-3.89-.3-7.82-.42-11.64,0,0,0,0,0,0,0-1.29-.06-2.58-.1-3.87.2-2.09.3-4.2.44-6.26.27-3.88.57-7.78.49-11.66.05-.47-.68-.47-.73,0l0,.3c0-1.19,0-2.38-.07-3.58,0-1.41,0-2.82,0-4.24a.51.51,0,0,0,.3-.46h0v0h.05c.13,1.25.28,2.51.48,3.76q0,3.6.07,7.19C62.23,60.2,62.12,63.2,62,66.2Zm.46-26.45c-.17-2.86-.4-5.72-.57-8.57-.14-2.3-.23-4.62-.35-6.94.06.45.11.9.17,1.35.14,3.66.31,7.31.64,11a.3.3,0,0,0,.19.26c0,1,.07,2.08.11,3.12A.25.25,0,0,0,62.48,39.75Zm3.8,70.78a.8.8,0,0,0-.49.64s0,0-.07,0a7.27,7.27,0,0,1-2.19-.07c0-.18.06-.36.12-.56.1-.42.57-.58.83-.94a.7.7,0,0,0,.85.75l.2,0a.59.59,0,0,0,.19,0h.62a.43.43,0,0,0,0,.11A.6.6,0,0,0,66.28,110.53Zm1.35,7.35-.21-.07c.22-3.47.59-6.89,1-10.32h0C68.07,111,67.89,114.44,67.63,117.88Zm1.68.67-.37-.16a14.46,14.46,0,0,0,.49-2C69.39,117.12,69.36,117.83,69.31,118.55Zm.56-15.45a.35.35,0,0,0-.32.31.19.19,0,0,1,0,.08.37.37,0,0,0-.25-.09c.08-.9.17-1.81.26-2.71.22-1.53.42-3.07.62-4.61C70.07,98.42,70,100.76,69.87,103.1Zm.51-23.26A190.73,190.73,0,0,0,68.72,99a63.23,63.23,0,0,0-1.61,9.66,2.45,2.45,0,0,0-1.6-.64,7.06,7.06,0,0,0-1.38-.07.51.51,0,0,0-.5-.27,2.5,2.5,0,0,1-.86,0,.57.57,0,0,0-.13,0c0-1.07,0-2.13-.1-3.18a.5.5,0,0,0,0-.13q.24-8.88.46-17.77a.26.26,0,0,0,.07-.14c1-10.6.61-21.41.69-32.06a.33.33,0,0,0-.2-.31c-.05-1.55-.12-3.09-.21-4.64a.26.26,0,0,0,.34-.23c.65-6.8.08-13.82-.56-20.66a156.07,156.07,0,0,0-.91-20.63c0-.37-.62-.38-.59,0,0,.14,0,.28,0,.42-.08-.3-.16-.6-.25-.89a17.7,17.7,0,0,0-.53-2.29c1.06,0,2.14.12,3.23.22,1.44,3.6,3,7.13,4.1,10.85a88.32,88.32,0,0,1,2.68,12.89c0,.18.23.19.35.1.34,2.72.62,5.45.91,8.17-.22-.1-.52,0-.48.28q.3,2.84.48,5.68A1.54,1.54,0,0,1,71,43a.46.46,0,0,0-.78.33l-.82.06c-.59,0-.6,1,0,.94s1.09,0,1.63,0c.11,0,.21,0,.32,0a1.55,1.55,0,0,0,.85.06c0,.69.06,1.38.08,2.07l-.45.07c0-.26,0-.51,0-.77l.2,0c.37-.1.31-.74-.09-.69l-.19,0a.88.88,0,0,1,0-.16c-.07-.45-.78-.33-.78.11,0,0,0,.11,0,.16a.42.42,0,0,0,0,.83l-.09.84-.27.08-.14.05-.27.08h0a.69.69,0,0,0-.13,0c-.52.28-.14,1,.38.9l.28,0V48h0c0,.56.87.76,1,.14,0-.15.05-.31.08-.46a3.86,3.86,0,0,0,.54-.19,34.73,34.73,0,0,0,0,5.2c-.07,2.57-.28,5.12-.48,7.67a.22.22,0,0,0-.07.17c0,.32,0,.63,0,.94-.09,1.28-.16,2.57-.19,3.85a.25.25,0,0,0,.13.21c0,.4,0,.81,0,1.22-.2,4.31-.43,8.61-.84,12.92C70.65,79.59,70.42,79.61,70.38,79.84Zm1.9,5.27a.36.36,0,0,0-.72,0c-.07.74-.12,1.48-.19,2.23a.33.33,0,0,0-.17-.1c.15-1.42.29-2.83.42-4.24a.38.38,0,0,0-.18-.38c.12-.7.22-1.41.32-2.12a.24.24,0,0,0,.37.2l-.06.32c0,.25.32.36.39.11s.09-.44.15-.66q-.1,4.13-.31,8.23C72.3,87.5,72.31,86.29,72.28,85.11Zm3.25,27.55a1,1,0,0,1-.2.11.56.56,0,0,0-.24.65c-.5-.1-1-.19-1.49-.3a8.21,8.21,0,0,0-1.19-.2h0a1.18,1.18,0,0,0,.37,0A.54.54,0,0,0,73,112a1.5,1.5,0,0,0-.37-.28.71.71,0,0,0,.2,0,.64.64,0,0,0-.34-1.24,1,1,0,0,1-.87-.28.64.64,0,0,0-.62-.26,1.28,1.28,0,0,1,0-.19,10.29,10.29,0,0,1,1,.4,2.93,2.93,0,0,0,1.24.41,10.65,10.65,0,0,0,1.49.44l.2,0a.59.59,0,0,0,.27.76.61.61,0,0,0,.28.92Zm1,.4a1.06,1.06,0,0,0,.19-.68.53.53,0,0,0,0-.12,3.39,3.39,0,0,0,.65-.55c-.2.73-.38,1.47-.58,2.2l-.12,0a.89.89,0,0,0,.08-.17l0-.07A.53.53,0,0,0,76.58,113.06Zm1.26,6.1c-1.18.31-1.22-.63-1-1.72.12.3.6.39.66,0,.12-.69.23-1.38.34-2.07-.08,1-.14,2-.19,2.94a.46.46,0,0,0,.72.39A1.14,1.14,0,0,1,77.84,119.16Zm1.81-6.08a.78.78,0,0,0-.06.37c0,.08,0,.18,0,.28a.55.55,0,0,0-.07.57,15,15,0,0,1-.82,4,50.8,50.8,0,0,1,.74-6,.56.56,0,0,0,.29,0h.08C79.74,112.59,79.7,112.83,79.65,113.08ZM80,111.2l-.39.09c.14-.77.29-1.53.43-2.3a.24.24,0,0,0,.13-.17c.3-1.26.57-2.53.83-3.8Q80.52,108.13,80,111.2Zm3.8-24.57c-.31,2.91-.73,5.81-1.15,8.71.52-3.79.93-7.61,1.24-11.43C83.84,84.81,83.79,85.72,83.78,86.63Zm-9.85-76.4s0,0,0,0A124.47,124.47,0,0,1,81.14,34a120.26,120.26,0,0,1,1.77,12.69,2.5,2.5,0,0,1-1.58-.58.47.47,0,0,0-.67.67A3.85,3.85,0,0,0,81,47l-.23-.11c-.54-.26-1,.54-.47.81l1.47.72a1.13,1.13,0,0,0,1.06.14.25.25,0,0,0,.12-.3.9.9,0,0,0-.51-.58,3.05,3.05,0,0,0,.6.06c0,.48.08,1,.11,1.43.34,5-.07,10,.08,15,0,.33.54.44.6.09.88-5.05.61-10.49.35-15.59a112.56,112.56,0,0,0-1.73-14.52c-.27-1.41-.56-2.82-.88-4.22.19.68.39,1.37.56,2.06.9,3.69,1.19,7.45,1.9,11.17.07.36.54.28.64,0,0,7.13.26,14.38.68,21.49,0,.89-.1,1.78-.16,2.66q-.36,3.31-.66,6.65c.11-2.3.21-4.6.28-6.88,0,0,0-.07,0-.1.09-1.57.16-3.14.23-4.7,0-.33-.49-.33-.51,0-.64,8.21-1.82,16.37-2.45,24.58,0,.19.18.27.34.23q-.32,2.79-.64,5.56c-.36,1.68-.72,3.35-1.07,5,.19-1.37.38-2.74.55-4.11,0-.32-.51-.4-.57-.08-1,5.22-1.78,10.45-2.56,15.69-.15.64-.33,1.28-.5,1.91a.66.66,0,0,0-.11-.2h0a.45.45,0,0,0,0-.77,5.7,5.7,0,0,0-2.4-.5c-.58-.09-1.16-.2-1.74-.34a4.49,4.49,0,0,0-.77-.34,11.24,11.24,0,0,0-1.5-.45c0-1.07,0-2.14,0-3.22a128.76,128.76,0,0,0,1.17-14.06c.08,0,.17,0,.19-.08.26-1.89.46-3.78.62-5.66a.17.17,0,0,0,.27-.08c1.29-6.16,1.38-12.79,1.87-19.06q.71-8.88,1-17.76a1.64,1.64,0,0,0,1.44,1.4,14.12,14.12,0,0,0,1.72.05,9.25,9.25,0,0,1,2.34.8c.4.16.57-.37.37-.63a3.13,3.13,0,0,0-.25-.26.53.53,0,0,0-.14-1,.51.51,0,0,0-.52.54A3.93,3.93,0,0,0,80,49c-.51-.1-2,.07-2.63-.37h.07c.45-.21.27-.76,0-1a1,1,0,0,0-1.19-.1l0-.85a.5.5,0,0,0,.3.35,2.93,2.93,0,0,0,1.58.44.33.33,0,0,0,.13-.07,1.59,1.59,0,0,0,1.28-.14.35.35,0,0,0,0-.6,2.1,2.1,0,0,0-1-.21,4.45,4.45,0,0,1-1.2-.33.36.36,0,0,0-.34,0L76.81,46a.4.4,0,0,0-.56.26v-.14c0-.2-.29-.2-.3,0-.52,6.53-1,13.06-1.45,19.6-.07,1-.16,2-.26,3.06,0-1.61-.16-3.2-.32-4.76a.36.36,0,0,0-.72,0l0,.71s0,0,0,0q-.16,3.78-.24,7.62l-.07,0q.15-3.33.19-6.67.19-3.58.14-7.16a78.15,78.15,0,0,0,0-13,.37.37,0,0,0,.58-.27c0-.41,0-.83,0-1.25a.24.24,0,0,0,.12-.18A35.35,35.35,0,0,0,74.19,39v.06c0,7-.38,14.11,0,21.1a.22.22,0,0,0,.43,0c.31-3.2.41-6.43.42-9.68a.35.35,0,0,0,.5-.3,62.19,62.19,0,0,0-.49-11.81c-.17-1.47-.38-2.93-.62-4.38-.33-2.07-1.36-4.68-1.07-6.74a.33.33,0,0,0-.24-.37l-.09-1.19a.32.32,0,0,0,.23-.35c-.27-1.84-.65-3.66-1.1-5.47A59.15,59.15,0,0,0,68.63,8.5a.21.21,0,0,0-.24-.11c-.33-.83-.67-1.65-1-2.46-.16-.38-.78-.22-.62.17C68,9.21,69,12.35,70,15.52c.61,2.53,1.14,5.07,1.61,7.64A.42.42,0,0,0,71,23c-.05-.24-.09-.48-.14-.71a.31.31,0,0,0-.26-.26c-.07-.44-.16-.89-.23-1.34a.35.35,0,0,0,.58-.35,58.9,58.9,0,0,0-3.14-10,.26.26,0,0,0,.12-.21,6,6,0,0,0-.73-2.11c-.35-.79-.71-1.58-1.1-2.36A56.9,56.9,0,0,0,72,5.91Q73,8.06,73.93,10.23ZM92.86,44c-.1-.73-.22-1.45-.34-2.17,0-.27-.32-.29-.5-.16-.21-1.44-.47-2.87-.8-4.3a50.47,50.47,0,0,0-1.3-7.48A103.71,103.71,0,0,1,92.62,42C92.72,42.68,92.79,43.34,92.86,44ZM90.37,29c.25.7.48,1.4.7,2.11-.44-1.22-.92-2.41-1.45-3.54-.07-.15-.3,0-.26.11l.31,1.21c-.51-1.92-1.12-3.82-1.81-5.68A51,51,0,0,1,90.37,29ZM84.6,17.49c.76,1.8,1.44,3.62,2,5.44a87.31,87.31,0,0,0-3.83-8.2C83.42,15.65,84,16.57,84.6,17.49ZM103,57.22l-.07,0a1.06,1.06,0,0,1-.19-.55.66.66,0,0,0-1.32,0,3,3,0,0,0,.06.52.58.58,0,0,0-.22.08c-.11-1.81-.26-3.61-.42-5.36-.4-4.42-.75-9.3-2.23-13.5-.06-.18-.35-.17-.34,0s0,.64.07,1a58.74,58.74,0,0,0-1.71-6.14,88.42,88.42,0,0,1,8,24.15A10.45,10.45,0,0,0,103,57.22Z"/><path class="cls-2" d="M92,87.27c.72-4.38,1.28-8.76,1.61-13.09a.27.27,0,0,0-.3-.27,86.74,86.74,0,0,0-.39-16.13c-.06-1.58-.13-3.16-.24-4.72a.29.29,0,0,0-.57,0c-.14,10.67-.33,21.22-1.71,31.83-.62,4.77-1.42,9.5-2.37,14.21a135.82,135.82,0,0,0-5.36,22.14.4.4,0,0,0,.22.44,1.16,1.16,0,0,0,.54.44A1.38,1.38,0,0,0,84.9,122a.57.57,0,0,0-.41-1,3,3,0,0,1-1,0c.7-3,1.47-6,2.24-9,.31-1.09.6-2.19.88-3.29a.34.34,0,0,0,.61-.11c.26-1,.52-1.94.77-2.91a129.19,129.19,0,0,1-3.69,14.06c-.18.5.62.72.8.22.39-1.13.77-2.29,1.13-3.44a.71.71,0,0,0,.75.31h.34c.54.38,1.24.49,1.55-.26a.46.46,0,0,0-.22-.53c-.29-.18-.54-.16-.68-.28.13,0,.26.09.4.12.94.21,1.34-1.23.4-1.45-.2,0-.4-.08-.6-.11a3.41,3.41,0,0,1,.36-.57,2.91,2.91,0,0,0,.68.35c.55.18,1.47.27,1.74-.36a.6.6,0,0,0-.09-.71c-.38-.33-.68-.19-1.13-.24a1.69,1.69,0,0,1-1-.57.58.58,0,0,0-1,.6.71.71,0,0,0-.22.13,4.48,4.48,0,0,0-.36.4,48.22,48.22,0,0,0,1.49-7.88c0-.32-.46-.39-.56-.1v-.06A119.42,119.42,0,0,0,92,87.27Z"/></g></g></svg>