<svg xmlns="http://www.w3.org/2000/svg" viewBox="0 0 112.48 178.64"><defs><style>.cls-1{fill:none;stroke:#cfbb9f;stroke-miterlimit:10;stroke-width:0.25px;}</style></defs><title>6-screenРесурс 1</title><g id="Слой_2" data-name="Слой 2"><g id="Режим_изоляции" data-name="Режим изоляции"><path class="cls-1" d="M49.34,87c.15-4.14-1.42-8.29-5.22-9.85-.42-.18-.68.43-.3.67,2.73,1.69,4,5.21,4.1,8.48a11.91,11.91,0,0,0-.35-1.7C47.12,83,46.26,81,44.83,80.15a2.32,2.32,0,0,0-3.51,1.36.73.73,0,0,0,.45,1,7.3,7.3,0,0,0-1.44,4.13c-.14,1.67-.06,4.22,1.53,5.12s3.22-.4,3.76-2c.44-1.31,1-3.77-.5-4.51a.68.68,0,0,0-.93.56,1.44,1.44,0,0,0-.4-.18.72.72,0,0,0,.2-.42L44,85c0-.08,0-.1,0-.05s0,0,0,0l.07-.09,0,0,.05,0,0,0,.05,0,.13-.06.26-.07.06,0h.06A.68.68,0,0,0,45.4,84a10,10,0,0,1,.74,2.75,10.33,10.33,0,0,1-.07,3.09A20.15,20.15,0,0,1,45,92.94c-.15.44.1,1.1.64,1A2.27,2.27,0,0,0,47,92.76a10,10,0,0,1-2.37,4.12c-.24.23-.15.72.23.67,1.83-.27,2.72-1.86,3.27-3.62A27.1,27.1,0,0,0,49.34,87Zm-5,.33a.86.86,0,0,0,.22-.25,2.67,2.67,0,0,1-.16,1.8c-.19.45-.77,1.18-1.31,1.14s-.75-1.06-.81-1.56a9.08,9.08,0,0,1,.22-3.24,4.74,4.74,0,0,1,.15-.5,1.23,1.23,0,0,0,0,.71.77.77,0,0,0,.29.35l-.11.08a1.86,1.86,0,0,0-.33.93,3.47,3.47,0,0,0,0,.91.38.38,0,0,0,.75,0c0-.11.06-.27.11-.42A.77.77,0,0,0,44.32,87.29Zm-1-3.78a2.61,2.61,0,0,0-.44.57,3.41,3.41,0,0,0,.33-1.78c0-.22-.22-.45-.46-.4l-.12,0c.78-1.25,1.87.27,2.41,1.25A1.43,1.43,0,0,0,43.3,83.51Z"/><path class="cls-1" d="M54.21,82.52c0-3.89-.21-8.27-2.18-11.62a7.84,7.84,0,0,0-4.23-3.76,5.31,5.31,0,0,0-5,1.38,14.48,14.48,0,0,0-3.63,6,31.92,31.92,0,0,0-1.75,7.9c-.09.84-.18,1.72-.26,2.61,0-.51,0-1-.05-1.53a75.48,75.48,0,0,1,.24-9.27.23.23,0,1,0-.46-.08A70.21,70.21,0,0,0,36,83.62a62.52,62.52,0,0,0,.41,8.1A35.87,35.87,0,0,1,35,81.13a53.38,53.38,0,0,1,.87-8.92c.15-.74.4-1.44.59-2.17a11.35,11.35,0,0,1,.48-1.93A7,7,0,0,1,40,64.94c.17-.1.05-.36-.12-.25A9.46,9.46,0,0,0,37.42,67a16.57,16.57,0,0,0-2.16,2.85c-1.3,2.74-1.42,6.07-1.61,9A40.8,40.8,0,0,0,33.83,88a65.6,65.6,0,0,0,2,8.55c.67,2.17,1.58,4.43,3.5,5.66s4,.8,6-.26a11.19,11.19,0,0,0,4.47-5.51,29.74,29.74,0,0,0,1.77-7.62c.54-5.25-.36-11.22-4.18-14.84-.48-.46-1.22.28-.84.83a20.64,20.64,0,0,1,3.33,11.54,31.48,31.48,0,0,1-.55,6.28,21.76,21.76,0,0,1-.88,3.58,10.33,10.33,0,0,1-1.58,3.31,5.38,5.38,0,0,1-6,1.7A5.31,5.31,0,0,1,38.28,98a6.4,6.4,0,0,0,1.26,1.39c1.5,1.19,4.27,1.9,5.72.14a.78.78,0,0,0,.12-.74c-.28-.68-.91-.39-1.44-.25a3.94,3.94,0,0,1-3-.35c-2.14-1.16-2.79-3.88-3.16-6.23,1,1.71,2.72,2.94,4.15,4.13,1.25,1,2.83-1,1.62-2-.77-.68-1.56-1.34-2.35-2a4.23,4.23,0,0,1-1.73-2.29,14.73,14.73,0,0,1-.17-2.74c0-1.11,0-2.22,0-3.34.09-4.12.74-8.43,3.15-11.84.91-1.3,2.23-2.64,3.83-2.75,1.77-.13,3.15,1.45,4,2.87,1.84,3,2.26,6.51,2.32,10a78.09,78.09,0,0,1-.77,13.23c-.6,3.91-1.51,8.44-4.9,10.71-3.15,2.1-7,1.15-9.38-1.54-2.63-2.91-3.53-7.22-4.3-11.07A57.49,57.49,0,0,1,32,78.93a35.63,35.63,0,0,1,1.08-7.11c.63-2.42,1.7-4.65,2.44-7,.07-.24-.18-.45-.36-.24a16.58,16.58,0,0,0-3,6.26A38.68,38.68,0,0,0,30.8,78.3a55.19,55.19,0,0,0,.88,14.8c.78,4.28,1.76,9,4.57,12.27,2.46,2.89,6.63,4.88,10.18,2.87s5.51-6.37,6.44-10.35A65.53,65.53,0,0,0,54.21,82.52Z"/><path class="cls-1" d="M43.84,65.41a20.94,20.94,0,0,0-3.56,2.89,20.51,20.51,0,0,0-2.42,3.94c-.06.1.09.2.15.1a25.32,25.32,0,0,1,2.83-3.29,22.67,22.67,0,0,1,3.28-3.22C44.38,65.63,44.11,65.22,43.84,65.41Z"/><path class="cls-1" d="M45.31,73.82a1.56,1.56,0,0,0-1.86-.47,1.6,1.6,0,0,0-1.2,1.44.81.81,0,0,0,.65.75,1.22,1.22,0,0,0,.78-.21c-.11.06,0,0,.08,0H44a2.22,2.22,0,0,0,.63,0A1,1,0,0,0,45.31,73.82Z"/><path class="cls-1" d="M45.75,71.6c-.32-.37-.79-.21-1.2-.11a2.69,2.69,0,0,0-1,.41.38.38,0,0,0,0,.62,2.86,2.86,0,0,0,1,.27c.43,0,.89.12,1.19-.3A.68.68,0,0,0,45.75,71.6Z"/><path class="cls-1" d="M57.42,85.56a30.86,30.86,0,0,0-2.25-13.29,14.34,14.34,0,0,0-4.26-5.46c-1.54-1.19-3.61-2.65-5.55-1.47a.41.41,0,0,0,0,.68c1.73.7,3.64.53,5.17,1.8a11.37,11.37,0,0,1,3.07,5.28A34.09,34.09,0,0,1,55.5,84.82a44.74,44.74,0,0,1-1.85,11.76,55.74,55.74,0,0,1-2.13,5.88A39.52,39.52,0,0,1,49,107.8c-2.32,3.78-7.37,3.27-11,3.34-.4,0-.5.68-.14.83a10.39,10.39,0,0,0,10.4-1.57c3.36-2.8,5.19-7.2,6.59-11.35A46.36,46.36,0,0,0,57.42,85.56Z"/><path class="cls-1" d="M60.36,81.74a34.51,34.51,0,0,0-2.83-11c-1.36-3.19-3.08-6.66-6.28-8.05-.64-.27-1.07.71-.47,1,2.76,1.48,3.84,4.67,5,7.49a32.39,32.39,0,0,1,2.8,10.32c.5,7.08-.93,14.41-3,21.15a24.79,24.79,0,0,1-1.3,2.94A20.19,20.19,0,0,1,53,108.5c-1.07,1.64-2.21,3.21-3.21,4.89-.36.61.54,1.15.95.64a19.77,19.77,0,0,0,2.82-4.67,25.64,25.64,0,0,1,1.37-2.53A21.55,21.55,0,0,0,56.14,104c.35-.89.84-1.71,1.22-2.59a24.81,24.81,0,0,0,.89-2.64,50.78,50.78,0,0,0,1.49-5.7A44.85,44.85,0,0,0,60.36,81.74Z"/><path class="cls-1" d="M46.49,113.42c-2.2.53-4.79,1.51-7,.49s-3.6-3.28-5-5.13a34.18,34.18,0,0,1-6.2-12.39c-.12-.53-1-.31-.89.23A33,33,0,0,0,34,110.85c1.53,2,3.18,4.33,5.63,5.12s5-.06,7.24-1.46C47.33,114.2,47,113.29,46.49,113.42Z"/><path class="cls-1" d="M38.65,109.69a16.46,16.46,0,0,1-1.52-1.38c-.58-.52-1.17-1-1.69-1.62a14.36,14.36,0,0,1-2.73-3.92.08.08,0,0,0-.14.06,15.25,15.25,0,0,0,2.12,4.5A10.56,10.56,0,0,0,36.16,109a13,13,0,0,0,2.14,1.3C38.62,110.46,39,109.9,38.65,109.69Z"/><path class="cls-1" d="M30.46,94.82c-.47-1.59-1-3.17-1.38-4.78a18,18,0,0,1-.52-4.69,25.14,25.14,0,0,0,.07-5,.38.38,0,0,0-.72-.13,12.39,12.39,0,0,0-.72,4.44,20.71,20.71,0,0,0,.36,5c.34,1.62.85,3.2,1.3,4.78.25.88.49,1.76.76,2.63a6.61,6.61,0,0,0,1,2.44h0a.49.49,0,0,0,.88-.22C31.65,97.9,30.86,96.19,30.46,94.82Z"/><path class="cls-1" d="M47.72,56.63c-4.06-2.09-9.67-.33-12.87,2.89-4.16,4.18-5.68,10.9-6.58,16.63a.41.41,0,1,0,.81.14A63.11,63.11,0,0,1,31.48,68a20.54,20.54,0,0,1,3.78-6.82A11,11,0,0,1,41,57.77a13.6,13.6,0,0,1,6.28.31C48.09,58.26,48.43,57,47.72,56.63Z"/><path class="cls-1" d="M47.53,61.7C47,60.64,45,60.77,44,61s-2.25.69-2.42,1.85c-.05.32.22.74.57.65.85-.21,1.48-.82,2.38-.88s2.06.58,2.86-.09A.61.61,0,0,0,47.53,61.7Z"/><path class="cls-1" d="M49,60.47c-.72-1.52-3.11-1.64-4.54-1.53a7.15,7.15,0,0,0-4.71,2.29.56.56,0,0,0,.72.84,7.59,7.59,0,0,1,4.12-1.54,6,6,0,0,1,2.07.25,5,5,0,0,0,1.87.48A.6.6,0,0,0,49,60.47Z"/><path class="cls-1" d="M61.59,94.4q.36-3.29.47-6.59c.14-4.18.31-8.3-.57-12.39-1.42-6.61-4.58-14.05-10.89-16.65a.33.33,0,0,0-.34.55,28.38,28.38,0,0,1,10.3,17.06,44.18,44.18,0,0,1,.57,12.26c-.21,2.15-.55,4.28-.85,6.41a53.57,53.57,0,0,0-.78,6.15c0,.65.83.54,1,0A40.36,40.36,0,0,0,61.59,94.4Z"/><path class="cls-1" d="M58.76,102.64a43.59,43.59,0,0,1-2.28,5.2,24.78,24.78,0,0,1-2.68,4.78c-1.21,1.52-2.16,3.35-4.1,3.89a34.35,34.35,0,0,1-4.5.75c-3,.43-6.92.16-9.3-2S32.7,110,31,107.44a.49.49,0,0,0-.88.35c.77,5.39,4.56,11.26,10.07,11.55,1.4.07,2.86,0,4.24.15a8.25,8.25,0,0,0,4.25-.49,10,10,0,0,0,3.2-2.49,20.33,20.33,0,0,0,3-3.51c1-1.6,2.18-2.94,3-4.65a24.15,24.15,0,0,0,1.15-2.6c.32-.89.46-1.84.72-2.76C60,102.34,59,102,58.76,102.64Z"/><path class="cls-1" d="M27.34,96.15a25.88,25.88,0,0,0-.45-3.72q-.23-1.87-.33-3.75a59.22,59.22,0,0,1,1-15c.5-2.54,1.28-5,1.82-7.53a.5.5,0,0,0-.95-.31c-2.15,4.63-2.91,10.24-3.26,15.3a61,61,0,0,0-.06,7.53c.07,1.32.19,2.64.36,4a15,15,0,0,0,.73,3.85C26.5,97.09,27.33,96.84,27.34,96.15Z"/><path class="cls-1" d="M30.3,113.83c-.15-1.67-1.25-3.38-1.84-4.92s-1.19-3.21-1.71-4.85a64.9,64.9,0,0,1-2.44-10.64A63.3,63.3,0,0,1,25.21,72a.34.34,0,0,0-.64-.2C22.15,78.71,22,86.37,23,93.58a71.35,71.35,0,0,0,2.3,10.67q.8,2.66,1.8,5.24c.6,1.55,1.17,3.69,2.35,4.85C29.75,114.69,30.34,114.32,30.3,113.83Z"/><path class="cls-1" d="M29.36,106.1a17,17,0,0,0-1.21-3.8c-.46-1.34-1-2.63-1.5-4a.32.32,0,0,0-.61.16,24.53,24.53,0,0,0,.67,4.16,11.11,11.11,0,0,0,1.56,3.88A.61.61,0,0,0,29.36,106.1Z"/><path class="cls-1" d="M64.54,84.27c-.2-3.35-.58-6.69-1.06-10-.44-3-1-6-2.65-8.5-.2-.3-.65,0-.45.35,1.35,2.19,1.19,5.36,1.53,7.89.36,2.68.66,5.36.86,8.06a69.77,69.77,0,0,1-.44,16.08,42.09,42.09,0,0,1-4.94,14.33c-2.5,4.36-5.86,8.2-10.69,9.37a13.63,13.63,0,0,1-13.83-4.64c-.82-1-2.44.21-1.62,1.23a15.14,15.14,0,0,0,12.85,5.8c5-.35,9.28-3.51,12.39-7.6C63.33,107.62,65.18,95.39,64.54,84.27Z"/><path class="cls-1" d="M59.19,64.31a10,10,0,0,0-1.7-3.12c-.72-1.06-1.46-2.1-2.25-3.1a13.85,13.85,0,0,0-4.66-4.33,11.65,11.65,0,0,0-6.41-.59c-1.33.14-4.76.31-5,2.16a.57.57,0,0,0,.28.59c.78.3,1.37-.19,2.12-.44a12.93,12.93,0,0,1,2.6-.48c2.1-.23,4.33-.61,6.25.49a16.3,16.3,0,0,1,4.28,4.36c1.25,1.6,2.31,3.69,3.88,4.95C58.88,65.06,59.3,64.72,59.19,64.31Z"/><path class="cls-1" d="M33.17,59.69A8.34,8.34,0,0,0,31,63.54a.25.25,0,0,0,.47.15,20.18,20.18,0,0,1,1.89-3.81C33.46,59.75,33.28,59.59,33.17,59.69Z"/><path class="cls-1" d="M60.81,62.12a15.9,15.9,0,0,0-5.4-8.1c-2.48-2.11-5.53-4.51-8.83-4.76C39.43,48.72,34.74,55.37,31.17,61c-.21.32.21.71.44.38,3.48-5,8.21-11.51,14.75-10.88,3.21.31,5.84,2.48,8.16,4.65a16.78,16.78,0,0,1,5,7.48C59.82,63.49,61,63,60.81,62.12Z"/><path class="cls-1" d="M67.38,82.63c0-.75.11-1.48.12-2.23,0-1.55-.22-3.16-.33-4.7a80,80,0,0,0-.73-8.21,31.19,31.19,0,0,0-2.68-7,42.39,42.39,0,0,0-3.61-7.07c-2.71-3.88-7.3-6.05-11.55-7.46A11.62,11.62,0,0,0,42,45.35a11.07,11.07,0,0,0-5.33,3.48,47.25,47.25,0,0,0-5.23,6.68A34.08,34.08,0,0,0,28,63.05s.05.07.06,0a31.26,31.26,0,0,1,7.55-11.92,20.65,20.65,0,0,1,5.44-3.88,9.43,9.43,0,0,1,5.13-.67,10,10,0,0,0-3.42.83,13.58,13.58,0,0,0-3.3,2c-.15.11,0,.35.14.25a16.53,16.53,0,0,1,3.45-1.5,16.79,16.79,0,0,1,1.72-.47c.61-.14,1.24-.18,1.84-.36a.35.35,0,0,0,.1-.63c.32.06.65.13,1,.21a24.3,24.3,0,0,1,6,2.68A15.81,15.81,0,0,1,59,54.24a50.69,50.69,0,0,1,3.2,6.38A31.23,31.23,0,0,1,65,67.35a63.64,63.64,0,0,1,.79,8.51c.11,1.52.11,3.11.35,4.6.11.69.35,1.33.44,2s.12,1.69.17,2.53a.41.41,0,1,0,.82-.09C67.51,84.17,67.41,83.4,67.38,82.63Z"/><path class="cls-1" d="M67.21,93.84a28.15,28.15,0,0,0,0-6.74.35.35,0,0,0-.69,0c0,.1,0,.21,0,.32h0l-.12-.07a.34.34,0,0,0-.48.27.35.35,0,0,0,.36.42l.14,0,0,0c-.19,1.88-.18,3.79-.34,5.67-.18,2.06-.66,4.2-.67,6.26,0,4.58-2.3,9-4,13.18-.36.9.95,1.53,1.28.63a48.71,48.71,0,0,0,1.86-6.5c.28-1.29.36-2.55.75-3.83.33-1.06.44-2.12.85-3.15A22.62,22.62,0,0,0,67.21,93.84Z"/><path class="cls-1" d="M59.71,116.07a14.86,14.86,0,0,1-1.79,2.72c-.53.78-1.08,1.55-1.65,2.3a47.73,47.73,0,0,1-3.65,4.37c-2.74,2.8-6.45,3.27-10,2.7s-7.74-1.61-10.12-4.59a49.92,49.92,0,0,1-3-4.66c-.56-.87-1.05-1.79-1.57-2.69a34.45,34.45,0,0,0-2-2.92.29.29,0,0,0-.5.29,53.12,53.12,0,0,0,2.25,5c.8,1.56,1.44,3.17,2.35,4.66a12.17,12.17,0,0,0,7.17,5.45c3.06,1,6.52,2,9.77,1.36a12.6,12.6,0,0,0,7.35-4.18c1.22-1.39,2.44-2.79,3.54-4.28a17.86,17.86,0,0,0,1.53-2.38,24.06,24.06,0,0,0,1-2.9C60.49,115.94,59.89,115.64,59.71,116.07Z"/><path class="cls-1" d="M25.2,109.91c-.38-1-.81-2-1.14-3a55,55,0,0,1-1.56-5.83,59.38,59.38,0,0,1-1-6.25c-.12-1.07-.2-2.15-.27-3.23s-.38-2.12-.53-3.2a.13.13,0,0,0-.26,0,20.67,20.67,0,0,0-.32,2.93c0,1.08.15,2.17.27,3.24a63.5,63.5,0,0,0,1,6.32,61.88,61.88,0,0,0,1.67,6.22c.33,1,.61,2.06,1,3.06a5.54,5.54,0,0,0,1.31,2.45.32.32,0,0,0,.52-.21A5.76,5.76,0,0,0,25.2,109.91Z"/><path class="cls-1" d="M20.84,85.9s0,0,0,0S20.86,85.9,20.84,85.9Z"/><path class="cls-1" d="M23.51,71.87a.14.14,0,1,0-.28-.05c-.78,4.39-1.45,8.78-2.06,13.2a.32.32,0,1,0,.63.11C22.45,80.71,23,76.3,23.51,71.87Z"/><path class="cls-1" d="M30.15,53.82a8.66,8.66,0,0,0-1.65,2.64c-.56,1.09-1,2.23-1.53,3.36-1,2.26-1.66,4.67-2.67,6.92-.08.19.21.33.28.13a56.39,56.39,0,0,1,3.21-6.41c.53-1,1.15-2,1.7-3A11.67,11.67,0,0,0,31,54.36C31.05,53.91,30.5,53.5,30.15,53.82Z"/><path class="cls-1" d="M42,42.3a22.21,22.21,0,0,0-3,1.46c-1,.69-1.94,1.44-2.9,2.19a14.36,14.36,0,0,0-4,4.49.25.25,0,1,0,.45.22,15.54,15.54,0,0,1,4.3-4.29c.76-.57,1.52-1.15,2.29-1.69A36.49,36.49,0,0,1,42,42.44C42.1,42.4,42.06,42.26,42,42.3Z"/><path class="cls-1" d="M54.58,44.13a3.47,3.47,0,0,1-1.1-.46c-.41-.36-.66-.91-1.07-1.28a5.87,5.87,0,0,0-2.57-1.21c-2.31-.58-4.29,0-6.58.42a.14.14,0,0,0,0,.28,36.24,36.24,0,0,1,3.74.3,10.08,10.08,0,0,1,3.51.75c1,.49,1.38,1.45,2.19,2.16a1.48,1.48,0,0,0,1.94.25A.72.72,0,0,0,54.58,44.13Z"/><path class="cls-1" d="M63.71,54.84c-.49-1.06-1-2.14-1.55-3.15a16.73,16.73,0,0,0-4.42-5.07c-.46-.36-1,.3-.57.72a20.58,20.58,0,0,1,3.88,5.85c.43,1,.73,2.08,1.17,3.1s.72,2.11,1.74,2.24a.72.72,0,0,0,.8-.6C65.06,56.92,64.11,55.71,63.71,54.84Z"/><path class="cls-1" d="M69,72c-.06-1.36-.12-2.72-.26-4.06s-.3-2.48-.55-3.69a16.27,16.27,0,0,0-.46-1.73A11.86,11.86,0,0,1,67,60.43a.35.35,0,0,0-.69,0c-.23,2.49.53,5.06.75,7.54.12,1.28.21,2.56.28,3.85a14.52,14.52,0,0,0,.33,4c.25.7,1.1.49,1.28-.15A12.32,12.32,0,0,0,69,72Z"/><path class="cls-1" d="M37.47,41.7c-3.22,1.85-5.55,4.94-7.7,8a55.14,55.14,0,0,0-2.91,4.71C26,56,24.69,58,24.42,59.79a.29.29,0,0,0,.5.24c1.24-1.33,2-3.35,2.95-4.91s1.94-3,3-4.44c2-2.87,4.32-6.16,7.16-8.18A.48.48,0,0,0,37.47,41.7Z"/><path class="cls-1" d="M35.66,39.38a51.86,51.86,0,0,0-7.18,8.69,51.52,51.52,0,0,0-3,4.67,12.2,12.2,0,0,0-1.59,5.18c0,.11.15.18.19.06,1.12-3.49,3.5-6.51,5.55-9.44a67.45,67.45,0,0,1,6.66-8.43C36.67,39.71,36.07,39,35.66,39.38Z"/><path class="cls-1" d="M23.31,61.6a62.27,62.27,0,0,0-2.81,9.58,41.59,41.59,0,0,0-.84,4.95A23.36,23.36,0,0,0,19.35,81a.18.18,0,0,0,.34.05,41.43,41.43,0,0,0,1.1-4.49c.45-1.61.75-3.26,1.14-4.89.78-3.25,1.67-6.47,2.54-9.69A.61.61,0,0,0,23.31,61.6Z"/><path class="cls-1" d="M19.49,82.57c-.14,0-.19.21,0,.23S19.63,82.59,19.49,82.57Z"/><path class="cls-1" d="M33.19,129.51c-2.71-4.18-5.56-8.13-7.71-12.7-1-2.13-2.31-4.35-2.84-6.67-.59-2.6-1.14-5.15-1.51-7.81a.41.41,0,1,0-.82.09A52.77,52.77,0,0,0,22,109.81c.71,2.41,1.27,4.87,2.19,7.21-.46-.92-1-1.81-1.39-2.74-.68-1.53-1.3-3.1-1.85-4.69a56.72,56.72,0,0,1-2.32-10.12,84.63,84.63,0,0,1,0-22.54c.52-4.35,1.21-8.67,2.14-13,.09-.4-.48-.48-.59-.1A94.3,94.3,0,0,0,16.58,87.3a72.62,72.62,0,0,0,2.72,21.29c.55,1.94,1.15,3.85,1.88,5.73a20.92,20.92,0,0,0,2.47,5.23.75.75,0,0,0,1.32-.67,34.85,34.85,0,0,0,7.53,11.3C32.9,130.54,33.48,130,33.19,129.51Z"/><path class="cls-1" d="M19.8,93.17c-.18-2.58-.42-5.16-.48-7.74a.32.32,0,0,0-.63,0,43.58,43.58,0,0,0-.2,7.91c.22,2.55.41,5.4,1.45,7.72.14.32.54.2.55-.15C20.56,98.32,20,95.73,19.8,93.17Z"/><path class="cls-1" d="M43.78,134.51a26.37,26.37,0,0,1-3.63-.58,27.5,27.5,0,0,1-3.79-.91,25.33,25.33,0,0,1-6.73-3.53,16.64,16.64,0,0,1-4.77-5.85c-.66-1.21-1.27-2.45-1.93-3.66-.53-1-1.18-1.88-1.79-2.81a1,1,0,0,0,.35-1.22c-3.71-10-6.06-20.75-5.34-31.71A110,110,0,0,1,19,67.15a77.43,77.43,0,0,1,2.33-8.89,57.65,57.65,0,0,1,3.23-7.53,47.65,47.65,0,0,1,4.7-7.36,37.94,37.94,0,0,1,6-6.47c.21-.17,0-.51-.24-.35a35.89,35.89,0,0,0-5.73,5.1,42.27,42.27,0,0,0-4.41,6.24,72.79,72.79,0,0,0-6.56,16,88.68,88.68,0,0,0-3.2,18,84.38,84.38,0,0,0-.06,16.59,64.81,64.81,0,0,0,4.48,18.25,1,1,0,0,0,.87.64c.45,1.12.83,2.27,1.36,3.35.65,1.33,1.32,2.66,2,4a20.13,20.13,0,0,0,5.24,6.13,21.69,21.69,0,0,0,6.87,3.62,19.6,19.6,0,0,0,3.78.89,20.13,20.13,0,0,0,4-.08C44.13,135.22,44.18,134.53,43.78,134.51Z"/><path class="cls-1" d="M42.19,132.2a12,12,0,0,1-2.94-.71,22.76,22.76,0,0,0-2.84-1,.56.56,0,0,0-.52.86c1.51,1.81,4.24,2,6.34,1.34A.26.26,0,0,0,42.19,132.2Z"/><path class="cls-1" d="M55.08,126.8c-1.24.67-2.21,2-3.4,2.78a15.92,15.92,0,0,1-4.29,2.13c-.15,0-.1.32.06.3a13.84,13.84,0,0,0,4.69-1.5c1.24-.69,2.9-1.63,3.54-3C55.85,127.11,55.47,126.59,55.08,126.8Z"/><path class="cls-1" d="M68.66,100.81a.64.64,0,0,0-1.23-.21,14.67,14.67,0,0,0-.79,3c-.29,1.15-.64,2.28-1,3.42a61,61,0,0,1-2.32,6.39,54.53,54.53,0,0,1-2.94,5.81c-.6,1-1.26,2-1.9,3a7,7,0,0,0-1.24,2.72.46.46,0,0,0,.6.52c1.87-.67,3.15-3.22,4.15-4.87a50.26,50.26,0,0,0,5.53-12.72,36.57,36.57,0,0,0,.77-3.6A11,11,0,0,0,68.66,100.81Z"/><path class="cls-1" d="M71.36,94.29c0-.45-.64-.36-.65.08a63.45,63.45,0,0,1-1.89,14.25,41.39,41.39,0,0,1-2.22,6.52,43.87,43.87,0,0,1-3.07,5.48,39.62,39.62,0,0,1-7.48,8.91c-3.11,2.71-6.46,4.83-10.55,4.76-.73,0-.91,1.24-.25,1.5,3,1.16,6.23-.51,8.79-2.33a35.23,35.23,0,0,0,7.11-6.75c4.39-5.51,7.11-12.32,8.72-19.24A60.94,60.94,0,0,0,71.36,94.29Z"/><path class="cls-1" d="M70.78,110.7c0-.46-.64-.42-.74,0-.62,2.56-1.35,5.07-2.11,7.59a26.68,26.68,0,0,1-1.09,3.46,20.91,20.91,0,0,0-1.6,3.3c-.07.26.28.5.47.31a10.13,10.13,0,0,0,1.77-3.06,41.62,41.62,0,0,0,1.85-3.8A24.86,24.86,0,0,0,70.78,110.7Z"/><path class="cls-1" d="M64.19,126.53l-3.11,3.33a20.41,20.41,0,0,1-3.41,3.23c-1.12.75-2.38,1.34-3.55,2-.92.53-2.73,1-2.88,2.24a.53.53,0,0,0,.26.54c1.07.55,2.38-.81,3.3-1.35A29.76,29.76,0,0,0,58.53,134c2.36-1.91,4.19-4.7,6.12-7.08A.31.31,0,1,0,64.19,126.53Z"/><path class="cls-1" d="M72.62,105.8c.2-1.56.38-3.12.58-4.67.4-3,.85-6.09,1.2-9.15s.62-5.94.71-8.92c0-1.55,0-3.1,0-4.64a22.47,22.47,0,0,0-.87-4.24c-.1-.43-.69-.23-.67.17,0,1.56-.12,3.12-.06,4.68,0,1.41,0,2.82,0,4.22-.12,3.11-.46,6.21-.88,9.29s-.84,5.95-1.23,8.93c-.19,1.49-.37,3-.49,4.47s.13,2.94.13,4.44a.38.38,0,0,0,.76,0C71.94,108.87,72.42,107.35,72.62,105.8Z"/><path class="cls-1" d="M70.42,86.55A22.13,22.13,0,0,0,70,81.66c-.18-.67-1.11-.49-1.23.13a21.37,21.37,0,0,0,0,4.73c0,.75,0,1.51.12,2.26,0,.33,0,.81.06,1.2a.42.42,0,0,0,.12.46,1.7,1.7,0,0,0,.26.18.63.63,0,0,0,.76-.19C70.75,89.4,70.45,87.72,70.42,86.55Z"/><path class="cls-1" d="M69.35,77.94s0,0,0,0S69.37,77.94,69.35,77.94Z"/><path class="cls-1" d="M72.53,83.47a75,75,0,0,0-.33-8.61,30.52,30.52,0,0,0-.65-3.92c-.3-1.44-.15-3-.43-4.4-.53-2.75-1-5.57-1.64-8.28-.06-.24-.44-.14-.4.1a74.65,74.65,0,0,1,1.24,8.27c.1,1.37.53,2.68.57,4.05s-.11,2.9-.07,4.35c.06,2.73,0,5.48-.06,8.22,0,1.5-.1,3-.17,4.5a13.66,13.66,0,0,0,.13,3.78c.1.44.72.4.89,0C72.67,89.2,72.46,86,72.53,83.47Z"/><path class="cls-1" d="M74.11,68.45c-.32-1.53-.63-3.07-1-4.58-.76-3.09-1.48-6.39-3.26-9a.23.23,0,0,0-.41.16,58.08,58.08,0,0,0,1.86,8.42q.51,2.07,1,4.14c.18.75.34,1.52.54,2.27a4.8,4.8,0,0,1,.36,2.42.5.5,0,0,0,1,.31C74.77,71.28,74.39,69.81,74.11,68.45Z"/><path class="cls-1" d="M68.83,51.71c0-.05,0-.05-.06,0l0,.15s.08.07.08,0Z"/><path class="cls-1" d="M68.81,56.93a26.45,26.45,0,0,0-5-8.1,27.42,27.42,0,0,0-3.51-3.31c-.63-.5-1.28-1-1.94-1.41a12.24,12.24,0,0,0-1.12-.76c-.3-.15-.64-.19-.94-.36s-.43.13-.34.34c.29.62.36,1,1,1.33s1.47.77,2.17,1.23a20.56,20.56,0,0,1,3.58,3,24.79,24.79,0,0,1,5.15,8.42A.52.52,0,0,0,68.81,56.93Z"/><path class="cls-1" d="M66.86,48.84a25.78,25.78,0,0,0-3.17-3.79,36.88,36.88,0,0,0-9.28-6.38c-.32-.17-.66.35-.35.58a103,103,0,0,1,8.29,6.61,23.38,23.38,0,0,1,3.22,3.72,15.18,15.18,0,0,1,1.25,2.23A4.49,4.49,0,0,0,67.9,53.7a.61.61,0,0,0,1-.39C69.12,51.77,67.64,50,66.86,48.84Z"/><path class="cls-1" d="M50.14,37.89c-1.19-1.13-3.59-.71-5-.4a10.93,10.93,0,0,0-2.59.91,10.46,10.46,0,0,0-1.13.63,7.35,7.35,0,0,1-1.1.67c0-.5-.66-.44-.77,0a1,1,0,0,0,.72,1.37c.92.17,2-.73,2.83-1.07a12.66,12.66,0,0,1,3.43-.84c1.13-.12,2.4.24,3.48-.21A.64.64,0,0,0,50.14,37.89Z"/><path class="cls-1" d="M47.47,34.33A16.87,16.87,0,0,0,38.91,37a.32.32,0,0,0,.35.53c2-1.13,4.38-1.26,6.55-1.49,1.77-.2,5.2-.6,6.15,1.44.16.35.75.51.91,0C53.78,34.62,49,34.25,47.47,34.33Z"/><path class="cls-1" d="M48,31.88c-3.84.21-8.78.88-11.6,4.06-.14.16,0,.34.21.3,1.88-.49,3.67-1.46,5.52-2.11a25,25,0,0,1,5.94-1.42A.42.42,0,0,0,48,31.88Z"/><path class="cls-1" d="M25.08,41.89C21,46.79,18.52,52.81,16.77,59c-.9,3.18-1.64,6.42-2.25,9.67-.29,1.6-.51,3.21-.73,4.82s-.78,3.35-.51,4.89a.15.15,0,0,0,.29,0c.69-1.26.75-3,1-4.39.31-1.59.68-3.18,1-4.77.64-3.12,1.31-6.23,2.19-9.28a67.16,67.16,0,0,1,7.88-17.6C25.93,42,25.42,41.49,25.08,41.89Z"/><path class="cls-1" d="M26.89,131.31c-.84-1.44-2.15-2.58-3.13-3.93A35.63,35.63,0,0,1,20.83,123a58.58,58.58,0,0,1-3.85-10A98.6,98.6,0,0,1,13.3,91.82a76.82,76.82,0,0,1,.32-12.5c0-.44-.59-.56-.65-.11a80.82,80.82,0,0,0-.62,10.88,79.84,79.84,0,0,0,.59,11.37,78.32,78.32,0,0,0,5.82,21.24,26.36,26.36,0,0,0,3.08,5.17c.59.77,1.3,1.45,1.95,2.17A14.42,14.42,0,0,0,26,132.2.65.65,0,0,0,26.89,131.31Z"/><path class="cls-1" d="M74.17,58a28.18,28.18,0,0,0-3.25-8.59A40.55,40.55,0,0,0,65.8,41.8,28.46,28.46,0,0,0,59,36a20.55,20.55,0,0,0-4-1.88,15.93,15.93,0,0,0-1.94-.55,15.77,15.77,0,0,0-2.57-.16.34.34,0,0,0-.11.67,26.55,26.55,0,0,1,4.17,1.48,26.89,26.89,0,0,1,3.79,1.91,28.25,28.25,0,0,1,6.57,5.79,40,40,0,0,1,4.69,7.12c1.35,2.57,2.32,5.45,3.82,7.9A.41.41,0,0,0,74.17,58Z"/><path class="cls-1" d="M75,60.3l-.21-.71c-.15-.52-1-.2-.75.31l.27.69a1,1,0,0,0,.39.57A.26.26,0,0,0,75,61,1.22,1.22,0,0,0,75,60.3Z"/><path class="cls-1" d="M75.2,62.49l-.08-.33c0-.19-.33-.08-.27.11l.12.32C75,62.75,75.23,62.65,75.2,62.49Z"/><path class="cls-1" d="M77.17,70.34c-.45-1.8-.93-3.57-1.3-5.4-.07-.3-.52-.27-.47.06.25,1.81.39,3.6.58,5.42.13,1.32,0,3.42,1,4.36a.47.47,0,0,0,.74-.18C78.26,73.38,77.47,71.56,77.17,70.34Z"/><path class="cls-1" d="M77.13,100.08c.39-2.64.6-5.32.74-8a72.16,72.16,0,0,0-.48-15.76.57.57,0,1,0-1.13.13c0,5.28.31,10.51-.07,15.8-.18,2.52-.48,5-.79,7.53-.17,1.31-.48,2.65-.58,4,0,.6,0,1.2,0,1.8a3.82,3.82,0,0,0,0,1.54.33.33,0,0,0,.57.09,2.65,2.65,0,0,0,.51-1.22c.16-.67.47-1.27.65-1.93A37.56,37.56,0,0,0,77.13,100.08Z"/><path class="cls-1" d="M74.79,108.35c-.65,2.44-1.4,4.9-2.21,7.29A51.94,51.94,0,0,1,69.71,122a78.36,78.36,0,0,1-7.44,11.9c-2.68,3.62-6.57,5.72-10.41,7.66a18.75,18.75,0,0,1-11.27,2.07,17.19,17.19,0,0,1-10.85-6c-.85-1-2.53.24-1.67,1.27a19.16,19.16,0,0,0,21.82,5.82A32.24,32.24,0,0,0,56,141.45a35.14,35.14,0,0,0,5.47-4,39.91,39.91,0,0,0,4.45-5.85c1.42-2.07,2.81-4.16,4.05-6.35a32.45,32.45,0,0,0,1.93-3.87,33.38,33.38,0,0,0,1.13-4c.4-1.48.93-3,1.23-4.45s.52-3,.86-4.54A.15.15,0,1,0,74.79,108.35Z"/><path class="cls-1" d="M49.47,139.45a12.83,12.83,0,0,1-4.89,1.78,14.51,14.51,0,0,1-5.4-.57,14.37,14.37,0,0,1-5.2-2.14,49,49,0,0,1-4-3.37c-.29-.27-.63.14-.47.45,2.07,4,5.45,5.93,9.52,7.07s8,1,11.41-1.74A.89.89,0,0,0,49.47,139.45Z"/><path class="cls-1" d="M47.44,137.76a6,6,0,0,0-1.33.46,5.47,5.47,0,0,1-2,.23c-1.2-.06-2.41-.21-3.61-.38a22.55,22.55,0,0,1-3.37-.55c-.8-.24-1.44-.77-2.29-.43a.45.45,0,0,0,.29.84c.6-.2,1.06.52,1.51.83a4.63,4.63,0,0,0,1.38.57,35.1,35.1,0,0,0,3.79.71c1.75.26,5,.83,6.26-1C48.42,138.48,48.11,137.68,47.44,137.76Z"/><path class="cls-1" d="M80.15,79.55a58.16,58.16,0,0,0-.89-12.72c-.36-1.89-.91-3.77-1.4-5.63a47.06,47.06,0,0,0-2-6.18.07.07,0,0,0-.14,0c.63,1.94,1.26,3.88,1.78,5.86a57.44,57.44,0,0,1,1.17,6.39,81.51,81.51,0,0,1,.87,12.3C79.49,80.08,80.13,80,80.15,79.55Z"/><path class="cls-1" d="M80,94.54c.25-1.48.35-3,.45-4.52s.09-2.73.1-4.09c0-1.15.25-2.78-.56-3.64a.34.34,0,0,0-.55.08v0c-.73.85-.47,2.47-.49,3.54,0,1.44-.11,2.88-.15,4.32s-.13,2.86-.15,4.29-.26,3-.3,4.5c0,.62.85.57,1,0C79.65,97.57,79.74,96,80,94.54Z"/><path class="cls-1" d="M78.49,102c0-.64-1-.65-1.06,0a112.92,112.92,0,0,1-2.34,12.51c-.27,1-.69,2-1,3.09-.09.37-.11.79-.22,1.16-.16.55-.52,1-.73,1.55-.79,2-1.86,3.92-2.51,6-.1.32.27.64.49.33A27.51,27.51,0,0,0,74,120.74c.22-.55.26-1.12.49-1.67.16-.39.43-.74.6-1.14.45-1,.7-2.2,1-3.29A47.36,47.36,0,0,0,78.49,102Z"/><path class="cls-1" d="M70.44,129.21a42.09,42.09,0,0,1-8.34,10.51c-3,2.81-6.37,6.17-10.33,7.19a30.74,30.74,0,0,1-6.56.52,43.07,43.07,0,0,1-6.72-.23c-4.11-.51-8.46-2.16-11.27-5.48s-4.53-7.39-6.27-11.38a48.78,48.78,0,0,0,6.28,7.93c.28.28.76-.18.51-.51a109,109,0,0,1-6.51-9.11c-.95-1.55-1.83-3.14-2.7-4.74s-1.65-3.56-2.67-5.18c-.22-.35-.69,0-.6.34a28.58,28.58,0,0,0,2.28,5.41,55.54,55.54,0,0,0,2.77,4.87l.16.25a.39.39,0,0,0-.46.52c1.42,4.11,3,8.3,5.61,11.74a19.38,19.38,0,0,0,4.27,4.44,17.36,17.36,0,0,0,6.18,2.63,31.39,31.39,0,0,0,7,.64,45.16,45.16,0,0,0,7.43-.47c4.55-.76,8-3.7,11.49-6.81,3.83-3.45,7.67-7.52,9.4-12.63A.52.52,0,1,0,70.44,129.21Z"/><path class="cls-1" d="M24.17,140.11a59,59,0,0,1-9.37-20.27,113.7,113.7,0,0,1-2.14-12.32c-.27-2-.51-4-.7-6s-.09-4.38-.79-6.19a.53.53,0,0,0-1,.11c-.48,1.94,0,4.31.14,6.27.2,2.17.43,4.34.76,6.48a85.06,85.06,0,0,0,2.85,12.07c2.3,7.33,5.2,14.26,9.79,20.27A.31.31,0,0,0,24.17,140.11Z"/><path class="cls-1" d="M66.29,30.49a7.44,7.44,0,0,0-1.74-2.21A29.51,29.51,0,0,0,62.08,26a32.15,32.15,0,0,0-5.25-3.53A32.79,32.79,0,0,0,51.07,20a16.49,16.49,0,0,0-5.56-1.16c-4.38-.18-8.86,1.57-12.72,3.81A41.74,41.74,0,0,0,19.35,35a36.92,36.92,0,0,0-4.43,9A52,52,0,0,0,12.5,50.5a82.23,82.23,0,0,0-1.71,8.11C9.82,63.74,8.94,68.83,8.48,74s-.69,10.38-.66,15.58c0,2.65-.11,5.29,0,7.94s.25,5.13.54,7.67c.34,2.88.77,5.75,1.32,8.59.26,1.34.54,2.68.85,4a15.41,15.41,0,0,0,1.24,4,.35.35,0,0,0,.16.16,1.09,1.09,0,0,0,0,.17c-.42,2.2.3,4.45,1,6.46.85,2.31,1.79,4.6,2.78,6.84A41.71,41.71,0,0,0,23,147.37c.4.43,1-.24.73-.71a86.42,86.42,0,0,1-6.42-11.83c-1.74-3.94-3.8-8.14-3.93-12.59a.69.69,0,0,0-.82-.69h0a16.27,16.27,0,0,0-.66-3.39q-.48-2-.87-4.08-.7-3.64-1.19-7.35a149.31,149.31,0,0,1-1.33-15.1A154.15,154.15,0,0,1,10.1,67.68c-.26,2.67-.42,5.36-.52,8-.12,3-.13,6-.1,9,0,1.5,0,3,.07,4.52a21.49,21.49,0,0,0,.28,4.61c.11.49.81.35.89-.1,0-.15,0-.31.07-.47a.34.34,0,0,0,.59-.2q.51-6.5.85-13,.15-3.21.4-6.4c.08-1,.06-1.9.09-2.85,0-1.14.3-2.27.24-3.4,0-.24-.31-.21-.36,0a27.78,27.78,0,0,0-.44,3.17c-.18,1-.39,2.09-.5,3.15-.22,2.2-.44,4.4-.63,6.6s-.31,4.52-.36,6.78c0-.33,0-.65,0-1-.05-2.64-.08-5.27,0-7.91.07-5.28.19-10.81,1.4-16,1.06-4.55,1.88-9,3.56-13.39a56.74,56.74,0,0,1,2.51-5.63c1-1.87,2-3.83,3.11-5.59a29.61,29.61,0,0,1,4.9-5.28A46.45,46.45,0,0,1,31.44,28a.4.4,0,0,0-.44-.67,27.82,27.82,0,0,0-5.19,3.81,35.57,35.57,0,0,0-3.9,4.72A62.86,62.86,0,0,0,18.14,41a53.59,53.59,0,0,0-3,5.79A59.9,59.9,0,0,0,11.28,59.4a66.09,66.09,0,0,1,3.94-14.19.45.45,0,0,0,.33-.28A48.89,48.89,0,0,1,28.7,27.25c4.51-3.79,10.78-7.43,16.73-7.06,1.37.48,2.88.68,4.3,1.07l.15.07a.58.58,0,0,0,.3.06l.24.08A32.69,32.69,0,0,1,56,23.91a35.48,35.48,0,0,1,5,3.45c.77.63,1.51,1.29,2.23,2a11.87,11.87,0,0,0,2.17,2C65.89,31.63,66.5,31,66.29,30.49Z"/><path class="cls-1" d="M17.79,48.31A30.78,30.78,0,0,0,14.69,56a81.64,81.64,0,0,0-2.08,8.43c-.11.56.74.87.93.3.87-2.63,1.63-5.3,2.39-8s1.78-5.41,2.33-8.19C18.31,48.28,17.94,48.07,17.79,48.31Z"/><path class="cls-1" d="M27.8,36.34c0-.25-.21-.55-.46-.4A20.88,20.88,0,0,0,25,38a14,14,0,0,0-2.48,2.32c-1.63,2-2.59,4.48-3.89,6.72-.09.16.16.33.26.18.75-1.19,1.57-2.27,2.38-3.41.71-1,1.35-2,2.15-2.94a22,22,0,0,1,2.74-2.37C26.81,38,27.7,37.3,27.8,36.34Z"/><path class="cls-1" d="M39.74,30.53a5.43,5.43,0,0,0-3.54.31A12.2,12.2,0,0,0,33,33.25a55.48,55.48,0,0,0-6.16,6.38c-.3.36.19,1,.55.63,1.94-1.83,3.93-3.63,6-5.32a27.8,27.8,0,0,1,2.9-2.32c1.12-.7,2.54-.26,3.59-1.06A.62.62,0,0,0,39.74,30.53Z"/><path class="cls-1" d="M62.47,36.9c-.58-1.77-2.31-3-3.7-4.07a20.63,20.63,0,0,0-5-2.71,23.39,23.39,0,0,0-12.17-.76c-.32.06-.38.6,0,.65a21.66,21.66,0,0,0,3.13.25c1,0,2.06,0,3.09,0a18.53,18.53,0,0,1,5.35,1.19A19.7,19.7,0,0,1,58,34.15c1.35,1,2.47,2.51,3.94,3.32C62.22,37.65,62.59,37.25,62.47,36.9Z"/><path class="cls-1" d="M74.8,52.76a57,57,0,0,0-4.91-9,49.1,49.1,0,0,0-3.1-3.93c-.8-.93-1.92-2.68-3.29-2.34-.46.11-.6.89,0,1,.74.09,1.5,1.37,2,1.93s.82,1,1.22,1.49q1.36,1.74,2.62,3.58a56.79,56.79,0,0,1,4.66,7.67C74.2,53.67,75.07,53.32,74.8,52.76Z"/><path class="cls-1" d="M78.33,56.3a5.14,5.14,0,0,0-.76-1.81c-.4-.86-.52-1.84-.88-2.73a36.31,36.31,0,0,0-2-4c-.07-.12-.14-.23-.2-.35a.52.52,0,0,0,.63-.54,12.25,12.25,0,0,0-1.43-4.93c-.48-1.11-.91-2.41-2.13-2.73-.36-.09-.61.49-.32.71A3.41,3.41,0,0,1,72,41.63c.22.69.46,1.37.69,2.06s.35,1.14.56,1.7a58.35,58.35,0,0,0-4-5.81,62.58,62.58,0,0,0-6.41-7c-1.13-1.05-2.32-2-3.54-3a16.7,16.7,0,0,0-4-2.66c-.32-.12-.78.28-.49.62a25.16,25.16,0,0,0,3.43,2.83c1.19,1,2.34,2,3.47,3.05a60.78,60.78,0,0,1,6.45,7,65.48,65.48,0,0,1,5.32,7.74c.78,1.37,1.48,2.78,2.26,4.15.4.72,1,1.31,1.31,2.07a8.65,8.65,0,0,0,.82,2.11A.26.26,0,0,0,78.33,56.3Z"/><path class="cls-1" d="M82.59,80.33c0-2.35,0-4.7-.18-7a40.55,40.55,0,0,0-3-13,.35.35,0,0,0-.66.26,53.64,53.64,0,0,1,2.09,13.13C81,75.81,81,78,81,80.11A62.6,62.6,0,0,0,80.88,87a.75.75,0,0,0,1.5,0A42.3,42.3,0,0,0,82.59,80.33Z"/><path class="cls-1" d="M80.71,107.6c.55-5.74,1-11.47,1.55-17.21,0-.44-.6-.56-.64-.11-.29,2.78-.69,5.55-1,8.33s-.5,5.58-.9,8.36a51.29,51.29,0,0,1-1.89,8.2c-.85,2.71-1.83,5.46-2.9,8.08-.34.84.87,1.42,1.19.58,1-2.68,2.13-5.28,3-8A40.94,40.94,0,0,0,80.71,107.6Z"/><path class="cls-1" d="M37.92,27.68c-1.75-.09-3.84,1.23-5.35,2.1a11.56,11.56,0,0,0-4.2,4c-.36.59.48,1,.88.6a18.07,18.07,0,0,1,4.56-3.29c1.42-.74,3.34-1.13,4.5-2.3A.72.72,0,0,0,37.92,27.68Z"/><path class="cls-1" d="M42.42,77.2l-.18,0a.4.4,0,0,0-.33-.46c-.43-.07-.61.48-.38.75A2.12,2.12,0,0,0,40.69,79a.76.76,0,0,0,.7.9.79.79,0,0,0,.77-.86,1.41,1.41,0,0,1,.13-.46,1.36,1.36,0,0,1,.44-.42C43.18,77.83,42.84,77.19,42.42,77.2Z"/><path class="cls-1" d="M6,91.82C5.8,88,5.82,84.18,6,80.36a144.09,144.09,0,0,1,2.85-21.9c.87-4.17,1.82-8.3,3-12.38a.37.37,0,0,0-.71-.23,121,121,0,0,0-6.74,44.2c.13,4.13.17,8.56,1.42,12.5a.26.26,0,0,0,.51-.06C6.58,98.93,6.08,95.37,6,91.82Z"/><path class="cls-1" d="M36,16c-1.25-.14-2.73.85-3.83,1.44a31.89,31.89,0,0,0-3.71,2.32,38.59,38.59,0,0,0-6.73,6.37,52,52,0,0,0-5.52,8.12c-.89,1.62-1.7,3.29-2.43,5a18.89,18.89,0,0,0-1.74,5.24.52.52,0,0,0,1,.32,43,43,0,0,0,2-4.94c.67-1.57,1.42-3.11,2.23-4.61a49.28,49.28,0,0,1,5.42-8,37.75,37.75,0,0,1,6.28-6,30.81,30.81,0,0,1,3.66-2.36c1.14-.61,2.74-1,3.66-1.89A.58.58,0,0,0,36,16Z"/><path class="cls-1" d="M54.11,25.09c-3-2.39-6.8-2.29-10.35-1.67a55.08,55.08,0,0,0-6.06,1.46c-1.56.47-3.46.92-4.34,2.51-.29.52.5,1.06.84.56a3.35,3.35,0,0,1,2.27-1.21c.81-.22,1.61-.47,2.42-.68,1.71-.45,3.44-.81,5.18-1.1,3.06-.51,6.49-.69,9,1.4C53.88,27,54.89,25.73,54.11,25.09Z"/><path class="cls-1" d="M69.89,36.89a15.67,15.67,0,0,0-3-3.69c-1.19-1.17-2.43-2.3-3.72-3.36s-2.52-2-3.8-2.94c-1-.74-2.33-2.15-3.6-2.13a.22.22,0,0,0-.17.28c.39,1.24,2,2.09,3,2.83,1.26,1,2.5,2,3.72,3.05s2.42,2.09,3.58,3.22a41.55,41.55,0,0,0,3.45,3.32C69.68,37.76,70.11,37.31,69.89,36.89Z"/><path class="cls-1" d="M71.86,33.61a6.27,6.27,0,0,0-1.34-2.81c-.62-1-1.3-1.87-2-2.77a31.15,31.15,0,0,0-4.63-5,38.15,38.15,0,0,0-5.34-3.81,16.12,16.12,0,0,0-6.29-2.52c-.42,0-.84.61-.4.91,1.71,1.18,3.7,2,5.5,3a35,35,0,0,1,5.41,3.85,49.3,49.3,0,0,1,4.57,4.46,28.7,28.7,0,0,1,2.19,2.82A7.22,7.22,0,0,0,71.36,34C71.6,34.14,71.87,33.87,71.86,33.61Z"/><path class="cls-1" d="M77.24,49.48c-.24-1.33-.88-2.54-.89-3.92a11,11,0,0,0-.79-3.33,25.72,25.72,0,0,0-3.14-6.63.3.3,0,0,0-.51.29l.54,1.5a.3.3,0,0,0,.08.24c.62,1.7,1.23,3.39,1.8,5.11a13.27,13.27,0,0,0,1.16,3c.74,1.15.83,2.54,1.31,3.82A.23.23,0,0,0,77.24,49.48Z"/><path class="cls-1" d="M80.47,60.57a41,41,0,0,0-1.17-7.4c-.48-2.34-1-4.65-1.62-7-.1-.38-.73-.23-.65.17q.68,3.69,1.42,7.36a46.35,46.35,0,0,0,1.72,6.92A.16.16,0,0,0,80.47,60.57Z"/><path class="cls-1" d="M76.47,40.28a22,22,0,0,0-1.24-4.44c-.49-1.45-.94-2.92-1.53-4.34a20,20,0,0,0-4.32-6.35c-.32-.32-.73.23-.44.56a21.18,21.18,0,0,1,4,7c.91,2.58,1.5,5.54,2.9,7.87A.37.37,0,0,0,76.47,40.28Z"/><path class="cls-1" d="M83.37,97.39c.13-1.55.27-3.09.41-4.63.28-3,.61-6,.77-9.06a81.45,81.45,0,0,0,0-8.7c-.17-2.91-.22-6-1.1-8.79a.29.29,0,0,0-.55.07c-.33,2.86.18,5.79.35,8.64a75.39,75.39,0,0,1,.12,9c-.19,2.87-.53,5.74-.85,8.61-.17,1.53-.35,3.07-.52,4.61a18,18,0,0,0-.28,4.33c.07.51.81.74,1,.17A17.55,17.55,0,0,0,83.37,97.39Z"/><path class="cls-1" d="M88.08,81.77a83.15,83.15,0,0,0,0-10.59c-.23-3.61-.44-7.25-.91-10.82a73.45,73.45,0,0,0-1.84-9.68,7.45,7.45,0,0,0,.5,1.19c.28.51,1,.12,1-.38a22.52,22.52,0,0,0-1.2-5c-.46-1.67-.93-3.33-1.44-5-.85-2.75-1.6-5.61-3.57-7.69-.38-.39-1,.25-.7.69,1.78,2.24,2.46,5.38,3.26,8.14q.69,2.37,1.35,4.76c.16.6.3,1.24.46,1.88a74.67,74.67,0,0,0-3.64-9.43.24.24,0,1,0-.44.18c2,6.82,4.25,13.5,5.2,20.62a100.11,100.11,0,0,1,.87,10.4c.1,3.54.15,7.14.51,10.65C87.43,82.15,88.05,82.2,88.08,81.77Z"/><path class="cls-1" d="M85.35,99.19a.28.28,0,0,0-.55,0,3,3,0,0,1-.12.78c-.07.25-.1.5-.15.75a.18.18,0,0,0,.32.16,1.76,1.76,0,0,0,.41-.76A4,4,0,0,0,85.35,99.19Z"/><path class="cls-1" d="M87.71,83.93a.52.52,0,0,0-1,0c-.24,1.44-.38,2.87-.53,4.31a21.64,21.64,0,0,0-.21,4,.38.38,0,0,0,.72.12A18.64,18.64,0,0,0,87.71,83.93Z"/><path class="cls-1" d="M85.53,95.8a.19.19,0,0,0-.07.37C85.68,96.21,85.75,95.84,85.53,95.8Z"/><path class="cls-1" d="M85.11,98.26a.18.18,0,0,0-.06.35C85.26,98.64,85.31,98.3,85.11,98.26Z"/><path class="cls-1" d="M84.4,101.53c-.3,0-.38.45-.08.5S84.7,101.58,84.4,101.53Z"/><path class="cls-1" d="M83.79,104.25a.11.11,0,0,0,0,.22C83.88,104.49,83.92,104.27,83.79,104.25Z"/><path class="cls-1" d="M84.05,106.61a.57.57,0,1,0-1.13-.19c-.78,3.63-1.68,7.26-2.74,10.81s-2.38,6.86-3,10.44c-.11.59.6.73.87.28,1.88-3.15,2.81-6.78,3.72-10.33S83.47,110.33,84.05,106.61Z"/><path class="cls-1" d="M76.38,131.19a.72.72,0,0,0-1.25-.61h0s0,0,0,0l0,0a28.37,28.37,0,0,0-1.38,2.69c-.56,1-1.17,2-1.81,3-1.15,1.76-2.35,3.48-3.56,5.18a58.79,58.79,0,0,1-8.15,9.35,46.65,46.65,0,0,1-9.09,6.46,43.89,43.89,0,0,1-5,2.31c-.87.35-1.76.66-2.65,1a12.25,12.25,0,0,0-1.34.42l-.29.17a12,12,0,0,1-1.46-.12,17.41,17.41,0,0,1-4.73-1.35c-3-1.36-5.24-3.56-7.79-5.6a.33.33,0,0,0-.47.46,19.71,19.71,0,0,0,8.81,7.19,14.14,14.14,0,0,0,4.74,1.07.48.48,0,0,0,.41.24,5.17,5.17,0,0,0,1.84-.06c.79-.23,1.57-.48,2.34-.77a43.79,43.79,0,0,0,4.07-1.71,49.11,49.11,0,0,0,7.86-4.71,49.65,49.65,0,0,0,6.79-6,67.1,67.1,0,0,0,6.32-8.24c1.14-1.67,2.28-3.34,3.34-5.06C74.85,134.94,76.16,133,76.38,131.19Z"/><path class="cls-1" d="M62.41,142.64c-3.92,6.15-9.79,11.28-16.63,13.1a15.53,15.53,0,0,1-9.9-.33,20,20,0,0,1-4.58-2.84c-1.69-1.31-3.39-2.57-5.13-3.81a.34.34,0,0,0-.42.52c2.87,2.94,5.85,6.46,9.68,8a17.14,17.14,0,0,0,10.46.43c7.3-1.85,13.75-7.21,17.84-13.86C64.34,142.82,63.05,141.63,62.41,142.64Z"/><path class="cls-1" d="M24.67,151a53.37,53.37,0,0,1-8.17-11.35,42.43,42.43,0,0,1-2.61-6.52c-.68-2.19-1.21-4.56-3-6a.38.38,0,0,0-.59.44c1.79,4.41,3,9.09,5.19,13.32a34.19,34.19,0,0,0,8.49,11C24.54,152.21,25.1,151.45,24.67,151Z"/><path class="cls-1" d="M10,123c-.48-2.84-.95-5.67-1.44-8.5s-.8-5.57-1.38-8.3c-.18-.86-1.48-.48-1.41.37a66.34,66.34,0,0,0,1.41,8.42c.59,2.77,1.29,5.48,2.12,8.19A.36.36,0,0,0,10,123Z"/><path class="cls-1" d="M7.54,126.18a9.55,9.55,0,0,0-.34-1,7.09,7.09,0,0,1-.24-1.3.11.11,0,1,0-.22,0,4.51,4.51,0,0,0,.61,2.39C7.41,126.33,7.56,126.3,7.54,126.18Z"/><path class="cls-1" d="M9.06,131.13l-.47-1.36a.11.11,0,0,0-.2.08L9,131.18A.06.06,0,1,0,9.06,131.13Z"/><path class="cls-1" d="M7.26,117.41c-.18-1.22-.52-2.43-.79-3.63-.18-.81-.39-1.63-.5-2.45-.08-.65,0-1.29-.14-1.93-.43-2.77-.91-5.52-1.29-8.3S3.89,95.68,3.67,93c-.11-1.36-.15-2.73-.28-4.09A38.65,38.65,0,0,1,3,84.57c0-.28-.43-.24-.41,0,.07,1.46-.12,2.9-.14,4.36s.12,2.74.21,4.1c.19,2.8.46,5.6.81,8.38s.8,5.4,1.32,8.07a14.9,14.9,0,0,0,.57,1.75c.21.67.31,1.4.46,2.09a34.61,34.61,0,0,0,1,4.16A.22.22,0,0,0,7.26,117.41Z"/><path class="cls-1" d="M10.13,129.17A13.46,13.46,0,0,0,9.32,127a8.24,8.24,0,0,1-.63-2.74c0-.25-.42-.2-.37,0,.17,1,.4,1.9.56,2.86a5,5,0,0,0,.9,2.18C9.92,129.55,10.18,129.4,10.13,129.17Z"/><path class="cls-1" d="M3.9,72.81c.25-3.35.74-6.66,1.23-10a74.51,74.51,0,0,1,2.31-9.57c.48-1.66,1-3.31,1.53-5A16.42,16.42,0,0,0,10.09,44c0-.32-.41-.39-.58-.18a13.49,13.49,0,0,0-1.9,4.35c-.51,1.54-1,3.11-1.36,4.69-.85,3.25-1.39,6.55-2.07,9.84a87.86,87.86,0,0,0-1.38,10c-.14,1.54-.26,3.08-.3,4.62a29.73,29.73,0,0,0,.07,5.34.41.41,0,0,0,.81,0c.23-1.61.15-3.26.23-4.88S3.77,74.45,3.9,72.81Z"/><path class="cls-1" d="M20.61,22.86c-1.18.5-2.07,2.07-2.84,3.1a46.54,46.54,0,0,0-2.66,4,51.38,51.38,0,0,0-4,9.07c-.08.2.21.35.29.14a53.7,53.7,0,0,1,4.65-8.57c.82-1.3,1.7-2.58,2.62-3.8s2.07-2.14,2.46-3.45A.4.4,0,0,0,20.61,22.86Z"/><path class="cls-1" d="M27.72,16.81a7.14,7.14,0,0,0-3.15,2,18.11,18.11,0,0,0-2.62,3c-.46.65.41,1.44.9.8a16.06,16.06,0,0,1,2.66-2.74,20.25,20.25,0,0,0,2.72-2A.63.63,0,0,0,27.72,16.81Z"/><path class="cls-1" d="M45.79,15.14A6.19,6.19,0,0,0,43,14.81a14.5,14.5,0,0,0-3.28.34.64.64,0,0,0-.05,1.25,14.76,14.76,0,0,0,3.25.33,6.31,6.31,0,0,0,2.86-.3A.73.73,0,0,0,45.79,15.14Z"/><path class="cls-1" d="M82.62,61.75a37.78,37.78,0,0,0-1-7.09c-.38-2.17-.76-4.34-1.22-6.49a98.37,98.37,0,0,0-3.21-12.39,37,37,0,0,0-5.32-10.16c.36.1.64-.43.45-.75a13.56,13.56,0,0,0-2.8-3.05Q67.94,20.35,66.21,19a50.29,50.29,0,0,0-7-4.44,40.05,40.05,0,0,0-16-4.9.44.44,0,0,0-.15.86,76,76,0,0,1,10.18,2.87c-1.27-.29-2.55-.56-3.83-.78a53.8,53.8,0,0,0-7.69-.92A22.56,22.56,0,0,0,28.52,15c-.65.41-.09,1.55.6,1.22a30.48,30.48,0,0,1,12.81-3,35.56,35.56,0,0,1,7.35.7c1.25.26,2.5.56,3.74.89,1.09.28,2.35.9,3.48.72a.59.59,0,0,0,.45-.55c.59.28,1.17.56,1.75.87A47.56,47.56,0,0,1,63.94,19a.32.32,0,0,0,0,.53c6.17,3.86,10.17,10.62,12.47,17.69a79.24,79.24,0,0,1,2.76,12.13c.33,2.13.73,4.25,1.1,6.37A32.93,32.93,0,0,0,81.68,62C81.9,62.55,82.61,62.32,82.62,61.75Z"/><path class="cls-1" d="M91,76c0-2.38-.09-4.74-.24-7.11a116.52,116.52,0,0,0-1.63-14.11.49.49,0,1,0-1,.11c.33,4.65.74,9.3,1,14,.15,2.29.25,4.58.4,6.87A69.54,69.54,0,0,0,90,82.85a.41.41,0,0,0,.81,0A42,42,0,0,0,91,76Z"/><path class="cls-1" d="M90.44,90.54A12.59,12.59,0,0,0,91,85a.54.54,0,0,0-1.08,0,45.2,45.2,0,0,0-.71,5.87.41.41,0,0,0,0,.16A1.41,1.41,0,0,0,90,93.27C91.59,93.55,92.06,90.84,90.44,90.54Z"/><path class="cls-1" d="M90,95a.42.42,0,1,0-.83-.14c-1.16,4.77-2.59,9.73-2.86,14.64,0,.47.63.8.82.27C88.76,105.1,89.32,99.92,90,95Z"/><path class="cls-1" d="M83.4,116.49c0-.24.09-.48.13-.72.31-1.48.71-3,1-4.43.64-3,1.27-5.93,1.91-8.89a.33.33,0,1,0-.65-.11Q84.9,106.68,84,111c-.3,1.41-.53,2.83-.82,4.24a32.94,32.94,0,0,0-.94,4.45.43.43,0,0,0,0,.11c-.35,1-.74,2.06-1.15,3.06-.75,1.84-1.78,3.57-2.46,5.43a.7.7,0,0,0,1.16.78c3.13-3.14,3.71-7.84,4.49-12A.55.55,0,0,0,83.4,116.49Z"/><path class="cls-1" d="M86.39,112.21q-.63,3.24-1.36,6.47a53.85,53.85,0,0,0-1.45,6.44c0,.39.47.6.64.21a36,36,0,0,0,1.65-6.28q.78-3.33,1.45-6.68A.47.47,0,1,0,86.39,112.21Z"/><path class="cls-1" d="M40.26,166.65c-1.6-.86-3.3-1.43-4.86-2.4a37,37,0,0,1-4.64-3.36A85.6,85.6,0,0,1,22.51,153c-.14-.17-.43.11-.28.28,1.31,1.58,2.47,3.29,3.77,4.88a31.76,31.76,0,0,0,4.31,4.29A23,23,0,0,0,35,165.55a12.47,12.47,0,0,0,5.15,1.55C40.42,167.11,40.44,166.74,40.26,166.65Z"/><path class="cls-1" d="M47.55,166a3,3,0,0,0-1.26.16l-1.3.35c-.6.16-.31,1.05.23,1.05a3.54,3.54,0,0,0,2.57-.85A.44.44,0,0,0,47.55,166Z"/><path class="cls-1" d="M76.88,134.51a17.11,17.11,0,0,0-2.72,4.36c-.87,1.62-1.72,3.26-2.64,4.85a74.66,74.66,0,0,1-6.23,9.07,48,48,0,0,1-6.66,6.78c-1.22,1-2.52,2-3.8,2.92a20.53,20.53,0,0,1-4.2,2.66c-.48.22-.21,1,.27.8,1.51-.71,3.1-1.37,4.58-2.16a23.09,23.09,0,0,0,3.73-2.67,51.94,51.94,0,0,0,6.73-7,88.3,88.3,0,0,0,6.44-9.18c1-1.52,1.94-3,2.87-4.56s2.25-3.28,2.67-5.17C78.05,134.64,77.32,134.09,76.88,134.51Z"/><path class="cls-1" d="M97.73,136.68a5.76,5.76,0,0,0-2.85-.45c-1.11,0-2.22-.09-3.33-.11s-.92,1.75.15,1.75A28.1,28.1,0,0,1,95,138a5.83,5.83,0,0,0,2.66-.07A.71.71,0,0,0,97.73,136.68Z"/><path class="cls-1" d="M97.59,127.33l-.43,0a.26.26,0,0,0-.09.5l.43.11c.14,0,.29-.1.32-.24A.29.29,0,0,0,97.59,127.33Z"/><path class="cls-1" d="M90.08,129.77c-.84-.15-1.08,1.25-.23,1.4A.71.71,0,0,0,90.08,129.77Z"/><path class="cls-1" d="M87,25.65a2.37,2.37,0,0,1-2-.12c-.5-.33-1.06.58-.58,1a2,2,0,0,0,3-.3A.34.34,0,0,0,87,25.65Z"/><path class="cls-1" d="M112.35,77.33c0-1.67-.06-3.35-.18-5,0-.73-.09-1.48-.18-2.22a.36.36,0,0,0,0-.11,52.14,52.14,0,0,0-.26-10.3A77.88,77.88,0,0,0,110,49.5c-.79-3.3-1.85-6.5-2.83-9.74A60.21,60.21,0,0,0,103.37,30a24.06,24.06,0,0,0-2.51-4.1c-.5-.62-1.11-1.13-1.55-1.79s-.76-1.67-1.36-2.42a52.88,52.88,0,0,0-6.66-6.64,61.85,61.85,0,0,0-16-10.6A40.38,40.38,0,0,0,61,1.18c-.5-.18-1-.32-1.45-.44a22.24,22.24,0,0,0-4.88-.6,70.07,70.07,0,0,0-9.6.56.35.35,0,0,0-.15.62,28.6,28.6,0,0,0-3.42.54,7.54,7.54,0,0,0-.88.26h0a5.8,5.8,0,0,0-3.11.57,31.66,31.66,0,0,0-3.77,1.79c-2.14,1.12-4.5,2.07-6.26,3.84a.46.46,0,0,0,0,.67,29.19,29.19,0,0,0-4.1,3.52,44.23,44.23,0,0,0-5.92,7.13,122.86,122.86,0,0,0-9.73,18A42.94,42.94,0,0,0,4,49.49a.59.59,0,0,0,.41.69c-.22.85-.44,1.71-.65,2.57A129.85,129.85,0,0,0,.69,73,186,186,0,0,0,.26,94.55c.15,4,.55,8,.83,12a115.68,115.68,0,0,0,1.34,12.35.65.65,0,0,0,.7.58c.49,3.86,1.08,7.69,1.92,11.48a84.41,84.41,0,0,0,2.72,10,.51.51,0,0,0-.06.27A11.32,11.32,0,0,0,9,144.7c.6,1.31,1.23,2.6,1.84,3.9s1.09,2.44,1.65,3.65a18.08,18.08,0,0,0,.92,1.88,29,29,0,0,0,2.55,5.14.39.39,0,0,0,.3.5h0c.77,1.2,1.61,2.37,2.49,3.52a31.53,31.53,0,0,0,8.62,8A18.39,18.39,0,0,0,30,172.61a19.53,19.53,0,0,0,3,1.19c.6.13,1.2.23,1.81.3-.42.13-.61.8-.12,1a49.55,49.55,0,0,0,13.38,3.17,20.5,20.5,0,0,0,6.54,0c.2,0,.41-.08.62-.12a14.8,14.8,0,0,0,3.64-.06,18.7,18.7,0,0,0,4-.61,20.5,20.5,0,0,0,3.77-1.37,7.61,7.61,0,0,0,1.39-.92,10.58,10.58,0,0,0,4-1.72c1.46-.86,2.82-1.87,4.23-2.83a45.8,45.8,0,0,0,8.24-6.55,31.48,31.48,0,0,0,2.6-3.3,43.31,43.31,0,0,0,6-6.06,56.2,56.2,0,0,1,4.07-9.4,61.39,61.39,0,0,1,6-12.17,86.65,86.65,0,0,1,4.55-13.19c1.78-11,3.65-22.05,4.24-33.16C112.28,83.63,112.39,80.48,112.35,77.33Zm-2.21-11.15a.25.25,0,0,0-.14.06c-.55.41-1,1-1.49,1.42a8.16,8.16,0,0,1-1.81,1.15l-.07,0c0-.12,0-.23,0-.34a20.35,20.35,0,0,0,2.63-2.7c.2-.25,0-.74-.36-.61l-1.75.58c.33-.22.65-.45,1-.69a.59.59,0,0,0,.45.18.61.61,0,0,0,.5-1c.28-.24.55-.49.81-.74Zm-2.93,3.57c-.18.17-.36.33-.55.48,0-.15,0-.31,0-.46h.18A.56.56,0,0,0,107.21,69.75Zm-.64-2.31v-.15l0-.58,1.24-.41Q107.19,66.88,106.57,67.44Zm2.73-8.73c.2,1.42.36,2.83.51,4.25-.41.38-.84.74-1.28,1.08a.57.57,0,0,0-.54.41,17.91,17.91,0,0,1-1.55,1c-.11-1.48-.26-3-.46-4.44a17.5,17.5,0,0,0,3.26-2.68Zm-8.57-28.36C102,33,103,35.9,104.05,38.7A95.14,95.14,0,0,1,107.13,48a94.57,94.57,0,0,1,2,9.35c-.65.51-1.24,1.09-1.88,1.61-.46.37-.93.73-1.41,1.07-.23-.28-.85-.14-.8.28l0,.24-.15.1c-1.54,1-3.23,1.71-4.78,2.66q-.37-3.1-.87-6.21c-.07-.45-.76-.26-.7.2q.57,3.67,1,7.4a10,10,0,0,0-.74.87.06.06,0,0,1,0,0c-.17-.68-.92-.93-1.34-1.42a3.41,3.41,0,0,1-.81-2.24c0-.16-.25-.26-.32-.09a3.1,3.1,0,0,0,1,3.54c.14.1.52.29.48.49s-.36.34-.48.44a2.46,2.46,0,0,0-.92,1.1c-.39,1.21,1.17,1.5,1.93,1.94a.47.47,0,0,1,.19.12l.06,0s0,0,0,0c0,.17-.25.34-.36.46l-.57.6-1.64,1.73q-.12-5.35-.58-10.7Q95,58,94.54,54.45l1-.5a.5.5,0,0,0,.23-.56.52.52,0,0,0-.13-.21.48.48,0,0,0-.59-.08l-.71.38c-.14-1-.31-1.93-.48-2.89-.08-.43-.83-.34-.78.1.13,1.09.25,2.18.37,3.27h0c-.19-1.32-.39-2.64-.61-3.95-.12-.68-.24-1.36-.37-2l.25-.24c.35-.33.75-.59,1.08-.92a.31.31,0,0,0-.3-.52,3.22,3.22,0,0,0-1.27.53c-.29-1.37-.63-2.73-1-4.08A4.14,4.14,0,0,0,92,42.2a.37.37,0,0,0-.36-.62,3.93,3.93,0,0,0-.66.3c-.43-1.43-.91-2.84-1.46-4.22.69-.6,1.43-1.14,2.15-1.72a.37.37,0,0,0-.36-.61,7.4,7.4,0,0,0-2.2,1.33c-.42-1-.87-2-1.34-3a17.19,17.19,0,0,1,1.28-1.76,2.82,2.82,0,0,0,.26.44.58.58,0,0,0,.19,1l.85.1.36.31c.45.39,1.27.93,1.41,1.58s-.33.92-.62,1.34a5.21,5.21,0,0,0-.68,1.52,1,1,0,0,0,.31.94,3.8,3.8,0,0,1,1.34,2.66,6.11,6.11,0,0,0,.41,2.69,4.75,4.75,0,0,0,3.36,2.16,7.68,7.68,0,0,1-2.63,2.71.56.56,0,0,0,.62.93A8.89,8.89,0,0,0,97,47.35a5.45,5.45,0,0,0,.35,1.33c.47,1,1.89,1.31,3.15,1.44l-.3.23c-.54.44,0,1.34.6.9l1.47-1.17a.56.56,0,0,0-.35-1,5.83,5.83,0,0,1-2.77-.51c-.7-.45-.65-1.18-.9-1.91a4.64,4.64,0,0,0-.64-1.23,2.13,2.13,0,0,0,.82-.53l.14-.16c.11.6.23,1.2.33,1.8s.06,1.08.05,1.61a.52.52,0,0,0,.57.49c1.36-.25,1.3-1.73,1.07-3.09a1.08,1.08,0,0,0,1,.2.91.91,0,0,0,.62-1,.51.51,0,0,0-.31-.41l-.12-.13v-.09a1.8,1.8,0,0,0,0-.52,4,4,0,0,0-.38-2,.67.67,0,0,0-1.25,0l0,0c-.45-.4-1.17-.12-1.69,0a.73.73,0,0,0-.6.77.66.66,0,0,0,.71.62c.49-.07,1.33,0,1.64-.54l0-.06a2.89,2.89,0,0,1,0,1.34s0,0,0,.07a.93.93,0,0,0-1.11-.68A.62.62,0,0,0,98.8,43c-.76-.09-1.12.91-1.88.86a9.51,9.51,0,0,1-1.26-.29c-.16-.81.13-1.94-.29-2.65a2.58,2.58,0,0,0-.94-.89L94,39.86a6,6,0,0,0-.56-1.06.29.29,0,0,0-.25-.35,5.2,5.2,0,0,0-.38-.44,4.81,4.81,0,0,0,.63-2.55,3.76,3.76,0,0,0-.87-1.87h.76c1.15,2.84,2.21,5.73,3.56,8.45.16.32.7.1.63-.25a37.18,37.18,0,0,0-2.79-8.36c.28-.06.55-.13.82-.21a3.16,3.16,0,0,0,.6,1l.24.24c.42,1.05.86,2.11,1.32,3.15l-.26.06a.84.84,0,0,0-.07,1.63l.19,0a4.8,4.8,0,0,0-.2,1.38c0,1.09,1.58.9,1.59-.19a2.93,2.93,0,0,1,.49-1.49.74.74,0,0,0,.06-.56,1.24,1.24,0,0,0,.18-.44.55.55,0,0,0-.29-.59,1.19,1.19,0,0,0-1-.06c-.16-.67-.34-1.34-.53-2a3.41,3.41,0,0,0,1.07.22.63.63,0,0,0,.47.24,8.06,8.06,0,0,0,1.78.08,47.75,47.75,0,0,1,.91,4.86c.49,3.19,1.05,6.32,1.81,9.45.07.32.52.17.51-.13,0-.73-.06-1.45-.1-2.17h.11l.18,0,.26.18a.2.2,0,0,0,.31-.23,1.3,1.3,0,0,0,.65-.35,1.24,1.24,0,0,0,.37-1.28.78.78,0,0,0-.79-.58,1.08,1.08,0,0,0-.89.54.13.13,0,1,0,.2.18c.09-.09.58-.46.6-.25,0,0-.08.14-.14.18a4.11,4.11,0,0,1-.94.29h0c-.21-2.39-.55-4.76-1-7.15-.48-2.81-1-5.59-2.75-7.85a.53.53,0,0,0-.85.64,11.25,11.25,0,0,1,1,2l-.79-.09c-.45-.48-1.11-.52-1.67-.89a2.17,2.17,0,0,1-1-1.85c1.1-.27,2.19-.59,3.28-.92A.37.37,0,0,0,100.73,30.35ZM99.64,66.24l-.23,0c.07-.12.14-.24.2-.36Zm-2.2,1.38c.11.12-.09.07,0,0ZM95.28,90.87c0-.18,0-.36,0-.54.4.24.82.45,1.24.65-.35.18-.69.4-1,.58l-.35.2Zm.41-5.53.16.12c.44.29,1.16.38,1.61.71A15.11,15.11,0,0,1,95.52,88C95.58,87.11,95.64,86.22,95.69,85.34ZM86.93,21.62a5.4,5.4,0,0,0,.58.11c.21.38.43.76.65,1.14l-1.36,0a8.28,8.28,0,0,0-2.09-1.28.47.47,0,0,0-.61.59,3.82,3.82,0,0,0,.21.46,1.65,1.65,0,0,0-2,.3c-.66-1.18-1.36-2.34-2.12-3.46l.31-.24a14.1,14.1,0,0,0,2.65.27,15,15,0,0,0,3.43.1,10,10,0,0,0,.36,1A.57.57,0,0,0,86.93,21.62Zm-2.71,1.77a.46.46,0,0,0,.34-.39A9.34,9.34,0,0,0,89.26,26a3.43,3.43,0,0,0,.47.1,16.12,16.12,0,0,0-2.1.33c-.42.1-.52.77,0,.85a15.92,15.92,0,0,0,2.94.1l.22.43c-.17.16-.34.29-.45.38a5.19,5.19,0,0,0-1.15,1.24.42.42,0,0,0-.16-.09,24.07,24.07,0,0,1-2.57-.35.32.32,0,0,0-.3-.44.29.29,0,0,0-.3.23.63.63,0,0,0-.4.09c-.56-1.09-1.14-2.19-1.71-3.28-.31-.59-.62-1.17-.94-1.75A6.79,6.79,0,0,1,84.22,23.39ZM93.15,29l-.43.08c-.17-.37-.35-.72-.53-1.08a3.3,3.3,0,0,0,.2-.58,1.13,1.13,0,0,0,0-.18l.78,0a2.28,2.28,0,0,0-.25.9A1.6,1.6,0,0,0,93.15,29Zm-.71,2.36a2.6,2.6,0,0,0,.1.25c-.55.1-1.09.19-1.63.31a2.79,2.79,0,0,1-.33-.46C91.2,31.42,91.82,31.38,92.44,31.34Zm-2.1-.59a1.32,1.32,0,0,1,.34-.94c.23-.27.47-.51.7-.76l.33.68.38.83Zm2.59,1.76,0,.08-.5.06Zm-.75-6.67a1.59,1.59,0,0,0-.57-.55,8.57,8.57,0,0,0-1.1-.53l-.21-.4.88.06,1,.08c.2.42.39.85.59,1.28Zm-1-2.88-1.76-.05c-.23-.37-.47-.74-.71-1.11.61,0,1.22,0,1.8-.05h.34l.6,1.22Zm-2.4,7.34a.5.5,0,0,1,0,.12,2.6,2.6,0,0,0,0,.48h-.09a.28.28,0,0,0-.24.37,7.6,7.6,0,0,0-1.11,1.4c-.37-.76-.74-1.52-1.12-2.28A2.6,2.6,0,0,0,88.81,30.3Zm6.41,1.63.17,0,0,.08c0,.07,0,.15,0,.23-.37,0-.74.09-1.11.16l-.1-.21C94.54,32.07,94.88,32,95.22,31.93Zm-1.41-.6,0-.09.72-.07Zm-.43-.91,0-.08,1.37-.14,0,.09Zm5.39-3.78c.1.21.21.43.32.63.41.76.86,1.49,1.25,2.27a.25.25,0,0,0,0,.07l-.1,0L98.71,30c-.56,0-1.11.05-1.67.08a1.75,1.75,0,0,0-.12-.32l.25-.08a.48.48,0,0,0-.08-.9,5.41,5.41,0,0,0-1.45-.14l-.29-.1c-.22-.48-.44-1-.67-1.44v0C96.06,27,97.4,26.86,98.77,26.64Zm-2.33-2.55c.43.37.92.62,1.34,1l0,0c-1,.1-1.9.23-2.84.35a2.61,2.61,0,0,0-.16-.61,3,3,0,0,0-.16-.31,9.11,9.11,0,0,0,1.38-.16A.48.48,0,0,0,96.44,24.09Zm-1.77-1.91c.34.36.66.74,1,1.11a13.88,13.88,0,0,0-3.1-.31l-.69-1.26,2.31,0Zm-7.54-7,.94.79c1.83,1.55,3.61,3.19,5.31,4.91l-2.12-.19-1.39-2.39c-.24-.4-.8,0-.58.44.34.62.67,1.25,1,1.87a21.49,21.49,0,0,0-2.4-.16,11.69,11.69,0,0,1-.55-1.05l.19-.07c.48-.21.64-1.12.06-1.31a5.08,5.08,0,0,0-.86-.19.3.3,0,0,0-.29,0c-.32,0-.64,0-1,0-.56-.88-2.3-.26-3.09-.53s-.44-.69-.09-1.14a29.11,29.11,0,0,0,4.18-.18A.75.75,0,0,0,87.13,15.15Zm-8.51-6a64.07,64.07,0,0,1,7.44,5.12,15.29,15.29,0,0,0-3.1,0,1.22,1.22,0,0,0-.16-.37,1.51,1.51,0,0,0-1.22-.53,4,4,0,0,1-.78-.19,5.81,5.81,0,0,0,1.53-.4c.57-.24.41-1.29-.22-1.18a15.11,15.11,0,0,0-2.32.13c-.58,0-1.16.07-1.72.17a15.45,15.45,0,0,1-1.46-.75l-.37-.22c.37-.07.75-.15,1.11-.24a1.57,1.57,0,0,0,1.27-1.29A.54.54,0,0,0,78.62,9.17Zm-2-1.11.81.44c-.71-.1-1.43-.21-2.14-.33ZM67.56,4.93a.4.4,0,0,0,.28-.57A47.18,47.18,0,0,1,74.62,7a18.59,18.59,0,0,0-2.93.53c-.64.17-.41,1.11.1,1.24,1.37.35,2.74.64,4.12.88-.94.15-2,.23-2.32.27a.76.76,0,0,0-.5,1.15c.46.57,1.08.91,1.72.39a.61.61,0,0,0,.18-.26,19.32,19.32,0,0,0,2.35,1.53l.06,0,0,0,.74.45a14.59,14.59,0,0,0,1.86,1,4.62,4.62,0,0,0,.84.29,2.56,2.56,0,0,0,.44.06h0a.67.67,0,0,0-.31,1,2.12,2.12,0,0,0-.45.9,2,2,0,0,0,.07,1,2.09,2.09,0,0,0-1.16.35.43.43,0,0,0-.18.3A27.85,27.85,0,0,0,76.51,15a9.14,9.14,0,0,0,1.57.11.82.82,0,0,0,.66-.51,1,1,0,0,0,0-.67.78.78,0,0,0-.62-.54,9.73,9.73,0,0,0-1.62-.1.86.86,0,0,0-.93.71.88.88,0,0,0,0,.36l-.92-.65s0,0,0,0a14.24,14.24,0,0,0-3.84-3.82q-1.7-1.38-3.48-2.65a34.47,34.47,0,0,0,5.09-.07c.22,0,.24-.39,0-.41a62.29,62.29,0,0,0-6.69-.62c-.72-.5-1.44-1-2.18-1.44A9.31,9.31,0,0,0,67.56,4.93ZM79.91,19l0,0-.06-.1ZM61.75,3a2.3,2.3,0,0,0,.78.3.43.43,0,0,0,.39-.12q1.69.29,3.36.72c-1.49-.18-3-.12-4.49-.4a.26.26,0,0,0-.2,0,14.51,14.51,0,0,0-1.74-.72C60.48,2.87,61.12,2.94,61.75,3ZM22.11,15.61a30.15,30.15,0,0,1,4-4.2c1.42-1.21,3-2.11,4.45-3.32a.27.27,0,0,0-.23-.47l-.28.08c1.38-.79,2.83-1.46,4.22-2.17A32.33,32.33,0,0,1,37.51,4a29.59,29.59,0,0,0,3.16-.94L40.78,3c1.94-.2,3.94-.12,5.83-.16a21.8,21.8,0,0,1,5.59.42,32.1,32.1,0,0,0,4.73,1.19A10.92,10.92,0,0,1,61.54,6q2.22,1.26,4.33,2.71l1.26.88h0A50.27,50.27,0,0,0,56.94,6.51a42.37,42.37,0,0,0-7-.78,11.67,11.67,0,0,0,1.45-.14c.49-.07.72-.9.19-1.1A14.64,14.64,0,0,0,46.13,4,34.8,34.8,0,0,0,34.77,6.43C33.18,7.1,31.13,7.86,30,9.29a.59.59,0,0,0,.47,1c1.69-.26,3.35-1.37,4.95-2a37.57,37.57,0,0,1,5.25-1.65,34.9,34.9,0,0,1,5.27-.78c.57,0,1.14,0,1.71,0-.32,0-.63,0-.94.06a29.91,29.91,0,0,0-5,.82c-1.58.41-3.09,1.07-4.62,1.63-.91.33-1.8.72-2.69,1.09s-1.87.52-2.78.88A42.71,42.71,0,0,0,26.5,13a.43.43,0,0,0-.22.36,30.93,30.93,0,0,0-3.14,2.19,17,17,0,0,0-3.87,3.94l-.08.08C20.12,18.21,21.08,16.89,22.11,15.61Zm-19.9,79A.19.19,0,0,0,2,94.44c-.28-6-.42-12-.1-18.07A116.48,116.48,0,0,1,9.32,40.06q1.29-3.08,2.77-6A46.92,46.92,0,0,1,15,28.67a51.1,51.1,0,0,0,3.34-4.82c.15-.28-.21-.61-.45-.4l-.07.07a28.58,28.58,0,0,1,2.75-3.63c1.16-1,2.23-2.12,3.42-3.06a29.48,29.48,0,0,1,5.35-3.4,31.37,31.37,0,0,1,5.56-2.09c1.93-.52,4-.5,5.88-1.21a.45.45,0,0,0-.07-.84,6.58,6.58,0,0,0-2.18-.2l.1,0A54,54,0,0,1,44,8c-.14.18-.09.53.17.56,7,.92,14.16,2.62,20.08,6.88a50,50,0,0,1,7.85,7.06,59.66,59.66,0,0,1,6.39,9c.33.54,1.22.05,1-.55A37.41,37.41,0,0,0,68.68,17.3a57,57,0,0,0-7.11-4.53,36.18,36.18,0,0,0-7.82-3.4A31,31,0,0,0,44.88,7.9a33.3,33.3,0,0,1,6-.21,46.88,46.88,0,0,1,12.66,2.57l.22.09a.53.53,0,0,0,0,.75c1.56,1.37,3.34,2.44,5,3.67a43.2,43.2,0,0,1,4.49,3.74,37.2,37.2,0,0,1,6.8,9.21c.48.88,1,1.76,1.43,2.65s.74,1.83,1.2,2.67A14.16,14.16,0,0,1,84,35.82c.27.86.51,1.72.81,2.57q2.23,6.53,4.55,13c.19.55,1,.22.81-.33-1.61-4.43-3.22-8.87-4.9-13.27-.37-1-.85-1.86-1.22-2.82s-.49-2-.88-2.95c-.7-1.76-1.35-3.55-2.19-5.24a33.2,33.2,0,0,0-6.75-9.51,43,43,0,0,0-7.16-5.57c.78.35,1.55.73,2.3,1.12a53.5,53.5,0,0,1,5.75,3.27A.84.84,0,0,0,76.25,16,29.43,29.43,0,0,1,79,19.64a.3.3,0,0,0,.27.44c.76,1.21,1.46,2.48,2.12,3.75l-.58,1.07c-.24.42.44.8.63.37l.33-.71c.09.18.18.37.28.55,1.9,3.78,3.78,7.6,5.37,11.55.16.4.31.8.47,1.21l-.25.27c-.39.44.21,1.08.62.74A60.24,60.24,0,0,1,91,49.38c.72,4.28,1,8.6,1.37,12.94.4,5.16.62,10.33.93,15.49a.74.74,0,0,0,1.34.36c0,1.34-.05,2.68-.07,4a.43.43,0,0,0,0,.12c0,.32,0,.65,0,1q-.57,4.8-1.35,9.59a.53.53,0,0,0-.11.67c-.38,2.34-.81,4.67-1.27,7a.52.52,0,0,0-.26.2c.39-2,.75-4.1,1-6.16s.58-4.24.81-6.37a25.38,25.38,0,0,0,.32-6.56c-.07-.41-.7-.64-.86-.15A35,35,0,0,0,92,88q-.37,3.18-.87,6.35T90,100.66A33.38,33.38,0,0,0,89,107.13c0,.57.75.61,1,.16a23.36,23.36,0,0,0,1.56-6.07.64.64,0,0,0,.15.31c-1.11,5.48-2.43,10.92-4,16.27-.52-.32-1.19.4-.7.88l.34.33A148.93,148.93,0,0,1,81,136a83.67,83.67,0,0,1-8.61,15.36,58.92,58.92,0,0,1-5.84,7c-1.1,1.12-2.39,2-3.58,3-.69.58-1.36,1.18-2,1.79a.67.67,0,0,0-.52.16c-.92.76-1.77,1.62-2.64,2.44-1.26.1-2.62,1.35-3.68,1.9a31.22,31.22,0,0,1-4.37,1.9,18.56,18.56,0,0,1-9.83.9c-3.16-.61-6.66-1.66-9.23-3.76a14.67,14.67,0,0,1-1.09-1c.45.3.91.58,1.37.85,3,1.67,6.93,3.3,10.37,2.83a.64.64,0,0,0,.06-1.25c-1.71-.48-3.5-.63-5.21-1.13a23.66,23.66,0,0,1-4.75-2,24.42,24.42,0,0,1-8.11-7,66.29,66.29,0,0,1-5.16-8.88c-.85-1.64-1.71-3.28-2.59-4.9a.46.46,0,0,0,.2-.57c-.8-1.77-1.95-3.34-2.88-5A58.5,58.5,0,0,1,10,132.89a.35.35,0,0,0-.64.26A49.79,49.79,0,0,0,11.73,139l0,.07a.47.47,0,0,0,0,.35c1.65,3.66,3.33,7.32,5.19,10.86a58.76,58.76,0,0,0,6.09,9.34c.34.42.68.84,1,1.24.06,1.31,1.36,2.75,2,3.67l.07.09a28,28,0,0,1-2.28-2.46c-1.42-1.81-2.72-3.73-4-5.64a76.52,76.52,0,0,1-6.7-11.8A116.09,116.09,0,0,1,8.15,132,121,121,0,0,1,5,118.59c-.15-.76-.28-1.52-.4-2.28a25.16,25.16,0,0,0,1.58,6,.19.19,0,0,0,.36-.09c-.16-2.24-1-4.49-1.45-6.69s-.81-4.64-1.16-7C3.22,103.91,2.61,99.29,2.21,94.63Zm86.25,25.61c.61.66,1.21,1.34,1.77,2.05-.73,0-1.46.1-2.19.16a.77.77,0,0,0-.28.08c.11-.36.22-.73.34-1.09Zm-3,14.59,1.14.31c.44.91.86,1.81,1.26,2.73.12.26.23.53.34.81l-.79.14c-.45.05-.38.81.06.73a3.18,3.18,0,0,1,1.15.13c.07.18.14.35.22.53l0,.06-.08.14a1,1,0,0,0,.07.92,4.47,4.47,0,0,0,1.9,1.48l.24.13c-1,.12-2,.26-3,.3s-1.09,1.5-.32,1.92c1,.56,2,1.19,3.08,1.71l.65.31c-1.77,0-3.55-.14-5.3-.06-.36-1.19-.86-2.36-1.29-3.52l-.61-1.68a1,1,0,0,0,.31,0l1,0a1,1,0,0,0,.82-.82,1,1,0,0,0-.5-1.05,2,2,0,0,0-1.1-.29.92.92,0,0,0-.54.31,1,1,0,0,0-.5.41l-.15-.42a.69.69,0,0,0,.35,0,1.18,1.18,0,0,0,.71-.41.87.87,0,0,0,.2-.35,1.19,1.19,0,0,0,0-.49,1,1,0,0,0-1.94-.49l-.1-.27a.47.47,0,0,0-.46-.31c.17-.37.33-.75.49-1.13,1,.5,2.58,1,3.59.26a.81.81,0,0,0,.06-1.21,6.29,6.29,0,0,0-3-.78c.2-.51.4-1,.59-1.53a.66.66,0,0,0,.25.13l.32.1A1.12,1.12,0,0,0,85.47,134.83Zm-6.27,9.8a.9.9,0,0,0,.53.77c.52,1.19,1,2.39,1.43,3.61.21.58.4,1.15.59,1.73l-1.89,0a.57.57,0,0,0-.32.09l-.86-2.39a.54.54,0,0,0-.29-.32s0-.05,0-.07a1.51,1.51,0,0,0-.54-.67l-.3-.23c.57-1,1.13-1.92,1.66-2.9l0,.09A1.23,1.23,0,0,0,79.2,144.63Zm1.63.93a3.06,3.06,0,0,0,2.11-.18.81.81,0,0,0,.17-1,1.9,1.9,0,0,0-1.41-.72,11.2,11.2,0,0,0-1.64-.1l-.15,0a.4.4,0,0,0-.26-.19c.4-.77.8-1.55,1.18-2.34a1.08,1.08,0,0,0,.9.07l1-.37,1.11,3.16c.38,1.09.71,2.24,1.15,3.34a10.59,10.59,0,0,0-3.06.77l-.1.05C81.51,147.2,81.18,146.38,80.83,145.56Zm1-6.65c.06-.12.11-.24.16-.36l.16.45Zm-14.7,26.9-.15.12c0-.69,0-1.39,0-2.08l1.76.45,0,.18A20.35,20.35,0,0,0,67.11,165.81Zm1.73-.36c.08.55.16,1.1.23,1.65-.39-.07-.78-.13-1.16-.21l-.65-.12.59-.51C68.18,166,68.53,165.74,68.84,165.45Zm-1.1-3.32a.66.66,0,0,0,.58,0c0,.16.06.32.08.48l-1.52-.1c0-.34,0-.67,0-1A3.45,3.45,0,0,0,67.74,162.13Zm-.89-1.47a.34.34,0,0,0-.37.11.55.55,0,0,0-.22,0l.22-.21,1.33-1.28c.1.5.19,1,.28,1.51A3.66,3.66,0,0,1,66.85,160.66Zm-1.07,5.81-1.1-.25c0-.05-.05-.1-.07-.16a.44.44,0,0,0-.72-.19l-.15.13c-.68-.16-1.36-.34-2-.53s-.91.87-.34,1.12l1.56.69a5.85,5.85,0,0,0-.29,1.52l-1.46.93h0a3,3,0,0,0-1.05-1.24,1.08,1.08,0,0,0-1.52.63c0,.09-.06.19-.08.28-.54,0-1.09-.05-1.64,0-.77,0-.83,1.36-.06,1.45.56.06,1.11.16,1.66.27v.24l-1.56.82a4.79,4.79,0,0,0-.87-.75,3.22,3.22,0,0,0-2.41-.37,26,26,0,0,0,3-2c.29-.23.57-.47.84-.71a3.39,3.39,0,0,0,1.29-1.19l.34-.32a22.73,22.73,0,0,0,2.39-2.32.94.94,0,0,0,.14-.26,20.06,20.06,0,0,0,1.74-1,18.41,18.41,0,0,0,2.45-2v.07C65.8,163,65.78,164.73,65.78,166.47Zm-.87,2.28c.23.54.45,1.08.67,1.62-.49,0-1-.11-1.49-.18l-.37-.05v-.2c0-.1,0-.21,0-.32Q64.33,169.2,64.91,168.75Zm-1.14-.69c0-.13,0-.25.08-.38l.3.14Zm-3.22,3.49.38.1.52,1c-.65.19-1.3.37-2,.53.06-.39.06-.82.08-1.15h0Zm-1-2c0-.07,0-.12.08-.13s.14.07.2.16Zm-1.22,3.19,0,.2c0,.15,0,.35-.13.36s-.31-.16-.43-.27Zm-1.3,1.08c-.6.12-1.19.22-1.79.32.5-.21,1-.42,1.5-.65A2.28,2.28,0,0,0,57.06,173.78ZM35,172.27c-2.13-.34-4.27-.31-6.25-1.28A14.72,14.72,0,0,1,24,167.3c-1.24-1.43-2.6-2.73-3.79-4.22a63.06,63.06,0,0,1-6.37-10.77.41.41,0,0,0-.34-.24c-.13-.26-.25-.51-.36-.76-.53-1.25-1.08-2.5-1.58-3.76s-1-2.38-1.46-3.56A21.1,21.1,0,0,0,9,141.61c-.93-3.56-2-7.08-2.93-10.67-.74-3-1.42-6.13-2-9.23.68,3,1.53,6,2.49,8.9a107.57,107.57,0,0,0,5,13.34c2,4.12,4.11,8.22,6.47,12.11a71.82,71.82,0,0,0,4.39,6.5C23.9,164.5,25.67,167,28,167.8a.5.5,0,0,0,.65-.42c.29.28.57.56.87.83a20.82,20.82,0,0,0,9.85,4.42,18.86,18.86,0,0,0,7.18.08,9.31,9.31,0,0,1-2.13.59,12.06,12.06,0,0,1-3.29-.33C39.06,172.72,37,172.6,35,172.27Zm13,2.39c-1.92,0-3.82-.16-5.72-.36l-.18,0c1.26-.16,2.52-.41,3.79-.51a13.58,13.58,0,0,0,5.36-1.46l.24-.12a6.36,6.36,0,0,0-1.53,2.43C49.26,174.65,48.61,174.66,48,174.66Zm3.53-.12-.44,0a6,6,0,0,1,1.26-2c1-1,2.72-1.34,3.7-.09l.07.09C54.58,173.28,53,173.94,51.49,174.54Zm15.51-.6a.79.79,0,0,0-.16.43q-.59.19-1.17.42a20.72,20.72,0,0,1-3.83,1.05L61,176a.41.41,0,0,0-.16,0,6.87,6.87,0,0,0-1.41.21l-1.36.11a5.77,5.77,0,0,0-2.4.5,10.69,10.69,0,0,1-1.27-.07l-.44,0q.93-.09,1.86-.24a53.27,53.27,0,0,0,12.86-3.7A5,5,0,0,0,67,173.94Zm.72-3.52H67c0-.51,0-1,0-1.54.24.07.49.15.74.21.5.14,1.06.29,1.64.41a.66.66,0,0,1,0,.14C68.84,169.92,68.28,170.18,67.72,170.42Zm1-12,.36-.35a9.54,9.54,0,0,0,2.11.95l0,.32a.46.46,0,0,0,0,.89l.13,0c.07.84.16,1.69.22,2.53v.07c-.66-.06-1.32-.12-2-.16C69.27,161.25,69,159.82,68.7,158.4Zm3,6.59c.07.81.15,1.62.27,2.42l-1-.06-.66-.08c-.09-.54-.18-1.07-.26-1.6,0-.36-.11-.72-.17-1.08C70.45,164.73,71.06,164.87,71.67,165Zm4.12,4.21a29.27,29.27,0,0,1-4.6,2.42c-.38.17-.81.34-1.25.52.76-.35,1.52-.72,2.27-1.1,1.6-.82,3.15-1.7,4.67-2.64C76.52,168.67,76.16,168.94,75.79,169.2Zm-3.05-4a26,26,0,0,0,3.76.55q-1.56,1-3.15,1.89a4.48,4.48,0,0,0-.5-.11C72.85,166.73,72.8,166,72.74,165.18Zm8.77-3a27.78,27.78,0,0,0-3.09-.53,21.27,21.27,0,0,0-4.44.15c-.49,0-.41.81.07.8,1.41,0,2.89.33,4.31.39a15.79,15.79,0,0,1,1.8.22l-1.47,1.06a.76.76,0,0,0-.24-.18c-1.72-.86-3.84-.89-5.72-1.12l-.18,0c0-.13,0-.26,0-.39-.06-.69-.11-1.39-.16-2.09,1.75.36,3.5.66,5.26.93a18.59,18.59,0,0,0,4.52.3Zm2.31-1.86a.72.72,0,0,0-.25-.16,8.87,8.87,0,0,0-2.72-.21c-1.06,0-2.12,0-3.18,0a36,36,0,0,1-5.39-.42l0-.37a2.16,2.16,0,0,0,.77-.21.71.71,0,0,0,.2-1.14A2.76,2.76,0,0,0,72,157c0-.18-.05-.35-.08-.52-.09-.49-.84-.36-.85.11v.17l-.66-.11c.6-.63,1.19-1.28,1.76-2,1.11-1.33,2.15-2.72,3.13-4.14a1.19,1.19,0,0,0,.64.33,1.24,1.24,0,0,0,1.38-1.43.81.81,0,0,0,.53-.11c.47,1.32.93,2.64,1.39,4,.19.56.43,1.14.63,1.73a.76.76,0,0,0,.26.89l.06.26c-1.55-.1-3.1-.16-4.65-.27,0-.26,0-.52,0-.78,0-.87,0-1.73,0-2.6a.61.61,0,0,0-1.22,0c0,.87,0,1.73,0,2.6,0,.23,0,.46,0,.7h-.09A.75.75,0,0,0,74,157.3l.71.16s0,.08,0,.12a.25.25,0,0,0,.47,0c2,.45,4,.87,6,1.14,1.23.16,2.6.42,4,.48C84.68,159.58,84.26,160,83.82,160.32ZM92.36,150c-.74,1.52-1.62,3-2.46,4.44l-.69.77a.44.44,0,0,0-.15-.12c-1.15-.68-2.87-.29-4.16-.3s-2.62,0-3.93,0c-.15-.45-.32-.87-.46-1.26l-.58-1.62,2.21.16c.07.24.14.48.22.72a9.9,9.9,0,0,0,.58,1.12.24.24,0,0,0,.45-.12,7.63,7.63,0,0,0-.09-1.26,2.62,2.62,0,0,0-.09-.38l1.6.15a20.27,20.27,0,0,0,3.73.13,1.15,1.15,0,0,0,.33.1c1.65.29,2.12-2.45.47-2.73a1.26,1.26,0,0,0-1.46,1.08,25.76,25.76,0,0,0-2.79-.09H82.78l-.48-1.43.08,0a10.69,10.69,0,0,1,3.51-.26,1.4,1.4,0,0,1,.1.16c.13.2.52.15.5-.12.78.07,1.56.17,2.33.24a19.66,19.66,0,0,0,3.83.05C92.56,149.58,92.47,149.79,92.36,150Zm3.25-4.47a.6.6,0,0,0-1-.14,6.52,6.52,0,0,0-.51.78c-.55-.34-1.16-.61-1.69-.9l-.62-.32a9.07,9.07,0,0,0,2.34-.62.83.83,0,0,0,.23-1.36c-1-.73-2.09-1.5-3.17-2.18-.39-.24-.76-.47-1.12-.74h0c.72.11,1.44.21,2.17.29.47,0,1,.13,1.47.21a1,1,0,0,0,0,1.45,3.06,3.06,0,0,0,.63.37.59.59,0,0,0,.15.45,3.07,3.07,0,0,0,1.92,1.3C96.1,144.58,95.86,145.06,95.61,145.53Zm2-4.07a.79.79,0,0,0-.47-.54c-.19-.08-.39-.16-.6-.23l.11,0c.53-.1.75-.93.2-1.16a17.88,17.88,0,0,0-4.85-.77c-.82-.09-1.66-.18-2.48-.22h-.18l-.51-1.12c-.13-.29-.27-.58-.4-.86a.84.84,0,0,0,.41-.06l0,0a.56.56,0,0,0,.25-.18.67.67,0,0,0,.61-.4c.31-1-.37-1.54-1.07-2a8.19,8.19,0,0,0-1-.64.77.77,0,0,0-.7-.67h-.5a.51.51,0,0,0-.77.1l-.12,0-.11,0-.77-.25a.44.44,0,0,0-.22,0c.16-.42.32-.84.47-1.27,1,.36,2.41,1,3.38.29a.77.77,0,0,0,.17-1c-.62-.88-1.93-.85-3-.85L86,128a.83.83,0,0,0,.77.39c.61,0,1.22,0,1.82-.09s.62-1,0-1.17l-1.8-.49a.68.68,0,0,0-.4,0c.35-1.08.69-2.16,1-3.25a.72.72,0,0,0,.7.5c1.13,0,2.26,0,3.39.12l.18.27a5.81,5.81,0,0,0-1.21,3.33c-.66-1.07-1.36-2.11-2.12-3.11-.4-.52-1.28,0-.89.51a37,37,0,0,1,2.65,4c.65,1.14,1.2,2.36,1.9,3.48-1.19,0-2.38,0-3.58,0-.41,0-.44.75,0,.78a31.44,31.44,0,0,1,4.63.74c1.43.31,2.88.9,4.37.72a.63.63,0,0,0,.5-.54.44.44,0,0,0,.28.14c.38.06.77,0,1.15.11a7.37,7.37,0,0,0,1.15.14C99.66,137,98.72,139.25,97.65,141.46Zm3.28-7.79a.73.73,0,0,0-.17-.18,2.47,2.47,0,0,0-1.37-.33,1.55,1.55,0,0,1,1.38-1.15c.57-.11.91-1.11.23-1.34a9.48,9.48,0,0,0-1.11-.28c.3-.1.59-.23.87-.34a.43.43,0,0,0-.06-.8c-1.32-.34-3.18-.74-4.06.73a.84.84,0,0,0,.36,1.09,4.43,4.43,0,0,0,2,.6,2.88,2.88,0,0,0-.34,1.6,2.17,2.17,0,0,0-.47.17.55.55,0,0,0-.31.43.27.27,0,0,0-.08-.07,8.37,8.37,0,0,0-4.42-1.15l-.51,0a14.37,14.37,0,0,0-1.69-3.9.84.84,0,0,0,1-.92,4.77,4.77,0,0,1,.34-2.38c.22.3.45.6.68.88l-.2.45a6.32,6.32,0,0,0-.77,2c-.09,1,.93,2,1.87,1.57a.5.5,0,0,0,.29-.49,5.92,5.92,0,0,0-.22-.75,2.2,2.2,0,0,1,.26-1.2l.11-.31a.66.66,0,0,0,.36-.17c.57-.46,1.37-.24,2-.18.87.08,1.73.17,2.6.23a7.37,7.37,0,0,0,3.76-.36C102.5,129.27,101.75,131.48,100.93,133.67Zm-7.8-9.45,1,.11a.94.94,0,0,0-.21.29l-.24.53C93.52,124.83,93.33,124.52,93.13,124.22Zm5.32-2.71a23,23,0,0,0,3.32.13,12.53,12.53,0,0,0-.14,1.83c-.5,0-1-.12-1.5-.2-1.36-.22-2.69-.6-4-.81-.61-.1-1.23-.16-1.85-.2a10.45,10.45,0,0,0,.56-1.17.44.44,0,0,0,.11-.24A15.59,15.59,0,0,0,98.45,121.51Zm-1.62-2,2.51.13a7.14,7.14,0,0,0,2.8-.17c0,.23-.09.46-.13.69a21.54,21.54,0,0,1-3.49-.3C98,119.79,97.39,119.68,96.83,119.54Zm8.2,2.64a.6.6,0,0,0-.29.35l-1,3a.66.66,0,0,0-.19-.09c-1.66-.5-3.67,0-5.4-.06a12.8,12.8,0,0,0-2.9,0l0-.11a.84.84,0,0,0-.14-.85l1.38.16c1.31.14,2.61.32,3.92.43,1.05.1,2.63.41,3.48-.42a.5.5,0,0,0-.06-.82,1.57,1.57,0,0,0-.68-.25,12.42,12.42,0,0,0,.51-2l.37,0a.67.67,0,0,0-.11-1.34h0c.07-.57.14-1.13.22-1.67.54.06,1.07.09,1.61.12C105.53,119.78,105.29,121,105,122.18Zm1-5.26c-.55-.09-1.11-.21-1.66-.33.11-.85.21-1.71.31-2.57l1.82.24C106.39,115.15,106.24,116,106.07,116.92Zm.75-4.28-1.92-.35c0-.23,0-.46.08-.69a.91.91,0,0,0-.21-.71A7.28,7.28,0,0,0,106,111c.28,0,.8-.13,1.08,0C107,111.56,106.91,112.1,106.82,112.64Zm3.5-27.94c-.16,2.74-.41,5.49-.71,8.22a1,1,0,0,0-.74.08,1.07,1.07,0,0,0-.17,1.7c.36.42.66.66.52,1.26a1.16,1.16,0,0,1-.9,1c-.44,0-.87.53-.56,1a7.32,7.32,0,0,1,.85,1.42.37.37,0,0,0,.17.18c-.1.75-.21,1.49-.31,2.24-.39,2.73-.79,5.46-1.22,8.2a4,4,0,0,0-1.32-.64,5.16,5.16,0,0,0-3.37-.28.57.57,0,0,0-.17.94,3.78,3.78,0,0,0,1.31.72.79.79,0,0,0-.4.64c0,.23-.06.45-.08.68a25.11,25.11,0,0,0-3.65-.38c-.13,0-.24.16-.22.28.2,1.35,1.34,1.64,2.47,1.77l1.17.15c-.1.78-.21,1.57-.32,2.36l-1.65-.46c-1.14-.35-3.08-1.56-4.2-.75a.52.52,0,0,0-.21.46c.24,1.54,2.47,1.92,3.64,2.27a19.8,19.8,0,0,0,2.12.51l-.06.34a.47.47,0,0,0-.2-.1,8.12,8.12,0,0,0-2.94.14c-1.06.15-2.13.23-3.21.3a.32.32,0,0,0-.26.38,7.68,7.68,0,0,0-1.23-.32c-.34-.19-.72-.19-.79-.71s.76-1.33,1.13-1.74q1.38-1.62,2.73-3.27a9.08,9.08,0,0,0,1.83-2.59,1.91,1.91,0,0,0-.61-2.25c-.68-.47-1.53-.21-2.27-.34a3.26,3.26,0,0,1,1.54-.78.43.43,0,0,0-.07-.85,3.76,3.76,0,0,0-2.84,1.28,1.77,1.77,0,0,0-.24.5,16.09,16.09,0,0,1-2-.13c-.34,0-.56.54-.2.67a28.94,28.94,0,0,0,2.94,1,1.07,1.07,0,0,0,.27.09,3.15,3.15,0,0,0,.44,0,4.22,4.22,0,0,0,.94,0,1.53,1.53,0,0,1,.37.08c.77.31.06,1-.33,1.43s-.71.72-1.07,1.07c-.43-.07-.87-.09-1.3-.13L92.67,112c-.86-.09-1.11,1.33-.24,1.42l2.28.25.17,0c-.49.46-1,.92-1.46,1.39a6.23,6.23,0,0,0-1.71,2.38l-1.19-1.12a.48.48,0,0,0-.67.68l1.82,1.82a1.76,1.76,0,0,0,1.39,1.39l.13.12a3.76,3.76,0,0,0,1.12.87l-.11.15a3.11,3.11,0,0,1-.68.85c-.62,0-1.25,0-1.87,0l-.2-.24a39.49,39.49,0,0,0-2.62-3c.39-1.33.76-2.66,1.12-4a.38.38,0,0,0,.17-.62q1.17-4.38,2.12-8.8a.41.41,0,0,0,.22,0c.57-.1,1.13-.23,1.69-.37a4.37,4.37,0,0,0,1.55-.52c.26-.19.3-.72-.1-.78a4.18,4.18,0,0,0-1.64.22c-.5.12-1,.25-1.49.4l.39-1.9c.06-.29.11-.59.17-.89a8.3,8.3,0,0,0,1.78-.31,3.84,3.84,0,0,0,2.27-1.32c.23-.35-.14-.68-.48-.63a20.94,20.94,0,0,0-2.2.82l-.45.11c.14-.64.26-1.28.37-1.91a7.72,7.72,0,0,1,1.06-.65,3.75,3.75,0,0,0,1.3-.79.39.39,0,0,0-.17-.64,2.43,2.43,0,0,0-1.72.43l-.22.12c.19-1.25.34-2.51.48-3.77l1-.54a6.25,6.25,0,0,0,2-1.27.47.47,0,0,0-.32-.79,3.27,3.27,0,0,1-2.25-1.2,10.71,10.71,0,0,0,3.13-2.94.52.52,0,0,0,0-.54A3.27,3.27,0,0,0,97,84.81a1.39,1.39,0,0,1-.71-.44c-.22-.41.3-1,.48-1.36a13,13,0,0,0,1.18-2.8,8.11,8.11,0,0,0,.23-3.1c0-.26-.43-.36-.5-.06-.11.53-.31,1-.45,1.55s-.29,1.11-.47,1.65a14,14,0,0,1-.63,1.55c-.09.16-.17.32-.27.48,0-.37,0-.74,0-1.11.08-2.55.11-5.1.07-7.66a.45.45,0,0,0,.41-.16l2.12-2.22c.47-.5,1.16-1,1.09-1.79-.09-1-1.43-1.22-2.14-1.73h0c.06,0,.15-.18.2-.23l.32-.29a.49.49,0,0,0,.56.28,6.13,6.13,0,0,1,1.19-.23l.09,1,.18,2.47c-.54,1-1.33,2.66.11,3.2l.07,0c.1,1.72.18,3.43.29,5.15a.31.31,0,0,0,.62,0c.07-2.69,0-5.4-.25-8.09l.73-1.32a3.82,3.82,0,0,0,.54-1.26,1.83,1.83,0,0,0-1-1.8,2.11,2.11,0,0,0-.64-.22c-.08-.84-.17-1.67-.27-2.5a13.74,13.74,0,0,0,5-2.22c.16,1.46.28,2.93.35,4.4a17.63,17.63,0,0,1-2.61,1.11c-.46.15-.27.87.2.73.83-.24,1.64-.51,2.46-.79,0,.09,0,.18,0,.26,0,.32,0,.65,0,1-.23.18-.46.36-.7.53s-.3.72.11.8l.6.1v1.38a18,18,0,0,1-2.51,1.48c-.39.2-.15.72.21.76a8.69,8.69,0,0,0,1.53,0,.24.24,0,0,0,.06-.46l-.39-.11c.37-.21.74-.43,1.1-.67,0,.75,0,1.5,0,2.26,0,.42.72.58.79.1a27,27,0,0,0,.23-3.12,17.94,17.94,0,0,0,2.06-1.84.4.4,0,0,0,0-.57,5.44,5.44,0,0,0,1.54-1.52l.09.78a22.73,22.73,0,0,0,0,3.5c.05,1.53.12,3,.14,4.58Q110.58,80.47,110.32,84.7Zm-9.8-17.49a1,1,0,0,1,.67.64c.16.43-.14.84-.33,1.2l-.15.27L100.59,68C100.57,67.7,100.55,67.46,100.52,67.21Z"/><path class="cls-1" d="M106,51.42a.14.14,0,0,0-.08-.18,3.24,3.24,0,0,0-.41-.13l0,0c.29-.27,0-.73-.34-.51s-.41.3-.63.44a1.44,1.44,0,0,0-.4.22h0c-.31.24-.16.83.27.78a1.69,1.69,0,0,0,.38-.07.46.46,0,0,0,.23-.09l.09-.08a1.92,1.92,0,0,1,.58-.21,4.1,4.1,0,0,0-1.4,2.25l-.12,0a18.94,18.94,0,0,0-4.19,0,6.4,6.4,0,0,1,2.52-2.56.32.32,0,0,0-.32-.55,7.87,7.87,0,0,0-3.3,3.43c-.13.26,0,.68.38.64a23.34,23.34,0,0,1,3.92-.08L101,56.87c-.51.55-1.18,1.72-.19,2.19.4.18.88-.11,1.23.12a1.08,1.08,0,0,1,.37,1c-.15,1.07-1.42,1.33-2.14,1.89a.32.32,0,0,0,.23.54c1.71-.21,3.7-2.08,2.46-3.83a1.51,1.51,0,0,0-.89-.63c-.22-.05-.52.07-.71,0s-.08,0,0-.14a1.08,1.08,0,0,1,.18-.29c.43-.54,1-1,1.43-1.53l1.32-1.41a.55.55,0,0,0,1-.06,5.41,5.41,0,0,1,1.12-2.12C106.86,52.15,106.47,51.32,106,51.42Z"/><path class="cls-1" d="M104.82,79.26a40.25,40.25,0,0,0-6.35.88c-.57.09-.32.94.24.86a39.19,39.19,0,0,0,6.2-1.06A.35.35,0,0,0,104.82,79.26Z"/><path class="cls-1" d="M104.5,85.48a20.28,20.28,0,0,0-2.34,0l-1.12,0c-.11,0-1.35,0-1-.39a.3.3,0,0,0-.43-.43.79.79,0,0,0-.19.93,1.15,1.15,0,0,0,1,.63,17,17,0,0,0,1.89,0c.58,0,1.16,0,1.74,0a2.39,2.39,0,0,1-2.63,1.78.22.22,0,0,0-.12.43,2.84,2.84,0,0,0,3.53-2.62C104.9,85.64,104.69,85.5,104.5,85.48Z"/><path class="cls-1" d="M73,155.64h0S73,155.64,73,155.64Z"/><path class="cls-1" d="M96.84,58.51c-.38-.27-.77-.51-1.17-.75s-.72.41-.34.57.9.38,1.36.54C96.91,58.94,97,58.63,96.84,58.51Z"/><path class="cls-1" d="M102.82,104.14a6.59,6.59,0,0,0-1,.55,3.24,3.24,0,0,1-1.09.31.51.51,0,0,0,0,1,3.09,3.09,0,0,0,1.52-.32c.38-.21.94-.61,1-1.06A.41.41,0,0,0,102.82,104.14Z"/><path class="cls-1" d="M101.16,100.26a7.5,7.5,0,0,1-2.07,1.36.45.45,0,1,0,.34.82,5.59,5.59,0,0,0,2.24-1.78C101.9,100.34,101.42,100,101.16,100.26Z"/><path class="cls-1" d="M103,96a21.73,21.73,0,0,0-3.27.82c-.68.2-.38,1.28.3,1.07a21,21,0,0,0,3.18-1.11C103.51,96.62,103.36,96,103,96Z"/><path class="cls-1" d="M107.13,88.07a11.45,11.45,0,0,0,2.44-3.49c.32-.8.74-2.14-.2-2.72a2.26,2.26,0,0,0-1.73,0,14.65,14.65,0,0,1-1.47.28l-.77.14a1.54,1.54,0,0,1,.23-.29.26.26,0,0,0-.25-.43,1.3,1.3,0,0,0-.93,1.18.4.4,0,0,0,.61.35,13.54,13.54,0,0,1,2.09-.82c.64-.23,1.62-.69,2.24-.22,1,.78-.29,2.47-.8,3.17a16.24,16.24,0,0,1-5.49,4.59c-.48.25-.15,1.1.37.88,1.5-.61,3-1.16,4.56-1.72-1.29.73-2.52,1.59-3.76,2.39-.46.3,0,1,.42.72A51.11,51.11,0,0,0,109,88.77a.13.13,0,0,0-.08-.23c.1-.26-.08-.62-.42-.5l-2,.68C106.69,88.51,106.92,88.3,107.13,88.07Z"/><path class="cls-1" d="M109.56,75.47c-.28.15-.57.22-.85.37a4.9,4.9,0,0,1-.84.38,5.19,5.19,0,0,1-1.75.3.3.3,0,0,0-.35-.24c-.66.06-1.62.2-2.15-.32-.32-.3-.48-1.17,0-1.38a.22.22,0,0,0-.11-.42,1.29,1.29,0,0,0-.77,2c.51,1,1.72,1,2.71,1a.61.61,0,0,0,.59.7,5.44,5.44,0,0,0,3.22-.78,2.75,2.75,0,0,0,.82-.81A.45.45,0,0,0,109.56,75.47Z"/><path class="cls-1" d="M103,108.56a0,0,0,0,0,0,.06A0,0,0,1,0,103,108.56Z"/><path class="cls-1" d="M58.46,157.9a16.49,16.49,0,0,1-2,1.79A16,16,0,0,1,54.38,161a15.08,15.08,0,0,1-4.83,1.63c-.45.08-.35.81.1.8a11.81,11.81,0,0,0,9.27-5.17C59.11,158,58.69,157.66,58.46,157.9Z"/><path class="cls-1" d="M51.91,151.71a30.1,30.1,0,0,0-3,.86,25.57,25.57,0,0,1-3,.68,20.89,20.89,0,0,1-5.3.13,22.85,22.85,0,0,1-5.17-1.2,23.12,23.12,0,0,1-2.57-1.06c-.82-.4-1.57-.94-2.39-1.34a.35.35,0,0,0-.42.54,9.5,9.5,0,0,0,1.73,1.29,16.89,16.89,0,0,0,1.93,1.11,20,20,0,0,0,4.18,1.49,21.62,21.62,0,0,0,9,.2c.94-.18,1.87-.42,2.78-.69a16.38,16.38,0,0,0,2.76-1C53,152.44,52.51,151.61,51.91,151.71Z"/><path class="cls-1" d="M48.62,150.46c-2.35,1.17-4.93,1.81-7.46.74-.45-.2-.85.45-.39.67,2.56,1.19,6.12,1.16,8.21-.94A.3.3,0,0,0,48.62,150.46Z"/><path class="cls-1" d="M78.29,139.55c-1.58,2.12-3,4.41-4.45,6.6s-3,4.37-4.46,6.55c-.15.22.19.48.36.28a65.88,65.88,0,0,0,4.94-6.23,48,48,0,0,0,4.21-6.85A.35.35,0,0,0,78.29,139.55Z"/></g></g></svg>