<svg xmlns="http://www.w3.org/2000/svg" viewBox="0 0 182.76 182.95"><defs><style>.cls-1{fill:none;stroke:#414141;stroke-miterlimit:10;stroke-width:5px;}</style></defs><title>fbРесурс 2</title><g id="Слой_2" data-name="Слой 2"><g id="Слой_1-2" data-name="Слой 1"><path class="cls-1" d="M2.5,91.57q0-32.49,0-65C2.52,12,11.9,2.52,26.5,2.52q64.71,0,129.43,0c14.38,0,24.28,9.76,24.29,24.08q.08,65,0,129.92c0,13.63-9.44,23.71-23,23.77q-66,.32-131.93,0c-13.77-.06-22.73-9.84-22.74-23.76Q2.48,124,2.5,91.57Zm98,31.13c0-9.33.1-18.65-.06-28,0-3,.73-4.24,3.9-4,3.65.24,7.32,0,11,.08,2,0,3.08-.54,3.22-2.74.32-5,.72-10,1.26-14.91.3-2.72-.79-3.5-3.35-3.41-4.16.15-8.33.08-12.49,0-1.23,0-3.17.47-3.25-1.37-.22-5.12-1-10.34.59-15.36.69-2.2,2.87-2.5,5-2.48,3.66,0,7.33-.07,11,0,2.13.06,3-.8,3-2.91q-.07-8.25,0-16.49c0-2-.9-2.62-2.75-2.55-8.14.29-16.32-.73-24.41.94-11.09,2.3-17.31,9.71-17.55,21-.1,5.33-.1,10.67,0,16,.05,2.37-.79,3.15-3.15,3.26-3.26.14-7.77-1.67-9.44.92s-.57,6.74-.69,10.22c0,.5,0,1,0,1.5,0,8.35,0,8.57,8.32,8.33,4-.12,5,1.1,5,5-.2,17.82,0,35.64-.16,53.46,0,3.66.56,5.48,4.82,5.18a142,142,0,0,1,16,0c3.23.13,4.36-.9,4.29-4.24C100.37,141,100.5,131.86,100.5,122.7Z"/></g></g></svg>