<svg xmlns="http://www.w3.org/2000/svg" viewBox="0 0 185.85 185.85"><defs><style>.cls-1{fill:none;stroke:#414141;stroke-miterlimit:10;stroke-width:5px;}</style></defs><title>instРесурс 1</title><g id="Слой_2" data-name="Слой 2"><g id="Слой_1-2" data-name="Слой 1"><path class="cls-1" d="M2.5,163.13V22.72a10,10,0,0,0,.33-1.06A22.75,22.75,0,0,1,14.94,5.24C17.34,4,20.12,3.39,22.72,2.5H163.13c.4.12.79.28,1.2.36a22.71,22.71,0,0,1,16.28,12.08c1.28,2.39,1.85,5.18,2.74,7.78V163.13c-.12.4-.27.79-.36,1.2a22.77,22.77,0,0,1-12.2,16.34c-2.37,1.25-5.1,1.81-7.66,2.68H22.72a9.93,9.93,0,0,0-1.06-.32A22.84,22.84,0,0,1,5.24,170.91C4,168.52,3.39,165.73,2.5,163.13Zm91-35.36,1.73-.1c11.52-.56,20.68-5.7,27.49-14.79,7.11-9.5,8.39-20.18,4.85-31.37-2.64-8.32-8.21-14.46-15.58-19-8.38-5.13-17.47-6.14-27-4.33a32.87,32.87,0,0,0-13.55,6.08c-7.34,5.46-12.44,12.44-14.08,21.56-2,11.27.57,21.35,8.42,29.91C73.18,123.76,82.28,127.73,93.54,127.77Zm50.85-69.46h10c.24,0,.48,0,.72,0,4.5-.28,7.69-3.43,7.74-7.89q.13-9.88,0-19.77a7.64,7.64,0,0,0-7.47-7.84c-7-.23-14-.33-20.91-.09-5.52.19-8.29,3.49-8.29,9q0,8.81,0,17.61c0,5.84,3.15,9,9,9ZM2.5,79.84H59.05m67.33,0H184.8"/></g></g></svg>