<svg xmlns="http://www.w3.org/2000/svg" viewBox="0 0 91.71 57.61"><defs><style>.cls-1{fill:#cfbb9f;}.cls-2{fill:#222220;}</style></defs><title>logoРесурс 1</title><g id="Слой_2" data-name="Слой 2"><g id="Слой_1-2" data-name="Слой 1"><path class="cls-1" d="M43.88,10.82A51.94,51.94,0,0,0,28,13.42c-.17.06-.11.32.06.27a75.42,75.42,0,0,1,7.7-1.8,56,56,0,0,1,8.07-.74C44.09,11.14,44.09,10.81,43.88,10.82Z"/><path class="cls-1" d="M66.45,32.67a20.64,20.64,0,0,0-6.33-15.86,26.82,26.82,0,0,0-18-7.26A34.49,34.49,0,0,0,31.37,11a.15.15,0,0,0,.08.28A32.64,32.64,0,0,1,50,11.21a23.33,23.33,0,0,1,14.21,12,20,20,0,0,1,1.85,9.47C66.08,32.91,66.44,32.9,66.45,32.67Z"/><path class="cls-1" d="M43.92,8c-1.58-.09-3.16-.12-4.74-.11a37.42,37.42,0,0,0-4.74.16.11.11,0,0,0,0,.21c1.58.05,3.17-.07,4.75-.07s3.16.05,4.74.12C44.13,8.33,44.12,8,43.92,8Z"/><path class="cls-1" d="M67.53,30c-.77-4.17-1.68-8.32-4.42-11.69a29.89,29.89,0,0,0-10.71-8,19.55,19.55,0,0,0-7-1.86c-.12,0-.14.2,0,.21a26.26,26.26,0,0,1,6.34,1.68,29.33,29.33,0,0,1,5.59,3.16c3.61,2.56,6.79,5.7,8.3,10a43.1,43.1,0,0,1,1.61,6.66C67.24,30.28,67.57,30.18,67.53,30Z"/><path class="cls-1" d="M46.71,7.32a41.92,41.92,0,0,0-10.29-1,.1.1,0,0,0,0,.19A83.5,83.5,0,0,1,46.64,7.63.16.16,0,0,0,46.71,7.32Z"/><path class="cls-1" d="M68.47,27.44C66.78,20,61.94,13.06,55,9.7a19.47,19.47,0,0,0-6.54-1.91c-.14,0-.2.2,0,.22a22.64,22.64,0,0,1,13.23,7.07,29.6,29.6,0,0,1,6.49,12.46C68.2,27.75,68.52,27.65,68.47,27.44Z"/><path class="cls-1" d="M56.28,9.18a25.45,25.45,0,0,0-3.94-1.7c-1.4-.52-2.83-1-4.28-1.36a40.68,40.68,0,0,0-8.64-1.4c-.12,0-.14.2,0,.22a55.17,55.17,0,0,1,8.47,1.47c1.36.36,2.71.79,4,1.28s2.8,1.21,4.22,1.76C56.31,9.51,56.45,9.28,56.28,9.18Z"/><path class="cls-1" d="M68.24,22.7A27.28,27.28,0,0,0,50.41,4.92a24.73,24.73,0,0,0-7.63-1.2.11.11,0,0,0,0,.22A28.84,28.84,0,0,1,55.73,7.58a27,27,0,0,1,9.15,8.74,28.15,28.15,0,0,1,3,6.48A.17.17,0,0,0,68.24,22.7Z"/><path class="cls-1" d="M70.83,25.66a32.46,32.46,0,0,0-10-15.58.1.1,0,0,0-.13.14,35.13,35.13,0,0,1,9.89,15.53A.15.15,0,0,0,70.83,25.66Z"/><path class="cls-1" d="M69.55,27a25.11,25.11,0,0,0-1.17-3.69.09.09,0,0,0-.18,0A25.16,25.16,0,0,0,69.32,27,.12.12,0,1,0,69.55,27Z"/><path class="cls-1" d="M72.66,22.94Q71,19.84,69.1,16.85a42.52,42.52,0,0,0-3.88-5.46,15.1,15.1,0,0,0-5.59-3.86c-2.25-1-4.55-1.86-6.83-2.77-2.5-1-5-2.13-7.54-3-.12,0-.18.14-.08.19,2.14,1,4.4,1.83,6.59,2.72l6.61,2.66a17.07,17.07,0,0,1,6,3.64,33.27,33.27,0,0,1,4.08,5.49q2.07,3.24,3.9,6.63C72.48,23.29,72.76,23.12,72.66,22.94Z"/><path class="cls-1" d="M69.64,19.66a48,48,0,0,0-5.35-7.61c-.08-.09-.25,0-.17.13A69.87,69.87,0,0,1,69.4,19.8C69.49,20,69.73,19.81,69.64,19.66Z"/><path class="cls-1" d="M72.2,25.07a12.28,12.28,0,0,0-2.08-4.47c-.09-.12-.28,0-.2.12a19,19,0,0,1,2,4.43A.15.15,0,0,0,72.2,25.07Z"/><path class="cls-1" d="M63.73,11.33a6.91,6.91,0,0,0-3.46-2.4.11.11,0,0,0-.07.2,13,13,0,0,1,1.71.94,12.11,12.11,0,0,1,1.6,1.44C63.62,11.61,63.82,11.46,63.73,11.33Z"/><path class="cls-1" d="M59.81,6.5A28.58,28.58,0,0,0,54,3.2a30.71,30.71,0,0,0-6.33-2.09.11.11,0,0,0,0,.22A41.78,41.78,0,0,1,54,3.52a46.9,46.9,0,0,1,5.64,3.22C59.77,6.83,59.94,6.6,59.81,6.5Z"/><path class="cls-1" d="M57.25,5.86c-2.18-.93-4.36-1.8-6.49-2.83a.13.13,0,1,0-.12.22,36.73,36.73,0,0,0,6.51,2.88C57.31,6.18,57.41,5.92,57.25,5.86Z"/><path class="cls-1" d="M72.76,19.79a44.61,44.61,0,0,0-4.24-6.31,45.27,45.27,0,0,0-4.83-5.43,28.33,28.33,0,0,0-13-7.42c-.14,0-.18.18-.05.22a31.2,31.2,0,0,1,13,7.62A44.82,44.82,0,0,1,68.45,14c1.46,1.93,2.65,4,4,6A.15.15,0,0,0,72.76,19.79Z"/><path class="cls-1" d="M73.92,17.15a27.85,27.85,0,0,0-3.42-5.49,36,36,0,0,0-4.36-4.79A32.84,32.84,0,0,0,55.25,0c-.12,0-.19.15-.08.2A41.08,41.08,0,0,1,65.91,7.12a36.34,36.34,0,0,1,4.3,4.72,51.77,51.77,0,0,1,3.42,5.44C73.72,17.43,74,17.32,73.92,17.15Z"/><path class="cls-1" d="M73.81,19.47a34.76,34.76,0,0,0-5.21-8.22,28.88,28.88,0,0,0-7.3-6.42c-.09-.06-.21.09-.11.16,1.28,1,2.6,1.92,3.81,3a36.63,36.63,0,0,1,3.31,3.4,34.68,34.68,0,0,1,5.21,8.26C73.61,19.84,73.9,19.67,73.81,19.47Z"/><path class="cls-1" d="M59.69,3.78a17.51,17.51,0,0,0-4.34-2.59c-.12-.05-.23.12-.1.19A24.27,24.27,0,0,1,59.49,4C59.64,4.11,59.84,3.89,59.69,3.78Z"/><path class="cls-1" d="M72.76,12.84a20.48,20.48,0,0,0-5.67-7.5A19.9,19.9,0,0,0,58.87.77c-.12,0-.2.16-.08.21A38,38,0,0,1,63,2.87a23.41,23.41,0,0,1,7,6.15,34.81,34.81,0,0,1,2.42,4A.16.16,0,0,0,72.76,12.84Z"/><path class="cls-1" d="M68.52,8.5a16.34,16.34,0,0,0-5.3-4.76c-.11-.06-.19.1-.09.17a19.19,19.19,0,0,1,5.14,4.74C68.38,8.8,68.63,8.65,68.52,8.5Z"/><path class="cls-1" d="M74.76,17.24A11.4,11.4,0,0,0,73.19,14a.12.12,0,0,0-.2.12c.28.52.56,1,.82,1.57s.44,1.1.73,1.61A.12.12,0,0,0,74.76,17.24Z"/><path class="cls-1" d="M65.08,34.8a23.52,23.52,0,0,0-3.22-12,24.82,24.82,0,0,0-9.44-9.39,22.46,22.46,0,0,0-7.51-2.73.13.13,0,1,0-.06.26,28.82,28.82,0,0,1,6.57,2.31,24.91,24.91,0,0,1,5.68,4,24.56,24.56,0,0,1,6.55,10.61,30.24,30.24,0,0,1,1.09,6.94A.17.17,0,0,0,65.08,34.8Z"/><path class="cls-1" d="M61.21,42.47c1.46-6,1.78-12.64-.61-18.49A19,19,0,0,0,56,17.14a17.8,17.8,0,0,0-8.62-4c-3.83-.86-7.89-.43-11.78-.26-.17,0-.15.27,0,.27,6.58-.18,13.93-.8,19.35,3.58,4.61,3.72,6.75,9.62,7,15.32A42.49,42.49,0,0,1,60.87,42.4C60.82,42.62,61.16,42.68,61.21,42.47Z"/><path class="cls-1" d="M63.36,38.93a21.49,21.49,0,0,0-.53-11.47c0-.15-.28-.06-.23.09A22.4,22.4,0,0,1,63,38.87C63,39.09,63.31,39.15,63.36,38.93Z"/><path class="cls-1" d="M59.3,26.77a16.8,16.8,0,0,0-7.07-10.39c-3.93-2.55-8.85-2.8-13.39-2.56-4.75.25-9.7,1.3-13.64,4.09-.13.09,0,.29.12.21a26.59,26.59,0,0,1,11.81-3.84c4.41-.43,9.36-.44,13.43,1.53a16.13,16.13,0,0,1,8.06,9.68,20.88,20.88,0,0,1-.38,12.75A31.82,31.82,0,0,1,49,51.53c-.17.16.09.4.25.25C56.13,45.56,61.48,36.37,59.3,26.77Z"/><path class="cls-1" d="M48.11,52a23.53,23.53,0,0,1-3.79,2.06,29.13,29.13,0,0,1-4,1.07c-.16,0-.12.28,0,.28a13.12,13.12,0,0,0,4.25-1.13,13.84,13.84,0,0,0,3.66-2.09C48.38,52.13,48.23,52,48.11,52Z"/><path class="cls-1" d="M57.42,44.2a50,50,0,0,0,3.76-9.74c0-.17-.21-.21-.26-.06a72.15,72.15,0,0,1-3.72,9.43,17.57,17.57,0,0,1-5.64,7.09.17.17,0,0,0,.19.29C54.36,49.61,56.08,46.88,57.42,44.2Z"/><path class="cls-1" d="M61,38.34c.06-.13-.13-.25-.2-.11-1.49,3.1-1.14,7-3.56,9.53s-5.38,4.16-8.1,6.41c-.15.12.06.38.21.26,2.82-2.07,5.85-3.86,8.16-6.44S59.75,41.54,61,38.34Z"/><path class="cls-1" d="M50.73,51.72c-.78.39-1.49.92-2.27,1.32a18.42,18.42,0,0,1-2.59,1.09.17.17,0,0,0,.1.33h0a13.51,13.51,0,0,0,4.89-2.57C51,51.8,50.83,51.67,50.73,51.72Z"/><path class="cls-1" d="M48.08,54.6c-1.1.38-2.16.84-3.29,1.13a21.45,21.45,0,0,1-2.86.52h0a6.51,6.51,0,0,0-.76.07c-.22,0-.22.36,0,.35a17.07,17.07,0,0,0,7-1.85A.12.12,0,0,0,48.08,54.6Z"/><path class="cls-1" d="M57.26,50a25,25,0,0,1-3.48,3.1,27.2,27.2,0,0,1-4,2c-.11.05,0,.21.09.19a12.77,12.77,0,0,0,4.27-2.05,12.9,12.9,0,0,0,3.34-3.08C57.56,50,57.36,49.86,57.26,50Z"/><path class="cls-1" d="M60.66,44.23c0-.13-.17-.21-.22-.09a17.88,17.88,0,0,1-2.82,5c-.12.15.09.36.22.21A15.06,15.06,0,0,0,60.66,44.23Z"/><path class="cls-1" d="M62.82,40.84a.11.11,0,0,0-.21-.05,23.87,23.87,0,0,1-11.3,15.47.17.17,0,0,0,.18.28A23.37,23.37,0,0,0,62.82,40.84Z"/><path class="cls-1" d="M64.5,40.76a28.18,28.18,0,0,0,.59-5.41c0-.14-.21-.13-.22,0-.14,1.79-.34,3.56-.64,5.33C64.2,40.87,64.47,40.94,64.5,40.76Z"/><path class="cls-1" d="M48.81,55.67a30.59,30.59,0,0,1-5.21,1.64c-.2,0-.11.33.09.3a21.92,21.92,0,0,0,5.22-1.73C49,55.83,48.94,55.62,48.81,55.67Z"/><path class="cls-1" d="M56.64,38.37c1.52-4.18,2.57-9.18,1.1-13.51a15.07,15.07,0,0,0-7.85-8.48,19.56,19.56,0,0,0-12.31-1.19,28,28,0,0,0-6.86,2.43,53.57,53.57,0,0,1-7.62,3.51.13.13,0,0,0,.07.25c4.24-1.17,7.83-3.93,12-5.23a21,21,0,0,1,12.44-.3,15.37,15.37,0,0,1,9.07,7.42c2.06,4,1.47,8.69.28,12.88a24.92,24.92,0,0,1-8.5,13.21c-.19.14,0,.44.18.3A24.41,24.41,0,0,0,56.64,38.37Z"/><path class="cls-1" d="M47.75,50.63a29.48,29.48,0,0,1-5.08,2.24,22.71,22.71,0,0,1-2.56.62c-1,.18-1.94.2-2.9.35a.16.16,0,0,0,0,.31,16.23,16.23,0,0,0,5.55-.94,18.41,18.41,0,0,0,5.1-2.38A.12.12,0,0,0,47.75,50.63Z"/><path class="cls-1" d="M55.3,38.06a1.74,1.74,0,0,0,.11-.18.1.1,0,0,0,0-.09c.19-.46.36-.92.52-1.39a15.31,15.31,0,0,0-.57-12.16,15.18,15.18,0,0,0-9.16-7.35,18.43,18.43,0,0,0-12.41,1c-4.58,2-8.53,5.22-13.29,6.83a.13.13,0,1,0,.07.24c3.93-1.2,7.29-3.63,10.87-5.55A20.08,20.08,0,0,1,43.7,16.71a15.16,15.16,0,0,1,10.39,6.11,14.21,14.21,0,0,1,1.94,12,21.7,21.7,0,0,1-1.19,3.4c-.2.26-.39.53-.57.8h0c-1.34,1.47-2.66,3-4,4.43s-2.82,2.83-4.13,4.32a.16.16,0,0,0,.23.23,58.28,58.28,0,0,0,4.15-4.31c1.2-1.3,2.38-2.62,3.51-4a.17.17,0,0,0,.1,0,56.4,56.4,0,0,1-6.2,8.84c-.14.18.11.42.25.24C50.84,45.46,53.6,42,55.3,38.06Z"/><path class="cls-1" d="M45.57,48.46c-.74.49-1.41,1-2.2,1.48a21.19,21.19,0,0,1-2.55,1.2,17.61,17.61,0,0,1-2.45.72c-.9.2-1.84.2-2.73.41-.19,0-.19.38,0,.4a8.44,8.44,0,0,0,2.64-.3A16.11,16.11,0,0,0,41,51.52a13.62,13.62,0,0,0,4.64-2.94C45.74,48.52,45.65,48.4,45.57,48.46Z"/><path class="cls-1" d="M53.33,37.19a38.72,38.72,0,0,0,1.59-5.46c.67-3.41.25-6.89-2.2-9.51-5.47-5.86-14.85-3.9-21.3-1a56.43,56.43,0,0,0-5.6,3.09,11.46,11.46,0,0,1-5.82,2c-.15,0-.18.25,0,.26,3.24.39,6-1.89,8.67-3.4a32.73,32.73,0,0,1,11.14-4c3.67-.57,7.59-.3,10.76,1.81A9.49,9.49,0,0,1,54,24.89a10.2,10.2,0,0,1,.71,5.41,27.1,27.1,0,0,1-1.36,5.46,22.26,22.26,0,0,1-3.09,6.71c-.17.23.16.55.34.32A19.73,19.73,0,0,0,53.33,37.19Z"/><path class="cls-1" d="M56.05,29.85c0-.12-.21-.15-.22,0a28,28,0,0,1-.8,4.8A19.83,19.83,0,0,1,53,39.23c-.14.23.21.41.35.19A16.24,16.24,0,0,0,56.05,29.85Z"/><path class="cls-1" d="M49.28,43.17c-2.4,2.16-4.66,4.49-7.63,5.87s-5.94,1.64-9,2.28c-.26,0-.19.47.07.45a28.92,28.92,0,0,0,9.06-2.3,24.37,24.37,0,0,0,7.62-6.19A.08.08,0,0,0,49.28,43.17Z"/><path class="cls-1" d="M29.31,23.61a5.93,5.93,0,0,0-2.27,1c-.81.52-1.57,1.11-2.36,1.67a8,8,0,0,1-5.21,1.79c-.13,0-.15.2,0,.24A6.44,6.44,0,0,0,24.3,27.1c.83-.53,1.6-1.15,2.41-1.71.43-.29.86-.57,1.31-.82s.95-.39,1.39-.64C29.56,23.85,29.49,23.58,29.31,23.61Z"/><path class="cls-1" d="M52.68,33.88a12.54,12.54,0,0,0,.13-7.28,8.57,8.57,0,0,0-4.45-5.1c-4.6-2.26-10.23-.84-14.7,1.07A38.89,38.89,0,0,0,26,27.22c-2.43,1.8-5.08,3.53-8.22,3.54-.17,0-.16.25,0,.26,5,.35,8.69-4,12.66-6.31a29.72,29.72,0,0,1,6.88-3,18.36,18.36,0,0,1,7.61-.83,9.2,9.2,0,0,1,6.48,3.71,10,10,0,0,1,1.33,7A22.48,22.48,0,0,1,45,44.87a23.6,23.6,0,0,1-14.63,5.6.23.23,0,0,0,0,.45A24,24,0,0,0,52.68,33.88Z"/><path class="cls-1" d="M51.58,38.6s0-.05,0,0c-.55.91-1,1.87-1.64,2.74a9.23,9.23,0,0,1-1.8,2l-.24.13,0,0a.17.17,0,0,0,0,.24l0,0a.16.16,0,0,0,.23,0A10.73,10.73,0,0,0,51.58,38.6Z"/><path class="cls-1" d="M51.7,31.17c.76-3,0-6.55-2.8-8.31s-7-.54-9.9.59a82.72,82.72,0,0,0-9.67,4.9c-3.67,2-7.55,3.79-11.74,4.24-.16,0-.16.28,0,.26,6.74-.48,12.34-4.62,18.21-7.54,3-1.5,6.57-3,10-2.93,3.84.12,6.09,3.79,5.7,7.38-.47,4.27-3.7,7.46-6.63,10.3-.21.2.12.51.32.31C47.91,37.75,50.75,34.94,51.7,31.17Z"/><path class="cls-1" d="M51.67,34.53a.09.09,0,0,0-.16-.09,39.26,39.26,0,0,1-2.32,3.26,22.61,22.61,0,0,1-2.47,2.52l-.06,0-.13.13c-.2.2.1.47.31.3A17.59,17.59,0,0,0,51.67,34.53Z"/><path class="cls-1" d="M49.87,31.9a8.2,8.2,0,0,0,0-6,5,5,0,0,0-4.1-3.22c-.12,0-.12.17,0,.2a5.68,5.68,0,0,1,4,4,8.65,8.65,0,0,1-.85,5.92l-.11.24h-.14c-1-.06-1.79.89-2.35,1.64a26.81,26.81,0,0,1-2.6,3.13,21.53,21.53,0,0,1-7.22,4.71c-.25.1-.13.52.13.42a22.39,22.39,0,0,0,6.64-4.16,22.12,22.12,0,0,0,2.73-3c.78-1,1.39-2.13,2.7-2.54A22.72,22.72,0,0,1,45.24,38,27.46,27.46,0,0,1,43,40.17c-.8.68-1.73,1.23-2.49,1.93-.18.16.06.4.25.31a13.75,13.75,0,0,0,2.77-2.06,28.34,28.34,0,0,0,2.58-2.56A18.78,18.78,0,0,0,49.87,31.9Z"/><path class="cls-1" d="M44.27,42A25.53,25.53,0,0,1,36,46.56a69,69,0,0,1-9.56,2.09.24.24,0,0,0,0,.45l.25,0a.18.18,0,0,0,.19-.09,56.46,56.46,0,0,0,9.55-2.17,19,19,0,0,0,7.94-4.7A.11.11,0,0,0,44.27,42Z"/><path class="cls-1" d="M47.62,40.73a37.62,37.62,0,0,1-8.77,6.14,31,31,0,0,1-5.09,1.93c-.81.23-1.63.42-2.46.58s-1.83.22-2.72.42c-.24.06-.16.4.07.41a13.12,13.12,0,0,0,2.57-.34c.9-.17,1.8-.38,2.68-.63A31,31,0,0,0,39,47.31a26.32,26.32,0,0,0,8.71-6.5C47.75,40.75,47.67,40.67,47.62,40.73Z"/><path class="cls-1" d="M40.06,42.47c-1.23.59-2.35,1.36-3.63,1.88a26.13,26.13,0,0,1-3.87,1.17c-2.9.65-5.86.85-8.76,1.43-.25,0-.18.48.07.44,3-.44,6.07-.79,9-1.48a23.15,23.15,0,0,0,4-1.28,9.32,9.32,0,0,0,3.29-2A.08.08,0,0,0,40.06,42.47Z"/><path class="cls-1" d="M35.42,43.13c-1.22.15-2.43.53-3.64.77a41.86,41.86,0,0,1-4.17.6c-1.3.12-2.61.18-3.92.18s-2.7-.21-4-.17a.21.21,0,0,0,0,.41,18.19,18.19,0,0,0,4,.23c1.39,0,2.77-.07,4.15-.2s2.56-.32,3.82-.57a16,16,0,0,0,3.91-1.08A.09.09,0,0,0,35.42,43.13Z"/><path class="cls-1" d="M48.9,29.87a4.18,4.18,0,0,0-1.3-4.74A6.34,6.34,0,0,0,42.37,24c-4.29.73-7.56,4.1-11.25,6.13A34.06,34.06,0,0,1,24.22,33a59.85,59.85,0,0,1-7.28,1.37c-.15,0-.09.26,0,.26a22.44,22.44,0,0,0,5.75-.78A34.26,34.26,0,0,0,28.41,32a34.94,34.94,0,0,0,5.22-2.81c1.65-1.09,3.23-2.3,5-3.26a10.11,10.11,0,0,1,6.07-1.51c2,.25,4,1.7,4.08,3.82.13,2.29-2.11,4-3.59,5.46a57.44,57.44,0,0,1-5.27,4.58C36.16,41,31.8,43.1,27.07,43.13c-.29,0-.27.44,0,.44a21.4,21.4,0,0,0,11.83-4.09A45.37,45.37,0,0,0,44.41,35c.89-.83,1.78-1.68,2.64-2.55A8.22,8.22,0,0,0,48.9,29.87Z"/><path class="cls-1" d="M25.72,43.21c-1.65-.06-3.28,0-4.93-.21-1.5-.17-3-.61-4.49-.71a.1.1,0,0,0,0,.19,15.86,15.86,0,0,0,4.67,1,24.22,24.22,0,0,0,4.81.19A.21.21,0,0,0,25.72,43.21Z"/><path class="cls-1" d="M47.6,28.45a3,3,0,0,0-1.78-2.66,2.54,2.54,0,0,0-2.52-.12,11.49,11.49,0,0,0-4,1.7c-1.63,1-3.17,2.17-4.85,3.13a38.46,38.46,0,0,1-11.16,4.26,60.36,60.36,0,0,1-6.83.84.2.2,0,0,0,0,.4,27.46,27.46,0,0,0,5.78-.59,38,38,0,0,0,5.66-1.48A42.36,42.36,0,0,0,38.19,28.6a20.51,20.51,0,0,1,4.1-2.31,18,18,0,0,0-1.75,1.85,19.87,19.87,0,0,1-2.07,1.93,27.13,27.13,0,0,1-10.75,5.11,66.27,66.27,0,0,1-6.85,1.19c-.15,0-.15.25,0,.24a34.33,34.33,0,0,0,13.56-3.45A23.2,23.2,0,0,0,40,29.32c.82-.78,1.5-1.69,2.32-2.46s1.76-1.4,3-.93c.11,0,.25.13.28.13a2.63,2.63,0,0,1,1.55,3.11,4.55,4.55,0,0,1-.75,1.41c.54-1.13.73-2.57-.41-3.38-1.43-1-3.08.23-3.91,1.38a32,32,0,0,1-2,2.77,13.34,13.34,0,0,1-2.47,2.15,14.8,14.8,0,0,1-5.94,2.3c-.22,0-.16.4.07.38A13.67,13.67,0,0,0,40.07,32a12.71,12.71,0,0,0,1.35-1.66,8.39,8.39,0,0,1,2.14-2.65,1.79,1.79,0,0,1,2.57.4A2.83,2.83,0,0,1,45.64,31a23.57,23.57,0,0,1-8.17,7.2,27,27,0,0,1-10.21,3.19,33.32,33.32,0,0,1-12.12-1.13c-.16,0-.2.19-.06.24a28.22,28.22,0,0,0,22.33-1.77,25.38,25.38,0,0,0,7.44-6,12.56,12.56,0,0,0,1.82-1.91A4.08,4.08,0,0,0,47.6,28.45Z"/><path class="cls-1" d="M45.27,29c-.57-.81-1.4-.12-1.84.47l0,0a56.56,56.56,0,0,1-3.24,4.69,10.21,10.21,0,0,1-4,2.85.16.16,0,0,0-.1.15c-4,1.24-8.24.91-12.27,1.8-2.63.59-5.42,1.33-7.89-.17a.23.23,0,0,0-.32.13c.51.35,1,.66,1.56.94h0c1.94.59,4.12.14,6.06-.3a67.78,67.78,0,0,1,8.25-1.1,20,20,0,0,0,7.24-1.93,16,16,0,0,0,5.63-4.86C44.7,31.07,45.84,29.77,45.27,29Zm-1.18,2.28A16.48,16.48,0,0,1,42,33.68,16.31,16.31,0,0,1,38.9,35.9c2-1.51,3.45-4.55,4.45-6l.12-.16c.23-.36.47-.75.93-.8a.61.61,0,0,1,.3,0,.64.64,0,0,1,.34.63,1.46,1.46,0,0,1-.16.41A9.32,9.32,0,0,1,44.09,31.25Z"/><path class="cls-1" d="M30.75,36.26a48.5,48.5,0,0,1-14.76,1c-.17,0-.16.25,0,.27a48.49,48.49,0,0,0,10.29-.23c-3.61.91-7.35,1.54-11,.46-.16-.05-.22.21-.06.26,4.4,1.31,8.93.15,13.22-1a.13.13,0,0,0,.07-.06c.77-.13,1.54-.28,2.3-.46C31,36.48,30.91,36.22,30.75,36.26Z"/><path class="cls-1" d="M34.92,38.27a24.06,24.06,0,0,1-12.81,1.85c-.17,0-.23.24-.06.26a24.29,24.29,0,0,0,13-1.85C35.15,38.46,35.08,38.2,34.92,38.27Z"/><path class="cls-1" d="M66.65,33.41a.14.14,0,0,0-.27,0,12.15,12.15,0,0,1-.88,4.73c-.06.16.18.29.24.13A12.69,12.69,0,0,0,66.65,33.41Z"/><path class="cls-1" d="M67.35,32.18a.13.13,0,0,0,.26.06,4.18,4.18,0,0,0,0-1.69c0-.17-.29-.09-.26.08"/><path class="cls-1" d="M66.93,36.85a24.46,24.46,0,0,0,.68-4c0-.17-.25-.16-.27,0a23.62,23.62,0,0,1-.67,3.92A.13.13,0,0,0,66.93,36.85Z"/><path class="cls-1" d="M68.75,28c0-.17-.3-.16-.27,0a11.91,11.91,0,0,1-.62,6.17c-.06.16.21.22.27.06A12.17,12.17,0,0,0,68.75,28Z"/><path class="cls-1" d="M69.69,27.48c0-.17-.3-.09-.26.07a7.46,7.46,0,0,1-.51,4.86c-.08.15.16.28.23.12A7.65,7.65,0,0,0,69.69,27.48Z"/><path class="cls-2" d="M3,35.23v-14a1.94,1.94,0,0,0-1.95-1.94H0v-.74H9.55v.74H8.42a1.94,1.94,0,0,0-1.94,1.94v6.32h8.35V21.25a1.94,1.94,0,0,0-1.95-1.94H11.81v-.74H21.3v.74H20.21a1.94,1.94,0,0,0-1.95,1.94v14a2,2,0,0,0,1.95,2H21.3v.73H11.81v-.73h1.07a2,2,0,0,0,1.95-2V28.31H6.48v6.92a2,2,0,0,0,1.94,2H9.55v.73H0v-.73H1.09A2,2,0,0,0,3,35.23Z"/><path class="cls-2" d="M40.34,19.31H39.13v-.74H46v.74h-1.1A2,2,0,0,0,43,21.25V31a13.22,13.22,0,0,1-.38,3.75,4.21,4.21,0,0,1-1.39,2A6.45,6.45,0,0,1,38.8,38a11.14,11.14,0,0,1-2.9.38,8.41,8.41,0,0,1-4.65-1,4.07,4.07,0,0,1-1.81-2.45A18.29,18.29,0,0,1,29.1,31V21.25a1.94,1.94,0,0,0-2-1.94H26.3v-.74h9.25v.74H34.46a1.94,1.94,0,0,0-2,1.94v9.42a25.08,25.08,0,0,0,.21,3.69,3.88,3.88,0,0,0,1.17,2.24,4.15,4.15,0,0,0,3,.89,5.21,5.21,0,0,0,2.54-.68A4.19,4.19,0,0,0,41.31,35a11.83,11.83,0,0,0,.52-4.3V21.25C41.83,20.18,41.41,19.31,40.34,19.31Z"/><path class="cls-2" d="M67.39,21.25V38.36H66.8L54.07,19.22h.31v16a1.82,1.82,0,0,0,1.58,2h1.32v.73H50.4v-.73h.92a2,2,0,0,0,2-2v-14a1.94,1.94,0,0,0-2-1.94H50.2v-.74h7.38l9,13.56h-.34V21.25a1.88,1.88,0,0,0-1.55-1.94H63.45v-.74h6.87v.74h-1A1.94,1.94,0,0,0,67.39,21.25Z"/><path class="cls-2" d="M74.72,18.57H91.2l.51,6.58H91A8.5,8.5,0,0,0,89.18,21a3.76,3.76,0,0,0-2.94-1.27H84.67V35.23a2,2,0,0,0,2,2h1.51v.73H77.79v-.73H79.3a2,2,0,0,0,2-2V19.7H79.68A3.76,3.76,0,0,0,76.74,21,8.5,8.5,0,0,0,75,25.15h-.74Z"/></g></g></svg>