<svg xmlns="http://www.w3.org/2000/svg" viewBox="0 0 45.25 54.82"><defs><style>.cls-1{fill:#000206;}.cls-2{fill:#cfbba0;}.cls-3{fill:#fff;}.cls-4{fill:none;stroke:#d8c8ac;stroke-miterlimit:10;stroke-width:0.25px;}</style></defs><title>cРесурс 1</title><g id="Слой_2" data-name="Слой 2"><g id="Слой_1-2" data-name="Слой 1"><polygon class="cls-1" points="22.75 54.82 32.92 37.21 12.58 37.21 22.75 54.82"/><circle class="cls-1" cx="22.63" cy="22.63" r="22.63"/><rect class="cls-2" x="14.19" y="19.75" width="0.2" height="5.6"/><rect class="cls-2" x="29.57" y="19.75" width="0.2" height="6.03"/><rect class="cls-2" x="34.93" y="19.84" width="0.2" height="5.46"/><path class="cls-3" d="M9.2,25.41V19.7h-1v-.24h3v.24h-1v2.64H13V19.7H12v-.24h3v.24h-1v5.71h1v.23H12v-.23h1V22.57H10.3v2.84h1v.23h-3v-.23Z"/><path class="cls-2" d="M21.82,23.33a4.71,4.71,0,0,1-.12,1.26s0,0,0,0a1.28,1.28,0,0,1-.45.65,1.93,1.93,0,0,1-.77.39l-.25,0-.16,0a3.51,3.51,0,0,0,.65-.09,1.93,1.93,0,0,0,.77-.39,1.28,1.28,0,0,0,.45-.65,4.27,4.27,0,0,0,.12-1.19V19.75h-.23Z"/><path class="cls-3" d="M29.39,19.7v6.09H29.2l-4.07-6.12h0v5.74h1.05v.23H24v-.23h.92V19.7h-1v-.24h2.36l2.88,4.34h0V19.7h-1v-.24h2.19v.24Z"/><path class="cls-3" d="M31.55,19.46h5.26L37,21.57h-.23a3.39,3.39,0,0,0-.58-1.47,1.17,1.17,0,0,0-.93-.4h-.5v5.71h1.1v.23h-3.3v-.23h1.1V19.7h-.5a1.19,1.19,0,0,0-.94.4,3.4,3.4,0,0,0-.57,1.47h-.23Z"/><path class="cls-3" d="M9,25.41V19.7H8v-.24h3.05v.24h-1v2.64h2.67V19.7h-1v-.24h3v.24h-1v5.71h1v.23h-3v-.23h1V22.57H10.08v2.84h1v.23H8v-.23Z"/><path class="cls-3" d="M21.34,19.7h-1v-.24h2.21v.24h-1v3.74a4.27,4.27,0,0,1-.12,1.19,1.33,1.33,0,0,1-.44.65,2,2,0,0,1-.77.39,3.59,3.59,0,0,1-.93.12,2.75,2.75,0,0,1-1.49-.32,1.29,1.29,0,0,1-.57-.79,5.2,5.2,0,0,1-.11-1.24V19.7h-.9v-.24h3v.24h-1v3.63a9,9,0,0,0,.06,1.18,1.27,1.27,0,0,0,.38.71,1.36,1.36,0,0,0,1,.29,2,2,0,0,0,1-.22,1.25,1.25,0,0,0,.59-.59,3.75,3.75,0,0,0,.17-1.37Z"/><path class="cls-3" d="M29.18,19.7v6.09H29l-4.07-6.12h0v5.74H26v.23h-2.2v-.23h.92V19.7h-1v-.24H26l2.88,4.34h0V19.7h-1v-.24h2.19v.24Z"/><path class="cls-3" d="M31.33,19.46H36.6l.16,2.11h-.23A3.39,3.39,0,0,0,36,20.1a1.18,1.18,0,0,0-.93-.4h-.51v5.71h1.11v.23h-3.3v-.23h1.1V19.7h-.5a1.19,1.19,0,0,0-.94.4,3.28,3.28,0,0,0-.57,1.47h-.24Z"/><circle class="cls-4" cx="22.53" cy="22.78" r="19.42"/></g></g></svg>