<?xml version="1.0" standalone="no"?>
<!DOCTYPE svg PUBLIC "-//W3C//DTD SVG 1.1//EN" "http://www.w3.org/Graphics/SVG/1.1/DTD/svg11.dtd" >
<svg xmlns="http://www.w3.org/2000/svg" xmlns:xlink="http://www.w3.org/1999/xlink" version="1.1">
<metadata>
Created by FontForge 20170731 at Tue Jan  5 21:45:24 2016
 By Aleksey,,,
Copyright (c) 2015 by Radomir Tinkov. All rights reserved.
</metadata>
<defs>
<font id="QanelasSoft-Regular" horiz-adv-x="630" >
  <font-face 
    font-family="Qanelas Soft"
    font-weight="400"
    font-stretch="normal"
    units-per-em="1000"
    panose-1="0 0 5 0 0 0 0 0 0 0"
    ascent="800"
    descent="-200"
    x-height="500"
    cap-height="700"
    bbox="-308.559 -240 1049 960"
    underline-thickness="50"
    underline-position="-200"
    unicode-range="U+0020-FB02"
  />
<missing-glyph horiz-adv-x="500" 
d="M410 800v-1000h-317v1000h317zM333 733h-165v-33h65v-37h-66v-33h166v33h-66v37h66v33zM267 604h-100v-104h166v34h-66v70zM233 570v-36h-33v36h33zM333 473h-166v-33h66v-37h-66v-33h100v70h66v33zM333 413h-33v-66h-133v-34h166v100zM333 291h-100v-56h34v23h33v-47
h-100v80h-33v-113h166v113zM333 118h-166v-113h166v113zM300 85v-47h-100v47h100zM333 -18h-166v-33h70l-70 -47v-33h166v33h-102l70 47h32v33z" />
    <glyph glyph-name="fi" unicode="fi" horiz-adv-x="511" 
d="M421 500q20 0 20 -20v-460q0 -20 -20 -20h-26q-20 0 -20 20v416h-204v-416q0 -20 -20 -20h-26q-20 0 -20 20v416h-65q-20 0 -20 20v24q0 20 20 20h65v20q0 192 210 192q33 0 78 -8q18 -4 18 -22v-20q0 -22 -22 -19q-33 5 -74 5q-75 0 -109.5 -29t-34.5 -99v-20h234h16z
" />
    <glyph glyph-name="fl" unicode="fl" horiz-adv-x="511" 
d="M423 703q18 -3 18 -21v-662q0 -20 -20 -20h-26q-20 0 -20 20v629q-32 3 -60 3q-74 0 -109 -30.5t-35 -101.5v-20h94q20 0 20 -20v-24q0 -20 -20 -20h-94v-416q0 -20 -20 -20h-26q-20 0 -20 20v416h-65q-20 0 -20 20v24q0 20 20 20h65v20q0 192 210 192q51 0 108 -9z" />
    <glyph glyph-name="f_f" unicode="ff" horiz-adv-x="585" 
d="M564 659q-62 1 -92.5 -30.5t-30.5 -98.5v-30h124q20 0 20 -20v-24q0 -20 -20 -20h-124v-416q0 -20 -20 -20h-26q-20 0 -20 20v416h-85h-119v-416q0 -20 -20 -20h-26q-20 0 -20 20v416h-65q-20 0 -20 20v24q0 20 20 20h65v20q0 93 49.5 143.5t140.5 49.5q20 0 20 -21v-24
q0 -19 -21 -19q-62 1 -92.5 -30.5t-30.5 -98.5v-20h144h60v30q0 93 49.5 143.5t140.5 49.5q20 0 20 -21v-24q0 -19 -21 -19z" />
    <glyph glyph-name="f_f_i" unicode="ffi" horiz-adv-x="781" 
d="M691 500q20 0 20 -20v-460q0 -20 -20 -20h-26q-20 0 -20 20v416h-204v-416q0 -20 -20 -20h-26q-20 0 -20 20v416h-85h-119v-416q0 -20 -20 -20h-26q-20 0 -20 20v416h-65q-20 0 -20 20v24q0 20 20 20h65v20q0 93 49.5 143.5t140.5 49.5q20 0 20 -21v-24q0 -19 -21 -19
q-62 1 -92.5 -30.5t-30.5 -98.5v-20h144h60v30q0 192 210 192q33 0 78 -8q18 -4 18 -22v-20q0 -22 -22 -19q-33 5 -74 5q-75 0 -109.5 -29t-34.5 -99v-30h234h16z" />
    <glyph glyph-name="f_f_l" unicode="ffl" horiz-adv-x="781" 
d="M693 713q18 -3 18 -21v-672q0 -20 -20 -20h-26q-20 0 -20 20v639q-31 3 -60 3q-74 0 -109 -30.5t-35 -101.5v-30h94q20 0 20 -20v-24q0 -20 -20 -20h-94v-416q0 -20 -20 -20h-26q-20 0 -20 20v416h-85h-119v-416q0 -20 -20 -20h-26q-20 0 -20 20v416h-65q-20 0 -20 20v24
q0 20 20 20h65v20q0 93 49.5 143.5t140.5 49.5q20 0 20 -21v-24q0 -19 -21 -19q-62 1 -92.5 -30.5t-30.5 -98.5v-20h144h60v30q0 192 210 192q51 0 108 -9z" />
    <glyph glyph-name=".notdef" horiz-adv-x="500" 
d="M410 800v-1000h-317v1000h317zM333 733h-165v-33h65v-37h-66v-33h166v33h-66v37h66v33zM267 604h-100v-104h166v34h-66v70zM233 570v-36h-33v36h33zM333 473h-166v-33h66v-37h-66v-33h100v70h66v33zM333 413h-33v-66h-133v-34h166v100zM333 291h-100v-56h34v23h33v-47
h-100v80h-33v-113h166v113zM333 118h-166v-113h166v113zM300 85v-47h-100v47h100zM333 -18h-166v-33h70l-70 -47v-33h166v33h-102l70 47h32v33z" />
    <glyph glyph-name=".null" horiz-adv-x="0" 
 />
    <glyph glyph-name="nonmarkingreturn" horiz-adv-x="333" 
 />
    <glyph glyph-name="space" unicode=" " horiz-adv-x="250" 
 />
    <glyph glyph-name="exclam" unicode="!" horiz-adv-x="230" 
d="M104 190q-15 0 -15 14l-14 296v180q0 20 20 20h40q20 0 20 -20v-180l-14 -296q0 -14 -15 -14h-22zM90 0q-20 0 -20 20v50q0 20 20 20h50q20 0 20 -20v-50q0 -20 -20 -20h-50z" />
    <glyph glyph-name="quotedbl" unicode="&#x22;" horiz-adv-x="310" 
d="M78 500q-18 0 -19 18l-8 164q-2 18 17 18h34q19 0 17 -18l-8 -164q-1 -18 -19 -18h-14zM218 500q-18 0 -19 18l-8 164q-2 18 17 18h34q19 0 17 -18l-8 -164q-1 -18 -19 -18h-14z" />
    <glyph glyph-name="numbersign" unicode="#" horiz-adv-x="599" 
d="M547 470q21 0 18 -22l-3 -20q-3 -18 -22 -18h-100l-20 -120h98q21 0 18 -22l-3 -20q-3 -18 -22 -18h-101l-27 -162q-3 -18 -21 -18h-24q-21 0 -18 22l26 158h-132l-27 -162q-3 -18 -21 -18h-24q-21 0 -18 22l26 158h-98q-21 0 -18 22l3 20q3 18 22 18h101l20 120h-99
q-21 0 -18 22l3 20q3 18 22 18h102l27 162q3 18 21 18h24q21 0 18 -22l-26 -158h132l27 162q3 18 21 18h24q21 0 18 -22l-26 -158h97zM356 290l20 120h-132l-20 -120h132z" />
    <glyph glyph-name="dollar" unicode="$" horiz-adv-x="550" 
d="M510 172q0 -79 -59 -128.5t-146 -54.5v-69q0 -20 -20 -20h-20q-20 0 -20 20v70q-84 11 -141 61t-63 131q-1 21 19 21h31q18 0 20 -20q6 -52 42 -84t92 -40v272q-34 13 -57 24t-50.5 29t-44 37.5t-27.5 48.5t-11 64q0 76 55 123t135 54v69q0 20 20 20h20q20 0 20 -20v-70
q76 -9 129 -56t60 -121q2 -21 -19 -21h-31q-18 0 -20 19q-4 31 -20.5 54.5t-41.5 37t-57 18.5v-263q37 -15 60.5 -25.5t54 -29t48 -38t30 -49t12.5 -64.5zM125 534q0 -47 31.5 -77.5t88.5 -54.5v241q-34 -4 -60.5 -17t-43 -36.5t-16.5 -55.5zM305 57q60 4 97.5 34.5
t37.5 80.5q0 48 -35.5 79.5t-99.5 56.5v-251z" />
    <glyph glyph-name="percent" unicode="%" horiz-adv-x="749" 
d="M213 412q-65 0 -109 43.5t-44 106.5t44 106.5t109 43.5t109 -43.5t44 -106.5t-43 -106.5t-110 -43.5zM120 0q-12 0 -16 7t3 17l465 663q10 13 24 13h33q12 0 16 -7t-3 -17l-466 -663q-10 -13 -24 -13h-32zM213 472q39 0 64 26t25 64t-25 64t-64 26t-64 -26t-25 -64
t25 -64t64 -26zM536 -12q-65 0 -109 43.5t-44 106.5t44 106.5t109 43.5t109 -43.5t44 -106.5t-44 -106.5t-109 -43.5zM536 48q39 0 64 26t25 64t-25 64t-64 26t-64 -26t-25 -64t25 -64t64 -26z" />
    <glyph glyph-name="ampersand" unicode="&#x26;" horiz-adv-x="654" 
d="M610 25q9 -10 6 -17.5t-16 -7.5h-46q-15 0 -25 10l-40 41q-75 -63 -201 -63q-104 0 -171 56.5t-67 148.5q0 59 29.5 108t83.5 83q-55 63 -55 138q0 43 17 79.5t45.5 60.5t66 37t78.5 13q81 0 143 -47t69 -132q2 -21 -19 -21h-31q-18 0 -20 20q-7 55 -46.5 83.5
t-95.5 28.5q-39 0 -69.5 -14t-49 -42.5t-18.5 -65.5q0 -57 65 -122l243 -248q34 58 38 152q0 20 20 20h30q20 0 20 -13q-3 -129 -59 -210zM288 56q95 0 152 44l-230 234q-90 -50 -90 -141q0 -61 46.5 -99t121.5 -38z" />
    <glyph glyph-name="quotesingle" unicode="'" horiz-adv-x="170" 
d="M78 500q-18 0 -19 18l-8 164q-2 18 17 18h34q19 0 17 -18l-8 -164q-1 -18 -19 -18h-14z" />
    <glyph glyph-name="parenleft" unicode="(" horiz-adv-x="266" 
d="M186 -100q-16 0 -23 15q-103 211 -103 435t103 435q7 15 23 15h24q11 0 15.5 -7t-0.5 -17q-99 -209 -99 -426t99 -426q5 -10 0.5 -17t-15.5 -7h-24z" />
    <glyph glyph-name="parenright" unicode=")" horiz-adv-x="266" 
d="M80 -100h-24q-11 0 -15.5 7t0.5 17q99 209 99 426t-99 426q-5 10 -0.5 17t15.5 7h24q16 0 23 -15q103 -211 103 -435t-103 -435q-7 -15 -23 -15z" />
    <glyph glyph-name="asterisk" unicode="*" horiz-adv-x="392" 
d="M314 609q18 0 18 -17v-20q0 -17 -18 -17l-73 2l41 -60q10 -15 -5 -24l-19 -12q-16 -10 -25 7l-37 65l-37 -65q-9 -17 -25 -7l-19 11q-16 10 -5 25l41 60l-73 -2q-18 0 -18 17v20q0 17 18 17l73 -2l-41 60q-10 15 5 24l19 12q16 10 25 -7l37 -65l37 65q9 17 25 7l19 -11
q16 -10 5 -25l-41 -60z" />
    <glyph glyph-name="plus" unicode="+" horiz-adv-x="540" 
d="M460 382q20 0 20 -20v-24q0 -20 -20 -20h-158v-158q0 -20 -20 -20h-24q-20 0 -20 20v158h-158q-20 0 -20 20v24q0 20 20 20h158v158q0 20 20 20h24q20 0 20 -20v-158h158z" />
    <glyph glyph-name="comma" unicode="," horiz-adv-x="230" 
d="M140 90q20 0 20 -20v-70q0 -104 -75 -127q-15 -3 -15 13v12q0 10 10 17q35 17 35 85h-25q-20 0 -20 20v50q0 20 20 20h50z" />
    <glyph glyph-name="hyphen" unicode="-" horiz-adv-x="520" 
d="M100 277q-20 0 -20 20v24q0 20 20 20h320q20 0 20 -20v-24q0 -20 -20 -20h-320z" />
    <glyph glyph-name="period" unicode="." horiz-adv-x="230" 
d="M90 0q-20 0 -20 20v50q0 20 20 20h50q20 0 20 -20v-50q0 -20 -20 -20h-50z" />
    <glyph glyph-name="slash" unicode="/" horiz-adv-x="530" 
d="M77 -100h-16q-21 0 -13 19l387 869q5 12 18 12h16q21 0 13 -19l-387 -869q-5 -12 -18 -12z" />
    <glyph glyph-name="zero" unicode="0" 
d="M315 -12q-126 0 -195.5 98.5t-69.5 263.5t69.5 263.5t195.5 98.5t195.5 -98.5t69.5 -263.5t-69.5 -263.5t-195.5 -98.5zM315 56q92 0 143.5 77t51.5 217t-51.5 217t-143.5 77t-143.5 -77t-51.5 -217t51.5 -217t143.5 -77z" />
    <glyph glyph-name="one" unicode="1" horiz-adv-x="340" 
d="M178 694q10 6 25 6h37q20 0 20 -20v-660q0 -20 -20 -20h-30q-20 0 -20 20v603l-151 -81q-11 -6 -17.5 -1.5t-6.5 15.5v34q0 16 14 24z" />
    <glyph glyph-name="two" unicode="2" horiz-adv-x="525" 
d="M60 0q-20 0 -20 20v29q0 14 10 24l242 244q108 108 108 185q0 67 -41.5 104.5t-99.5 37.5q-60 0 -101 -30.5t-47 -91.5q-2 -20 -21 -20h-30q-20 0 -19 21q7 91 70 140t148 49q84 0 147.5 -56.5t63.5 -153.5q0 -61 -34 -117t-96 -118l-200 -199h325q20 0 20 -20v-28
q0 -20 -20 -20h-405z" />
    <glyph glyph-name="three" unicode="3" horiz-adv-x="530" 
d="M297 409q84 -11 138.5 -64.5t54.5 -141.5q0 -100 -68.5 -157.5t-166.5 -57.5q-92 0 -159.5 52t-74.5 142q-1 21 19 21h31q18 0 20 -20q7 -61 52.5 -94t111.5 -33q72 0 118.5 38.5t46.5 108.5t-46.5 108.5t-118.5 38.5v1l-1 -1h-29q-20 0 -20 20v12q0 14 8 25l166 227
h-309q-20 0 -20 20v26q0 20 20 20h370q20 0 20 -20v-32q0 -14 -8 -25z" />
    <glyph glyph-name="four" unicode="4" horiz-adv-x="570" 
d="M535 206q20 0 20 -20v-26q0 -20 -20 -20h-70v-120q0 -20 -20 -20h-30q-20 0 -20 20v120h-350q-20 0 -20 20v33q0 13 6 25l246 468q7 14 24 14h34q11 0 15 -7t-1 -17l-247 -470h293v194q0 20 20 20h30q20 0 20 -20v-194h70z" />
    <glyph glyph-name="five" unicode="5" horiz-adv-x="550" 
d="M275 418q98 0 166.5 -57.5t68.5 -157.5t-68.5 -157.5t-166.5 -57.5q-92 0 -159.5 52t-74.5 142q-1 21 19 21h31q18 0 20 -20q7 -61 52.5 -94t111.5 -33q72 0 118.5 38.5t46.5 108.5t-46.5 108.5t-118.5 38.5h-179q-22 0 -20 21l23 310q2 19 20 19h346q20 0 20 -20v-26
q0 -20 -20 -20h-301l-15 -216h126z" />
    <glyph glyph-name="six" unicode="6" horiz-adv-x="530" 
d="M265 450q67 0 120.5 -29t84 -81.5t30.5 -120.5q0 -102 -66 -166.5t-169 -64.5t-169 64.5t-66 166.5q0 81 43 140l220 328q9 13 24 13h35q12 0 16 -7t-3 -17l-156 -232q27 6 56 6zM265 56q74 0 119.5 45t45.5 118q0 36 -12 66.5t-33.5 52t-52 33t-67.5 11.5
q-74 0 -119.5 -44.5t-45.5 -118t45.5 -118.5t119.5 -45z" />
    <glyph glyph-name="seven" unicode="7" horiz-adv-x="490" 
d="M20 680q0 20 20 20h390q20 0 20 -20v-33q0 -12 -5 -25l-253 -607q-5 -15 -23 -15h-31q-25 0 -15 23l254 611h-337q-20 0 -20 20v26z" />
    <glyph glyph-name="eight" unicode="8" horiz-adv-x="548" 
d="M392 361q53 -25 84.5 -69.5t31.5 -101.5q0 -95 -67 -148.5t-167 -53.5t-167 53.5t-67 148.5q0 57 31.5 101.5t84.5 69.5q-42 25 -67.5 65t-25.5 92q0 63 31.5 108.5t78.5 65.5t101 20t101 -20t78.5 -65.5t31.5 -108.5q0 -35 -12 -65.5t-32.5 -53t-48.5 -38.5zM274 644
q-60 0 -100.5 -31t-40.5 -95q0 -60 41.5 -93t99.5 -33t99.5 33t41.5 93q0 64 -40.5 95t-100.5 31zM274 56q74 0 119 34.5t45 99.5t-45 99.5t-119 34.5t-119 -34.5t-45 -99.5t45 -99.5t119 -34.5z" />
    <glyph glyph-name="nine" unicode="9" horiz-adv-x="530" 
d="M500 481q0 -81 -43 -140l-220 -328q-9 -13 -24 -13h-35q-12 0 -16 7t3 17l156 232q-27 -6 -56 -6q-103 0 -169 64.5t-66 166.5t66 166.5t169 64.5t169 -64.5t66 -166.5zM100 481q0 -36 12 -66.5t33.5 -52t52 -33t67.5 -11.5q74 0 119.5 44.5t45.5 118t-45.5 118.5
t-119.5 45t-119.5 -45t-45.5 -118z" />
    <glyph glyph-name="colon" unicode=":" horiz-adv-x="230" 
d="M90 410q-20 0 -20 20v50q0 20 20 20h50q20 0 20 -20v-50q0 -20 -20 -20h-50zM90 0q-20 0 -20 20v50q0 20 20 20h50q20 0 20 -20v-50q0 -20 -20 -20h-50z" />
    <glyph glyph-name="semicolon" unicode=";" horiz-adv-x="230" 
d="M140 500q20 0 20 -20v-50q0 -20 -20 -20h-50q-20 0 -20 20v50q0 20 20 20h50zM140 90q20 0 20 -20v-70q0 -104 -75 -127q-15 -3 -15 13v12q0 10 10 17q35 17 35 85h-25q-20 0 -20 20v50q0 20 20 20h50z" />
    <glyph glyph-name="less" unicode="&#x3c;" horiz-adv-x="520" 
d="M460 534v-31q0 -16 -15 -23l-310 -130l310 -130q15 -7 15 -23v-31q0 -11 -6.5 -15.5t-16.5 -0.5l-362 158q-15 8 -15 24v36q0 16 15 24l362 158q10 4 16.5 -0.5t6.5 -15.5z" />
    <glyph glyph-name="equal" unicode="=" horiz-adv-x="540" 
d="M80 418q-20 0 -20 20v24q0 20 20 20h380q20 0 20 -20v-24q0 -20 -20 -20h-380zM80 218q-20 0 -20 20v24q0 20 20 20h380q20 0 20 -20v-24q0 -20 -20 -20h-380z" />
    <glyph glyph-name="greater" unicode="&#x3e;" horiz-adv-x="520" 
d="M60 534q0 11 6.5 15.5t16.5 0.5l362 -158q15 -8 15 -24v-36q0 -16 -15 -24l-362 -158q-10 -4 -16.5 0.5t-6.5 15.5v31q0 16 15 23l310 130l-310 130q-15 7 -15 23v31z" />
    <glyph glyph-name="question" unicode="?" horiz-adv-x="535" 
d="M233 190q-21 0 -19 21q4 43 25 80.5t48.5 64t54 51t45 55.5t18.5 65q0 58 -39.5 87.5t-101.5 29.5q-63 0 -105 -28.5t-48 -83.5q-2 -20 -20 -20h-31q-20 0 -19 21q7 85 71 132t152 47t149.5 -48.5t61.5 -136.5q0 -41 -18 -76.5t-44.5 -62.5t-54 -52.5t-49 -58
t-25.5 -68.5q-2 -19 -20 -19h-31zM223 0q-20 0 -20 20v50q0 20 20 20h50q20 0 20 -20v-50q0 -20 -20 -20h-50z" />
    <glyph glyph-name="at" unicode="@" horiz-adv-x="794" 
d="M404 612q81 0 148.5 -30t110.5 -79t67 -109.5t24 -123.5q0 -55 -12.5 -97.5t-34 -66.5t-46 -36t-51.5 -12q-42 0 -72 21.5t-40 64.5q-42 -54 -111 -54t-115.5 46t-46.5 114t46.5 114t115.5 46q65 0 106 -48v21q0 20 20 20h22q20 0 20 -20v-196q0 -96 65 -96q44 0 74 43.5
t30 135.5q0 134 -92.5 224t-227.5 90q-139 0 -236.5 -96t-97.5 -238q0 -145 100 -239.5t252 -94.5q95 0 163 25q11 3 11 -8v-9q0 -10 -6 -11q-72 -25 -168 -25q-164 0 -273 102.5t-109 259.5q0 151 104.5 256.5t259.5 105.5zM391 150q43 0 72.5 27.5t29.5 72.5q0 30 -14 53
t-37 35t-51 12q-43 0 -73.5 -27.5t-30.5 -72.5q0 -22 8.5 -41t22.5 -32t33 -20t40 -7z" />
    <glyph glyph-name="A" unicode="A" 
d="M611 23q4 -11 -0.5 -17t-15.5 -6h-32q-17 0 -23 16l-59 156h-332l-59 -156q-6 -16 -23 -16h-32q-24 0 -16 23l254 661q6 16 23 16h38q17 0 23 -16zM174 238h282l-141 375z" />
    <glyph glyph-name="B" unicode="B" horiz-adv-x="685" 
d="M516 443q61 -26 97.5 -84t36.5 -129q0 -96 -63.5 -163t-157.5 -67h-309h-20q-20 0 -20 20v660q0 20 20 20h50h209q81 0 131 -49.5t50 -121.5q0 -46 -24 -86zM359 634h-209v-174h280h15q25 29 25 69q0 45 -29.5 75t-81.5 30zM419 66q72 0 116.5 47.5t44.5 116.5
q0 70 -44 117t-116 47h-270v-328h269z" />
    <glyph glyph-name="C" unicode="C" horiz-adv-x="765" 
d="M407 -12q-159 0 -263 105t-104 257t104 257t263 105q108 0 195.5 -57.5t124.5 -151.5q8 -23 -16 -23h-35q-16 0 -24 15q-31 67 -97.5 108t-147.5 41q-131 0 -214 -85t-83 -209t83 -209t214 -85q81 0 147.5 41t97.5 108q8 15 24 15h35q11 0 16 -6t1 -15
q-37 -95 -124.5 -153t-196.5 -58z" />
    <glyph glyph-name="D" unicode="D" horiz-adv-x="740" 
d="M370 700q143 0 236.5 -101.5t93.5 -248.5t-93.5 -248.5t-236.5 -101.5h-260h-10q-20 0 -20 20v660q0 20 20 20h50h220zM370 66q115 0 188.5 82t73.5 202t-73.5 202t-188.5 82h-220v-568h220z" />
    <glyph glyph-name="E" unicode="E" horiz-adv-x="520" 
d="M460 66q20 0 20 -20v-26q0 -20 -20 -20h-350h-10q-20 0 -20 20v660q0 20 20 20h50h305q20 0 20 -20v-26q0 -20 -20 -20h-305v-248h280q20 0 20 -20v-26q0 -20 -20 -20h-280v-254h310z" />
    <glyph glyph-name="F" unicode="F" horiz-adv-x="495" 
d="M455 700q20 0 20 -20v-26q0 -20 -20 -20h-305v-278h290q20 0 20 -20v-26q0 -20 -20 -20h-290v-270q0 -20 -20 -20h-30q-20 0 -20 20v660q0 20 20 20h50h305z" />
    <glyph glyph-name="G" unicode="G" horiz-adv-x="795" 
d="M710 353q20 0 20 -20v-46v-267q0 -20 -20 -20h-30q-20 0 -20 20v88q-39 -60 -107.5 -90t-150.5 -30q-156 0 -259 105t-103 257t103 257t259 105q108 0 195.5 -57.5t124.5 -151.5q8 -23 -16 -23h-35q-17 0 -24 15q-31 67 -97.5 108t-147.5 41q-127 0 -209.5 -85
t-82.5 -209t82.5 -209t209.5 -85q110 0 184 57t74 157v17h-220q-20 0 -20 20v26q0 20 20 20h270z" />
    <glyph glyph-name="H" unicode="H" 
d="M530 700q20 0 20 -20v-660q0 -20 -20 -20h-30q-20 0 -20 20v307h-330v-307q0 -20 -20 -20h-30q-20 0 -20 20v660q0 20 20 20h30q20 0 20 -20v-287h330v287q0 20 20 20h30z" />
    <glyph glyph-name="I" unicode="I" horiz-adv-x="230" 
d="M80 680q0 20 20 20h30q20 0 20 -20v-660q0 -20 -20 -20h-30q-20 0 -20 20v660z" />
    <glyph glyph-name="J" unicode="J" horiz-adv-x="530" 
d="M240 -12q-88 0 -150.5 50.5t-68.5 148.5q-1 21 19 21h30q19 0 21 -20q6 -68 46.5 -100t102.5 -32q66 0 108 35t42 107v482q0 20 20 20h30q20 0 20 -20v-482q0 -101 -64 -155.5t-156 -54.5z" />
    <glyph glyph-name="K" unicode="K" horiz-adv-x="580" 
d="M546 25q9 -10 6 -17.5t-16 -7.5h-43q-16 0 -25 10l-318 329v-319q0 -20 -20 -20h-30q-20 0 -20 20v660q0 20 20 20h30q20 0 20 -20v-300l308 310q10 10 24 10h43q13 0 16.5 -8t-5.5 -17l-312 -315z" />
    <glyph glyph-name="L" unicode="L" horiz-adv-x="490" 
d="M450 66q20 0 20 -20v-26q0 -20 -20 -20h-330h-20q-20 0 -20 20v660q0 20 20 20h30q20 0 20 -20v-614h300z" />
    <glyph glyph-name="M" unicode="M" horiz-adv-x="800" 
d="M700 700q20 0 20 -20v-660q0 -20 -20 -20h-30q-20 0 -20 20v562l-208 -446q-7 -15 -23 -15h-38q-16 0 -23 15l-208 446v-562q0 -20 -20 -20h-30q-20 0 -20 20v660q0 20 20 20h30h22q16 0 23 -15l225 -485l225 485q7 15 23 15h31h21z" />
    <glyph glyph-name="N" unicode="N" 
d="M480 680q0 20 20 20h30q20 0 20 -20v-660q0 -20 -20 -20h-24q-17 0 -24 13l-332 547v-540q0 -20 -20 -20h-30q-20 0 -20 20v660q0 20 20 20h24q17 0 24 -13l332 -547v540z" />
    <glyph glyph-name="O" unicode="O" horiz-adv-x="804" 
d="M402 -12q-152 0 -257 105.5t-105 256.5t105 256.5t257 105.5t257 -105.5t105 -256.5t-105 -256.5t-257 -105.5zM402 56q124 0 208 85.5t84 208.5t-84 208.5t-208 85.5t-208 -85.5t-84 -208.5t84 -208.5t208 -85.5z" />
    <glyph glyph-name="P" unicode="P" horiz-adv-x="580" 
d="M330 700q87 0 148.5 -61.5t61.5 -148.5q0 -86 -61.5 -148t-148.5 -62h-180v-260q0 -20 -20 -20h-30q-20 0 -20 20v660q0 20 20 20h50h180zM330 346q58 0 99 42.5t41 101.5q0 60 -41 102t-99 42h-180v-288h180z" />
    <glyph glyph-name="Q" unicode="Q" horiz-adv-x="809" 
d="M659 95l80 -90q13 -16 -2 -28l-19 -15q-16 -12 -28 3l-79 90q-93 -67 -209 -67q-74 0 -141 28.5t-115.5 77t-77 115.5t-28.5 141q0 98 48.5 181.5t132 132t181.5 48.5t181.5 -48.5t132 -132t48.5 -181.5q0 -49 -12.5 -95.5t-36 -86.5t-56.5 -73zM402 56q90 0 164 50
l-86 98q-13 16 2 28l19 15q16 12 28 -3l85 -97q80 85 80 203q0 122 -85.5 208t-206.5 86t-206.5 -86t-85.5 -208t85.5 -208t206.5 -86z" />
    <glyph glyph-name="R" unicode="R" 
d="M618 25q8 -10 5 -17.5t-16 -7.5h-40q-15 0 -25 11l-236 269h-156v-260q0 -20 -20 -20h-30q-20 0 -20 20v660q0 20 20 20h50h180q87 0 148.5 -61.5t61.5 -148.5q0 -35 -11.5 -68.5t-32 -59.5t-49 -45.5t-61.5 -28.5zM150 634v-288h180q58 0 99 42.5t41 101.5q0 60 -41 102
t-99 42h-180z" />
    <glyph glyph-name="S" unicode="S" horiz-adv-x="550" 
d="M285 -12q-98 0 -167.5 51.5t-76.5 142.5q-1 21 19 21h31q18 0 20 -20q7 -61 54.5 -94t119.5 -33q66 0 110.5 33t44.5 88q0 51 -40 81t-117 59q-105 39 -139 62q-84 54 -84 150q0 83 62.5 133t148.5 50q87 0 149 -48t69 -131q1 -21 -19 -21h-31q-18 0 -20 19
q-7 54 -47.5 83.5t-100.5 29.5t-100.5 -30.5t-40.5 -84.5t38 -83.5t116 -59.5q107 -42 143 -65q83 -54 83 -144q0 -85 -66.5 -137t-158.5 -52z" />
    <glyph glyph-name="T" unicode="T" horiz-adv-x="500" 
d="M460 700q20 0 20 -20v-26q0 -20 -20 -20h-175v-614q0 -20 -20 -20h-30q-20 0 -20 20v614h-175q-20 0 -20 20v26q0 20 20 20h245h175z" />
    <glyph glyph-name="U" unicode="U" horiz-adv-x="620" 
d="M310 -12q-104 0 -172 58t-68 162v472q0 20 20 20h30q20 0 20 -20v-472q0 -74 46 -113t124 -39t124 39t46 113v472q0 20 20 20h30q20 0 20 -20v-472q0 -104 -68 -162t-172 -58z" />
    <glyph glyph-name="V" unicode="V" horiz-adv-x="608" 
d="M285 0q-17 0 -23 16l-244 661q-4 10 1 16.5t16 6.5h32q17 0 23 -16l214 -597l214 597q6 16 23 16h32q11 0 16 -6.5t1 -16.5l-244 -661q-6 -16 -23 -16h-38z" />
    <glyph glyph-name="W" unicode="W" horiz-adv-x="860" 
d="M826 700q11 0 15.5 -6.5t1.5 -16.5l-206 -660q-5 -17 -22 -17h-58q-17 0 -22 17l-105 337l-105 -337q-5 -17 -22 -17h-58q-17 0 -22 17l-206 660q-3 10 1.5 16.5t15.5 6.5h27q17 0 22 -17l191 -612l122 391l-67 215q-3 10 1.5 16.5t15.5 6.5h27q17 0 22 -17l191 -612
l191 612q5 17 22 17h27z" />
    <glyph glyph-name="X" unicode="X" horiz-adv-x="570" 
d="M535 24q6 -10 2.5 -17t-15.5 -7h-33q-16 0 -24 13l-180 288l-180 -288q-8 -13 -24 -13h-33q-12 0 -15.5 7t2.5 17l212 338l-197 314q-6 10 -2.5 17t15.5 7h33q16 0 24 -13l165 -264l165 264q8 13 24 13h33q12 0 15.5 -7t-2.5 -17l-197 -314z" />
    <glyph glyph-name="Y" unicode="Y" horiz-adv-x="575" 
d="M536 700q12 0 16 -7t-3 -17l-227 -350v-306q0 -20 -20 -20h-30q-20 0 -20 20v308l-226 348q-7 10 -3 17t16 7h34q15 0 24 -13l191 -293l190 293q9 13 24 13h34z" />
    <glyph glyph-name="Z" unicode="Z" horiz-adv-x="520" 
d="M118 66h352q20 0 20 -20v-26q0 -20 -20 -20h-410q-20 0 -20 20v33q0 11 7 24l355 557h-332q-20 0 -20 20v26q0 20 20 20h390q20 0 20 -20v-33q0 -11 -7 -24z" />
    <glyph glyph-name="bracketleft" unicode="[" horiz-adv-x="260" 
d="M240 736h-114v-772h114q20 0 20 -20v-24q0 -20 -20 -20h-140h-20q-20 0 -20 20v860q0 20 20 20h46h114q20 0 20 -20v-24q0 -20 -20 -20z" />
    <glyph glyph-name="backslash" unicode="\" horiz-adv-x="530" 
d="M453 -100q-13 0 -18 12l-387 869q-8 19 13 19h16q13 0 18 -12l387 -869q8 -19 -13 -19h-16z" />
    <glyph glyph-name="bracketright" unicode="]" horiz-adv-x="260" 
d="M180 800q20 0 20 -20v-860q0 -20 -20 -20h-46h-114q-20 0 -20 20v24q0 20 20 20h114v772h-114q-20 0 -20 20v24q0 20 20 20h140h20z" />
    <glyph glyph-name="asciicircum" unicode="^" horiz-adv-x="500" 
d="M446 424q6 -10 2 -17t-16 -7h-33q-16 0 -24 14l-125 213l-125 -213q-8 -14 -24 -14h-33q-12 0 -16 7t2 17l154 262q8 14 24 14h36q16 0 24 -14z" />
    <glyph glyph-name="underscore" unicode="_" horiz-adv-x="520" 
d="M60 -141q-20 0 -20 20v24q0 20 20 20h400q20 0 20 -20v-24q0 -20 -20 -20h-400z" />
    <glyph glyph-name="grave" unicode="`" horiz-adv-x="200" 
d="M155 570q10 0 13.5 6.5t-1.5 15.5l-60 96q-7 12 -21 12h-39q-11 0 -14.5 -6.5t3.5 -15.5l72 -97q8 -11 22 -11h25z" />
    <glyph glyph-name="a" unicode="a" horiz-adv-x="498" 
d="M250 512q85 0 137.5 -50.5t52.5 -136.5v-305q0 -20 -20 -20h-26q-20 0 -20 20v36q-48 -68 -155 -68q-74 0 -126.5 42t-52.5 119t52.5 119t126.5 42q103 0 155 -65v80q0 63 -35.5 93t-88.5 30q-46 0 -80.5 -21.5t-41.5 -62.5q-5 -19 -21 -19h-26q-21 0 -20 21
q8 65 60 105.5t129 40.5zM235 50q60 0 99.5 28t39.5 71q0 45 -39 72t-100 27q-64 0 -96.5 -27t-32.5 -72t32.5 -72t96.5 -27z" />
    <glyph glyph-name="b" unicode="b" horiz-adv-x="636" 
d="M338 512q107 0 182.5 -76t75.5 -186t-75.5 -186t-182.5 -76q-66 0 -118 29t-84 81v-78q0 -20 -20 -20h-26q-20 0 -20 20v660q0 20 20 20h26q20 0 20 -20v-278q32 52 84 81t118 29zM333 52q83 0 140 57.5t57 140.5t-57 140.5t-140 57.5t-140 -57.5t-57 -140.5t57 -140.5
t140 -57.5z" />
    <glyph glyph-name="c" unicode="c" horiz-adv-x="573" 
d="M519 160q11 0 15.5 -6.5t0.5 -16.5q-26 -67 -89.5 -108t-142.5 -41q-113 0 -188 75.5t-75 186.5t75 186.5t188 75.5q79 0 142 -41t90 -108q4 -10 -0.5 -16.5t-15.5 -6.5h-29q-16 0 -24 15q-23 43 -66 68t-97 25q-83 0 -140 -57.5t-57 -140.5t57 -140.5t140 -57.5
q54 0 97.5 25t65.5 68q8 15 24 15h29z" />
    <glyph glyph-name="d" unicode="d" horiz-adv-x="636" 
d="M546 700q20 0 20 -20v-660q0 -20 -20 -20h-26q-20 0 -20 20v78q-32 -52 -84 -81t-118 -29q-107 0 -182.5 76t-75.5 186t75.5 186t182.5 76q44 0 82.5 -13.5t68.5 -38t51 -58.5v278q0 20 20 20h26zM303 52q83 0 140 57.5t57 140.5t-57 140.5t-140 57.5t-140 -57.5
t-57 -140.5t57 -140.5t140 -57.5z" />
    <glyph glyph-name="e" unicode="e" horiz-adv-x="569" 
d="M296 512q74 0 130.5 -37.5t84.5 -97t28 -129.5v-12q-1 -19 -21 -19h-47h-363q10 -76 61.5 -120.5t127.5 -44.5q49 0 86 19.5t57 51.5q9 14 24 14h32q11 0 16.5 -5.5t1.5 -14.5q-26 -58 -84.5 -93.5t-133.5 -35.5q-114 0 -185 74t-71 188q0 112 71 187t185 75zM296 448
q-78 0 -128.5 -46t-59.5 -121h363q-9 79 -58 123t-117 44z" />
    <glyph glyph-name="f" unicode="f" horiz-adv-x="315" 
d="M294 649q-62 1 -92.5 -30.5t-30.5 -98.5v-20h124q20 0 20 -20v-24q0 -20 -20 -20h-124v-416q0 -20 -20 -20h-26q-20 0 -20 20v416h-65q-20 0 -20 20v24q0 20 20 20h65v20q0 93 49.5 143.5t140.5 49.5q20 0 20 -21v-24q0 -19 -21 -19z" />
    <glyph glyph-name="g" unicode="g" horiz-adv-x="636" 
d="M546 500q20 0 20 -20v-460q0 -109 -72.5 -170.5t-178.5 -61.5q-87 0 -157.5 48t-80.5 118q-1 21 20 21h26q17 0 21 -18q11 -41 57 -73t114 -32q89 0 137 45t48 123v78q-32 -52 -84 -81t-118 -29q-107 0 -182.5 76t-75.5 186t75.5 186t182.5 76q44 0 82.5 -13.5t68.5 -38
t51 -58.5v78q0 20 20 20h26zM303 52q83 0 140 57.5t57 140.5t-57 140.5t-140 57.5t-140 -57.5t-57 -140.5t57 -140.5t140 -57.5z" />
    <glyph glyph-name="h" unicode="h" horiz-adv-x="518" 
d="M290 512q35 0 66 -13t54 -36.5t36.5 -58.5t13.5 -77v-307q0 -20 -20 -20h-26q-20 0 -20 20v307q0 58 -32 89.5t-84 31.5q-59 0 -100.5 -40t-41.5 -126v-262q0 -20 -20 -20h-26q-20 0 -20 20v660q0 20 20 20h26q20 0 20 -20v-246q52 78 154 78z" />
    <glyph glyph-name="i" unicode="i" horiz-adv-x="206" 
d="M90 600q-20 0 -20 20v60q0 20 20 20h26q20 0 20 -20v-60q0 -20 -20 -20h-26zM90 0q-20 0 -20 20v460q0 20 20 20h26q20 0 20 -20v-460q0 -20 -20 -20h-26z" />
    <glyph glyph-name="j" unicode="j" horiz-adv-x="230" 
d="M140 700q20 0 20 -20v-60q0 -20 -20 -20h-26q-20 0 -20 20v60q0 20 20 20h26zM140 500q20 0 20 -20v-520q0 -85 -41.5 -130t-118.5 -43q-20 0 -20 20v24q0 20 19 20q49 -1 72 25t23 84v520q0 20 20 20h26z" />
    <glyph glyph-name="k" unicode="k" horiz-adv-x="494" 
d="M448 25q10 -9 6.5 -17t-16.5 -8h-38q-14 0 -24 10l-240 231v-221q0 -20 -20 -20h-26q-20 0 -20 20v660q0 20 20 20h26q20 0 20 -20v-402l230 212q10 10 24 10h38q14 0 16.5 -7.5t-7.5 -17.5l-233 -215z" />
    <glyph glyph-name="l" unicode="l" horiz-adv-x="206" 
d="M90 0q-20 0 -20 20v680q0 20 20 20h26q20 0 20 -20v-680q0 -20 -20 -20h-26z" />
    <glyph glyph-name="m" unicode="m" horiz-adv-x="768" 
d="M552 512q67 0 112.5 -46t45.5 -129v-317q0 -20 -20 -20h-26q-20 0 -20 20v317q0 56 -28 83.5t-71 27.5q-21 0 -40.5 -7t-39 -22.5t-31 -45.5t-11.5 -71v-282q0 -20 -20 -20h-26q-20 0 -20 20v317q0 38 -14 63.5t-35.5 36.5t-49.5 11q-21 0 -40.5 -7t-39 -22.5t-31 -45.5
t-11.5 -71v-282q0 -20 -20 -20h-26q-20 0 -20 20v460q0 20 20 20h26q20 0 20 -20v-38q49 70 134 70q42 0 78 -22t56 -62q50 84 148 84z" />
    <glyph glyph-name="n" unicode="n" horiz-adv-x="518" 
d="M290 512q35 0 66 -13t54 -36.5t36.5 -58.5t13.5 -77v-307q0 -20 -20 -20h-26q-20 0 -20 20v307q0 58 -32 89.5t-84 31.5q-59 0 -100.5 -40t-41.5 -126v-262q0 -20 -20 -20h-26q-20 0 -20 20v460q0 20 20 20h26q20 0 20 -20v-46q52 78 154 78z" />
    <glyph glyph-name="o" unicode="o" horiz-adv-x="606" 
d="M303 -12q-110 0 -186.5 75.5t-76.5 186.5t76.5 186.5t186.5 75.5t186.5 -75.5t76.5 -186.5t-76.5 -186.5t-186.5 -75.5zM303 52q83 0 140 57.5t57 140.5t-57 140.5t-140 57.5t-140 -57.5t-57 -140.5t57 -140.5t140 -57.5z" />
    <glyph glyph-name="p" unicode="p" horiz-adv-x="636" 
d="M338 512q107 0 182.5 -76t75.5 -186t-75.5 -186t-182.5 -76q-66 0 -118 29t-84 81v-278q0 -20 -20 -20h-26q-20 0 -20 20v660q0 20 20 20h26q20 0 20 -20v-78q32 52 84 81t118 29zM333 52q83 0 140 57.5t57 140.5t-57 140.5t-140 57.5t-140 -57.5t-57 -140.5t57 -140.5
t140 -57.5z" />
    <glyph glyph-name="q" unicode="q" horiz-adv-x="636" 
d="M546 500q20 0 20 -20v-660q0 -20 -20 -20h-26q-20 0 -20 20v278q-32 -52 -84 -81t-118 -29q-107 0 -182.5 76t-75.5 186t75.5 186t182.5 76q44 0 82.5 -13.5t68.5 -38t51 -58.5v78q0 20 20 20h26zM303 52q83 0 140 57.5t57 140.5t-57 140.5t-140 57.5t-140 -57.5
t-57 -140.5t57 -140.5t140 -57.5z" />
    <glyph glyph-name="r" unicode="r" horiz-adv-x="314" 
d="M274 507q20 2 20 -19v-24q0 -20 -13 -20q-63 -4 -104 -44t-41 -122v-258q0 -20 -20 -20h-26q-20 0 -20 20v460q0 20 20 20h26q20 0 20 -20v-57q46 77 138 84z" />
    <glyph glyph-name="s" unicode="s" horiz-adv-x="460" 
d="M121 369q0 -35 30.5 -55t73.5 -30.5t86 -23.5t73.5 -45t30.5 -84q0 -62 -51.5 -102.5t-133.5 -40.5q-77 0 -127 36.5t-57 99.5q-2 21 20 21h26q16 0 21 -19q12 -74 117 -74q51 0 85 19.5t34 59.5q0 35 -30.5 55t-73.5 30.5t-86 23.5t-73.5 45t-30.5 84q0 62 49.5 102.5
t125.5 40.5q71 0 119 -37t55 -99q2 -21 -20 -21h-26q-16 0 -21 19q-6 38 -36.5 56t-70.5 18q-44 0 -76.5 -20t-32.5 -59z" />
    <glyph glyph-name="t" unicode="t" horiz-adv-x="315" 
d="M275 500q20 0 20 -20v-24q0 -20 -20 -20h-84v-416q0 -20 -20 -20h-26q-20 0 -20 20v416h-85q-20 0 -20 20v24q0 20 20 20h85v140q0 20 20 20h26q20 0 20 -20v-140h84z" />
    <glyph glyph-name="u" unicode="u" horiz-adv-x="518" 
d="M428 500q20 0 20 -20v-460q0 -20 -20 -20h-26q-20 0 -20 20v46q-52 -78 -154 -78q-72 0 -121 50.5t-49 134.5v307q0 20 20 20h26q20 0 20 -20v-307q0 -58 32 -89.5t84 -31.5q59 0 100.5 40t41.5 126v262q0 20 20 20h26z" />
    <glyph glyph-name="v" unicode="v" horiz-adv-x="470" 
d="M435 500q24 0 16 -23l-170 -461q-6 -16 -23 -16h-25h-21q-17 0 -23 16l-170 461q-8 23 16 23h28q17 0 23 -16l149 -411l149 411q6 16 23 16h28z" />
    <glyph glyph-name="w" unicode="w" horiz-adv-x="680" 
d="M646 500q7 0 11.5 -3t5.5 -8t-1 -12l-160 -461q-6 -16 -23 -16h-21h-17q-17 0 -23 16l-77 223l-79 -223q-6 -16 -23 -16h-21h-17q-17 0 -23 16l-160 461q-4 10 0.5 16.5t15.5 6.5h29q16 0 22 -16l135 -408l89 254l-51 147q-8 23 16 23h29q16 0 22 -16l135 -407l135 407
q6 16 22 16h29z" />
    <glyph glyph-name="x" unicode="x" horiz-adv-x="453" 
d="M414 24q7 -10 3 -17t-16 -7h-27q-15 0 -24 13l-125 192l-125 -192q-9 -13 -24 -13h-27q-12 0 -16 7t3 17l153 236l-140 216q-7 10 -3 17t16 7h27q15 0 24 -13l112 -172l112 172q9 13 24 13h27q12 0 16 -7t-3 -17l-140 -216z" />
    <glyph glyph-name="y" unicode="y" horiz-adv-x="470" 
d="M384 484q6 16 23 16h29q24 0 16 -23l-235 -661q-6 -16 -23 -16h-29q-24 0 -16 23l64 181l-193 473q-10 23 15 23h28q18 0 23 -15l160 -389z" />
    <glyph glyph-name="z" unicode="z" horiz-adv-x="450" 
d="M132 64h268q20 0 20 -20v-24q0 -20 -20 -20h-340q-20 0 -20 20v10q0 12 8 25l270 381h-248q-20 0 -20 20v24q0 20 20 20h320q20 0 20 -20v-10q0 -12 -8 -25z" />
    <glyph glyph-name="braceleft" unicode="{" horiz-adv-x="354" 
d="M334 -89q0 -20 -20 -20q-78 -2 -119 38.5t-41 124.5v167q0 55 -20 75.5t-64 22.5q-20 0 -20 20v24q0 20 20 20q44 2 64 22.5t20 75.5v167q0 84 41 124.5t119 38.5q20 0 20 -20v-24q0 -20 -21 -20q-49 2 -71 -20t-22 -79v-167q0 -107 -78 -130q78 -23 78 -130v-167
q0 -57 22 -79t71 -20q21 0 21 -20v-24z" />
    <glyph glyph-name="bar" unicode="|" horiz-adv-x="226" 
d="M100 -200q-20 0 -20 20v880q0 20 20 20h26q20 0 20 -20v-880q0 -20 -20 -20h-26z" />
    <glyph glyph-name="braceright" unicode="}" horiz-adv-x="354" 
d="M20 -89v24q0 20 21 20q49 -2 71 20t22 79v167q0 107 78 130q-78 23 -78 130v167q0 57 -22 79t-71 20q-21 0 -21 20v24q0 20 20 20q78 2 119 -38.5t41 -124.5v-167q0 -55 20 -75.5t64 -22.5q20 0 20 -20v-24q0 -20 -20 -20q-44 -2 -64 -22.5t-20 -75.5v-167
q0 -84 -41 -124.5t-119 -38.5q-20 0 -20 20z" />
    <glyph glyph-name="asciitilde" unicode="~" horiz-adv-x="594" 
d="M467 394q8 20 26 11l24 -11q17 -8 11 -26q-29 -73 -89.5 -87.5t-156.5 41.5q-69 40 -103.5 34.5t-51.5 -50.5q-8 -20 -26 -11l-24 11q-17 8 -11 26q29 73 91 87t155 -41q71 -41 104.5 -35t50.5 51z" />
    <glyph glyph-name="exclamdown" unicode="&#xa1;" horiz-adv-x="230" 
d="M90 500h50q20 0 20 -20v-50q0 -20 -20 -20h-50q-20 0 -20 20v50q0 20 20 20zM104 310h22q15 0 15 -14l14 -296v-180q0 -20 -20 -20h-40q-20 0 -20 20v180l14 296q0 14 15 14z" />
    <glyph glyph-name="cent" unicode="&#xa2;" horiz-adv-x="573" 
d="M519 260q11 0 15.5 -6.5t0.5 -16.5q-26 -67 -89.5 -108t-142.5 -41q-35 0 -68 8l-27 -83q-4 -13 -18 -13h-17q-18 0 -13 18l30 94q-69 30 -109.5 94t-40.5 144q0 73 34 133t94.5 94.5t134.5 34.5q24 0 47 -4l26 79q4 13 18 13h17q18 0 13 -18l-28 -86q48 -18 84 -52.5
t55 -80.5q4 -10 -0.5 -16.5t-15.5 -6.5h-29q-16 0 -24 15q-29 56 -90 79l-121 -376q23 -6 48 -6q54 0 97.5 25t65.5 68q8 15 24 15h29zM106 350q0 -57 28.5 -104t75.5 -72l121 372q-14 2 -28 2q-55 0 -100 -26t-71 -71.5t-26 -100.5z" />
    <glyph glyph-name="sterling" unicode="&#xa3;" horiz-adv-x="585" 
d="M550 68q20 0 20 -20v-28q0 -20 -20 -20h-490q-20 0 -20 20v28q0 20 20 20h74v211h-54q-20 0 -20 20v22q0 20 20 20h54v161q0 101 61 155.5t144 54.5q80 0 142.5 -55t62.5 -155v-2q0 -20 -20 -20h-30q-20 0 -20 20v2q0 70 -40.5 106t-94.5 36q-57 0 -96 -35.5t-39 -106.5
v-161h211q20 0 20 -20v-22q0 -20 -20 -20h-211v-211h346z" />
    <glyph glyph-name="currency" unicode="&#xa4;" horiz-adv-x="552" 
d="M501 157q11 -11 0 -22l-10 -10q-11 -11 -22 0l-59 59q-58 -46 -134 -46t-134 46l-59 -59q-11 -11 -22 0l-10 10q-11 11 0 22l59 59q-47 58 -47 134t47 134l-59 59q-11 11 0 22l10 10q11 11 22 0l59 -59q58 46 134 46t134 -46l59 59q11 11 22 0l10 -10q11 -11 0 -22
l-59 -59q47 -58 47 -134t-47 -134zM129 350q0 -62 42.5 -105t104.5 -43t104.5 43t42.5 105t-42.5 105t-104.5 43t-104.5 -43t-42.5 -105z" />
    <glyph glyph-name="yen" unicode="&#xa5;" horiz-adv-x="575" 
d="M536 700q12 0 16 -7t-3 -17l-213 -329h147q20 0 20 -20v-18q0 -20 -20 -20h-161v-60h161q20 0 20 -20v-18q0 -20 -20 -20h-161v-151q0 -20 -20 -20h-30q-20 0 -20 20v151h-159q-20 0 -20 20v18q0 20 20 20h159v60h-159q-20 0 -20 20v18q0 20 20 20h146l-213 329
q-7 10 -3 17t16 7h34q15 0 24 -13l191 -293l190 293q9 13 24 13h34z" />
    <glyph glyph-name="brokenbar" unicode="&#xa6;" horiz-adv-x="226" 
d="M100 350q-20 0 -20 20v330q0 20 20 20h26q20 0 20 -20v-330q0 -20 -20 -20h-26zM100 -200q-20 0 -20 20v330q0 20 20 20h26q20 0 20 -20v-330q0 -20 -20 -20h-26z" />
    <glyph glyph-name="section" unicode="&#xa7;" horiz-adv-x="510" 
d="M392 136q48 -44 48 -105q0 -63 -49 -103t-131 -40q-79 0 -130.5 38.5t-58.5 107.5q-2 21 19 21h27q18 0 20 -20q12 -83 123 -83q51 0 82.5 19.5t31.5 59.5q0 14 -4.5 26t-15 23t-19.5 19t-28.5 18.5t-30 16t-35.5 17t-34 16.5q-28 13 -47.5 24t-41.5 27.5t-36 33t-23 39
t-9 48.5q0 77 74 127q-44 43 -44 103q0 62 48 102.5t123 40.5q72 0 121.5 -39t56.5 -107q2 -21 -20 -21h-26q-18 0 -20 20q-7 44 -38.5 63.5t-73.5 19.5q-44 0 -74.5 -20t-30.5 -59q0 -27 21 -50.5t48.5 -39t69.5 -35.5q4 -1 6.5 -2t5.5 -3t6 -3q36 -18 58.5 -32t48 -35.5
t38 -48t12.5 -59.5q0 -75 -68 -125zM116 339q0 -38 30 -63.5t86 -51.5q89 -40 108 -51q54 34 54 88q0 39 -30.5 65t-88.5 53q-79 36 -102 50q-57 -34 -57 -90z" />
    <glyph glyph-name="dieresis" unicode="&#xa8;" horiz-adv-x="320" 
d="M38 580q-18 0 -18 18v44q0 18 18 18h44q18 0 18 -18v-44q0 -18 -18 -18h-44zM238 580q-18 0 -18 18v44q0 18 18 18h44q18 0 18 -18v-44q0 -18 -18 -18h-44z" />
    <glyph glyph-name="copyright" unicode="&#xa9;" horiz-adv-x="804" 
d="M402 -12q-150 0 -256 106t-106 256t106 256t256 106t256 -106t106 -256t-106 -256t-256 -106zM402 16q137 0 234.5 97.5t97.5 236.5t-97.5 236.5t-234.5 97.5t-234.5 -97.5t-97.5 -236.5t97.5 -236.5t234.5 -97.5zM405 158q-82 0 -138 56t-56 136t56 136t138 56
q41 0 77 -15t61.5 -42t38.5 -63q3 -10 -1.5 -16t-15.5 -6h-28q-15 0 -23 16q-13 31 -43.5 47.5t-65.5 16.5q-58 0 -93.5 -38.5t-35.5 -91.5t35.5 -91.5t93.5 -38.5q35 0 65.5 16.5t43.5 47.5q8 16 23 16h28q7 0 11.5 -2.5t6 -7.5t-0.5 -11q-18 -54 -66.5 -87.5t-110.5 -33.5
z" />
    <glyph glyph-name="ordfeminine" unicode="&#xaa;" horiz-adv-x="280" 
d="M140 712q46 0 73 -25.5t27 -67.5v-151q0 -12 -12 -12h-25q-12 0 -12 12v13q-26 -31 -76 -31q-22 0 -41.5 9.5t-31.5 28.5t-12 43q0 36 25 58t60 22q48 0 76 -29v37q0 21 -13.5 33t-37.5 12q-41 0 -49 -24q-5 -11 -13 -11h-26q-12 0 -11 12q5 33 31 52t68 19zM128 492
q21 0 42 10t21 29q0 20 -20.5 29t-42.5 9t-35.5 -10.5t-13.5 -27.5t13.5 -28t35.5 -11z" />
    <glyph glyph-name="guillemotleft" unicode="&#xab;" horiz-adv-x="492" 
d="M234 489q12 0 15.5 -6.5t-2.5 -17.5l-95 -156l95 -156q6 -11 2.5 -17.5t-15.5 -6.5h-38q-16 0 -24 13l-94 153q-9 14 0 28l94 153q8 13 24 13h38zM394 489q12 0 15.5 -6.5t-2.5 -17.5l-95 -156l95 -156q6 -11 2.5 -17.5t-15.5 -6.5h-38q-16 0 -24 13l-94 153q-9 14 0 28
l94 153q8 13 24 13h38z" />
    <glyph glyph-name="logicalnot" unicode="&#xac;" horiz-adv-x="520" 
d="M440 382q20 0 20 -20v-44v-96q0 -20 -20 -20h-26q-20 0 -20 20v96h-314q-20 0 -20 20v24q0 20 20 20h360z" />
    <glyph glyph-name="registered" unicode="&#xae;" horiz-adv-x="804" 
d="M402 712q150 0 256 -106t106 -256t-106 -256t-256 -106t-256 106t-106 256t106 256t256 106zM402 16q137 0 234.5 97.5t97.5 236.5t-97.5 236.5t-234.5 97.5t-234.5 -97.5t-97.5 -236.5t97.5 -236.5t234.5 -97.5zM474 308l93 -119q8 -10 4.5 -17t-16.5 -7h-25
q-15 0 -24 12l-96 120h-4h-52v-112q0 -20 -20 -20h-22q-20 0 -20 20v330q0 20 20 20h42h52q66 0 103 -34.5t37 -84.5q0 -82 -72 -108zM354 475v-118h56q35 0 54.5 16t19.5 43t-19.5 43t-54.5 16h-56z" />
    <glyph glyph-name="macron" unicode="&#xaf;" horiz-adv-x="300" 
d="M38 580q-18 0 -18 18v22q0 18 18 18h224q18 0 18 -18v-22q0 -18 -18 -18h-224z" />
    <glyph glyph-name="degree" unicode="&#xb0;" horiz-adv-x="386" 
d="M193 510q-65 0 -109 43.5t-44 106.5t44 106.5t109 43.5t109 -43.5t44 -106.5t-43 -106.5t-110 -43.5zM193 570q39 0 64 26t25 64t-25 64t-64 26t-64 -26t-25 -64t25 -64t64 -26z" />
    <glyph glyph-name="plusminus" unicode="&#xb1;" horiz-adv-x="540" 
d="M460 447q20 0 20 -20v-24q0 -20 -20 -20h-158v-143q0 -20 -20 -20h-24q-20 0 -20 20v143h-158q-20 0 -20 20v24q0 20 20 20h158v143q0 20 20 20h24q20 0 20 -20v-143h158zM460 154q20 0 20 -20v-24q0 -20 -20 -20h-380q-20 0 -20 20v24q0 20 20 20h380z" />
    <glyph glyph-name="acute" unicode="&#xb4;" horiz-adv-x="200" 
d="M33 592q-5 -9 -1.5 -15.5t13.5 -6.5h25q14 0 22 11l72 97q7 9 3.5 15.5t-14.5 6.5h-39q-14 0 -21 -12z" />
    <glyph glyph-name="uni00B5" unicode="&#xb5;" horiz-adv-x="566" 
d="M516 64q20 0 20 -20v-24q0 -20 -20 -20h-27q-34 0 -58 18t-33 49q-50 -79 -154 -79q-66 0 -108 45v-213q0 -20 -20 -20h-26q-20 0 -20 20v660q0 20 20 20h26q20 0 20 -20v-307q0 -58 32 -89.5t84 -31.5q59 0 100.5 40t41.5 126v262q0 20 20 20h26q20 0 20 -20v-380
q0 -22 13 -29t43 -7z" />
    <glyph glyph-name="paragraph" unicode="&#xb6;" horiz-adv-x="580" 
d="M520 700q20 0 20 -20v-22q0 -20 -20 -20h-40v-818q0 -20 -20 -20h-24q-20 0 -20 20v818h-112v-818q0 -20 -20 -20h-24q-20 0 -20 20v480q-83 0 -141.5 58.5t-58.5 141.5t58.5 141.5t141.5 58.5h64h176h40z" />
    <glyph glyph-name="periodcentered" unicode="&#xb7;" horiz-adv-x="230" 
d="M90 305q-20 0 -20 20v50q0 20 20 20h50q20 0 20 -20v-50q0 -20 -20 -20h-50z" />
    <glyph glyph-name="cedilla" unicode="&#xb8;" horiz-adv-x="245" 
d="M132 -45q43 -8 68 -29t25 -52q0 -97 -186 -91q-19 1 -19 19v17q0 18 20 18q127 -7 127 37q0 34 -75 40q-18 2 -18 19v67h58v-45z" />
    <glyph glyph-name="ordmasculine" unicode="&#xba;" horiz-adv-x="323" 
d="M162 450q-56 0 -94 37.5t-38 93.5t38 93.5t94 37.5t93.5 -37.5t37.5 -93.5t-37.5 -93.5t-93.5 -37.5zM162 498q37 0 59 22.5t22 60.5t-22 60.5t-59 22.5t-59.5 -23t-22.5 -60t22.5 -60t59.5 -23z" />
    <glyph glyph-name="guillemotright" unicode="&#xbb;" horiz-adv-x="492" 
d="M98 489h38q16 0 24 -13l94 -153q9 -14 0 -28l-94 -153q-8 -13 -24 -13h-38q-12 0 -15.5 6.5t2.5 17.5l95 156l-95 156q-6 11 -2.5 17.5t15.5 6.5zM258 489h38q16 0 24 -13l94 -153q9 -14 0 -28l-94 -153q-8 -13 -24 -13h-38q-12 0 -15.5 6.5t2.5 17.5l95 156l-95 156
q-6 11 -2.5 17.5t15.5 6.5z" />
    <glyph glyph-name="onequarter" unicode="&#xbc;" horiz-adv-x="821" 
d="M170 300h-28q-17 0 -17 17v315l-85 -46q-9 -5 -14.5 -1.5t-5.5 13.5v31q0 13 12 21l83 45q9 5 21 5h34q17 0 17 -17v-366q0 -17 -17 -17zM559 700q12 0 16 -7t-2 -17l-378 -662q-7 -14 -24 -14h-16q-12 0 -16 7t2 17l378 662q7 14 24 14h16zM784 133q17 0 17 -17v-24
q0 -17 -17 -17h-34v-58q0 -17 -17 -17h-28q-17 0 -17 17v58h-189q-17 0 -17 17v30q0 12 5 21l137 245q6 12 21 12h30q10 0 13.5 -6t-1.5 -14l-137 -247h138v79q0 17 17 17h28q17 0 17 -17v-79h34z" />
    <glyph glyph-name="onehalf" unicode="&#xbd;" horiz-adv-x="807" 
d="M115 695q9 5 21 5h34q17 0 17 -17v-366q0 -17 -17 -17h-28q-17 0 -17 17v315l-85 -46q-9 -5 -14.5 -1.5t-5.5 13.5v31q0 13 12 21zM155 0q-12 0 -16 7t2 17l378 662q7 14 24 14h16q12 0 16 -7t-2 -17l-378 -662q-7 -14 -24 -14h-16zM514 0q-17 0 -17 17v22q0 11 9 20
l159 146q42 37 42 85q0 28 -19.5 45t-52.5 17q-64 0 -74 -51q-5 -16 -18 -16h-29q-18 0 -16 18q6 50 43.5 79.5t93.5 29.5q60 0 97 -35t37 -87q0 -69 -62 -125l-118 -105h171q17 0 17 -17v-26q0 -17 -17 -17h-246z" />
    <glyph glyph-name="threequarters" unicode="&#xbe;" horiz-adv-x="926" 
d="M317 417q0 -58 -40 -93.5t-106 -35.5q-40 0 -71.5 13.5t-50.5 39t-23 58.5q-2 18 17 18h28q13 0 18 -16q5 -25 26 -39t56 -14q27 0 46 9t28.5 24t9.5 36q0 31 -22.5 50t-61.5 19h-18q-17 0 -17 17v18q0 11 8 21l82 98h-167q-17 0 -17 17v26q0 17 17 17h224q17 0 17 -17
v-31q0 -10 -8 -21l-81 -97q50 -10 78 -40.5t28 -76.5zM664 700q12 0 16 -7t-2 -17l-378 -662q-7 -14 -24 -14h-16q-12 0 -16 7t2 17l378 662q7 14 24 14h16zM889 133q17 0 17 -17v-24q0 -17 -17 -17h-34v-58q0 -17 -17 -17h-28q-17 0 -17 17v58h-189q-17 0 -17 17v30
q0 12 5 21l137 245q6 12 21 12h30q10 0 13.5 -6t-1.5 -14l-137 -247h138v79q0 17 17 17h28q17 0 17 -17v-79h34z" />
    <glyph glyph-name="questiondown" unicode="&#xbf;" horiz-adv-x="535" 
d="M312 500q20 0 20 -20v-50q0 -20 -20 -20h-50q-20 0 -20 20v50q0 20 20 20h50zM302 310q20 0 19 -21q-4 -43 -25 -80.5t-48.5 -64t-54 -51t-45 -55.5t-18.5 -65q0 -58 39.5 -87.5t101.5 -29.5q63 0 105 28.5t48 83.5q2 20 20 20h31q21 0 19 -21q-7 -85 -71 -132t-152 -47
t-149.5 48.5t-61.5 136.5q0 41 18 76.5t44.5 62.5t54 52.5t49 58t25.5 68.5q2 19 20 19h31z" />
    <glyph glyph-name="Agrave" unicode="&#xc0;" 
d="M283 781l-72 97q-7 9 -3.5 15.5t14.5 6.5h39q14 0 21 -12l60 -96q5 -9 1.5 -15.5t-13.5 -6.5h-25q-14 0 -22 11zM611 23q4 -11 -0.5 -17t-15.5 -6h-32q-17 0 -23 16l-59 156h-332l-59 -156q-6 -16 -23 -16h-32q-24 0 -16 23l254 661q6 16 23 16h38q17 0 23 -16zM174 238
h282l-141 375z" />
    <glyph glyph-name="Aacute" unicode="&#xc1;" 
d="M290 770q-10 0 -13.5 6.5t1.5 15.5l60 96q7 12 21 12h39q11 0 14.5 -6.5t-3.5 -15.5l-72 -97q-8 -11 -22 -11h-25zM611 23q4 -11 -0.5 -17t-15.5 -6h-32q-17 0 -23 16l-59 156h-332l-59 -156q-6 -16 -23 -16h-32q-24 0 -16 23l254 661q6 16 23 16h38q17 0 23 -16z
M174 238h282l-141 375z" />
    <glyph glyph-name="Acircumflex" unicode="&#xc2;" 
d="M198 770q-11 0 -14 6.5t4 15.5l79 98q7 10 22 10h33h19q15 0 22 -10l79 -98q7 -9 4 -15.5t-14 -6.5h-33q-14 0 -22 11l-62 76l-62 -76q-8 -11 -22 -11h-33zM611 23q4 -11 -0.5 -17t-15.5 -6h-32q-17 0 -23 16l-59 156h-332l-59 -156q-6 -16 -23 -16h-32q-24 0 -16 23
l254 661q6 16 23 16h38q17 0 23 -16zM174 238h282l-141 375z" />
    <glyph glyph-name="Atilde" unicode="&#xc3;" 
d="M193 780q-19 0 -17 19q3 51 24.5 75t52 21t63.5 -28q20 -16 32.5 -23.5t23.5 -9.5t17 7t7 30q1 19 19 19h22q19 0 17 -19q-3 -51 -24.5 -75t-51.5 -21t-63 28q-20 16 -32.5 23.5t-24 9.5t-17.5 -7t-7 -30q-1 -19 -19 -19h-22zM611 23q4 -11 -0.5 -17t-15.5 -6h-32
q-17 0 -23 16l-59 156h-332l-59 -156q-6 -16 -23 -16h-32q-24 0 -16 23l254 661q6 16 23 16h38q17 0 23 -16zM174 238h282l-141 375z" />
    <glyph glyph-name="Adieresis" unicode="&#xc4;" 
d="M193 780q-18 0 -18 18v44q0 18 18 18h44q18 0 18 -18v-44q0 -18 -18 -18h-44zM393 780q-18 0 -18 18v44q0 18 18 18h44q18 0 18 -18v-44q0 -18 -18 -18h-44zM611 23q4 -11 -0.5 -17t-15.5 -6h-32q-17 0 -23 16l-59 156h-332l-59 -156q-6 -16 -23 -16h-32q-24 0 -16 23
l254 661q6 16 23 16h38q17 0 23 -16zM174 238h282l-141 375z" />
    <glyph glyph-name="Aring" unicode="&#xc5;" 
d="M315 750q-47 0 -76.5 28.5t-29.5 71.5t29.5 71.5t76.5 28.5t76.5 -28.5t29.5 -71.5t-29.5 -71.5t-76.5 -28.5zM315 899q-24 0 -37.5 -13.5t-13.5 -35.5t13.5 -35.5t37.5 -13.5q25 0 38.5 13.5t13.5 35.5t-13.5 35.5t-38.5 13.5zM611 23q4 -11 -0.5 -17t-15.5 -6h-32
q-17 0 -23 16l-59 156h-332l-59 -156q-6 -16 -23 -16h-32q-24 0 -16 23l254 661q6 16 23 16h38q17 0 23 -16zM174 238h282l-141 375z" />
    <glyph glyph-name="AE" unicode="&#xc6;" horiz-adv-x="880" 
d="M820 66q20 0 20 -20v-26q0 -20 -20 -20h-330h-20q-20 0 -20 20v152h-265l-97 -159q-7 -13 -24 -13h-36q-12 0 -15.5 7t2.5 17l130 212v2h1l275 449q8 13 24 13h35h40h295q20 0 20 -20v-26q0 -20 -20 -20h-295v-248h280q20 0 20 -20v-26q0 -20 -20 -20h-280v-254h300z
M225 238h225v369z" />
    <glyph glyph-name="Ccedilla" unicode="&#xc7;" horiz-adv-x="765" 
d="M711 220q11 0 16 -6t1 -15q-23 -58 -66.5 -104t-102.5 -73.5t-125 -32.5v-34q43 -8 68 -29t25 -52q0 -97 -186 -91q-19 1 -19 19v17q0 18 20 18q32 -2 56 0t39.5 6.5t23.5 12.5t8 18q0 34 -75 40q-18 2 -18 19v56q-147 11 -241.5 114t-94.5 247q0 152 104 257t263 105
q108 0 195.5 -57.5t124.5 -151.5q8 -23 -16 -23h-35q-16 0 -24 15q-31 67 -97.5 108t-147.5 41q-131 0 -214 -85t-83 -209t83 -209t214 -85q81 0 147.5 41t97.5 108q8 15 24 15h35z" />
    <glyph glyph-name="Egrave" unicode="&#xc8;" horiz-adv-x="520" 
d="M246 781l-72 97q-7 9 -3.5 15.5t14.5 6.5h39q14 0 21 -12l60 -96q5 -9 1.5 -15.5t-13.5 -6.5h-25q-14 0 -22 11zM460 66q20 0 20 -20v-26q0 -20 -20 -20h-350h-10q-20 0 -20 20v660q0 20 20 20h50h305q20 0 20 -20v-26q0 -20 -20 -20h-305v-248h280q20 0 20 -20v-26
q0 -20 -20 -20h-280v-254h310z" />
    <glyph glyph-name="Eacute" unicode="&#xc9;" horiz-adv-x="520" 
d="M253 770q-10 0 -13.5 6.5t1.5 15.5l60 96q7 12 21 12h39q11 0 14.5 -6.5t-3.5 -15.5l-72 -97q-8 -11 -22 -11h-25zM460 66q20 0 20 -20v-26q0 -20 -20 -20h-350h-10q-20 0 -20 20v660q0 20 20 20h50h305q20 0 20 -20v-26q0 -20 -20 -20h-305v-248h280q20 0 20 -20v-26
q0 -20 -20 -20h-280v-254h310z" />
    <glyph glyph-name="Ecircumflex" unicode="&#xca;" horiz-adv-x="520" 
d="M161 770q-11 0 -14 6.5t4 15.5l79 98q7 10 22 10h33h19q14 0 22 -10l79 -98q7 -9 4 -15.5t-14 -6.5h-33q-14 0 -22 11l-62 76l-62 -76q-8 -11 -22 -11h-33zM460 66q20 0 20 -20v-26q0 -20 -20 -20h-350h-10q-20 0 -20 20v660q0 20 20 20h50h305q20 0 20 -20v-26
q0 -20 -20 -20h-305v-248h280q20 0 20 -20v-26q0 -20 -20 -20h-280v-254h310z" />
    <glyph glyph-name="Edieresis" unicode="&#xcb;" horiz-adv-x="520" 
d="M156 780q-18 0 -18 18v44q0 18 18 18h44q18 0 18 -18v-44q0 -18 -18 -18h-44zM356 780q-18 0 -18 18v44q0 18 18 18h44q18 0 18 -18v-44q0 -18 -18 -18h-44zM460 66q20 0 20 -20v-26q0 -20 -20 -20h-350h-10q-20 0 -20 20v660q0 20 20 20h50h305q20 0 20 -20v-26
q0 -20 -20 -20h-305v-248h280q20 0 20 -20v-26q0 -20 -20 -20h-280v-254h310z" />
    <glyph glyph-name="Igrave" unicode="&#xcc;" horiz-adv-x="230" 
d="M130 770q10 0 13.5 6.5t-1.5 15.5l-60 96q-7 12 -21 12h-39q-11 0 -14.5 -6.5t3.5 -15.5l72 -97q8 -11 22 -11h25zM80 680q0 20 20 20h30q20 0 20 -20v-660q0 -20 -20 -20h-30q-20 0 -20 20v660z" />
    <glyph glyph-name="Iacute" unicode="&#xcd;" horiz-adv-x="230" 
d="M78 792q-5 -9 -1.5 -15.5t13.5 -6.5h25q14 0 22 11l72 97q7 9 3.5 15.5t-14.5 6.5h-39q-14 0 -21 -12zM80 680q0 20 20 20h30q20 0 20 -20v-660q0 -20 -20 -20h-30q-20 0 -20 20v660z" />
    <glyph glyph-name="Icircumflex" unicode="&#xce;" horiz-adv-x="230" 
d="M242 792q7 -9 4 -15.5t-14 -6.5h-33q-14 0 -22 11l-62 76l-62 -76q-8 -11 -22 -11h-33q-11 0 -14 6.5t4 15.5l79 98q8 10 22 10h33h19q15 0 22 -10zM130 700q20 0 20 -20v-660q0 -20 -20 -20h-30q-20 0 -20 20v660q0 20 20 20h30z" />
    <glyph glyph-name="Idieresis" unicode="&#xcf;" horiz-adv-x="230" 
d="M-7 780q-18 0 -18 18v44q0 18 18 18h44q18 0 18 -18v-44q0 -18 -18 -18h-44zM193 780q-18 0 -18 18v44q0 18 18 18h44q18 0 18 -18v-44q0 -18 -18 -18h-44zM80 680q0 20 20 20h30q20 0 20 -20v-660q0 -20 -20 -20h-30q-20 0 -20 20v660z" />
    <glyph glyph-name="Eth" unicode="&#xd0;" horiz-adv-x="760" 
d="M390 700q143 0 236.5 -101.5t93.5 -248.5t-93.5 -248.5t-236.5 -101.5h-260h-10q-20 0 -20 20v298h-50q-20 0 -20 20v24q0 20 20 20h50v298q0 20 20 20h50h220zM390 66q115 0 188.5 82t73.5 202t-73.5 202t-188.5 82h-220v-252h200q20 0 20 -20v-24q0 -20 -20 -20h-200
v-252h220z" />
    <glyph glyph-name="Ntilde" unicode="&#xd1;" 
d="M193 780q-19 0 -17 19q3 51 24.5 75t52 21t63.5 -28q20 -16 32.5 -23.5t23.5 -9.5t17 7t7 30q1 19 19 19h22q19 0 17 -19q-3 -51 -24.5 -75t-51.5 -21t-63 28q-20 16 -32.5 23.5t-24 9.5t-17.5 -7t-7 -30q-1 -19 -19 -19h-22zM480 680q0 20 20 20h30q20 0 20 -20v-660
q0 -20 -20 -20h-24q-17 0 -24 13l-332 547v-540q0 -20 -20 -20h-30q-20 0 -20 20v660q0 20 20 20h24q17 0 24 -13l332 -547v540z" />
    <glyph glyph-name="Ograve" unicode="&#xd2;" horiz-adv-x="804" 
d="M417 770q10 0 13.5 6.5t-1.5 15.5l-60 96q-7 12 -21 12h-39q-11 0 -14.5 -6.5t3.5 -15.5l72 -97q8 -11 22 -11h25zM402 -12q-152 0 -257 105.5t-105 256.5t105 256.5t257 105.5t257 -105.5t105 -256.5t-105 -256.5t-257 -105.5zM402 56q124 0 208 85.5t84 208.5
t-84 208.5t-208 85.5t-208 -85.5t-84 -208.5t84 -208.5t208 -85.5z" />
    <glyph glyph-name="Oacute" unicode="&#xd3;" horiz-adv-x="804" 
d="M365 792q-5 -9 -1.5 -15.5t13.5 -6.5h25q14 0 22 11l72 97q7 9 3.5 15.5t-14.5 6.5h-39q-14 0 -21 -12zM402 -12q-152 0 -257 105.5t-105 256.5t105 256.5t257 105.5t257 -105.5t105 -256.5t-105 -256.5t-257 -105.5zM402 56q124 0 208 85.5t84 208.5t-84 208.5
t-208 85.5t-208 -85.5t-84 -208.5t84 -208.5t208 -85.5z" />
    <glyph glyph-name="Ocircumflex" unicode="&#xd4;" horiz-adv-x="804" 
d="M285 770q-11 0 -14 6.5t4 15.5l79 98q8 10 22 10h33h19q14 0 22 -10l79 -98q7 -9 4 -15.5t-14 -6.5h-33q-14 0 -22 11l-62 76l-62 -76q-8 -11 -22 -11h-33zM402 712q152 0 257 -105.5t105 -256.5t-105 -256.5t-257 -105.5t-257 105.5t-105 256.5t105 256.5t257 105.5z
M402 56q124 0 208 85.5t84 208.5t-84 208.5t-208 85.5t-208 -85.5t-84 -208.5t84 -208.5t208 -85.5z" />
    <glyph glyph-name="Otilde" unicode="&#xd5;" horiz-adv-x="804" 
d="M280 780q-19 0 -17 19q3 51 24.5 75t52 21t63.5 -28q20 -16 32.5 -23.5t23.5 -9.5t17 7t7 30q1 19 19 19h22q19 0 17 -19q-3 -51 -24.5 -75t-51.5 -21t-63 28q-20 16 -32.5 23.5t-24 9.5t-17.5 -7t-7 -30q-1 -19 -19 -19h-22zM402 -12q-152 0 -257 105.5t-105 256.5
t105 256.5t257 105.5t257 -105.5t105 -256.5t-105 -256.5t-257 -105.5zM402 56q124 0 208 85.5t84 208.5t-84 208.5t-208 85.5t-208 -85.5t-84 -208.5t84 -208.5t208 -85.5z" />
    <glyph glyph-name="Odieresis" unicode="&#xd6;" horiz-adv-x="804" 
d="M280 780q-18 0 -18 18v44q0 18 18 18h44q18 0 18 -18v-44q0 -18 -18 -18h-44zM480 780q-18 0 -18 18v44q0 18 18 18h44q18 0 18 -18v-44q0 -18 -18 -18h-44zM402 -12q-152 0 -257 105.5t-105 256.5t105 256.5t257 105.5t257 -105.5t105 -256.5t-105 -256.5t-257 -105.5z
M402 56q124 0 208 85.5t84 208.5t-84 208.5t-208 85.5t-208 -85.5t-84 -208.5t84 -208.5t208 -85.5z" />
    <glyph glyph-name="multiply" unicode="&#xd7;" horiz-adv-x="471" 
d="M279 350l128 -128q13 -14 -1 -28l-16 -15q-14 -13 -28 1l-126 126l-127 -126q-15 -14 -28 -1l-16 15q-15 14 -1 28l128 128l-128 128q-14 14 1 28l16 15q13 13 28 -1l127 -126l126 126q14 14 28 1l16 -15q14 -14 1 -28z" />
    <glyph glyph-name="Oslash" unicode="&#xd8;" horiz-adv-x="814" 
d="M667 609q33 -33 57 -73.5t37 -88t13 -97.5q0 -151 -105 -256.5t-257 -105.5q-119 0 -214 68l-38 -45q-10 -11 -25 -11h-23q-13 0 -16 7.5t5 17.5l56 66q-51 50 -79 117t-28 142q0 99 47.5 182t131 131.5t183.5 48.5q119 0 214 -68l38 45q10 11 25 11h23q13 0 16 -7.5
t-5 -17.5zM120 350q0 -121 82 -206l379 447q-75 53 -169 53q-124 0 -208 -85.5t-84 -208.5zM412 56q124 0 208 85.5t84 208.5q0 121 -82 206l-379 -447q75 -53 169 -53z" />
    <glyph glyph-name="Ugrave" unicode="&#xd9;" horiz-adv-x="620" 
d="M325 770q10 0 13.5 6.5t-1.5 15.5l-60 96q-7 12 -21 12h-39q-11 0 -14.5 -6.5t3.5 -15.5l72 -97q8 -11 22 -11h25zM310 -12q-104 0 -172 58t-68 162v472q0 20 20 20h30q20 0 20 -20v-472q0 -74 46 -113t124 -39t124 39t46 113v472q0 20 20 20h30q20 0 20 -20v-472
q0 -104 -68 -162t-172 -58z" />
    <glyph glyph-name="Uacute" unicode="&#xda;" horiz-adv-x="620" 
d="M273 792q-5 -9 -1.5 -15.5t13.5 -6.5h25q14 0 22 11l72 97q7 9 3.5 15.5t-14.5 6.5h-39q-14 0 -21 -12zM310 -12q-104 0 -172 58t-68 162v472q0 20 20 20h30q20 0 20 -20v-472q0 -74 46 -113t124 -39t124 39t46 113v472q0 20 20 20h30q20 0 20 -20v-472q0 -104 -68 -162
t-172 -58z" />
    <glyph glyph-name="Ucircumflex" unicode="&#xdb;" horiz-adv-x="620" 
d="M193 770q-11 0 -14 6.5t4 15.5l79 98q7 10 22 10h33h19q14 0 22 -10l79 -98q7 -9 4 -15.5t-14 -6.5h-33q-14 0 -22 11l-62 76l-62 -76q-8 -11 -22 -11h-33zM530 700q20 0 20 -20v-472q0 -104 -68 -162t-172 -58t-172 58t-68 162v472q0 20 20 20h30q20 0 20 -20v-472
q0 -74 46 -113t124 -39t124 39t46 113v472q0 20 20 20h30z" />
    <glyph glyph-name="Udieresis" unicode="&#xdc;" horiz-adv-x="620" 
d="M188 780q-18 0 -18 18v44q0 18 18 18h44q18 0 18 -18v-44q0 -18 -18 -18h-44zM388 780q-18 0 -18 18v44q0 18 18 18h44q18 0 18 -18v-44q0 -18 -18 -18h-44zM310 -12q-104 0 -172 58t-68 162v472q0 20 20 20h30q20 0 20 -20v-472q0 -74 46 -113t124 -39t124 39t46 113
v472q0 20 20 20h30q20 0 20 -20v-472q0 -104 -68 -162t-172 -58z" />
    <glyph glyph-name="Yacute" unicode="&#xdd;" horiz-adv-x="575" 
d="M259 770q-10 0 -13.5 6.5t1.5 15.5l60 96q7 12 21 12h39q11 0 14.5 -6.5t-3.5 -15.5l-72 -97q-8 -11 -22 -11h-25zM536 700q12 0 16 -7t-3 -17l-227 -350v-306q0 -20 -20 -20h-30q-20 0 -20 20v308l-226 348q-7 10 -3 17t16 7h34q15 0 24 -13l191 -293l190 293
q9 13 24 13h34z" />
    <glyph glyph-name="Thorn" unicode="&#xde;" horiz-adv-x="580" 
d="M330 560q87 0 148.5 -61.5t61.5 -148.5q0 -86 -61.5 -148t-148.5 -62h-180v-120q0 -20 -20 -20h-30q-20 0 -20 20v660q0 20 20 20h30q20 0 20 -20v-120h180zM330 206q58 0 99 42.5t41 101.5q0 60 -41 102t-99 42h-180v-288h180z" />
    <glyph glyph-name="germandbls" unicode="&#xdf;" horiz-adv-x="496" 
d="M299 -4q-20 0 -20 21v20q0 19 21 19q110 2 110 85q0 32 -22.5 67t-49.5 60.5t-49.5 58.5t-22.5 62q0 25 22 52.5t44 58.5t22 65q0 42 -28 62.5t-71 20.5q-49 0 -84 -27.5t-35 -95.5v-505q0 -20 -20 -20h-26q-20 0 -20 20v505q0 90 52.5 138.5t132.5 48.5q75 0 120 -41
t45 -106q0 -41 -22 -76t-44 -59.5t-22 -40.5q0 -22 22.5 -49.5t49.5 -52t49.5 -64t22.5 -82.5q0 -66 -47.5 -106t-129.5 -39z" />
    <glyph glyph-name="agrave" unicode="&#xe0;" horiz-adv-x="498" 
d="M220 581l-72 97q-7 9 -3.5 15.5t14.5 6.5h39q14 0 21 -12l60 -96q5 -9 1.5 -15.5t-13.5 -6.5h-25q-14 0 -22 11zM250 512q85 0 137.5 -50.5t52.5 -136.5v-305q0 -20 -20 -20h-26q-20 0 -20 20v36q-48 -68 -155 -68q-74 0 -126.5 42t-52.5 119t52.5 119t126.5 42
q103 0 155 -65v80q0 63 -35.5 93t-88.5 30q-46 0 -80.5 -21.5t-41.5 -62.5q-5 -19 -21 -19h-26q-21 0 -20 21q8 65 60 105.5t129 40.5zM235 50q60 0 99.5 28t39.5 71q0 45 -39 72t-100 27q-64 0 -96.5 -27t-32.5 -72t32.5 -72t96.5 -27z" />
    <glyph glyph-name="aacute" unicode="&#xe1;" horiz-adv-x="498" 
d="M227 570q-10 0 -13.5 6.5t1.5 15.5l60 96q7 12 21 12h39q11 0 14.5 -6.5t-3.5 -15.5l-72 -97q-8 -11 -22 -11h-25zM250 512q85 0 137.5 -50.5t52.5 -136.5v-305q0 -20 -20 -20h-26q-20 0 -20 20v36q-48 -68 -155 -68q-74 0 -126.5 42t-52.5 119t52.5 119t126.5 42
q103 0 155 -65v80q0 63 -35.5 93t-88.5 30q-46 0 -80.5 -21.5t-41.5 -62.5q-5 -19 -21 -19h-26q-21 0 -20 21q8 65 60 105.5t129 40.5zM235 50q60 0 99.5 28t39.5 71q0 45 -39 72t-100 27q-64 0 -96.5 -27t-32.5 -72t32.5 -72t96.5 -27z" />
    <glyph glyph-name="acircumflex" unicode="&#xe2;" horiz-adv-x="498" 
d="M135 570q-11 0 -14 6.5t4 15.5l79 98q8 10 22 10h33h19q14 0 22 -10l79 -98q7 -9 4 -15.5t-14 -6.5h-33q-14 0 -22 11l-62 76l-62 -76q-8 -11 -22 -11h-33zM250 512q85 0 137.5 -50.5t52.5 -136.5v-305q0 -20 -20 -20h-26q-20 0 -20 20v36q-48 -68 -155 -68
q-74 0 -126.5 42t-52.5 119t52.5 119t126.5 42q103 0 155 -65v80q0 63 -35.5 93t-88.5 30q-46 0 -80.5 -21.5t-41.5 -62.5q-5 -19 -21 -19h-26q-21 0 -20 21q8 65 60 105.5t129 40.5zM235 50q60 0 99.5 28t39.5 71q0 45 -39 72t-100 27q-64 0 -96.5 -27t-32.5 -72t32.5 -72
t96.5 -27z" />
    <glyph glyph-name="atilde" unicode="&#xe3;" horiz-adv-x="498" 
d="M130 580q-19 0 -17 19q3 51 24.5 75t52 21t63.5 -28q20 -16 32.5 -23.5t23.5 -9.5t17 7t7 30q1 19 19 19h22q19 0 17 -19q-3 -51 -24.5 -75t-51.5 -21t-63 28q-20 16 -32.5 23.5t-24 9.5t-17.5 -7t-7 -30q-1 -19 -19 -19h-22zM250 512q85 0 137.5 -50.5t52.5 -136.5v-305
q0 -20 -20 -20h-26q-20 0 -20 20v36q-48 -68 -155 -68q-74 0 -126.5 42t-52.5 119t52.5 119t126.5 42q103 0 155 -65v80q0 63 -35.5 93t-88.5 30q-46 0 -80.5 -21.5t-41.5 -62.5q-5 -19 -21 -19h-26q-21 0 -20 21q8 65 60 105.5t129 40.5zM235 50q60 0 99.5 28t39.5 71
q0 45 -39 72t-100 27q-64 0 -96.5 -27t-32.5 -72t32.5 -72t96.5 -27z" />
    <glyph glyph-name="adieresis" unicode="&#xe4;" horiz-adv-x="498" 
d="M130 580q-18 0 -18 18v44q0 18 18 18h44q18 0 18 -18v-44q0 -18 -18 -18h-44zM330 580q-18 0 -18 18v44q0 18 18 18h44q18 0 18 -18v-44q0 -18 -18 -18h-44zM250 512q85 0 137.5 -50.5t52.5 -136.5v-305q0 -20 -20 -20h-26q-20 0 -20 20v36q-48 -68 -155 -68
q-74 0 -126.5 42t-52.5 119t52.5 119t126.5 42q103 0 155 -65v80q0 63 -35.5 93t-88.5 30q-46 0 -80.5 -21.5t-41.5 -62.5q-5 -19 -21 -19h-26q-21 0 -20 21q8 65 60 105.5t129 40.5zM235 50q60 0 99.5 28t39.5 71q0 45 -39 72t-100 27q-64 0 -96.5 -27t-32.5 -72t32.5 -72
t96.5 -27z" />
    <glyph glyph-name="aring" unicode="&#xe5;" horiz-adv-x="498" 
d="M252 550q-47 0 -76.5 28.5t-29.5 71.5t29.5 71.5t76.5 28.5t76.5 -28.5t29.5 -71.5t-29.5 -71.5t-76.5 -28.5zM252 699q-24 0 -37.5 -13.5t-13.5 -35.5t13.5 -35.5t37.5 -13.5q25 0 38.5 13.5t13.5 35.5t-13.5 35.5t-38.5 13.5zM250 512q85 0 137.5 -50.5t52.5 -136.5
v-305q0 -20 -20 -20h-26q-20 0 -20 20v36q-48 -68 -155 -68q-74 0 -126.5 42t-52.5 119t52.5 119t126.5 42q103 0 155 -65v80q0 63 -35.5 93t-88.5 30q-46 0 -80.5 -21.5t-41.5 -62.5q-5 -19 -21 -19h-26q-21 0 -20 21q8 65 60 105.5t129 40.5zM235 50q60 0 99.5 28t39.5 71
q0 45 -39 72t-100 27q-64 0 -96.5 -27t-32.5 -72t32.5 -72t96.5 -27z" />
    <glyph glyph-name="ae" unicode="&#xe6;" horiz-adv-x="840" 
d="M598 512q53 0 94 -22t66.5 -59t38.5 -83.5t13 -99.5v-12q-1 -19 -21 -19h-47h-301q5 -51 24.5 -88t53.5 -57t80 -20q43 0 72.5 18.5t42.5 49.5q6 17 22 17h33q11 0 16 -5.5t2 -13.5q-12 -39 -38 -68t-65 -45.5t-86 -16.5q-125 0 -181 102q-21 -48 -69.5 -75t-113.5 -27
q-83 0 -138.5 42t-55.5 119t52.5 119t126.5 42q31 0 60.5 -7t53.5 -19.5t41 -28.5v70q0 63 -35.5 93t-88.5 30q-46 0 -80.5 -21.5t-41.5 -62.5q-5 -19 -21 -19h-26q-21 0 -20 21q8 64 59 105t125 41q61 0 107 -26.5t68 -75.5q58 102 178 102zM441 281h302q-5 80 -44 123.5
t-99 43.5q-49 0 -84 -21.5t-52.5 -58.5t-22.5 -87zM238 50q63 0 99.5 27.5t36.5 71.5q0 45 -39 72t-100 27q-64 0 -96.5 -27t-32.5 -72q0 -44 35 -71.5t97 -27.5z" />
    <glyph glyph-name="ccedilla" unicode="&#xe7;" horiz-adv-x="573" 
d="M519 160q11 0 15.5 -6.5t0.5 -16.5q-24 -61 -79.5 -101t-126.5 -47v-34q43 -8 68 -29.5t25 -51.5q0 -97 -186 -91q-19 1 -19 19v17q0 18 20 18q62 -4 94.5 6t32.5 31q0 34 -75 40q-18 1 -18 19v57q-66 7 -119 42.5t-82.5 92.5t-29.5 125q0 111 75 186.5t188 75.5
q79 0 142 -41t90 -108q4 -10 -0.5 -16.5t-15.5 -6.5h-29q-16 0 -24 15q-23 43 -66 68t-97 25q-83 0 -140 -57.5t-57 -140.5t57 -140.5t140 -57.5q54 0 97.5 25t65.5 68q8 15 24 15h29z" />
    <glyph glyph-name="egrave" unicode="&#xe8;" horiz-adv-x="569" 
d="M263 581l-72 97q-7 9 -3.5 15.5t14.5 6.5h39q14 0 21 -12l60 -96q5 -9 1.5 -15.5t-13.5 -6.5h-25q-14 0 -22 11zM296 512q74 0 130.5 -37.5t84.5 -97t28 -129.5v-12q-1 -19 -21 -19h-47h-363q10 -76 61.5 -120.5t127.5 -44.5q49 0 86 19.5t57 51.5q9 14 24 14h32
q11 0 16.5 -5.5t1.5 -14.5q-26 -58 -84.5 -93.5t-133.5 -35.5q-114 0 -185 74t-71 188q0 112 71 187t185 75zM296 448q-78 0 -128.5 -46t-59.5 -121h363q-9 79 -58 123t-117 44z" />
    <glyph glyph-name="eacute" unicode="&#xe9;" horiz-adv-x="569" 
d="M270 570q-10 0 -13.5 6.5t1.5 15.5l60 96q7 12 21 12h39q11 0 14.5 -6.5t-3.5 -15.5l-72 -97q-8 -11 -22 -11h-25zM296 512q74 0 130.5 -37.5t84.5 -97t28 -129.5v-12q-1 -19 -21 -19h-47h-363q10 -76 61.5 -120.5t127.5 -44.5q49 0 86 19.5t57 51.5q9 14 24 14h32
q11 0 16.5 -5.5t1.5 -14.5q-26 -58 -84.5 -93.5t-133.5 -35.5q-114 0 -185 74t-71 188q0 112 71 187t185 75zM296 448q-78 0 -128.5 -46t-59.5 -121h363q-9 79 -58 123t-117 44z" />
    <glyph glyph-name="ecircumflex" unicode="&#xea;" horiz-adv-x="569" 
d="M178 570q-11 0 -14 6.5t4 15.5l79 98q7 10 22 10h33h19q15 0 22 -10l79 -98q7 -9 4 -15.5t-14 -6.5h-33q-14 0 -22 11l-62 76l-62 -76q-8 -11 -22 -11h-33zM296 512q74 0 130.5 -37.5t84.5 -97t28 -129.5v-12q-1 -19 -21 -19h-47h-363q10 -76 61.5 -120.5t127.5 -44.5
q49 0 86 19.5t57 51.5q9 14 24 14h32q11 0 16.5 -5.5t1.5 -14.5q-26 -58 -84.5 -93.5t-133.5 -35.5q-114 0 -185 74t-71 188q0 112 71 187t185 75zM296 448q-78 0 -128.5 -46t-59.5 -121h363q-9 79 -58 123t-117 44z" />
    <glyph glyph-name="edieresis" unicode="&#xeb;" horiz-adv-x="569" 
d="M173 580q-18 0 -18 18v44q0 18 18 18h44q18 0 18 -18v-44q0 -18 -18 -18h-44zM373 580q-18 0 -18 18v44q0 18 18 18h44q18 0 18 -18v-44q0 -18 -18 -18h-44zM296 512q74 0 130.5 -37.5t84.5 -97t28 -129.5v-12q-1 -19 -21 -19h-47h-363q10 -76 61.5 -120.5t127.5 -44.5
q49 0 86 19.5t57 51.5q9 14 24 14h32q11 0 16.5 -5.5t1.5 -14.5q-26 -58 -84.5 -93.5t-133.5 -35.5q-114 0 -185 74t-71 188q0 112 71 187t185 75zM296 448q-78 0 -128.5 -46t-59.5 -121h363q-9 79 -58 123t-117 44z" />
    <glyph glyph-name="igrave" unicode="&#xec;" horiz-adv-x="206" 
d="M86 570q-16 0 -23 14l-47 92q-5 10 -0.5 17t15.5 7h36q17 0 23 -16l35 -91q8 -23 -16 -23h-23zM90 0q-20 0 -20 20v460q0 20 20 20h26q20 0 20 -20v-460q0 -20 -20 -20h-26z" />
    <glyph glyph-name="iacute" unicode="&#xed;" horiz-adv-x="206" 
d="M82 593q-8 -23 16 -23h23q16 0 23 14l47 92q5 10 0.5 17t-15.5 7h-36q-17 0 -23 -16zM90 0q-20 0 -20 20v460q0 20 20 20h26q20 0 20 -20v-460q0 -20 -20 -20h-26z" />
    <glyph glyph-name="icircumflex" unicode="&#xee;" horiz-adv-x="206" 
d="M212 594q7 -10 3 -17t-16 -7h-30q-16 0 -25 13l-41 64l-42 -64q-9 -13 -24 -13h-30q-12 0 -16 7t3 17l61 93q9 13 25 13h29h17q16 0 25 -13zM116 500q20 0 20 -20v-460q0 -20 -20 -20h-26q-20 0 -20 20v460q0 20 20 20h26z" />
    <glyph glyph-name="idieresis" unicode="&#xef;" horiz-adv-x="206" 
d="M13 580q-20 0 -20 20v40q0 20 20 20h40q20 0 20 -20v-40q0 -20 -20 -20h-40zM153 580q-20 0 -20 20v40q0 20 20 20h40q20 0 20 -20v-40q0 -20 -20 -20h-40zM90 0q-20 0 -20 20v460q0 20 20 20h26q20 0 20 -20v-460q0 -20 -20 -20h-26z" />
    <glyph glyph-name="eth" unicode="&#xf0;" horiz-adv-x="586" 
d="M500 370q46 -62 46 -140q0 -108 -74.5 -175t-178.5 -67t-178.5 67t-74.5 175q0 104 72.5 170t170.5 66q45 0 80 -16l-89 119l-88 -54q-10 -7 -17 -3t-7 16v16q0 15 13 24l69 42l-49 66q-7 10 -3.5 17t15.5 7h32q16 0 24 -12l34 -45l88 54q11 7 17.5 3t6.5 -16v-16
q0 -15 -13 -24l-69 -42zM293 52q77 0 132 49t55 129q0 63 -30 103q-53 71 -155 71q-82 0 -135.5 -48t-53.5 -126q0 -80 55 -129t132 -49z" />
    <glyph glyph-name="ntilde" unicode="&#xf1;" horiz-adv-x="518" 
d="M143 580q-19 0 -17 19q3 51 24.5 75t52 21t63.5 -28q20 -16 32.5 -23.5t23.5 -9.5t17 7t7 30q1 19 19 19h22q19 0 17 -19q-3 -51 -24.5 -75t-51.5 -21t-63 28q-20 16 -32.5 23.5t-24 9.5t-17.5 -7t-7 -30q-1 -19 -19 -19h-22zM290 512q35 0 66 -13t54 -36.5t36.5 -58.5
t13.5 -77v-307q0 -20 -20 -20h-26q-20 0 -20 20v307q0 58 -32 89.5t-84 31.5q-59 0 -100.5 -40t-41.5 -126v-262q0 -20 -20 -20h-26q-20 0 -20 20v460q0 20 20 20h26q20 0 20 -20v-46q52 78 154 78z" />
    <glyph glyph-name="ograve" unicode="&#xf2;" horiz-adv-x="606" 
d="M318 570q10 0 13.5 6.5t-1.5 15.5l-60 96q-7 12 -21 12h-39q-11 0 -14.5 -6.5t3.5 -15.5l72 -97q8 -11 22 -11h25zM303 -12q-110 0 -186.5 75.5t-76.5 186.5t76.5 186.5t186.5 75.5t186.5 -75.5t76.5 -186.5t-76.5 -186.5t-186.5 -75.5zM303 52q83 0 140 57.5t57 140.5
t-57 140.5t-140 57.5t-140 -57.5t-57 -140.5t57 -140.5t140 -57.5z" />
    <glyph glyph-name="oacute" unicode="&#xf3;" horiz-adv-x="606" 
d="M266 592q-5 -9 -1.5 -15.5t13.5 -6.5h25q14 0 22 11l72 97q7 9 3.5 15.5t-14.5 6.5h-39q-14 0 -21 -12zM303 -12q-110 0 -186.5 75.5t-76.5 186.5t76.5 186.5t186.5 75.5t186.5 -75.5t76.5 -186.5t-76.5 -186.5t-186.5 -75.5zM303 52q83 0 140 57.5t57 140.5t-57 140.5
t-140 57.5t-140 -57.5t-57 -140.5t57 -140.5t140 -57.5z" />
    <glyph glyph-name="ocircumflex" unicode="&#xf4;" horiz-adv-x="606" 
d="M186 570q-11 0 -14 6.5t4 15.5l79 98q7 10 22 10h33h19q15 0 22 -10l79 -98q7 -9 4 -15.5t-14 -6.5h-33q-14 0 -22 11l-62 76l-62 -76q-8 -11 -22 -11h-33zM303 512q110 0 186.5 -75.5t76.5 -186.5t-76.5 -186.5t-186.5 -75.5t-186.5 75.5t-76.5 186.5t76.5 186.5
t186.5 75.5zM303 52q83 0 140 57.5t57 140.5t-57 140.5t-140 57.5t-140 -57.5t-57 -140.5t57 -140.5t140 -57.5z" />
    <glyph glyph-name="otilde" unicode="&#xf5;" horiz-adv-x="606" 
d="M181 580q-19 0 -17 19q3 51 24.5 75t52 21t63.5 -28q20 -16 32.5 -23.5t23.5 -9.5t17 7t7 30q1 19 19 19h22q19 0 17 -19q-3 -51 -24.5 -75t-51.5 -21t-63 28q-20 16 -32.5 23.5t-24 9.5t-17.5 -7t-7 -30q-1 -19 -19 -19h-22zM303 -12q-110 0 -186.5 75.5t-76.5 186.5
t76.5 186.5t186.5 75.5t186.5 -75.5t76.5 -186.5t-76.5 -186.5t-186.5 -75.5zM303 52q83 0 140 57.5t57 140.5t-57 140.5t-140 57.5t-140 -57.5t-57 -140.5t57 -140.5t140 -57.5z" />
    <glyph glyph-name="odieresis" unicode="&#xf6;" horiz-adv-x="606" 
d="M181 580q-18 0 -18 18v44q0 18 18 18h44q18 0 18 -18v-44q0 -18 -18 -18h-44zM381 580q-18 0 -18 18v44q0 18 18 18h44q18 0 18 -18v-44q0 -18 -18 -18h-44zM303 -12q-110 0 -186.5 75.5t-76.5 186.5t76.5 186.5t186.5 75.5t186.5 -75.5t76.5 -186.5t-76.5 -186.5
t-186.5 -75.5zM303 52q83 0 140 57.5t57 140.5t-57 140.5t-140 57.5t-140 -57.5t-57 -140.5t57 -140.5t140 -57.5z" />
    <glyph glyph-name="divide" unicode="&#xf7;" horiz-adv-x="580" 
d="M290 482q-23 0 -39 16t-16 39t16 39t39 16t39 -16t16 -39t-16 -39t-39 -16zM80 318q-20 0 -20 20v24q0 20 20 20h420q20 0 20 -20v-24q0 -20 -20 -20h-420zM290 108q-23 0 -39 16t-16 39t16 39t39 16t39 -16t16 -39t-16 -39t-39 -16z" />
    <glyph glyph-name="oslash" unicode="&#xf8;" horiz-adv-x="606" 
d="M490 435q76 -75 76 -185q0 -111 -76.5 -186.5t-186.5 -75.5q-84 0 -152 47l-20 -24q-10 -11 -25 -11h-15q-12 0 -14.5 7.5t5.5 17.5l34 40q-76 75 -76 185q0 111 76.5 186.5t186.5 75.5q84 0 152 -47l20 24q10 11 25 11h13q13 0 16 -7.5t-5 -17.5zM106 250q0 -79 52 -135
l255 301q-49 32 -110 32q-83 0 -140 -57.5t-57 -140.5zM303 52q83 0 140 57.5t57 140.5q0 79 -52 135l-255 -301q49 -32 110 -32z" />
    <glyph glyph-name="ugrave" unicode="&#xf9;" horiz-adv-x="518" 
d="M220 581l-72 97q-7 9 -3.5 15.5t14.5 6.5h39q14 0 21 -12l60 -96q5 -9 1.5 -15.5t-13.5 -6.5h-25q-14 0 -22 11zM428 500q20 0 20 -20v-460q0 -20 -20 -20h-26q-20 0 -20 20v46q-52 -78 -154 -78q-72 0 -121 50.5t-49 134.5v307q0 20 20 20h26q20 0 20 -20v-307
q0 -58 32 -89.5t84 -31.5q59 0 100.5 40t41.5 126v262q0 20 20 20h26z" />
    <glyph glyph-name="uacute" unicode="&#xfa;" horiz-adv-x="518" 
d="M227 570q-10 0 -13.5 6.5t1.5 15.5l60 96q7 12 21 12h39q11 0 14.5 -6.5t-3.5 -15.5l-72 -97q-8 -11 -22 -11h-25zM428 500q20 0 20 -20v-460q0 -20 -20 -20h-26q-20 0 -20 20v46q-52 -78 -154 -78q-72 0 -121 50.5t-49 134.5v307q0 20 20 20h26q20 0 20 -20v-307
q0 -58 32 -89.5t84 -31.5q59 0 100.5 40t41.5 126v262q0 20 20 20h26z" />
    <glyph glyph-name="ucircumflex" unicode="&#xfb;" horiz-adv-x="518" 
d="M135 570q-11 0 -14 6.5t4 15.5l79 98q8 10 22 10h33h19q14 0 22 -10l79 -98q7 -9 4 -15.5t-14 -6.5h-33q-14 0 -22 11l-62 76l-62 -76q-8 -11 -22 -11h-33zM428 500q20 0 20 -20v-460q0 -20 -20 -20h-26q-20 0 -20 20v46q-52 -78 -154 -78q-72 0 -121 50.5t-49 134.5v307
q0 20 20 20h26q20 0 20 -20v-307q0 -58 32 -89.5t84 -31.5q59 0 100.5 40t41.5 126v262q0 20 20 20h26z" />
    <glyph glyph-name="udieresis" unicode="&#xfc;" horiz-adv-x="518" 
d="M130 580q-18 0 -18 18v44q0 18 18 18h44q18 0 18 -18v-44q0 -18 -18 -18h-44zM330 580q-18 0 -18 18v44q0 18 18 18h44q18 0 18 -18v-44q0 -18 -18 -18h-44zM428 500q20 0 20 -20v-460q0 -20 -20 -20h-26q-20 0 -20 20v46q-52 -78 -154 -78q-72 0 -121 50.5t-49 134.5
v307q0 20 20 20h26q20 0 20 -20v-307q0 -58 32 -89.5t84 -31.5q59 0 100.5 40t41.5 126v262q0 20 20 20h26z" />
    <glyph glyph-name="yacute" unicode="&#xfd;" horiz-adv-x="470" 
d="M198 592q-5 -9 -1.5 -15.5t13.5 -6.5h25q14 0 22 11l72 97q7 9 3.5 15.5t-14.5 6.5h-39q-14 0 -21 -12zM384 484q6 16 23 16h29q24 0 16 -23l-235 -661q-6 -16 -23 -16h-29q-24 0 -16 23l64 181l-193 473q-10 23 15 23h28q18 0 23 -15l160 -389z" />
    <glyph glyph-name="thorn" unicode="&#xfe;" horiz-adv-x="636" 
d="M338 512q107 0 182.5 -76t75.5 -186t-75.5 -186t-182.5 -76q-66 0 -118 29t-84 81v-278q0 -20 -20 -20h-26q-20 0 -20 20v860q0 20 20 20h26q20 0 20 -20v-278q32 52 84 81t118 29zM333 52q83 0 140 57.5t57 140.5t-57 140.5t-140 57.5t-140 -57.5t-57 -140.5t57 -140.5
t140 -57.5z" />
    <glyph glyph-name="ydieresis" unicode="&#xff;" horiz-adv-x="470" 
d="M113 580q-18 0 -18 18v44q0 18 18 18h44q18 0 18 -18v-44q0 -18 -18 -18h-44zM313 580q-18 0 -18 18v44q0 18 18 18h44q18 0 18 -18v-44q0 -18 -18 -18h-44zM384 484q6 16 23 16h29q24 0 16 -23l-235 -661q-6 -16 -23 -16h-29q-24 0 -16 23l64 181l-193 473q-10 23 15 23
h28q18 0 23 -15l160 -389z" />
    <glyph glyph-name="Amacron" unicode="&#x100;" 
d="M203 780q-18 0 -18 18v22q0 18 18 18h224q18 0 18 -18v-22q0 -18 -18 -18h-224zM611 23q4 -11 -0.5 -17t-15.5 -6h-32q-17 0 -23 16l-59 156h-332l-59 -156q-6 -16 -23 -16h-32q-24 0 -16 23l254 661q6 16 23 16h38q17 0 23 -16zM174 238h282l-141 375z" />
    <glyph glyph-name="amacron" unicode="&#x101;" horiz-adv-x="498" 
d="M140 580q-18 0 -18 18v22q0 18 18 18h224q18 0 18 -18v-22q0 -18 -18 -18h-224zM250 512q85 0 137.5 -50.5t52.5 -136.5v-305q0 -20 -20 -20h-26q-20 0 -20 20v36q-48 -68 -155 -68q-74 0 -126.5 42t-52.5 119t52.5 119t126.5 42q103 0 155 -65v80q0 63 -35.5 93
t-88.5 30q-46 0 -80.5 -21.5t-41.5 -62.5q-5 -19 -21 -19h-26q-21 0 -20 21q8 65 60 105.5t129 40.5zM235 50q60 0 99.5 28t39.5 71q0 45 -39 72t-100 27q-64 0 -96.5 -27t-32.5 -72t32.5 -72t96.5 -27z" />
    <glyph glyph-name="Abreve" unicode="&#x102;" 
d="M315 762q-59 0 -96 29t-43 82q-2 19 17 19h29q16 0 18 -18q8 -54 75 -54t75 54q2 18 18 18h29q19 0 17 -18q-5 -54 -42 -83t-97 -29zM611 23q4 -11 -0.5 -17t-15.5 -6h-32q-17 0 -23 16l-59 156h-332l-59 -156q-6 -16 -23 -16h-32q-24 0 -16 23l254 661q6 16 23 16h38
q17 0 23 -16zM174 238h282l-141 375z" />
    <glyph glyph-name="abreve" unicode="&#x103;" horiz-adv-x="498" 
d="M252 562q-59 0 -96 29t-43 82q-2 19 17 19h29q17 0 18 -18q8 -54 75 -54t75 54q1 18 18 18h29q18 0 17 -18q-5 -54 -42 -83t-97 -29zM250 512q85 0 137.5 -50.5t52.5 -136.5v-305q0 -20 -20 -20h-26q-20 0 -20 20v36q-48 -68 -155 -68q-74 0 -126.5 42t-52.5 119
t52.5 119t126.5 42q103 0 155 -65v80q0 63 -35.5 93t-88.5 30q-46 0 -80.5 -21.5t-41.5 -62.5q-5 -19 -21 -19h-26q-21 0 -20 21q8 65 60 105.5t129 40.5zM235 50q60 0 99.5 28t39.5 71q0 45 -39 72t-100 27q-64 0 -96.5 -27t-32.5 -72t32.5 -72t96.5 -27z" />
    <glyph glyph-name="Aogonek" unicode="&#x104;" 
d="M601 -153q20 5 20 -14v-19q0 -16 -12 -19q-20 -7 -47 -7q-39 0 -60.5 21t-21.5 55q0 27 15 58.5t54 81.5q-6 5 -9 12l-59 156h-332l-59 -156q-6 -16 -23 -16h-32q-24 0 -16 23l254 661q6 16 23 16h38q17 0 23 -16l254 -661q9 -23 -10 -42q-56 -61 -56 -105q0 -37 56 -29z
M174 238h282l-141 375z" />
    <glyph glyph-name="aogonek" unicode="&#x105;" horiz-adv-x="498" 
d="M440 325v-305v-2q0 -17 -20 -37q-56 -61 -56 -105q0 -22 14.5 -27.5t41.5 -1.5q20 5 20 -14v-19q0 -16 -12 -19q-20 -7 -47 -7q-39 0 -60.5 21t-21.5 55q0 55 76 150q-1 3 -1 6v36q-48 -68 -155 -68q-74 0 -126.5 42t-52.5 119t52.5 119t126.5 42q103 0 155 -65v80
q0 63 -35.5 93t-88.5 30q-46 0 -80.5 -21.5t-41.5 -62.5q-5 -19 -21 -19h-26q-21 0 -20 21q8 65 60 105.5t129 40.5q85 0 137.5 -50.5t52.5 -136.5zM235 50q60 0 99.5 28t39.5 71q0 45 -39 72t-100 27q-64 0 -96.5 -27t-32.5 -72t32.5 -72t96.5 -27z" />
    <glyph glyph-name="Cacute" unicode="&#x106;" horiz-adv-x="765" 
d="M370 792q-5 -9 -1.5 -15.5t13.5 -6.5h25q14 0 22 11l72 97q7 9 3.5 15.5t-14.5 6.5h-39q-14 0 -21 -12zM407 -12q-159 0 -263 105t-104 257t104 257t263 105q108 0 195.5 -57.5t124.5 -151.5q8 -23 -16 -23h-35q-16 0 -24 15q-31 67 -97.5 108t-147.5 41q-131 0 -214 -85
t-83 -209t83 -209t214 -85q81 0 147.5 41t97.5 108q8 15 24 15h35q11 0 16 -6t1 -15q-37 -95 -124.5 -153t-196.5 -58z" />
    <glyph glyph-name="cacute" unicode="&#x107;" horiz-adv-x="573" 
d="M255 592q-5 -9 -1.5 -15.5t13.5 -6.5h25q14 0 22 11l72 97q7 9 3.5 15.5t-14.5 6.5h-39q-14 0 -21 -12zM519 160q11 0 15.5 -6.5t0.5 -16.5q-26 -67 -89.5 -108t-142.5 -41q-113 0 -188 75.5t-75 186.5t75 186.5t188 75.5q79 0 142 -41t90 -108q4 -10 -0.5 -16.5
t-15.5 -6.5h-29q-16 0 -24 15q-23 43 -66 68t-97 25q-83 0 -140 -57.5t-57 -140.5t57 -140.5t140 -57.5q54 0 97.5 25t65.5 68q8 15 24 15h29z" />
    <glyph glyph-name="Cdotaccent" unicode="&#x10a;" horiz-adv-x="765" 
d="M380 780q-18 0 -18 18v54q0 18 18 18h54q18 0 18 -18v-54q0 -18 -18 -18h-54zM407 -12q-159 0 -263 105t-104 257t104 257t263 105q108 0 195.5 -57.5t124.5 -151.5q8 -23 -16 -23h-35q-16 0 -24 15q-31 67 -97.5 108t-147.5 41q-131 0 -214 -85t-83 -209t83 -209
t214 -85q81 0 147.5 41t97.5 108q8 15 24 15h35q11 0 16 -6t1 -15q-37 -95 -124.5 -153t-196.5 -58z" />
    <glyph glyph-name="cdotaccent" unicode="&#x10b;" horiz-adv-x="573" 
d="M265 580q-18 0 -18 18v54q0 18 18 18h54q18 0 18 -18v-54q0 -18 -18 -18h-54zM519 160q11 0 15.5 -6.5t0.5 -16.5q-26 -67 -89.5 -108t-142.5 -41q-113 0 -188 75.5t-75 186.5t75 186.5t188 75.5q79 0 142 -41t90 -108q4 -10 -0.5 -16.5t-15.5 -6.5h-29q-16 0 -24 15
q-23 43 -66 68t-97 25q-83 0 -140 -57.5t-57 -140.5t57 -140.5t140 -57.5q54 0 97.5 25t65.5 68q8 15 24 15h29z" />
    <glyph glyph-name="Ccaron" unicode="&#x10c;" horiz-adv-x="765" 
d="M359 780l-79 98q-7 9 -4 15.5t14 6.5h33q14 0 22 -11l62 -76l62 76q8 11 22 11h33q11 0 14 -6.5t-4 -15.5l-79 -98q-7 -10 -22 -10h-33h-19q-15 0 -22 10zM711 220q11 0 16 -6t1 -15q-37 -95 -124.5 -153t-196.5 -58q-159 0 -263 105t-104 257t104 257t263 105
q108 0 195.5 -57.5t124.5 -151.5q8 -23 -16 -23h-35q-16 0 -24 15q-31 67 -97.5 108t-147.5 41q-131 0 -214 -85t-83 -209t83 -209t214 -85q81 0 147.5 41t97.5 108q8 15 24 15h35z" />
    <glyph glyph-name="ccaron" unicode="&#x10d;" horiz-adv-x="573" 
d="M244 580l-79 98q-7 9 -4 15.5t14 6.5h33q14 0 22 -11l62 -76l62 76q8 11 22 11h33q11 0 14 -6.5t-4 -15.5l-79 -98q-8 -10 -22 -10h-33h-19q-14 0 -22 10zM519 160q11 0 15.5 -6.5t0.5 -16.5q-26 -67 -89.5 -108t-142.5 -41q-113 0 -188 75.5t-75 186.5t75 186.5
t188 75.5q79 0 142 -41t90 -108q4 -10 -0.5 -16.5t-15.5 -6.5h-29q-16 0 -24 15q-23 43 -66 68t-97 25q-83 0 -140 -57.5t-57 -140.5t57 -140.5t140 -57.5q54 0 97.5 25t65.5 68q8 15 24 15h29z" />
    <glyph glyph-name="Dcaron" unicode="&#x10e;" horiz-adv-x="740" 
d="M302 780l-79 98q-7 9 -4 15.5t14 6.5h33q14 0 22 -11l62 -76l62 76q8 11 22 11h33q11 0 14 -6.5t-4 -15.5l-79 -98q-8 -10 -22 -10h-33h-19q-14 0 -22 10zM370 700q143 0 236.5 -101.5t93.5 -248.5t-93.5 -248.5t-236.5 -101.5h-260h-10q-20 0 -20 20v660q0 20 20 20h50
h220zM370 66q115 0 188.5 82t73.5 202t-73.5 202t-188.5 82h-220v-568h220z" />
    <glyph glyph-name="dcaron" unicode="&#x10f;" horiz-adv-x="702" 
d="M546 700q20 0 20 -20v-660q0 -20 -20 -20h-26q-20 0 -20 20v78q-32 -52 -84 -81t-118 -29q-107 0 -182.5 76t-75.5 186t75.5 186t182.5 76q44 0 82.5 -13.5t68.5 -38t51 -58.5v278q0 20 20 20h26zM690 700q21 0 18 -22l-23 -130q-3 -18 -21 -18h-7q-21 0 -20 21l8 130
q2 19 20 19h25zM303 52q83 0 140 57.5t57 140.5t-57 140.5t-140 57.5t-140 -57.5t-57 -140.5t57 -140.5t140 -57.5z" />
    <glyph glyph-name="Dcroat" unicode="&#x110;" horiz-adv-x="760" 
d="M390 700q143 0 236.5 -101.5t93.5 -248.5t-93.5 -248.5t-236.5 -101.5h-260h-10q-20 0 -20 20v298h-50q-20 0 -20 20v24q0 20 20 20h50v298q0 20 20 20h50h220zM390 66q115 0 188.5 82t73.5 202t-73.5 202t-188.5 82h-220v-252h200q20 0 20 -20v-24q0 -20 -20 -20h-200
v-252h220z" />
    <glyph glyph-name="dcroat" unicode="&#x111;" horiz-adv-x="646" 
d="M616 630q20 0 20 -20v-14q0 -20 -20 -20h-50v-556q0 -20 -20 -20h-26q-20 0 -20 20v78q-32 -52 -84 -81t-118 -29q-107 0 -182.5 76t-75.5 186t75.5 186t182.5 76q44 0 82.5 -13.5t68.5 -38t51 -58.5v174h-164q-20 0 -20 20v14q0 20 20 20h164v50q0 20 20 20h26
q20 0 20 -20v-50h50zM303 52q83 0 140 57.5t57 140.5t-57 140.5t-140 57.5t-140 -57.5t-57 -140.5t57 -140.5t140 -57.5z" />
    <glyph glyph-name="Emacron" unicode="&#x112;" horiz-adv-x="520" 
d="M166 780q-18 0 -18 18v22q0 18 18 18h224q18 0 18 -18v-22q0 -18 -18 -18h-224zM460 66q20 0 20 -20v-26q0 -20 -20 -20h-350h-10q-20 0 -20 20v660q0 20 20 20h50h305q20 0 20 -20v-26q0 -20 -20 -20h-305v-248h280q20 0 20 -20v-26q0 -20 -20 -20h-280v-254h310z" />
    <glyph glyph-name="emacron" unicode="&#x113;" horiz-adv-x="569" 
d="M183 580q-18 0 -18 18v22q0 18 18 18h224q18 0 18 -18v-22q0 -18 -18 -18h-224zM296 512q74 0 130.5 -37.5t84.5 -97t28 -129.5v-12q-1 -19 -21 -19h-47h-363q10 -76 61.5 -120.5t127.5 -44.5q49 0 86 19.5t57 51.5q9 14 24 14h32q11 0 16.5 -5.5t1.5 -14.5
q-26 -58 -84.5 -93.5t-133.5 -35.5q-114 0 -185 74t-71 188q0 112 71 187t185 75zM296 448q-78 0 -128.5 -46t-59.5 -121h363q-9 79 -58 123t-117 44z" />
    <glyph glyph-name="Edotaccent" unicode="&#x116;" horiz-adv-x="520" 
d="M251 780q-18 0 -18 18v54q0 18 18 18h54q18 0 18 -18v-54q0 -18 -18 -18h-54zM460 66q20 0 20 -20v-26q0 -20 -20 -20h-350h-10q-20 0 -20 20v660q0 20 20 20h50h305q20 0 20 -20v-26q0 -20 -20 -20h-305v-248h280q20 0 20 -20v-26q0 -20 -20 -20h-280v-254h310z" />
    <glyph glyph-name="edotaccent" unicode="&#x117;" horiz-adv-x="569" 
d="M268 580q-18 0 -18 18v54q0 18 18 18h54q18 0 18 -18v-54q0 -18 -18 -18h-54zM296 512q74 0 130.5 -37.5t84.5 -97t28 -129.5v-12q-1 -19 -21 -19h-47h-363q10 -76 61.5 -120.5t127.5 -44.5q49 0 86 19.5t57 51.5q9 14 24 14h32q11 0 16.5 -5.5t1.5 -14.5
q-26 -58 -84.5 -93.5t-133.5 -35.5q-114 0 -185 74t-71 188q0 112 71 187t185 75zM296 448q-78 0 -128.5 -46t-59.5 -121h363q-9 79 -58 123t-117 44z" />
    <glyph glyph-name="Eogonek" unicode="&#x118;" horiz-adv-x="520" 
d="M421 -212q-39 0 -60.5 21t-21.5 55q0 66 72 136h-311q-20 0 -20 20v660q0 20 20 20h355q20 0 20 -20v-26q0 -20 -20 -20h-305v-248h280q20 0 20 -20v-26q0 -20 -20 -20h-280v-254h310q20 0 20 -20v-31q0 -15 -11 -25q-65 -65 -65 -114q0 -37 54 -29q22 5 22 -16v-15
q0 -17 -16 -23q-22 -5 -43 -5z" />
    <glyph glyph-name="eogonek" unicode="&#x119;" horiz-adv-x="569" 
d="M296 512q74 0 130.5 -37.5t84.5 -97t28 -129.5v-12q-1 -19 -21 -19h-47h-363q10 -76 61.5 -120.5t127.5 -44.5q49 0 86 19.5t57 51.5q9 14 24 14h32q11 0 16.5 -5.5t1.5 -14.5q-16 -35 -44 -62q-115 -126 -115 -179q0 -22 14.5 -27.5t39.5 -1.5q22 5 22 -16v-15
q0 -18 -14 -22q-19 -6 -45 -6q-39 0 -60.5 21t-21.5 55q0 63 64 130q-28 -6 -58 -6q-114 0 -185 74t-71 188q0 112 71 187t185 75zM296 448q-78 0 -128.5 -46t-59.5 -121h363q-9 79 -58 123t-117 44z" />
    <glyph glyph-name="Ecaron" unicode="&#x11a;" horiz-adv-x="520" 
d="M230 780l-79 98q-7 9 -4 15.5t14 6.5h33q14 0 22 -11l62 -76l62 76q8 11 22 11h33q11 0 14 -6.5t-4 -15.5l-79 -98q-8 -10 -22 -10h-33h-19q-15 0 -22 10zM460 66q20 0 20 -20v-26q0 -20 -20 -20h-350h-10q-20 0 -20 20v660q0 20 20 20h50h305q20 0 20 -20v-26
q0 -20 -20 -20h-305v-248h280q20 0 20 -20v-26q0 -20 -20 -20h-280v-254h310z" />
    <glyph glyph-name="ecaron" unicode="&#x11b;" horiz-adv-x="569" 
d="M247 580l-79 98q-7 9 -4 15.5t14 6.5h33q14 0 22 -11l62 -76l62 76q8 11 22 11h33q11 0 14 -6.5t-4 -15.5l-79 -98q-7 -10 -22 -10h-33h-19q-15 0 -22 10zM296 512q74 0 130.5 -37.5t84.5 -97t28 -129.5v-12q-1 -19 -21 -19h-47h-363q10 -76 61.5 -120.5t127.5 -44.5
q49 0 86 19.5t57 51.5q9 14 24 14h32q11 0 16.5 -5.5t1.5 -14.5q-26 -58 -84.5 -93.5t-133.5 -35.5q-114 0 -185 74t-71 188q0 112 71 187t185 75zM296 448q-78 0 -128.5 -46t-59.5 -121h363q-9 79 -58 123t-117 44z" />
    <glyph glyph-name="Gbreve" unicode="&#x11e;" horiz-adv-x="795" 
d="M392 762q-59 0 -96 29t-43 82q-2 19 17 19h29q17 0 18 -18q8 -54 75 -54t75 54q1 18 18 18h29q18 0 17 -18q-5 -54 -42 -83t-97 -29zM710 353q20 0 20 -20v-46v-267q0 -20 -20 -20h-30q-20 0 -20 20v88q-39 -60 -107.5 -90t-150.5 -30q-156 0 -259 105t-103 257t103 257
t259 105q108 0 195.5 -57.5t124.5 -151.5q8 -23 -16 -23h-35q-17 0 -24 15q-31 67 -97.5 108t-147.5 41q-127 0 -209.5 -85t-82.5 -209t82.5 -209t209.5 -85q110 0 184 57t74 157v17h-220q-20 0 -20 20v26q0 20 20 20h270z" />
    <glyph glyph-name="gbreve" unicode="&#x11f;" horiz-adv-x="636" 
d="M308 562q-59 0 -96 29t-43 82q-2 19 17 19h29q17 0 18 -18q8 -54 75 -54t75 54q1 18 18 18h29q18 0 17 -18q-5 -54 -42 -83t-97 -29zM546 500q20 0 20 -20v-460q0 -109 -72.5 -170.5t-178.5 -61.5q-87 0 -157.5 48t-80.5 118q-1 21 20 21h26q17 0 21 -18q11 -41 57 -73
t114 -32q89 0 137 45t48 123v78q-32 -52 -84 -81t-118 -29q-107 0 -182.5 76t-75.5 186t75.5 186t182.5 76q44 0 82.5 -13.5t68.5 -38t51 -58.5v78q0 20 20 20h26zM303 52q83 0 140 57.5t57 140.5t-57 140.5t-140 57.5t-140 -57.5t-57 -140.5t57 -140.5t140 -57.5z" />
    <glyph glyph-name="Gdotaccent" unicode="&#x120;" horiz-adv-x="795" 
d="M365 780q-18 0 -18 18v54q0 18 18 18h54q18 0 18 -18v-54q0 -18 -18 -18h-54zM710 353q20 0 20 -20v-46v-267q0 -20 -20 -20h-30q-20 0 -20 20v88q-39 -60 -107.5 -90t-150.5 -30q-156 0 -259 105t-103 257t103 257t259 105q108 0 195.5 -57.5t124.5 -151.5
q8 -23 -16 -23h-35q-17 0 -24 15q-31 67 -97.5 108t-147.5 41q-127 0 -209.5 -85t-82.5 -209t82.5 -209t209.5 -85q110 0 184 57t74 157v17h-220q-20 0 -20 20v26q0 20 20 20h270z" />
    <glyph glyph-name="gdotaccent" unicode="&#x121;" horiz-adv-x="636" 
d="M281 580q-18 0 -18 18v54q0 18 18 18h54q18 0 18 -18v-54q0 -18 -18 -18h-54zM546 500q20 0 20 -20v-460q0 -109 -72.5 -170.5t-178.5 -61.5q-87 0 -157.5 48t-80.5 118q-1 21 20 21h26q17 0 21 -18q11 -41 57 -73t114 -32q89 0 137 45t48 123v78q-32 -52 -84 -81
t-118 -29q-107 0 -182.5 76t-75.5 186t75.5 186t182.5 76q44 0 82.5 -13.5t68.5 -38t51 -58.5v78q0 20 20 20h26zM303 52q83 0 140 57.5t57 140.5t-57 140.5t-140 57.5t-140 -57.5t-57 -140.5t57 -140.5t140 -57.5z" />
    <glyph glyph-name="Gcommaaccent" unicode="&#x122;" horiz-adv-x="795" 
d="M710 353q20 0 20 -20v-46v-267q0 -20 -20 -20h-30q-20 0 -20 20v88q-39 -60 -107.5 -90t-150.5 -30q-156 0 -259 105t-103 257t103 257t259 105q108 0 195.5 -57.5t124.5 -151.5q8 -23 -16 -23h-35q-17 0 -24 15q-31 67 -97.5 108t-147.5 41q-127 0 -209.5 -85
t-82.5 -209t82.5 -209t209.5 -85q110 0 184 57t74 157v17h-220q-20 0 -20 20v26q0 20 20 20h270zM441 -70q20 0 17 -19l-24 -135q-3 -16 -20 -16h-10q-20 0 -18 19l8 134q1 17 18 17h29z" />
    <glyph glyph-name="gcommaaccent" unicode="&#x123;" horiz-adv-x="636" 
d="M289 590q-20 0 -17 19l24 135q3 16 20 16h10q20 0 18 -19l-8 -134q-1 -17 -18 -17h-29zM546 500q20 0 20 -20v-460q0 -109 -72.5 -170.5t-178.5 -61.5q-87 0 -157.5 48t-80.5 118q-1 21 20 21h26q17 0 21 -18q11 -41 57 -73t114 -32q89 0 137 45t48 123v78
q-32 -52 -84 -81t-118 -29q-107 0 -182.5 76t-75.5 186t75.5 186t182.5 76q44 0 82.5 -13.5t68.5 -38t51 -58.5v78q0 20 20 20h26zM303 52q83 0 140 57.5t57 140.5t-57 140.5t-140 57.5t-140 -57.5t-57 -140.5t57 -140.5t140 -57.5z" />
    <glyph glyph-name="Hbar" unicode="&#x126;" horiz-adv-x="680" 
d="M620 568q20 0 20 -20v-16q0 -20 -20 -20h-45v-492q0 -20 -20 -20h-30q-20 0 -20 20v307h-330v-307q0 -20 -20 -20h-30q-20 0 -20 20v492h-45q-20 0 -20 20v16q0 20 20 20h45v112q0 20 20 20h30q20 0 20 -20v-112h330v112q0 20 20 20h30q20 0 20 -20v-112h45zM505 393v119
h-330v-119h330z" />
    <glyph glyph-name="hbar" unicode="&#x127;" horiz-adv-x="528" 
d="M300 512q72 0 121 -50.5t49 -134.5v-307q0 -20 -20 -20h-26q-20 0 -20 20v307q0 58 -32 89.5t-84 31.5q-59 0 -100.5 -40t-41.5 -126v-262q0 -20 -20 -20h-26q-20 0 -20 20v556h-50q-20 0 -20 20v14q0 20 20 20h50v50q0 20 20 20h26q20 0 20 -20v-50h124q20 0 20 -20v-14
q0 -20 -20 -20h-124v-142q52 78 154 78z" />
    <glyph glyph-name="Imacron" unicode="&#x12a;" horiz-adv-x="230" 
d="M3 780q-18 0 -18 18v22q0 18 18 18h224q18 0 18 -18v-22q0 -18 -18 -18h-224zM80 680q0 20 20 20h30q20 0 20 -20v-660q0 -20 -20 -20h-30q-20 0 -20 20v660z" />
    <glyph glyph-name="imacron" unicode="&#x12b;" horiz-adv-x="206" 
d="M23 580q-20 0 -20 20v18q0 20 20 20h160q20 0 20 -20v-18q0 -20 -20 -20h-160zM90 0q-20 0 -20 20v460q0 20 20 20h26q20 0 20 -20v-460q0 -20 -20 -20h-26z" />
    <glyph glyph-name="Iogonek" unicode="&#x12e;" horiz-adv-x="230" 
d="M159 -153q22 5 22 -16v-15q0 -17 -16 -23q-22 -5 -43 -5q-39 0 -60.5 21t-21.5 55q0 55 44 143q-4 5 -4 13v660q0 20 20 20h30q20 0 20 -20v-660v-1q0 -18 -11 -42q-3 -6 -10.5 -20.5t-11.5 -23.5t-8 -25t-4 -32q0 -37 54 -29z" />
    <glyph glyph-name="iogonek" unicode="&#x12f;" horiz-adv-x="206" 
d="M90 600q-20 0 -20 20v60q0 20 20 20h26q20 0 20 -20v-60q0 -20 -20 -20h-26zM149 -153q22 5 22 -16v-15q0 -17 -16 -23q-22 -5 -43 -5q-39 0 -60.5 21t-21.5 55q0 55 44 143q-4 5 -4 13v460q0 20 20 20h26q20 0 20 -20v-460v-1q0 -18 -11 -42q-2 -3 -8 -16t-8.5 -19
t-6.5 -17.5t-5.5 -23.5t-1.5 -25q0 -37 54 -29z" />
    <glyph glyph-name="Idotaccent" unicode="&#x130;" horiz-adv-x="230" 
d="M88 780q-18 0 -18 18v54q0 18 18 18h54q18 0 18 -18v-54q0 -18 -18 -18h-54zM80 680q0 20 20 20h30q20 0 20 -20v-660q0 -20 -20 -20h-30q-20 0 -20 20v660z" />
    <glyph glyph-name="dotlessi" unicode="&#x131;" horiz-adv-x="206" 
d="M90 0q-20 0 -20 20v460q0 20 20 20h26q20 0 20 -20v-460q0 -20 -20 -20h-26z" />
    <glyph glyph-name="Kcommaaccent" unicode="&#x136;" horiz-adv-x="580" 
d="M546 25q9 -10 6 -17.5t-16 -7.5h-43q-16 0 -25 10l-318 329v-319q0 -20 -20 -20h-30q-20 0 -20 20v660q0 20 20 20h30q20 0 20 -20v-300l308 310q10 10 24 10h43q13 0 16.5 -8t-5.5 -17l-312 -315zM321 -70q20 0 17 -19l-24 -135q-3 -16 -20 -16h-10q-20 0 -18 19l8 134
q1 17 18 17h29z" />
    <glyph glyph-name="kcommaaccent" unicode="&#x137;" horiz-adv-x="494" 
d="M448 25q10 -9 6.5 -17t-16.5 -8h-38q-14 0 -24 10l-240 231v-221q0 -20 -20 -20h-26q-20 0 -20 20v660q0 20 20 20h26q20 0 20 -20v-402l230 212q10 10 24 10h38q14 0 16.5 -7.5t-7.5 -17.5l-233 -215zM279 -70q20 0 17 -19l-24 -135q-3 -16 -20 -16h-10q-20 0 -18 19
l8 134q1 17 18 17h29z" />
    <glyph glyph-name="Lacute" unicode="&#x139;" horiz-adv-x="490" 
d="M107 770q-10 0 -13.5 6.5t1.5 15.5l60 96q7 12 21 12h39q11 0 14.5 -6.5t-3.5 -15.5l-72 -97q-8 -11 -22 -11h-25zM450 66q20 0 20 -20v-26q0 -20 -20 -20h-330h-20q-20 0 -20 20v660q0 20 20 20h30q20 0 20 -20v-614h300z" />
    <glyph glyph-name="lacute" unicode="&#x13a;" horiz-adv-x="206" 
d="M83 792q-5 -9 -1.5 -15.5t13.5 -6.5h25q14 0 22 11l72 97q7 9 3.5 15.5t-14.5 6.5h-39q-14 0 -21 -12zM90 0q-20 0 -20 20v680q0 20 20 20h26q20 0 20 -20v-680q0 -20 -20 -20h-26z" />
    <glyph glyph-name="Lcommaaccent" unicode="&#x13b;" horiz-adv-x="490" 
d="M450 66q20 0 20 -20v-26q0 -20 -20 -20h-330h-20q-20 0 -20 20v660q0 20 20 20h30q20 0 20 -20v-614h300zM299 -70q20 0 17 -19l-24 -135q-3 -16 -20 -16h-10q-20 0 -18 19l8 134q1 17 18 17h29z" />
    <glyph glyph-name="lcommaaccent" unicode="&#x13c;" horiz-adv-x="206" 
d="M90 0q-20 0 -20 20v680q0 20 20 20h26q20 0 20 -20v-680q0 -20 -20 -20h-26zM90 -240q17 0 20 16l24 135q3 19 -17 19h-29q-17 0 -18 -17l-8 -134q-2 -19 18 -19h10z" />
    <glyph glyph-name="Lcaron" unicode="&#x13d;" horiz-adv-x="490" 
d="M450 66q20 0 20 -20v-26q0 -20 -20 -20h-330h-20q-20 0 -20 20v660q0 20 20 20h30q20 0 20 -20v-614h300zM277 530q-21 0 -20 21l8 130q2 19 20 19h25q21 0 18 -22l-23 -130q-3 -18 -21 -18h-7z" />
    <glyph glyph-name="lcaron" unicode="&#x13e;" horiz-adv-x="272" 
d="M90 0q-20 0 -20 20v680q0 20 20 20h26q20 0 20 -20v-680q0 -20 -20 -20h-26zM234 550q18 0 21 18l23 130q3 22 -18 22h-25q-18 0 -20 -19l-8 -130q-1 -21 20 -21h7z" />
    <glyph glyph-name="Lslash" unicode="&#x141;" horiz-adv-x="510" 
d="M470 66q20 0 20 -20v-26q0 -20 -20 -20h-330h-20q-20 0 -20 20v229l-36 -24q-10 -7 -17 -3t-7 16v18q0 16 13 25l47 31v368q0 20 20 20h30q20 0 20 -20v-322l146 95q10 7 17 3t7 -16v-18q0 -16 -13 -25l-157 -103v-228h300z" />
    <glyph glyph-name="lslash" unicode="&#x142;" horiz-adv-x="240" 
d="M196 443q10 7 17 3.5t7 -15.5v-19q0 -15 -13 -24l-54 -37v-331q0 -20 -20 -20h-26q-20 0 -20 20v286l-43 -29q-10 -7 -17 -3.5t-7 15.5v19q0 15 13 24l54 37v331q0 20 20 20h26q20 0 20 -20v-286z" />
    <glyph glyph-name="Nacute" unicode="&#x143;" 
d="M278 792q-5 -9 -1.5 -15.5t13.5 -6.5h25q14 0 22 11l72 97q7 9 3.5 15.5t-14.5 6.5h-39q-14 0 -21 -12zM480 680q0 20 20 20h30q20 0 20 -20v-660q0 -20 -20 -20h-24q-17 0 -24 13l-332 547v-540q0 -20 -20 -20h-30q-20 0 -20 20v660q0 20 20 20h24q17 0 24 -13l332 -547
v540z" />
    <glyph glyph-name="nacute" unicode="&#x144;" horiz-adv-x="518" 
d="M240 570q-10 0 -13.5 6.5t1.5 15.5l60 96q7 12 21 12h39q11 0 14.5 -6.5t-3.5 -15.5l-72 -97q-8 -11 -22 -11h-25zM290 512q35 0 66 -13t54 -36.5t36.5 -58.5t13.5 -77v-307q0 -20 -20 -20h-26q-20 0 -20 20v307q0 58 -32 89.5t-84 31.5q-59 0 -100.5 -40t-41.5 -126
v-262q0 -20 -20 -20h-26q-20 0 -20 20v460q0 20 20 20h26q20 0 20 -20v-46q52 78 154 78z" />
    <glyph glyph-name="Ncommaaccent" unicode="&#x145;" 
d="M480 680q0 20 20 20h30q20 0 20 -20v-660q0 -20 -20 -20h-24q-17 0 -24 13l-332 547v-540q0 -20 -20 -20h-30q-20 0 -20 20v660q0 20 20 20h24q17 0 24 -13l332 -547v540zM302 -240q17 0 20 16l24 135q3 19 -17 19h-29q-17 0 -18 -17l-8 -134q-2 -19 18 -19h10z" />
    <glyph glyph-name="ncommaaccent" unicode="&#x146;" horiz-adv-x="518" 
d="M290 512q35 0 66 -13t54 -36.5t36.5 -58.5t13.5 -77v-307q0 -20 -20 -20h-26q-20 0 -20 20v307q0 58 -32 89.5t-84 31.5q-59 0 -100.5 -40t-41.5 -126v-262q0 -20 -20 -20h-26q-20 0 -20 20v460q0 20 20 20h26q20 0 20 -20v-46q52 78 154 78zM282 -70q20 0 17 -19
l-24 -135q-3 -16 -20 -16h-10q-20 0 -18 19l8 134q1 17 18 17h29z" />
    <glyph glyph-name="Ncaron" unicode="&#x147;" 
d="M267 780l-79 98q-7 9 -4 15.5t14 6.5h33q14 0 22 -11l62 -76l62 76q8 11 22 11h33q11 0 14 -6.5t-4 -15.5l-79 -98q-7 -10 -22 -10h-33h-19q-15 0 -22 10zM530 700q20 0 20 -20v-660q0 -20 -20 -20h-24q-17 0 -24 13l-332 547v-540q0 -20 -20 -20h-30q-20 0 -20 20v660
q0 20 20 20h24q17 0 24 -13l332 -547v540q0 20 20 20h30z" />
    <glyph glyph-name="ncaron" unicode="&#x148;" horiz-adv-x="518" 
d="M217 580l-79 98q-7 9 -4 15.5t14 6.5h33q14 0 22 -11l62 -76l62 76q8 11 22 11h33q11 0 14 -6.5t-4 -15.5l-79 -98q-7 -10 -22 -10h-33h-19q-15 0 -22 10zM290 512q35 0 66 -13t54 -36.5t36.5 -58.5t13.5 -77v-307q0 -20 -20 -20h-26q-20 0 -20 20v307q0 58 -32 89.5
t-84 31.5q-59 0 -100.5 -40t-41.5 -126v-262q0 -20 -20 -20h-26q-20 0 -20 20v460q0 20 20 20h26q20 0 20 -20v-46q52 78 154 78z" />
    <glyph glyph-name="Eng" unicode="&#x14a;" 
d="M530 700q20 0 20 -20v-660v-20q0 -190 -190 -199q-20 -2 -20 19v28q0 20 20 20q59 3 89.5 31t30.5 101v16l-330 544v-540q0 -20 -20 -20h-30q-20 0 -20 20v660q0 20 20 20h24q17 0 24 -13l332 -547v540q0 20 20 20h30z" />
    <glyph glyph-name="eng" unicode="&#x14b;" horiz-adv-x="518" 
d="M290 512q35 0 66 -13t54 -36.5t36.5 -58.5t13.5 -77v-367q0 -56 -18.5 -95.5t-54.5 -59t-87 -18.5q-20 0 -20 20v24q0 20 21 20q48 -1 70.5 25t22.5 84v367q0 58 -32 89.5t-84 31.5q-59 0 -100.5 -40t-41.5 -126v-262q0 -20 -20 -20h-26q-20 0 -20 20v460q0 20 20 20h26
q20 0 20 -20v-46q52 78 154 78z" />
    <glyph glyph-name="Omacron" unicode="&#x14c;" horiz-adv-x="804" 
d="M290 780q-18 0 -18 18v22q0 18 18 18h224q18 0 18 -18v-22q0 -18 -18 -18h-224zM402 -12q-152 0 -257 105.5t-105 256.5t105 256.5t257 105.5t257 -105.5t105 -256.5t-105 -256.5t-257 -105.5zM402 56q124 0 208 85.5t84 208.5t-84 208.5t-208 85.5t-208 -85.5
t-84 -208.5t84 -208.5t208 -85.5z" />
    <glyph glyph-name="omacron" unicode="&#x14d;" horiz-adv-x="606" 
d="M191 580q-18 0 -18 18v22q0 18 18 18h224q18 0 18 -18v-22q0 -18 -18 -18h-224zM303 -12q-110 0 -186.5 75.5t-76.5 186.5t76.5 186.5t186.5 75.5t186.5 -75.5t76.5 -186.5t-76.5 -186.5t-186.5 -75.5zM303 52q83 0 140 57.5t57 140.5t-57 140.5t-140 57.5t-140 -57.5
t-57 -140.5t57 -140.5t140 -57.5z" />
    <glyph glyph-name="Ohungarumlaut" unicode="&#x150;" horiz-adv-x="804" 
d="M294 791q-11 -21 12 -21h30q14 0 21 12l56 96q5 10 2 16t-14 6h-35q-13 0 -21 -13zM438 792q-5 -9 -1.5 -15.5t13.5 -6.5h29q15 0 22 12l64 96q6 10 2.5 16t-14.5 6h-34q-14 0 -21 -12zM402 -12q-152 0 -257 105.5t-105 256.5t105 256.5t257 105.5t257 -105.5t105 -256.5
t-105 -256.5t-257 -105.5zM402 56q124 0 208 85.5t84 208.5t-84 208.5t-208 85.5t-208 -85.5t-84 -208.5t84 -208.5t208 -85.5z" />
    <glyph glyph-name="ohungarumlaut" unicode="&#x151;" horiz-adv-x="606" 
d="M195 591q-11 -21 12 -21h30q13 0 21 12l56 96q5 10 2 16t-14 6h-35q-13 0 -21 -13zM339 592q-5 -9 -1.5 -15.5t13.5 -6.5h29q14 0 22 12l64 96q6 10 2.5 16t-14.5 6h-34q-14 0 -21 -12zM303 -12q-110 0 -186.5 75.5t-76.5 186.5t76.5 186.5t186.5 75.5t186.5 -75.5
t76.5 -186.5t-76.5 -186.5t-186.5 -75.5zM303 52q83 0 140 57.5t57 140.5t-57 140.5t-140 57.5t-140 -57.5t-57 -140.5t57 -140.5t140 -57.5z" />
    <glyph glyph-name="OE" unicode="&#x152;" horiz-adv-x="915" 
d="M855 66q20 0 20 -20v-26q0 -20 -20 -20h-340h-30q-43 -12 -93 -12q-151 0 -251.5 105t-100.5 257t100.5 257t251.5 105q50 0 93 -12h70h295q20 0 20 -20v-26q0 -20 -20 -20h-295v-248h280q20 0 20 -20v-26q0 -20 -20 -20h-280v-254h300zM485 71v558q-43 15 -93 15
q-123 0 -202.5 -85t-79.5 -209t79.5 -209t202.5 -85q50 0 93 15z" />
    <glyph glyph-name="oe" unicode="&#x153;" horiz-adv-x="1029" 
d="M754 512q74 0 131 -37.5t85.5 -97.5t28.5 -129v-12q-1 -19 -21 -19h-47h-363q7 -50 32.5 -87.5t66 -57.5t90.5 -20q49 0 86 19.5t57 51.5q9 14 24 14h32q11 0 16 -5.5t1 -14.5q-17 -38 -49 -67t-76 -45.5t-94 -16.5q-81 0 -138.5 38.5t-84.5 106.5q-30 -66 -90.5 -105.5
t-137.5 -39.5q-113 0 -188 75t-75 187t75 187t188 75q77 0 137.5 -39.5t90.5 -105.5q28 67 85 106t138 39zM303 52q83 0 140 57.5t57 140.5t-57 140.5t-140 57.5q-87 0 -142 -57t-55 -141t55 -141t142 -57zM756 448q-78 0 -128.5 -46t-59.5 -121h363q-9 79 -58 123t-117 44z
" />
    <glyph glyph-name="Racute" unicode="&#x154;" 
d="M255 770q-10 0 -13.5 6.5t1.5 15.5l60 96q7 12 21 12h39q11 0 14.5 -6.5t-3.5 -15.5l-72 -97q-8 -11 -22 -11h-25zM618 25q8 -10 5 -17.5t-16 -7.5h-40q-15 0 -25 11l-236 269h-156v-260q0 -20 -20 -20h-30q-20 0 -20 20v660q0 20 20 20h50h180q87 0 148.5 -61.5
t61.5 -148.5q0 -35 -11.5 -68.5t-32 -59.5t-49 -45.5t-61.5 -28.5zM150 634v-288h180q58 0 99 42.5t41 101.5q0 60 -41 102t-99 42h-180z" />
    <glyph glyph-name="racute" unicode="&#x155;" horiz-adv-x="314" 
d="M157 570q-10 0 -13.5 6.5t1.5 15.5l60 96q7 12 21 12h39q11 0 14.5 -6.5t-3.5 -15.5l-72 -97q-8 -11 -22 -11h-25zM274 507q20 2 20 -19v-24q0 -20 -13 -20q-63 -4 -104 -44t-41 -122v-258q0 -20 -20 -20h-26q-20 0 -20 20v460q0 20 20 20h26q20 0 20 -20v-57
q46 77 138 84z" />
    <glyph glyph-name="Rcommaaccent" unicode="&#x156;" 
d="M618 25q8 -10 5 -17.5t-16 -7.5h-40q-15 0 -25 11l-236 269h-156v-260q0 -20 -20 -20h-30q-20 0 -20 20v660q0 20 20 20h50h180q87 0 148.5 -61.5t61.5 -148.5q0 -35 -11.5 -68.5t-32 -59.5t-49 -45.5t-61.5 -28.5zM150 634v-288h180q58 0 99 42.5t41 101.5q0 60 -41 102
t-99 42h-180zM364 -70q20 0 17 -19l-24 -135q-3 -16 -20 -16h-10q-20 0 -18 19l8 134q1 17 18 17h29z" />
    <glyph glyph-name="rcommaaccent" unicode="&#x157;" horiz-adv-x="314" 
d="M274 507q20 2 20 -19v-24q0 -20 -13 -20q-63 -4 -104 -44t-41 -122v-258q0 -20 -20 -20h-26q-20 0 -20 20v460q0 20 20 20h26q20 0 20 -20v-57q46 77 138 84zM117 -70q20 0 17 -19l-24 -135q-3 -16 -20 -16h-10q-20 0 -18 19l8 134q1 17 18 17h29z" />
    <glyph glyph-name="Rcaron" unicode="&#x158;" 
d="M232 780l-79 98q-7 9 -4 15.5t14 6.5h33q14 0 22 -11l62 -76l62 76q8 11 22 11h33q11 0 14 -6.5t-4 -15.5l-79 -98q-8 -10 -22 -10h-33h-19q-14 0 -22 10zM618 25q8 -10 5 -17.5t-16 -7.5h-40q-15 0 -25 11l-236 269h-156v-260q0 -20 -20 -20h-30q-20 0 -20 20v660
q0 20 20 20h50h180q87 0 148.5 -61.5t61.5 -148.5q0 -35 -11.5 -68.5t-32 -59.5t-49 -45.5t-61.5 -28.5zM150 634v-288h180q58 0 99 42.5t41 101.5q0 60 -41 102t-99 42h-180z" />
    <glyph glyph-name="rcaron" unicode="&#x159;" horiz-adv-x="314" 
d="M299 700q11 0 14 -6.5t-4 -15.5l-79 -98q-8 -10 -22 -10h-33h-19q-14 0 -22 10l-79 98q-7 9 -4 15.5t14 6.5h33q14 0 22 -11l62 -76l62 76q8 11 22 11h33zM274 507q20 2 20 -19v-24q0 -20 -13 -20q-63 -4 -104 -44t-41 -122v-258q0 -20 -20 -20h-26q-20 0 -20 20v460
q0 20 20 20h26q20 0 20 -20v-57q46 77 138 84z" />
    <glyph glyph-name="Sacute" unicode="&#x15a;" horiz-adv-x="550" 
d="M234 792q-5 -9 -1.5 -15.5t13.5 -6.5h25q14 0 22 11l72 97q7 9 3.5 15.5t-14.5 6.5h-39q-14 0 -21 -12zM285 -12q-98 0 -167.5 51.5t-76.5 142.5q-1 21 19 21h31q18 0 20 -20q7 -61 54.5 -94t119.5 -33q66 0 110.5 33t44.5 88q0 51 -40 81t-117 59q-105 39 -139 62
q-84 54 -84 150q0 83 62.5 133t148.5 50q87 0 149 -48t69 -131q1 -21 -19 -21h-31q-18 0 -20 19q-7 54 -47.5 83.5t-100.5 29.5t-100.5 -30.5t-40.5 -84.5t38 -83.5t116 -59.5q107 -42 143 -65q83 -54 83 -144q0 -85 -66.5 -137t-158.5 -52z" />
    <glyph glyph-name="sacute" unicode="&#x15b;" horiz-adv-x="460" 
d="M205 570q-10 0 -13.5 6.5t1.5 15.5l60 96q7 12 21 12h39q11 0 14.5 -6.5t-3.5 -15.5l-72 -97q-8 -11 -22 -11h-25zM121 369q0 -35 30.5 -55t73.5 -30.5t86 -23.5t73.5 -45t30.5 -84q0 -62 -51.5 -102.5t-133.5 -40.5q-77 0 -127 36.5t-57 99.5q-2 21 20 21h26
q16 0 21 -19q12 -74 117 -74q51 0 85 19.5t34 59.5q0 35 -30.5 55t-73.5 30.5t-86 23.5t-73.5 45t-30.5 84q0 62 49.5 102.5t125.5 40.5q71 0 119 -37t55 -99q2 -21 -20 -21h-26q-16 0 -21 19q-6 38 -36.5 56t-70.5 18q-44 0 -76.5 -20t-32.5 -59z" />
    <glyph glyph-name="Scedilla" unicode="&#x15e;" horiz-adv-x="550" 
d="M510 177q0 -80 -59 -131t-145 -57v-34q43 -8 68 -29t25 -52q0 -97 -186 -91q-19 1 -19 19v17q0 18 20 18q32 -2 56 0t39.5 6.5t23.5 12.5t8 18q0 34 -75 40q-18 2 -18 19v57q-86 10 -143 60t-64 132q-1 21 19 21h31q18 0 20 -20q7 -61 54.5 -94t119.5 -33q66 0 110.5 33
t44.5 88q0 51 -40 81t-117 59q-105 39 -139 62q-84 54 -84 150q0 83 62.5 133t148.5 50q87 0 149 -48t69 -131q1 -21 -19 -21h-31q-18 0 -20 19q-7 54 -47.5 83.5t-100.5 29.5t-100.5 -30.5t-40.5 -84.5t38 -83.5t116 -59.5q107 -42 143 -65q83 -54 83 -144z" />
    <glyph glyph-name="scedilla" unicode="&#x15f;" horiz-adv-x="460" 
d="M415 131q0 -56 -42.5 -95t-113.5 -47v-34q43 -8 68 -29t25 -52q0 -97 -186 -91q-19 1 -19 19v17q0 18 20 18q127 -7 127 37q0 34 -75 40q-18 2 -18 19v56q-66 7 -107 42.5t-48 92.5q-2 21 20 21h26q16 0 21 -19q12 -74 117 -74q51 0 85 19.5t34 59.5q0 35 -30.5 55
t-73.5 30.5t-86 23.5t-73.5 45t-30.5 84q0 62 49.5 102.5t125.5 40.5q71 0 119 -37t55 -99q2 -21 -20 -21h-26q-16 0 -21 19q-6 38 -36.5 56t-70.5 18q-44 0 -76.5 -20t-32.5 -59q0 -35 30.5 -55t73.5 -30.5t86 -23.5t73.5 -45t30.5 -84z" />
    <glyph glyph-name="Scaron" unicode="&#x160;" horiz-adv-x="550" 
d="M223 780l-79 98q-7 9 -4 15.5t14 6.5h33q14 0 22 -11l62 -76l62 76q8 11 22 11h33q11 0 14 -6.5t-4 -15.5l-79 -98q-7 -10 -22 -10h-33h-19q-15 0 -22 10zM284 386q107 -42 143 -65q83 -54 83 -144q0 -85 -66.5 -137t-158.5 -52q-98 0 -167.5 51.5t-76.5 142.5
q-1 21 19 21h31q18 0 20 -20q7 -61 54.5 -94t119.5 -33q66 0 110.5 33t44.5 88q0 51 -40 81t-117 59q-105 39 -139 62q-84 54 -84 150q0 83 62.5 133t148.5 50q87 0 149 -48t69 -131q1 -21 -19 -21h-31q-18 0 -20 19q-7 54 -47.5 83.5t-100.5 29.5t-100.5 -30.5t-40.5 -84.5
t38 -83.5t116 -59.5z" />
    <glyph glyph-name="scaron" unicode="&#x161;" horiz-adv-x="460" 
d="M182 580l-79 98q-7 9 -4 15.5t14 6.5h33q14 0 22 -11l62 -76l62 76q8 11 22 11h33q11 0 14 -6.5t-4 -15.5l-79 -98q-8 -10 -22 -10h-33h-19q-14 0 -22 10zM121 369q0 -35 30.5 -55t73.5 -30.5t86 -23.5t73.5 -45t30.5 -84q0 -62 -51.5 -102.5t-133.5 -40.5
q-77 0 -127 36.5t-57 99.5q-2 21 20 21h26q16 0 21 -19q12 -74 117 -74q51 0 85 19.5t34 59.5q0 35 -30.5 55t-73.5 30.5t-86 23.5t-73.5 45t-30.5 84q0 62 49.5 102.5t125.5 40.5q71 0 119 -37t55 -99q2 -21 -20 -21h-26q-16 0 -21 19q-6 38 -36.5 56t-70.5 18
q-44 0 -76.5 -20t-32.5 -59z" />
    <glyph glyph-name="uni0162" unicode="&#x162;" horiz-adv-x="500" 
d="M460 700q20 0 20 -20v-26q0 -20 -20 -20h-175v-614q0 -20 -20 -20h-30q-20 0 -20 20v614h-175q-20 0 -20 20v26q0 20 20 20h245h175zM264 -70q20 0 17 -19l-24 -135q-3 -16 -20 -16h-10q-20 0 -18 19l8 134q1 17 18 17h29z" />
    <glyph glyph-name="uni0163" unicode="&#x163;" horiz-adv-x="315" 
d="M275 500q20 0 20 -20v-24q0 -20 -20 -20h-84v-416q0 -20 -20 -20h-26q-20 0 -20 20v416h-85q-20 0 -20 20v24q0 20 20 20h85v140q0 20 20 20h26q20 0 20 -20v-140h84zM172 -70q20 0 17 -19l-24 -135q-3 -16 -20 -16h-10q-20 0 -18 19l8 134q1 17 18 17h29z" />
    <glyph glyph-name="Tcaron" unicode="&#x164;" horiz-adv-x="500" 
d="M202 780l-79 98q-7 9 -4 15.5t14 6.5h33q14 0 22 -11l62 -76l62 76q8 11 22 11h33q11 0 14 -6.5t-4 -15.5l-79 -98q-8 -10 -22 -10h-33h-19q-14 0 -22 10zM460 700q20 0 20 -20v-26q0 -20 -20 -20h-175v-614q0 -20 -20 -20h-30q-20 0 -20 20v614h-175q-20 0 -20 20v26
q0 20 20 20h245h175z" />
    <glyph glyph-name="tcaron" unicode="&#x165;" horiz-adv-x="322" 
d="M300 720q23 0 18 -22l-23 -120q-3 -18 -21 -18h-7q-21 0 -20 21l8 120q2 19 20 19h25zM275 500q20 0 20 -20v-24q0 -20 -20 -20h-84v-416q0 -20 -20 -20h-26q-20 0 -20 20v416h-85q-20 0 -20 20v24q0 20 20 20h85v140q0 20 20 20h26q20 0 20 -20v-140h84z" />
    <glyph glyph-name="Tbar" unicode="&#x166;" horiz-adv-x="500" 
d="M460 700q20 0 20 -20v-26q0 -20 -20 -20h-175v-252h125q20 0 20 -20v-24q0 -20 -20 -20h-125v-298q0 -20 -20 -20h-30q-20 0 -20 20v298h-125q-20 0 -20 20v24q0 20 20 20h125v252h-175q-20 0 -20 20v26q0 20 20 20h245h175z" />
    <glyph glyph-name="tbar" unicode="&#x167;" horiz-adv-x="315" 
d="M275 500q20 0 20 -20v-24q0 -20 -20 -20h-84v-109h57q20 0 20 -20v-14q0 -20 -20 -20h-57v-253q0 -20 -20 -20h-26q-20 0 -20 20v253h-57q-20 0 -20 20v14q0 20 20 20h57v109h-85q-20 0 -20 20v24q0 20 20 20h85v140q0 20 20 20h26q20 0 20 -20v-140h84z" />
    <glyph glyph-name="Umacron" unicode="&#x16a;" horiz-adv-x="620" 
d="M198 780q-18 0 -18 18v22q0 18 18 18h224q18 0 18 -18v-22q0 -18 -18 -18h-224zM310 -12q-104 0 -172 58t-68 162v472q0 20 20 20h30q20 0 20 -20v-472q0 -74 46 -113t124 -39t124 39t46 113v472q0 20 20 20h30q20 0 20 -20v-472q0 -104 -68 -162t-172 -58z" />
    <glyph glyph-name="umacron" unicode="&#x16b;" horiz-adv-x="518" 
d="M140 580q-18 0 -18 18v22q0 18 18 18h224q18 0 18 -18v-22q0 -18 -18 -18h-224zM428 500q20 0 20 -20v-460q0 -20 -20 -20h-26q-20 0 -20 20v46q-52 -78 -154 -78q-72 0 -121 50.5t-49 134.5v307q0 20 20 20h26q20 0 20 -20v-307q0 -58 32 -89.5t84 -31.5q59 0 100.5 40
t41.5 126v262q0 20 20 20h26z" />
    <glyph glyph-name="Uring" unicode="&#x16e;" horiz-adv-x="620" 
d="M310 750q-47 0 -76.5 28.5t-29.5 71.5t29.5 71.5t76.5 28.5t76.5 -28.5t29.5 -71.5t-29.5 -71.5t-76.5 -28.5zM310 801q25 0 38.5 13.5t13.5 35.5t-13.5 35.5t-38.5 13.5q-24 0 -37.5 -13.5t-13.5 -35.5t13.5 -35.5t37.5 -13.5zM310 -12q-104 0 -172 58t-68 162v472
q0 20 20 20h30q20 0 20 -20v-472q0 -74 46 -113t124 -39t124 39t46 113v472q0 20 20 20h30q20 0 20 -20v-472q0 -104 -68 -162t-172 -58z" />
    <glyph glyph-name="uring" unicode="&#x16f;" horiz-adv-x="518" 
d="M252 550q-47 0 -76.5 28.5t-29.5 71.5t29.5 71.5t76.5 28.5t76.5 -28.5t29.5 -71.5t-29.5 -71.5t-76.5 -28.5zM252 699q-24 0 -37.5 -13.5t-13.5 -35.5t13.5 -35.5t37.5 -13.5q25 0 38.5 13.5t13.5 35.5t-13.5 35.5t-38.5 13.5zM428 500q20 0 20 -20v-460q0 -20 -20 -20
h-26q-20 0 -20 20v46q-52 -78 -154 -78q-72 0 -121 50.5t-49 134.5v307q0 20 20 20h26q20 0 20 -20v-307q0 -58 32 -89.5t84 -31.5q59 0 100.5 40t41.5 126v262q0 20 20 20h26z" />
    <glyph glyph-name="Uhungarumlaut" unicode="&#x170;" horiz-adv-x="620" 
d="M202 791q-11 -21 12 -21h30q14 0 21 12l56 96q5 10 2 16t-14 6h-35q-13 0 -21 -13zM346 792q-5 -9 -1.5 -15.5t13.5 -6.5h29q15 0 22 12l64 96q6 10 2.5 16t-14.5 6h-34q-14 0 -21 -12zM310 -12q-104 0 -172 58t-68 162v472q0 20 20 20h30q20 0 20 -20v-472
q0 -74 46 -113t124 -39t124 39t46 113v472q0 20 20 20h30q20 0 20 -20v-472q0 -104 -68 -162t-172 -58z" />
    <glyph glyph-name="uhungarumlaut" unicode="&#x171;" horiz-adv-x="518" 
d="M156 570q-23 0 -12 21l51 96q8 13 21 13h35q11 0 14 -6t-2 -16l-56 -96q-7 -12 -21 -12h-30zM300 570q-10 0 -13.5 6.5t1.5 15.5l60 96q7 12 21 12h34q11 0 14.5 -6t-2.5 -16l-64 -96q-7 -12 -22 -12h-29zM428 500q20 0 20 -20v-460q0 -20 -20 -20h-26q-20 0 -20 20v46
q-52 -78 -154 -78q-72 0 -121 50.5t-49 134.5v307q0 20 20 20h26q20 0 20 -20v-307q0 -58 32 -89.5t84 -31.5q59 0 100.5 40t41.5 126v262q0 20 20 20h26z" />
    <glyph glyph-name="Uogonek" unicode="&#x172;" horiz-adv-x="620" 
d="M530 700q20 0 20 -20v-472q0 -106 -73 -166q-67 -61 -94 -97.5t-27 -68.5q0 -22 14.5 -27.5t39.5 -1.5q22 5 22 -16v-15q0 -18 -14 -22q-19 -6 -45 -6q-39 0 -60.5 21t-21.5 55q0 61 63 127q-21 -3 -44 -3q-104 0 -172 58t-68 162v472q0 20 20 20h30q20 0 20 -20v-472
q0 -74 46 -113t124 -39t124 39t46 113v472q0 20 20 20h30z" />
    <glyph glyph-name="uogonek" unicode="&#x173;" horiz-adv-x="518" 
d="M448 480v-460v-2q0 -17 -20 -37q-56 -61 -56 -105q0 -16 8 -23.5t20.5 -7.5t27.5 2q20 5 20 -14v-19q0 -16 -12 -19q-20 -7 -47 -7q-39 0 -60.5 21t-21.5 55q0 55 76 150q-1 3 -1 6v46q-52 -78 -154 -78q-72 0 -121 50.5t-49 134.5v307q0 20 20 20h26q20 0 20 -20v-307
q0 -58 32 -89.5t84 -31.5q59 0 100.5 40t41.5 126v262q0 20 20 20h26q20 0 20 -20z" />
    <glyph glyph-name="Wcircumflex" unicode="&#x174;" horiz-adv-x="860" 
d="M313 770q-11 0 -14 6.5t4 15.5l79 98q7 10 22 10h33h19q14 0 22 -10l79 -98q7 -9 4 -15.5t-14 -6.5h-33q-14 0 -22 11l-62 76l-62 -76q-8 -11 -22 -11h-33zM826 700q11 0 15.5 -6.5t1.5 -16.5l-206 -660q-5 -17 -22 -17h-58q-17 0 -22 17l-105 337l-105 -337
q-5 -17 -22 -17h-58q-17 0 -22 17l-206 660q-3 10 1.5 16.5t15.5 6.5h27q17 0 22 -17l191 -612l122 391l-67 215q-3 10 1.5 16.5t15.5 6.5h27q17 0 22 -17l191 -612l191 612q5 17 22 17h27z" />
    <glyph glyph-name="wcircumflex" unicode="&#x175;" horiz-adv-x="680" 
d="M223 570q-11 0 -14 6.5t4 15.5l79 98q8 10 22 10h33h19q14 0 22 -10l79 -98q7 -9 4 -15.5t-14 -6.5h-33q-14 0 -22 11l-62 76l-62 -76q-8 -11 -22 -11h-33zM646 500q7 0 11.5 -3t5.5 -8t-1 -12l-160 -461q-6 -16 -23 -16h-21h-17q-17 0 -23 16l-77 223l-79 -223
q-6 -16 -23 -16h-21h-17q-17 0 -23 16l-160 461q-4 10 0.5 16.5t15.5 6.5h29q16 0 22 -16l135 -408l89 254l-51 147q-8 23 16 23h29q16 0 22 -16l135 -407l135 407q6 16 22 16h29z" />
    <glyph glyph-name="Ycircumflex" unicode="&#x176;" horiz-adv-x="575" 
d="M167 770q-11 0 -14 6.5t4 15.5l79 98q7 10 22 10h33h19q14 0 22 -10l79 -98q7 -9 4 -15.5t-14 -6.5h-33q-14 0 -22 11l-62 76l-62 -76q-8 -11 -22 -11h-33zM536 700q12 0 16 -7t-3 -17l-227 -350v-306q0 -20 -20 -20h-30q-20 0 -20 20v308l-226 348q-7 10 -3 17t16 7h34
q15 0 24 -13l191 -293l190 293q9 13 24 13h34z" />
    <glyph glyph-name="ycircumflex" unicode="&#x177;" horiz-adv-x="470" 
d="M118 570q-11 0 -14 6.5t4 15.5l79 98q7 10 22 10h33h19q15 0 22 -10l79 -98q7 -9 4 -15.5t-14 -6.5h-33q-14 0 -22 11l-62 76l-62 -76q-8 -11 -22 -11h-33zM436 500q24 0 16 -23l-235 -661q-6 -16 -23 -16h-29q-24 0 -16 23l64 181l-193 473q-10 23 15 23h28q18 0 23 -15
l160 -389l138 388q6 16 23 16h29z" />
    <glyph glyph-name="Ydieresis" unicode="&#x178;" horiz-adv-x="575" 
d="M162 780q-18 0 -18 18v44q0 18 18 18h44q18 0 18 -18v-44q0 -18 -18 -18h-44zM362 780q-18 0 -18 18v44q0 18 18 18h44q18 0 18 -18v-44q0 -18 -18 -18h-44zM536 700q12 0 16 -7t-3 -17l-227 -350v-306q0 -20 -20 -20h-30q-20 0 -20 20v308l-226 348q-7 10 -3 17t16 7h34
q15 0 24 -13l191 -293l190 293q9 13 24 13h34z" />
    <glyph glyph-name="Zacute" unicode="&#x179;" horiz-adv-x="520" 
d="M228 792q-5 -9 -1.5 -15.5t13.5 -6.5h25q14 0 22 11l72 97q7 9 3.5 15.5t-14.5 6.5h-39q-14 0 -21 -12zM118 66h352q20 0 20 -20v-26q0 -20 -20 -20h-410q-20 0 -20 20v33q0 11 7 24l355 557h-332q-20 0 -20 20v26q0 20 20 20h390q20 0 20 -20v-33q0 -11 -7 -24z" />
    <glyph glyph-name="zacute" unicode="&#x17a;" horiz-adv-x="450" 
d="M195 592q-5 -9 -1.5 -15.5t13.5 -6.5h25q14 0 22 11l72 97q7 9 3.5 15.5t-14.5 6.5h-39q-14 0 -21 -12zM132 64h268q20 0 20 -20v-24q0 -20 -20 -20h-340q-20 0 -20 20v10q0 12 8 25l270 381h-248q-20 0 -20 20v24q0 20 20 20h320q20 0 20 -20v-10q0 -12 -8 -25z" />
    <glyph glyph-name="Zdotaccent" unicode="&#x17b;" horiz-adv-x="520" 
d="M238 780q-18 0 -18 18v54q0 18 18 18h54q18 0 18 -18v-54q0 -18 -18 -18h-54zM118 66h352q20 0 20 -20v-26q0 -20 -20 -20h-410q-20 0 -20 20v33q0 11 7 24l355 557h-332q-20 0 -20 20v26q0 20 20 20h390q20 0 20 -20v-33q0 -11 -7 -24z" />
    <glyph glyph-name="zdotaccent" unicode="&#x17c;" horiz-adv-x="450" 
d="M205 580q-18 0 -18 18v54q0 18 18 18h54q18 0 18 -18v-54q0 -18 -18 -18h-54zM132 64h268q20 0 20 -20v-24q0 -20 -20 -20h-340q-20 0 -20 20v10q0 12 8 25l270 381h-248q-20 0 -20 20v24q0 20 20 20h320q20 0 20 -20v-10q0 -12 -8 -25z" />
    <glyph glyph-name="Zcaron" unicode="&#x17d;" horiz-adv-x="520" 
d="M217 780l-79 98q-7 9 -4 15.5t14 6.5h33q14 0 22 -11l62 -76l62 76q8 11 22 11h33q11 0 14 -6.5t-4 -15.5l-79 -98q-7 -10 -22 -10h-33h-19q-15 0 -22 10zM470 66q20 0 20 -20v-26q0 -20 -20 -20h-410q-20 0 -20 20v33q0 11 7 24l355 557h-332q-20 0 -20 20v26
q0 20 20 20h390q20 0 20 -20v-33q0 -11 -7 -24l-355 -557h352z" />
    <glyph glyph-name="zcaron" unicode="&#x17e;" horiz-adv-x="450" 
d="M184 580l-79 98q-7 9 -4 15.5t14 6.5h33q14 0 22 -11l62 -76l62 76q8 11 22 11h33q11 0 14 -6.5t-4 -15.5l-79 -98q-8 -10 -22 -10h-33h-19q-14 0 -22 10zM400 64q20 0 20 -20v-24q0 -20 -20 -20h-340q-20 0 -20 20v10q0 12 8 25l270 381h-248q-20 0 -20 20v24
q0 20 20 20h320q20 0 20 -20v-10q0 -12 -8 -25l-270 -381h268z" />
    <glyph glyph-name="florin" unicode="&#x192;" horiz-adv-x="439" 
d="M422 708q17 -4 17 -23v-23q0 -21 -23 -16q-44 10 -72.5 -10t-36.5 -65l-32 -188h95q20 0 20 -20v-24q0 -20 -20 -20h-106l-66 -388q-14 -83 -62.5 -117.5t-118.5 -19.5q-17 4 -17 23v23q0 21 23 16q44 -10 72.5 10t36.5 65l66 388h-89q-20 0 -20 20v24q0 20 20 20h100
l32 188q14 83 62.5 117.5t118.5 19.5z" />
    <glyph glyph-name="Scommaaccent" unicode="&#x218;" horiz-adv-x="550" 
d="M285 -12q-98 0 -167.5 51.5t-76.5 142.5q-1 21 19 21h31q18 0 20 -20q7 -61 54.5 -94t119.5 -33q66 0 110.5 33t44.5 88q0 51 -40 81t-117 59q-105 39 -139 62q-84 54 -84 150q0 83 62.5 133t148.5 50q87 0 149 -48t69 -131q1 -21 -19 -21h-31q-18 0 -20 19
q-7 54 -47.5 83.5t-100.5 29.5t-100.5 -30.5t-40.5 -84.5t38 -83.5t116 -59.5q107 -42 143 -65q83 -54 83 -144q0 -85 -66.5 -137t-158.5 -52zM281 -240q17 0 20 16l24 135q3 19 -17 19h-29q-17 0 -18 -17l-8 -134q-2 -19 18 -19h10z" />
    <glyph glyph-name="scommaaccent" unicode="&#x219;" horiz-adv-x="460" 
d="M121 369q0 -35 30.5 -55t73.5 -30.5t86 -23.5t73.5 -45t30.5 -84q0 -62 -51.5 -102.5t-133.5 -40.5q-77 0 -127 36.5t-57 99.5q-2 21 20 21h26q16 0 21 -19q12 -74 117 -74q51 0 85 19.5t34 59.5q0 35 -30.5 55t-73.5 30.5t-86 23.5t-73.5 45t-30.5 84q0 62 49.5 102.5
t125.5 40.5q71 0 119 -37t55 -99q2 -21 -20 -21h-26q-16 0 -21 19q-6 38 -36.5 56t-70.5 18q-44 0 -76.5 -20t-32.5 -59zM261 -70q20 0 17 -19l-24 -135q-3 -16 -20 -16h-10q-20 0 -18 19l8 134q1 17 18 17h29z" />
    <glyph glyph-name="uni021A" unicode="&#x21a;" horiz-adv-x="500" 
d="M460 700q20 0 20 -20v-26q0 -20 -20 -20h-175v-614q0 -20 -20 -20h-30q-20 0 -20 20v614h-175q-20 0 -20 20v26q0 20 20 20h245h175zM264 -70q20 0 17 -19l-24 -135q-3 -16 -20 -16h-10q-20 0 -18 19l8 134q1 17 18 17h29z" />
    <glyph glyph-name="uni021B" unicode="&#x21b;" horiz-adv-x="315" 
d="M275 500q20 0 20 -20v-24q0 -20 -20 -20h-84v-416q0 -20 -20 -20h-26q-20 0 -20 20v416h-85q-20 0 -20 20v24q0 20 20 20h85v140q0 20 20 20h26q20 0 20 -20v-140h84zM172 -70q20 0 17 -19l-24 -135q-3 -16 -20 -16h-10q-20 0 -18 19l8 134q1 17 18 17h29z" />
    <glyph glyph-name="circumflex" unicode="&#x2c6;" horiz-adv-x="330" 
d="M292 592q7 -9 4 -15.5t-14 -6.5h-33q-14 0 -22 11l-62 76l-62 -76q-8 -11 -22 -11h-33q-11 0 -14 6.5t4 15.5l79 98q7 10 22 10h33h19q15 0 22 -10z" />
    <glyph glyph-name="caron" unicode="&#x2c7;" horiz-adv-x="330" 
d="M282 700q11 0 14 -6.5t-4 -15.5l-79 -98q-7 -10 -22 -10h-33h-19q-15 0 -22 10l-79 98q-7 9 -4 15.5t14 6.5h33q14 0 22 -11l62 -76l62 76q8 11 22 11h33z" />
    <glyph glyph-name="breve" unicode="&#x2d8;" horiz-adv-x="320" 
d="M160 562q-59 0 -96 29t-43 82q-2 19 17 19h29q17 0 18 -18q8 -54 75 -54t75 54q1 18 18 18h29q18 0 17 -18q-5 -54 -42 -83t-97 -29z" />
    <glyph glyph-name="dotaccent" unicode="&#x2d9;" horiz-adv-x="130" 
d="M38 580q-18 0 -18 18v54q0 18 18 18h54q18 0 18 -18v-54q0 -18 -18 -18h-54z" />
    <glyph glyph-name="ring" unicode="&#x2da;" horiz-adv-x="252" 
d="M126 550q-47 0 -76.5 28.5t-29.5 71.5t29.5 71.5t76.5 28.5t76.5 -28.5t29.5 -71.5t-29.5 -71.5t-76.5 -28.5zM126 601q25 0 38.5 13.5t13.5 35.5t-13.5 35.5t-38.5 13.5q-24 0 -37.5 -13.5t-13.5 -35.5t13.5 -35.5t37.5 -13.5z" />
    <glyph glyph-name="ogonek" unicode="&#x2db;" horiz-adv-x="181" 
d="M102 -212q-39 0 -60.5 21t-21.5 55q0 66 72 136h69q-34 -31 -55 -65t-21 -59q0 -37 56 -29q20 5 20 -14v-19q0 -16 -12 -19q-20 -7 -47 -7z" />
    <glyph glyph-name="tilde" unicode="&#x2dc;" horiz-adv-x="320" 
d="M38 580q-19 0 -17 19q3 51 24.5 75t52 21t63.5 -28q20 -16 32.5 -23.5t23.5 -9.5t17 7t7 30q1 19 19 19h22q19 0 17 -19q-3 -51 -24.5 -75t-51.5 -21t-63 28q-20 16 -32.5 23.5t-24 9.5t-17.5 -7t-7 -30q-1 -19 -19 -19h-22z" />
    <glyph glyph-name="hungarumlaut" unicode="&#x2dd;" horiz-adv-x="337" 
d="M32 591q-11 -21 12 -21h30q14 0 21 12l56 96q5 10 2 16t-14 6h-35q-13 0 -21 -13zM176 592q-5 -9 -1.5 -15.5t13.5 -6.5h29q15 0 22 12l64 96q6 10 2.5 16t-14.5 6h-34q-14 0 -21 -12z" />
    <glyph glyph-name="gravecomb" unicode="&#x300;" horiz-adv-x="0" 
d="M-45 570q10 0 13.5 6.5t-1.5 15.5l-60 96q-7 12 -21 12h-39q-11 0 -14.5 -6.5t3.5 -15.5l72 -97q8 -11 22 -11h25z" />
    <glyph glyph-name="acutecomb" unicode="&#x301;" horiz-adv-x="0" 
d="M-167 592q-5 -9 -1.5 -15.5t13.5 -6.5h25q14 0 22 11l72 97q7 9 3.5 15.5t-14.5 6.5h-39q-14 0 -21 -12z" />
    <glyph glyph-name="uni0302" unicode="&#x302;" horiz-adv-x="0" 
d="M-38 592q7 -9 4 -15.5t-14 -6.5h-33q-14 0 -22 11l-62 76l-62 -76q-8 -11 -22 -11h-33q-11 0 -14 6.5t4 15.5l79 98q7 10 22 10h33h19q15 0 22 -10z" />
    <glyph glyph-name="tildecomb" unicode="&#x303;" horiz-adv-x="0" 
d="M-282 580q-19 0 -17 19q3 51 24.5 75t52 21t63.5 -28q20 -16 32.5 -23.5t23.5 -9.5t17 7t7 30q1 19 19 19h22q19 0 17 -19q-3 -51 -24.5 -75t-51.5 -21t-63 28q-20 16 -32.5 23.5t-24 9.5t-17.5 -7t-7 -30q-1 -19 -19 -19h-22z" />
    <glyph glyph-name="uni0304" unicode="&#x304;" horiz-adv-x="0" 
d="M-262 580q-18 0 -18 18v22q0 18 18 18h224q18 0 18 -18v-22q0 -18 -18 -18h-224z" />
    <glyph glyph-name="uni0306" unicode="&#x306;" horiz-adv-x="0" 
d="M-160 562q-59 0 -96 29t-43 82q-2 19 17 19h29q17 0 18 -18q8 -54 75 -54t75 54q1 18 18 18h29q18 0 17 -18q-5 -54 -42 -83t-97 -29z" />
    <glyph glyph-name="uni0307" unicode="&#x307;" horiz-adv-x="0" 
d="M-97 580q-18 0 -18 18v54q0 18 18 18h54q18 0 18 -18v-54q0 -18 -18 -18h-54z" />
    <glyph glyph-name="uni0308" unicode="&#x308;" horiz-adv-x="0" 
d="M-282 580q-18 0 -18 18v44q0 18 18 18h44q18 0 18 -18v-44q0 -18 -18 -18h-44zM-82 580q-18 0 -18 18v44q0 18 18 18h44q18 0 18 -18v-44q0 -18 -18 -18h-44z" />
    <glyph glyph-name="uni030A" unicode="&#x30a;" horiz-adv-x="0" 
d="M-126 550q-47 0 -76.5 28.5t-29.5 71.5t29.5 71.5t76.5 28.5t76.5 -28.5t29.5 -71.5t-29.5 -71.5t-76.5 -28.5zM-126 601q25 0 38.5 13.5t13.5 35.5t-13.5 35.5t-38.5 13.5q-24 0 -37.5 -13.5t-13.5 -35.5t13.5 -35.5t37.5 -13.5z" />
    <glyph glyph-name="uni030B" unicode="&#x30b;" horiz-adv-x="0" 
d="M-305 591q-11 -21 12 -21h30q13 0 21 12l56 96q5 10 2 16t-14 6h-35q-13 0 -21 -13zM-161 592q-5 -9 -1.5 -15.5t13.5 -6.5h29q14 0 22 12l64 96q6 10 2.5 16t-14.5 6h-34q-14 0 -21 -12z" />
    <glyph glyph-name="uni030C" unicode="&#x30c;" horiz-adv-x="0" 
d="M-48 700q11 0 14 -6.5t-4 -15.5l-79 -98q-7 -10 -22 -10h-33h-19q-15 0 -22 10l-79 98q-7 9 -4 15.5t14 6.5h33q14 0 22 -11l62 -76l62 76q8 11 22 11h33z" />
    <glyph glyph-name="uni0312" unicode="&#x312;" horiz-adv-x="0" 
d="M-49 960q-17 0 -20 -16l-24 -135q-3 -19 17 -19h29q17 0 18 17l8 134q2 19 -18 19h-10z" />
    <glyph glyph-name="uni0326" unicode="&#x326;" horiz-adv-x="0" 
d="M-67 -240q17 0 20 16l24 135q3 19 -17 19h-29q-17 0 -18 -17l-8 -134q-2 -19 18 -19h10z" />
    <glyph glyph-name="uni0327" unicode="&#x327;" horiz-adv-x="0" 
d="M-113 -45q43 -8 68 -29t25 -52q0 -97 -186 -91q-19 1 -19 19v17q0 18 20 18q127 -7 127 37q0 34 -75 40q-18 2 -18 19v67h58v-45z" />
    <glyph glyph-name="uni0328" unicode="&#x328;" horiz-adv-x="0" 
d="M-79 -212q-39 0 -60.5 21t-21.5 55q0 66 72 136h69q-34 -31 -55 -65t-21 -59q0 -37 56 -29q20 5 20 -14v-19q0 -16 -12 -19q-20 -7 -47 -7z" />
    <glyph glyph-name="uni0394" unicode="&#x394;" 
d="M611 23q8 -23 -16 -23h-49h-481h-30q-24 0 -16 23l254 661q6 16 23 16h38q17 0 23 -16zM109 66h412l-206 547z" />
    <glyph glyph-name="uni03A9" unicode="&#x3a9;" horiz-adv-x="804" 
d="M764 350q0 -90 -40.5 -164.5t-110.5 -119.5h119q20 0 20 -20v-26q0 -20 -20 -20h-233q-20 0 -20 20v28q0 17 17 23q88 29 143 105t55 174q0 123 -84 208.5t-208 85.5t-208 -85.5t-84 -208.5q0 -98 54.5 -174t143.5 -105q17 -6 17 -23v-28q0 -20 -20 -20h-233
q-20 0 -20 20v26q0 20 20 20h119q-71 45 -111 119.5t-40 164.5q0 151 105 256.5t257 105.5t257 -105.5t105 -256.5z" />
    <glyph glyph-name="pi" unicode="&#x3c0;" horiz-adv-x="620" 
d="M570 500q20 0 20 -20v-24q0 -20 -20 -20h-63v-416q0 -20 -20 -20h-26q-20 0 -20 20v416h-258v-416q0 -20 -20 -20h-26q-20 0 -20 20v416h-67q-20 0 -20 20v24q0 20 20 20h133h324h63z" />
    <glyph glyph-name="uni0401" unicode="&#x401;" horiz-adv-x="520" 
d="M156 780q-18 0 -18 18v44q0 18 18 18h44q18 0 18 -18v-44q0 -18 -18 -18h-44zM356 780q-18 0 -18 18v44q0 18 18 18h44q18 0 18 -18v-44q0 -18 -18 -18h-44zM460 66q20 0 20 -20v-26q0 -20 -20 -20h-350h-10q-20 0 -20 20v660q0 20 20 20h50h305q20 0 20 -20v-26
q0 -20 -20 -20h-305v-248h280q20 0 20 -20v-26q0 -20 -20 -20h-280v-254h310z" />
    <glyph glyph-name="uni0402" unicode="&#x402;" horiz-adv-x="658" 
d="M414 472q84 0 136.5 -49t52.5 -141v-118q0 -85 -41.5 -130t-118.5 -43q-20 0 -20 20v24q0 20 19 20q48 -1 69.5 24.5t21.5 84.5v118q0 65 -31.5 95.5t-86.5 30.5q-63 0 -140 -33v-355q0 -20 -20 -20h-30q-20 0 -20 20v614h-165q-20 0 -20 20v26q0 20 20 20h235h205
q20 0 20 -20v-26q0 -20 -20 -20h-205v-196q72 34 139 34z" />
    <glyph glyph-name="uni0403" unicode="&#x403;" horiz-adv-x="490" 
d="M251 769q-10 0 -13.5 6.5t1.5 15.5l60 96q7 12 21 12h39q11 0 14.5 -6.5t-3.5 -15.5l-72 -97q-8 -11 -22 -11h-25zM450 700q20 0 20 -20v-26q0 -20 -20 -20h-300v-614q0 -20 -20 -20h-30q-20 0 -20 20v660q0 20 20 20h50h300z" />
    <glyph glyph-name="uni0404" unicode="&#x404;" horiz-adv-x="755" 
d="M701 220q24 0 16 -23q-37 -95 -122.5 -152t-202.5 -57q-155 0 -253.5 104.5t-98.5 257.5t98.5 257.5t253.5 104.5q117 0 202.5 -57t122.5 -152q8 -23 -16 -23h-35q-17 0 -23 15q-32 69 -96.5 109t-154.5 40q-117 0 -193.5 -74t-86.5 -187h363q20 0 20 -20v-26
q0 -20 -20 -20h-363q10 -113 86.5 -187t193.5 -74q90 0 154.5 40t96.5 109q6 15 23 15h35z" />
    <glyph glyph-name="uni0405" unicode="&#x405;" horiz-adv-x="550" 
d="M285 -12q-98 0 -167.5 51.5t-76.5 142.5q-1 21 19 21h31q18 0 20 -20q7 -61 54.5 -94t119.5 -33q66 0 110.5 33t44.5 88q0 51 -40 81t-117 59q-105 39 -139 62q-84 54 -84 150q0 83 62.5 133t148.5 50q87 0 149 -48t69 -131q1 -21 -19 -21h-31q-18 0 -20 19
q-7 54 -47.5 83.5t-100.5 29.5t-100.5 -30.5t-40.5 -84.5t38 -83.5t116 -59.5q107 -42 143 -65q83 -54 83 -144q0 -85 -66.5 -137t-158.5 -52z" />
    <glyph glyph-name="uni0406" unicode="&#x406;" horiz-adv-x="230" 
d="M80 680q0 20 20 20h30q20 0 20 -20v-660q0 -20 -20 -20h-30q-20 0 -20 20v660z" />
    <glyph glyph-name="uni0407" unicode="&#x407;" horiz-adv-x="230" 
d="M-7 780q-18 0 -18 18v44q0 18 18 18h44q18 0 18 -18v-44q0 -18 -18 -18h-44zM193 780q-18 0 -18 18v44q0 18 18 18h44q18 0 18 -18v-44q0 -18 -18 -18h-44zM80 680q0 20 20 20h30q20 0 20 -20v-660q0 -20 -20 -20h-30q-20 0 -20 20v660z" />
    <glyph glyph-name="uni0408" unicode="&#x408;" horiz-adv-x="530" 
d="M240 -12q-88 0 -150.5 50.5t-68.5 148.5q-1 21 19 21h30q19 0 21 -20q6 -68 46.5 -100t102.5 -32q66 0 108 35t42 107v482q0 20 20 20h30q20 0 20 -20v-482q0 -101 -64 -155.5t-156 -54.5z" />
    <glyph glyph-name="uni0409" unicode="&#x409;" horiz-adv-x="955" 
d="M705 400q88 0 149 -57.5t61 -142.5q0 -86 -61 -143t-149 -57h-200h-10q-20 0 -20 20v614h-244v-325q0 -91 -13.5 -153t-40.5 -96.5t-61.5 -48.5t-81.5 -13q-19 0 -19 20v22q0 21 20 19q63 -1 94.5 56.5t31.5 195.5v369q0 20 20 20h344q20 0 20 -20v-280h160zM705 66
q59 0 99.5 37.5t40.5 96.5q0 58 -40.5 96t-99.5 38h-160v-268h160z" />
    <glyph glyph-name="uni040A" unicode="&#x40a;" horiz-adv-x="940" 
d="M690 400q88 0 149 -57.5t61 -142.5q0 -86 -61 -143t-149 -57h-200h-10q-20 0 -20 20v314h-310v-314q0 -20 -20 -20h-30q-20 0 -20 20v660q0 20 20 20h30q20 0 20 -20v-280h310v280q0 20 20 20h30q20 0 20 -20v-280h160zM690 66q59 0 99.5 37.5t40.5 96.5q0 58 -40.5 96
t-99.5 38h-160v-268h160z" />
    <glyph glyph-name="uni040B" unicode="&#x40b;" horiz-adv-x="663" 
d="M414 472q84 0 136.5 -49t52.5 -141v-262q0 -20 -20 -20h-30q-20 0 -20 20v262q0 65 -31.5 95.5t-86.5 30.5q-63 0 -140 -33v-355q0 -20 -20 -20h-30q-20 0 -20 20v614h-165q-20 0 -20 20v26q0 20 20 20h235h205q20 0 20 -20v-26q0 -20 -20 -20h-205v-196q72 34 139 34z
" />
    <glyph glyph-name="uni040C" unicode="&#x40c;" horiz-adv-x="580" 
d="M261 769q-10 0 -13.5 6.5t1.5 15.5l60 96q7 12 21 12h39q11 0 14.5 -6.5t-3.5 -15.5l-72 -97q-8 -11 -22 -11h-25zM546 25q9 -10 6 -17.5t-16 -7.5h-43q-16 0 -25 10l-318 329v-319q0 -20 -20 -20h-30q-20 0 -20 20v660q0 20 20 20h30q20 0 20 -20v-300l308 310
q10 10 24 10h43q13 0 16.5 -8t-5.5 -17l-312 -315z" />
    <glyph glyph-name="uni040E" unicode="&#x40e;" horiz-adv-x="570" 
d="M176 779q-20 0 -20 20v18q0 20 20 20h220q20 0 20 -20v-18q0 -20 -20 -20h-220zM535 700q25 0 15 -23l-223 -524q-65 -154 -203 -154q-20 0 -20 21v23q0 20 21 20q47 -1 78.5 22t53.5 74l14 33l-230 484q-5 10 -0.5 17t15.5 7h30q16 0 23 -15l195 -415l177 415
q5 15 24 15h30z" />
    <glyph glyph-name="uni040F" unicode="&#x40f;" 
d="M530 700q20 0 20 -20v-660q0 -20 -20 -20h-50h-130v-124q0 -20 -20 -20h-30q-20 0 -20 20v124h-170h-10q-20 0 -20 20v660q0 20 20 20h30q20 0 20 -20v-614h330v614q0 20 20 20h30z" />
    <glyph glyph-name="uni0410" unicode="&#x410;" 
d="M611 23q4 -11 -0.5 -17t-15.5 -6h-32q-17 0 -23 16l-59 156h-332l-59 -156q-6 -16 -23 -16h-32q-24 0 -16 23l254 661q6 16 23 16h38q17 0 23 -16zM174 238h282l-141 375z" />
    <glyph glyph-name="uni0411" unicode="&#x411;" horiz-adv-x="585" 
d="M340 420q87 0 148.5 -62t61.5 -148q0 -87 -61.5 -148.5t-148.5 -61.5h-230h-10q-20 0 -20 20v660q0 20 20 20h50h320q20 0 20 -20v-26q0 -20 -20 -20h-320v-214h190zM340 66q58 0 99 42t41 102q0 59 -41 101.5t-99 42.5h-190v-288h190z" />
    <glyph glyph-name="uni0412" unicode="&#x412;" horiz-adv-x="685" 
d="M516 443q61 -26 97.5 -84t36.5 -129q0 -96 -63.5 -163t-157.5 -67h-309h-20q-20 0 -20 20v660q0 20 20 20h50h209q81 0 131 -49.5t50 -121.5q0 -46 -24 -86zM359 634h-209v-174h280h15q25 29 25 69q0 45 -29.5 75t-81.5 30zM419 66q72 0 116.5 47.5t44.5 116.5
q0 70 -44 117t-116 47h-270v-328h269z" />
    <glyph glyph-name="uni0413" unicode="&#x413;" horiz-adv-x="490" 
d="M450 700q20 0 20 -20v-26q0 -20 -20 -20h-300v-614q0 -20 -20 -20h-30q-20 0 -20 20v660q0 20 20 20h50h300z" />
    <glyph glyph-name="uni0414" unicode="&#x414;" horiz-adv-x="660" 
d="M605 66q20 0 20 -20v-46v-124q0 -20 -20 -20h-30q-20 0 -20 20v124h-75h-395v-124q0 -20 -20 -20h-30q-20 0 -20 20v160v10q0 20 20 20h37q69 80 69 250v364q0 20 20 20h369q20 0 20 -20v-614h55zM155 66h325v568h-269v-320q0 -164 -56 -248z" />
    <glyph glyph-name="uni0415" unicode="&#x415;" horiz-adv-x="520" 
d="M460 66q20 0 20 -20v-26q0 -20 -20 -20h-350h-10q-20 0 -20 20v660q0 20 20 20h50h305q20 0 20 -20v-26q0 -20 -20 -20h-305v-248h280q20 0 20 -20v-26q0 -20 -20 -20h-280v-254h310z" />
    <glyph glyph-name="uni0416" unicode="&#x416;" horiz-adv-x="850" 
d="M809 25q8 -11 5 -18t-16 -7h-35q-15 0 -25 11l-278 331v-322q0 -20 -20 -20h-30q-20 0 -20 20v322l-278 -331q-10 -11 -25 -11h-35q-13 0 -16 7t5 18l280 335l-270 315q-8 10 -5 17.5t16 7.5h35q15 0 25 -11l268 -312v303q0 20 20 20h30q20 0 20 -20v-303l268 312
q10 11 25 11h35q13 0 16 -7.5t-5 -17.5l-270 -315z" />
    <glyph glyph-name="uni0417" unicode="&#x417;" horiz-adv-x="530" 
d="M398 415q26 -14 47 -34.5t35 -46t22 -55t8 -61.5q0 -98 -66.5 -164t-178.5 -66q-106 0 -171.5 59.5t-72.5 150.5q-2 20 19 20h31q18 0 20 -19q4 -41 24.5 -73.5t59 -52t90.5 -19.5q83 0 129 46.5t46 117.5q0 70 -44 117t-116 47h-30q-20 0 -20 20v22q0 20 20 20h30
q23 0 44 -4q56 43 56 101q0 46 -31.5 75.5t-89.5 29.5q-35 0 -61 -11.5t-40 -30.5t-18 -44q-5 -19 -21 -19h-30q-22 0 -20 20q8 66 58.5 108.5t131.5 42.5q87 0 139 -49t52 -122q0 -70 -52 -126z" />
    <glyph glyph-name="uni0418" unicode="&#x418;" 
d="M480 20v540l-332 -547q-7 -13 -24 -13h-24q-20 0 -20 20v660q0 20 20 20h30q20 0 20 -20v-540l332 547q7 13 24 13h24q20 0 20 -20v-660q0 -20 -20 -20h-30q-20 0 -20 20z" />
    <glyph glyph-name="uni0419" unicode="&#x419;" 
d="M215 780q-20 0 -20 20v18q0 20 20 20h220q20 0 20 -20v-18q0 -20 -20 -20h-220zM480 20v540l-332 -547q-7 -13 -24 -13h-24q-20 0 -20 20v660q0 20 20 20h30q20 0 20 -20v-540l332 547q7 13 24 13h24q20 0 20 -20v-660q0 -20 -20 -20h-30q-20 0 -20 20z" />
    <glyph glyph-name="uni041A" unicode="&#x41a;" horiz-adv-x="580" 
d="M546 25q9 -10 6 -17.5t-16 -7.5h-43q-16 0 -25 10l-318 329v-319q0 -20 -20 -20h-30q-20 0 -20 20v660q0 20 20 20h30q20 0 20 -20v-300l308 310q10 10 24 10h43q13 0 16.5 -8t-5.5 -17l-312 -315z" />
    <glyph glyph-name="uni041B" unicode="&#x41b;" horiz-adv-x="645" 
d="M34 -2q-19 0 -19 20v22q0 21 20 19q63 -1 94.5 56.5t31.5 195.5v369q0 20 20 20h364q20 0 20 -20v-660q0 -20 -20 -20h-30q-20 0 -20 20v614h-264v-325q0 -91 -13.5 -153t-40.5 -96.5t-61.5 -48.5t-81.5 -13z" />
    <glyph glyph-name="uni041C" unicode="&#x41c;" horiz-adv-x="800" 
d="M700 700q20 0 20 -20v-660q0 -20 -20 -20h-30q-20 0 -20 20v562l-208 -446q-7 -15 -23 -15h-38q-16 0 -23 15l-208 446v-562q0 -20 -20 -20h-30q-20 0 -20 20v660q0 20 20 20h30h22q16 0 23 -15l225 -485l225 485q7 15 23 15h31h21z" />
    <glyph glyph-name="uni041D" unicode="&#x41d;" 
d="M530 700q20 0 20 -20v-660q0 -20 -20 -20h-30q-20 0 -20 20v307h-330v-307q0 -20 -20 -20h-30q-20 0 -20 20v660q0 20 20 20h30q20 0 20 -20v-287h330v287q0 20 20 20h30z" />
    <glyph glyph-name="uni041E" unicode="&#x41e;" horiz-adv-x="804" 
d="M402 -12q-152 0 -257 105.5t-105 256.5t105 256.5t257 105.5t257 -105.5t105 -256.5t-105 -256.5t-257 -105.5zM402 56q124 0 208 85.5t84 208.5t-84 208.5t-208 85.5t-208 -85.5t-84 -208.5t84 -208.5t208 -85.5z" />
    <glyph glyph-name="uni041F" unicode="&#x41f;" 
d="M530 700q20 0 20 -20v-660q0 -20 -20 -20h-30q-20 0 -20 20v614h-330v-614q0 -20 -20 -20h-30q-20 0 -20 20v660q0 20 20 20h50h370h10z" />
    <glyph glyph-name="uni0420" unicode="&#x420;" horiz-adv-x="580" 
d="M330 700q87 0 148.5 -61.5t61.5 -148.5q0 -86 -61.5 -148t-148.5 -62h-180v-260q0 -20 -20 -20h-30q-20 0 -20 20v660q0 20 20 20h50h180zM330 346q58 0 99 42.5t41 101.5q0 60 -41 102t-99 42h-180v-288h180z" />
    <glyph glyph-name="uni0421" unicode="&#x421;" horiz-adv-x="765" 
d="M407 -12q-159 0 -263 105t-104 257t104 257t263 105q108 0 195.5 -57.5t124.5 -151.5q8 -23 -16 -23h-35q-16 0 -24 15q-31 67 -97.5 108t-147.5 41q-131 0 -214 -85t-83 -209t83 -209t214 -85q81 0 147.5 41t97.5 108q8 15 24 15h35q11 0 16 -6t1 -15
q-37 -95 -124.5 -153t-196.5 -58z" />
    <glyph glyph-name="uni0422" unicode="&#x422;" horiz-adv-x="500" 
d="M460 700q20 0 20 -20v-26q0 -20 -20 -20h-175v-614q0 -20 -20 -20h-30q-20 0 -20 20v614h-175q-20 0 -20 20v26q0 20 20 20h245h175z" />
    <glyph glyph-name="uni0423" unicode="&#x423;" horiz-adv-x="570" 
d="M535 700q25 0 15 -23l-223 -524q-65 -154 -203 -154q-20 0 -20 21v23q0 20 21 20q47 -1 78.5 22t53.5 74l14 33l-230 484q-5 10 -0.5 17t15.5 7h30q16 0 23 -15l195 -415l177 415q5 15 24 15h30z" />
    <glyph glyph-name="uni0424" unicode="&#x424;" horiz-adv-x="804" 
d="M774 350q0 -83 -44 -143.5t-118.5 -91.5t-174.5 -36v-59q0 -20 -20 -20h-30q-20 0 -20 20v59q-152 7 -244.5 77t-92.5 194t92.5 194t244.5 77v59q0 20 20 20h30q20 0 20 -20v-59q100 -5 174.5 -36t118.5 -91.5t44 -143.5zM100 350q0 -97 72 -149t195 -58v414
q-123 -6 -195 -58t-72 -149zM437 143q123 6 195 58t72 149t-72 149t-195 58v-414z" />
    <glyph glyph-name="uni0425" unicode="&#x425;" horiz-adv-x="570" 
d="M535 24q6 -10 2.5 -17t-15.5 -7h-33q-16 0 -24 13l-180 288l-180 -288q-8 -13 -24 -13h-33q-12 0 -15.5 7t2.5 17l212 338l-197 314q-6 10 -2.5 17t15.5 7h33q16 0 24 -13l165 -264l165 264q8 13 24 13h33q12 0 15.5 -7t-2.5 -17l-197 -314z" />
    <glyph glyph-name="uni0426" unicode="&#x426;" horiz-adv-x="660" 
d="M550 66h55q20 0 20 -20v-170q0 -20 -20 -20h-30q-20 0 -20 20v124h-455q-20 0 -20 20v660q0 20 20 20h30q20 0 20 -20v-614h330v614q0 20 20 20h30q20 0 20 -20v-614z" />
    <glyph glyph-name="uni0427" unicode="&#x427;" horiz-adv-x="605" 
d="M505 700q20 0 20 -20v-660q0 -20 -20 -20h-30q-20 0 -20 20v265q-80 -35 -170 -35q-67 0 -117 26t-76.5 71t-26.5 103v230q0 20 20 20h30q20 0 20 -20v-230q0 -40 17 -70t51 -47t82 -17q90 0 170 35v329q0 20 20 20h30z" />
    <glyph glyph-name="uni0428" unicode="&#x428;" horiz-adv-x="910" 
d="M760 680q0 20 20 20h30q20 0 20 -20v-660q0 -20 -20 -20h-710q-20 0 -20 20v660q0 20 20 20h30q20 0 20 -20v-614h270v614q0 20 20 20h30q20 0 20 -20v-614h270v614z" />
    <glyph glyph-name="uni0429" unicode="&#x429;" horiz-adv-x="940" 
d="M830 66h55q20 0 20 -20v-170q0 -20 -20 -20h-30q-20 0 -20 20v124h-735q-20 0 -20 20v660q0 20 20 20h30q20 0 20 -20v-614h270v614q0 20 20 20h30q20 0 20 -20v-614h270v614q0 20 20 20h30q20 0 20 -20v-614z" />
    <glyph glyph-name="uni042A" unicode="&#x42a;" horiz-adv-x="690" 
d="M210 0q-20 0 -20 20v614h-170q-20 0 -20 20v26q0 20 20 20h220q20 0 20 -20v-260h180q87 0 148.5 -62t61.5 -148q0 -87 -61.5 -148.5t-148.5 -61.5h-230zM260 66h180q58 0 99 42t41 102q0 59 -41 101.5t-99 42.5h-180v-288z" />
    <glyph glyph-name="uni042B" unicode="&#x42b;" horiz-adv-x="765" 
d="M100 0q-20 0 -20 20v660q0 20 20 20h30q20 0 20 -20v-260h180q87 0 148.5 -62t61.5 -148q0 -87 -61.5 -148.5t-148.5 -61.5h-230zM635 0q-20 0 -20 20v660q0 20 20 20h30q20 0 20 -20v-660q0 -20 -20 -20h-30zM150 66h180q58 0 99 42t41 102q0 59 -41 101.5t-99 42.5
h-180v-288z" />
    <glyph glyph-name="uni042C" unicode="&#x42c;" horiz-adv-x="580" 
d="M330 420q87 0 148.5 -62t61.5 -148q0 -87 -61.5 -148.5t-148.5 -61.5h-220h-10q-20 0 -20 20v660q0 20 20 20h30q20 0 20 -20v-260h180zM330 66q58 0 99 42t41 102q0 59 -41 101.5t-99 42.5h-180v-288h180z" />
    <glyph glyph-name="uni042D" unicode="&#x42d;" horiz-adv-x="755" 
d="M363 712q155 0 253.5 -104.5t98.5 -257.5t-98.5 -257.5t-253.5 -104.5q-117 0 -202.5 57t-122.5 152q-8 23 16 23h35q17 0 23 -15q32 -69 96.5 -109t154.5 -40q117 0 193.5 74t86.5 187h-363q-20 0 -20 20v26q0 20 20 20h363q-10 113 -86.5 187t-193.5 74
q-90 0 -154.5 -40t-96.5 -109q-6 -15 -23 -15h-35q-24 0 -16 23q37 95 122.5 152t202.5 57z" />
    <glyph glyph-name="uni042E" unicode="&#x42e;" horiz-adv-x="1040" 
d="M638 712q100 0 183.5 -48.5t131 -131.5t47.5 -182t-47.5 -182t-131 -131.5t-183.5 -48.5q-146 0 -247.5 98t-109.5 241h-131v-307q0 -20 -20 -20h-30q-20 0 -20 20v660q0 20 20 20h30q20 0 20 -20v-287h132q16 136 116 227.5t240 91.5zM638 56q124 0 208 85.5t84 208.5
t-84 208.5t-208 85.5t-208 -85.5t-84 -208.5q0 -60 22.5 -114.5t61 -94t93 -62.5t115.5 -23z" />
    <glyph glyph-name="uni042F" unicode="&#x42f;" horiz-adv-x="620" 
d="M520 700q20 0 20 -20v-660q0 -20 -20 -20h-30q-20 0 -20 20v260h-116l-236 -269q-10 -11 -25 -11h-40q-13 0 -16 7.5t5 17.5l226 256q-79 8 -133.5 68t-54.5 141q0 87 61.5 148.5t148.5 61.5h220h10zM290 346h180v288h-180q-58 0 -99 -42t-41 -102q0 -59 41 -101.5
t99 -42.5z" />
    <glyph glyph-name="uni0430" unicode="&#x430;" horiz-adv-x="498" 
d="M250 512q85 0 137.5 -50.5t52.5 -136.5v-305q0 -20 -20 -20h-26q-20 0 -20 20v36q-48 -68 -155 -68q-74 0 -126.5 42t-52.5 119t52.5 119t126.5 42q103 0 155 -65v80q0 63 -35.5 93t-88.5 30q-46 0 -80.5 -21.5t-41.5 -62.5q-5 -19 -21 -19h-26q-21 0 -20 21
q8 65 60 105.5t129 40.5zM235 50q60 0 99.5 28t39.5 71q0 45 -39 72t-100 27q-64 0 -96.5 -27t-32.5 -72t32.5 -72t96.5 -27z" />
    <glyph glyph-name="uni0431" unicode="&#x431;" horiz-adv-x="567" 
d="M292 -12q-108 0 -180 72.5t-72 189.5q0 61 18 112t47 87t64 65.5t72 51.5t69 40.5t55.5 38t30.5 38.5q6 17 21 17h29q23 0 19 -21q-6 -37 -35 -66.5t-70 -52t-84 -46t-84.5 -60t-64.5 -81.5q68 82 169 82t171 -66t70 -167t-69.5 -167.5t-175.5 -66.5zM292 54
q78 0 128.5 47.5t50.5 120.5t-52 121t-132 48q-70 0 -124.5 -44.5t-54.5 -118.5q0 -76 53 -125t131 -49z" />
    <glyph glyph-name="uni0432" unicode="&#x432;" horiz-adv-x="525" 
d="M415 302q41 -20 63 -56.5t22 -82.5q0 -70 -46.5 -116.5t-133.5 -46.5h-210h-20q-20 0 -20 20v460q0 20 20 20h46h134q73 0 116.5 -39.5t43.5 -99.5q0 -31 -15 -59zM270 438h-134v-116h184q16 0 31 -2q13 19 13 41q0 39 -27 59t-67 18zM320 62q54 0 84 27t30 74t-30 73
t-84 26h-184v-200h184z" />
    <glyph glyph-name="uni0433" unicode="&#x433;" horiz-adv-x="375" 
d="M350 500q20 0 20 -20v-24q0 -20 -20 -20h-214v-416q0 -20 -20 -20h-26q-20 0 -20 20v460q0 20 20 20h46h214z" />
    <glyph glyph-name="uni0434" unicode="&#x434;" horiz-adv-x="570" 
d="M520 64q20 0 20 -20v-44v-124q0 -20 -20 -20h-26q-20 0 -20 20v124h-70h-318v-124q0 -20 -20 -20h-26q-20 0 -20 20v160v8q0 20 20 20h41q26 34 38.5 77t12.5 112v227q0 20 20 20h46h225h27q20 0 20 -20v-416h50zM161 64h243v372h-206v-183q0 -113 -37 -189z" />
    <glyph glyph-name="uni0435" unicode="&#x435;" horiz-adv-x="569" 
d="M296 512q74 0 130.5 -37.5t84.5 -97t28 -129.5v-12q-1 -19 -21 -19h-47h-363q10 -76 61.5 -120.5t127.5 -44.5q49 0 86 19.5t57 51.5q9 14 24 14h32q11 0 16.5 -5.5t1.5 -14.5q-26 -58 -84.5 -93.5t-133.5 -35.5q-114 0 -185 74t-71 188q0 112 71 187t185 75zM296 448
q-78 0 -128.5 -46t-59.5 -121h363q-9 79 -58 123t-117 44z" />
    <glyph glyph-name="uni0436" unicode="&#x436;" horiz-adv-x="674" 
d="M633 25q8 -10 5 -17.5t-16 -7.5h-33q-15 0 -25 11l-194 230v-221q0 -20 -20 -20h-26q-20 0 -20 20v221l-194 -230q-10 -11 -25 -11h-33q-13 0 -16 7.5t5 17.5l203 235l-192 215q-8 10 -5 17.5t16 7.5h32q15 0 25 -11l184 -211v202q0 20 20 20h26q20 0 20 -20v-202
l184 211q10 11 25 11h32q13 0 16 -7.5t-5 -17.5l-192 -215z" />
    <glyph glyph-name="uni0437" unicode="&#x437;" horiz-adv-x="420" 
d="M327 281q24 -15 40 -35t24.5 -44t8.5 -51q0 -69 -51 -116t-139 -47q-80 0 -130.5 40.5t-58.5 102.5q-2 20 20 20h26q16 0 21 -19q7 -37 40 -58.5t82 -21.5q56 0 90 26.5t34 72.5t-34 72.5t-90 26.5h-15q-20 0 -20 20v20q0 20 20 20h15q28 0 53 -5q36 28 36 64
q0 39 -26.5 59t-67.5 20q-36 0 -61 -15.5t-31 -48.5q-5 -19 -21 -19h-26q-22 0 -20 21q7 57 49.5 91.5t109.5 34.5q48 0 85 -19.5t56 -52t19 -71.5q0 -51 -38 -88z" />
    <glyph glyph-name="uni0438" unicode="&#x438;" horiz-adv-x="530" 
d="M395 487q10 13 24 13h21q20 0 20 -20v-460q0 -20 -20 -20h-26q-20 0 -20 20v360l-259 -367q-10 -13 -24 -13h-21q-20 0 -20 20v460q0 20 20 20h26q20 0 20 -20v-360z" />
    <glyph glyph-name="uni0439" unicode="&#x439;" horiz-adv-x="530" 
d="M155 580q-20 0 -20 20v18q0 20 20 20h220q20 0 20 -20v-18q0 -20 -20 -20h-220zM395 487q10 13 24 13h21q20 0 20 -20v-460q0 -20 -20 -20h-26q-20 0 -20 20v360l-259 -367q-10 -13 -24 -13h-21q-20 0 -20 20v460q0 20 20 20h26q20 0 20 -20v-360z" />
    <glyph glyph-name="uni043A" unicode="&#x43a;" horiz-adv-x="494" 
d="M448 25q10 -9 6.5 -17t-16.5 -8h-38q-14 0 -24 10l-240 231v-221q0 -20 -20 -20h-26q-20 0 -20 20v460q0 20 20 20h26q20 0 20 -20v-202l230 212q10 10 24 10h38q14 0 16.5 -7.5t-7.5 -17.5l-233 -215z" />
    <glyph glyph-name="uni043B" unicode="&#x43b;" horiz-adv-x="530" 
d="M440 500q20 0 20 -20v-460q0 -20 -20 -20h-26q-20 0 -20 20v416h-206v-223q0 -117 -42 -165.5t-117 -48.5q-19 0 -19 21v22q0 19 20 19q46 1 69 35.5t23 116.5v267q0 20 20 20h46h225h27z" />
    <glyph glyph-name="uni043C" unicode="&#x43c;" 
d="M540 500q20 0 20 -20v-460q0 -20 -20 -20h-26q-20 0 -20 20v370l-145 -275q-7 -14 -24 -14h-23q-14 0 -21 14l-145 275v-370q0 -20 -20 -20h-26q-20 0 -20 20v460q0 20 20 20h26h14q17 0 24 -14l161 -307l161 307q7 14 24 14h25h15z" />
    <glyph glyph-name="uni043D" unicode="&#x43d;" horiz-adv-x="530" 
d="M440 500q20 0 20 -20v-460q0 -20 -20 -20h-26q-20 0 -20 20v198h-258v-198q0 -20 -20 -20h-26q-20 0 -20 20v460q0 20 20 20h26q20 0 20 -20v-198h258v198q0 20 20 20h26z" />
    <glyph glyph-name="uni043E" unicode="&#x43e;" horiz-adv-x="606" 
d="M303 -12q-110 0 -186.5 75.5t-76.5 186.5t76.5 186.5t186.5 75.5t186.5 -75.5t76.5 -186.5t-76.5 -186.5t-186.5 -75.5zM303 52q83 0 140 57.5t57 140.5t-57 140.5t-140 57.5t-140 -57.5t-57 -140.5t57 -140.5t140 -57.5z" />
    <glyph glyph-name="uni043F" unicode="&#x43f;" horiz-adv-x="530" 
d="M440 500q20 0 20 -20v-460q0 -20 -20 -20h-26q-20 0 -20 20v416h-258v-416q0 -20 -20 -20h-26q-20 0 -20 20v460q0 20 20 20h46h277h27z" />
    <glyph glyph-name="uni0440" unicode="&#x440;" horiz-adv-x="636" 
d="M338 512q107 0 182.5 -76t75.5 -186t-75.5 -186t-182.5 -76q-66 0 -118 29t-84 81v-278q0 -20 -20 -20h-26q-20 0 -20 20v660q0 20 20 20h26q20 0 20 -20v-78q32 52 84 81t118 29zM333 52q83 0 140 57.5t57 140.5t-57 140.5t-140 57.5t-140 -57.5t-57 -140.5t57 -140.5
t140 -57.5z" />
    <glyph glyph-name="uni0441" unicode="&#x441;" horiz-adv-x="573" 
d="M519 160q11 0 15.5 -6.5t0.5 -16.5q-26 -67 -89.5 -108t-142.5 -41q-113 0 -188 75.5t-75 186.5t75 186.5t188 75.5q79 0 142 -41t90 -108q4 -10 -0.5 -16.5t-15.5 -6.5h-29q-16 0 -24 15q-23 43 -66 68t-97 25q-83 0 -140 -57.5t-57 -140.5t57 -140.5t140 -57.5
q54 0 97.5 25t65.5 68q8 15 24 15h29z" />
    <glyph glyph-name="uni0442" unicode="&#x442;" horiz-adv-x="400" 
d="M370 500q20 0 20 -20v-24q0 -20 -20 -20h-137v-416q0 -20 -20 -20h-26q-20 0 -20 20v416h-137q-20 0 -20 20v24q0 20 20 20h340z" />
    <glyph glyph-name="uni0443" unicode="&#x443;" horiz-adv-x="480" 
d="M446 500q24 0 16 -23l-186 -523q-24 -69 -73 -111t-109 -43q-9 -1 -14.5 5t-5.5 15v22q0 19 20 19q40 3 70 31t46 74l13 37l-194 474q-4 10 0.5 16.5t15.5 6.5h28q18 0 23 -15l160 -390l138 389q6 16 23 16h29z" />
    <glyph glyph-name="uni0444" unicode="&#x444;" horiz-adv-x="670" 
d="M630 250q0 -105 -72 -178t-190 -83v-169q0 -20 -20 -20h-26q-20 0 -20 20v169q-78 7 -138 42.5t-92 92.5t-32 126q0 105 72 178t190 83v169q0 20 20 20h26q20 0 20 -20v-169q78 -7 138 -42.5t92 -92.5t32 -126zM106 250q0 -78 52.5 -132.5t143.5 -63.5v392
q-91 -9 -143.5 -63.5t-52.5 -132.5zM368 54q91 9 143.5 63.5t52.5 132.5t-52.5 132.5t-143.5 63.5v-392z" />
    <glyph glyph-name="uni0445" unicode="&#x445;" horiz-adv-x="453" 
d="M414 24q7 -10 3 -17t-16 -7h-27q-15 0 -24 13l-125 192l-125 -192q-9 -13 -24 -13h-27q-12 0 -16 7t3 17l153 236l-140 216q-7 10 -3 17t16 7h27q15 0 24 -13l112 -172l112 172q9 13 24 13h27q12 0 16 -7t-3 -17l-140 -216z" />
    <glyph glyph-name="uni0446" unicode="&#x446;" horiz-adv-x="560" 
d="M450 64h60q20 0 20 -20v-168q0 -20 -20 -20h-26q-20 0 -20 20v124h-374q-20 0 -20 20v460q0 20 20 20h26q20 0 20 -20v-416h248v416q0 20 20 20h26q20 0 20 -20v-416z" />
    <glyph glyph-name="uni0447" unicode="&#x447;" horiz-adv-x="500" 
d="M410 500q20 0 20 -20v-460q0 -20 -20 -20h-26q-20 0 -20 20v170q-57 -30 -133 -30q-85 0 -133 44t-48 126v150q0 20 20 20h26q20 0 20 -20v-150q0 -108 115 -108q67 0 133 29v229q0 20 20 20h26z" />
    <glyph glyph-name="uni0448" unicode="&#x448;" horiz-adv-x="750" 
d="M660 500q20 0 20 -20v-460q0 -20 -20 -20h-46h-272h-229h-23q-20 0 -20 20v460q0 20 20 20h26q20 0 20 -20v-416h206v416q0 20 20 20h26q20 0 20 -20v-416h206v416q0 20 20 20h26z" />
    <glyph glyph-name="uni0449" unicode="&#x449;" horiz-adv-x="780" 
d="M730 64q20 0 20 -20v-44v-124q0 -20 -20 -20h-26q-20 0 -20 20v124h-571h-23q-20 0 -20 20v460q0 20 20 20h26q20 0 20 -20v-416h206v416q0 20 20 20h26q20 0 20 -20v-416h206v416q0 20 20 20h26q20 0 20 -20v-416h50z" />
    <glyph glyph-name="uni044A" unicode="&#x44a;" horiz-adv-x="540" 
d="M343 310q70 0 118.5 -43.5t48.5 -111.5t-48.5 -111.5t-118.5 -43.5h-169h-14q-20 0 -20 20v416h-120q-20 0 -20 20v24q0 20 20 20h160h6q20 0 20 -20v-170h137zM343 64q42 0 71.5 25t29.5 66t-29.5 66t-71.5 25h-137v-182h137z" />
    <glyph glyph-name="uni044B" unicode="&#x44b;" horiz-adv-x="646" 
d="M273 310q70 0 118.5 -43.5t48.5 -111.5t-48.5 -111.5t-118.5 -43.5h-169h-14q-20 0 -20 20v460q0 20 20 20h26q20 0 20 -20v-170h137zM556 500q20 0 20 -20v-460q0 -20 -20 -20h-26q-20 0 -20 20v460q0 20 20 20h26zM273 64q42 0 71.5 25t29.5 66t-29.5 66t-71.5 25h-137
v-182h137z" />
    <glyph glyph-name="uni044C" unicode="&#x44c;" horiz-adv-x="470" 
d="M273 310q70 0 118.5 -43.5t48.5 -111.5t-48.5 -111.5t-118.5 -43.5h-169h-14q-20 0 -20 20v460q0 20 20 20h26q20 0 20 -20v-170h137zM273 64q42 0 71.5 25t29.5 66t-29.5 66t-71.5 25h-137v-182h137z" />
    <glyph glyph-name="uni044D" unicode="&#x44d;" horiz-adv-x="570" 
d="M274 512q111 0 183.5 -75t72.5 -187t-72.5 -187t-183.5 -75q-81 0 -145.5 41t-90.5 108q-4 10 0.5 16.5t15.5 6.5h29q17 0 24 -15q22 -42 67 -67.5t100 -25.5q73 0 125 47t63 119h-229q-20 0 -20 20v24q0 20 20 20h229q-11 72 -63 119t-125 47q-55 0 -99.5 -25t-67.5 -68
q-7 -15 -24 -15h-29q-11 0 -15.5 6.5t-0.5 16.5q27 67 91.5 108t144.5 41z" />
    <glyph glyph-name="uni044E" unicode="&#x44e;" horiz-adv-x="800" 
d="M497 512q110 0 186.5 -75.5t76.5 -186.5t-76.5 -186.5t-186.5 -75.5q-101 0 -173.5 65t-83.5 165h-104v-198q0 -20 -20 -20h-26q-20 0 -20 20v460q0 20 20 20h26q20 0 20 -20v-198h104q11 100 83.5 165t173.5 65zM497 52q83 0 140 57.5t57 140.5t-57 140.5t-140 57.5
t-140 -57.5t-57 -140.5t57 -140.5t140 -57.5z" />
    <glyph glyph-name="uni044F" unicode="&#x44f;" horiz-adv-x="500" 
d="M410 500q20 0 20 -20v-460q0 -20 -20 -20h-26q-20 0 -20 20v172h-90l-160 -181q-10 -11 -25 -11h-36q-13 0 -16 7.5t5 17.5l153 170q-59 9 -97 50t-38 100q0 68 48.5 111.5t118.5 43.5h169h14zM227 254h137v182h-137q-42 0 -71.5 -25t-29.5 -66t29.5 -66t71.5 -25z" />
    <glyph glyph-name="uni0451" unicode="&#x451;" horiz-adv-x="569" 
d="M173 580q-18 0 -18 18v44q0 18 18 18h44q18 0 18 -18v-44q0 -18 -18 -18h-44zM373 580q-18 0 -18 18v44q0 18 18 18h44q18 0 18 -18v-44q0 -18 -18 -18h-44zM296 512q74 0 130.5 -37.5t84.5 -97t28 -129.5v-12q-1 -19 -21 -19h-47h-363q10 -76 61.5 -120.5t127.5 -44.5
q49 0 86 19.5t57 51.5q9 14 24 14h32q11 0 16.5 -5.5t1.5 -14.5q-26 -58 -84.5 -93.5t-133.5 -35.5q-114 0 -185 74t-71 188q0 112 71 187t185 75zM296 448q-78 0 -128.5 -46t-59.5 -121h363q-9 79 -58 123t-117 44z" />
    <glyph glyph-name="uni0452" unicode="&#x452;" horiz-adv-x="525" 
d="M300 512q72 0 121 -50.5t49 -134.5v-367q0 -85 -41.5 -130t-118.5 -43q-20 0 -20 20v24q0 20 19 20q49 -1 72 25t23 84v367q0 58 -32 89.5t-84 31.5q-59 0 -100.5 -40t-41.5 -126v-262q0 -20 -20 -20h-26q-20 0 -20 20v556h-50q-20 0 -20 20v14q0 20 20 20h50v50
q0 20 20 20h26q20 0 20 -20v-50h124q20 0 20 -20v-14q0 -20 -20 -20h-124v-142q52 78 154 78z" />
    <glyph glyph-name="uni0453" unicode="&#x453;" horiz-adv-x="375" 
d="M171 570q-10 0 -13.5 6.5t1.5 15.5l60 96q7 12 21 12h39q11 0 14.5 -6.5t-3.5 -15.5l-72 -97q-8 -11 -22 -11h-25zM350 500q20 0 20 -20v-24q0 -20 -20 -20h-214v-416q0 -20 -20 -20h-26q-20 0 -20 20v460q0 20 20 20h46h214z" />
    <glyph glyph-name="uni0454" unicode="&#x454;" horiz-adv-x="570" 
d="M516 160q11 0 15.5 -6.5t0.5 -16.5q-26 -67 -90.5 -108t-145.5 -41q-111 0 -183.5 75t-72.5 187t72.5 187t183.5 75q80 0 144.5 -41t91.5 -108q4 -10 -0.5 -16.5t-15.5 -6.5h-29q-17 0 -24 15q-23 43 -67.5 68t-99.5 25q-73 0 -125 -47t-63 -119h229q20 0 20 -20v-24
q0 -20 -20 -20h-229q11 -72 63 -119t125 -47q55 0 100 25.5t67 67.5q7 15 24 15h29z" />
    <glyph glyph-name="uni0455" unicode="&#x455;" horiz-adv-x="460" 
d="M121 369q0 -35 30.5 -55t73.5 -30.5t86 -23.5t73.5 -45t30.5 -84q0 -62 -51.5 -102.5t-133.5 -40.5q-77 0 -127 36.5t-57 99.5q-2 21 20 21h26q16 0 21 -19q12 -74 117 -74q51 0 85 19.5t34 59.5q0 35 -30.5 55t-73.5 30.5t-86 23.5t-73.5 45t-30.5 84q0 62 49.5 102.5
t125.5 40.5q71 0 119 -37t55 -99q2 -21 -20 -21h-26q-16 0 -21 19q-6 38 -36.5 56t-70.5 18q-44 0 -76.5 -20t-32.5 -59z" />
    <glyph glyph-name="uni0456" unicode="&#x456;" horiz-adv-x="206" 
d="M90 600q-20 0 -20 20v60q0 20 20 20h26q20 0 20 -20v-60q0 -20 -20 -20h-26zM90 0q-20 0 -20 20v460q0 20 20 20h26q20 0 20 -20v-460q0 -20 -20 -20h-26z" />
    <glyph glyph-name="uni0457" unicode="&#x457;" horiz-adv-x="206" 
d="M-19 580q-18 0 -18 18v44q0 18 18 18h44q18 0 18 -18v-44q0 -18 -18 -18h-44zM181 580q-18 0 -18 18v44q0 18 18 18h44q18 0 18 -18v-44q0 -18 -18 -18h-44zM90 0q-20 0 -20 20v460q0 20 20 20h26q20 0 20 -20v-460q0 -20 -20 -20h-26z" />
    <glyph glyph-name="uni0458" unicode="&#x458;" horiz-adv-x="230" 
d="M140 700q20 0 20 -20v-60q0 -20 -20 -20h-26q-20 0 -20 20v60q0 20 20 20h26zM140 500q20 0 20 -20v-520q0 -85 -41.5 -130t-118.5 -43q-20 0 -20 20v24q0 20 19 20q49 -1 72 25t23 84v520q0 20 20 20h26z" />
    <glyph glyph-name="uni0459" unicode="&#x459;" horiz-adv-x="759" 
d="M572 290q67 0 112 -39t45 -106t-45 -106t-112 -39h-154h-14q-20 0 -20 20v416h-196v-223q0 -117 -42 -165.5t-117 -48.5q-19 0 -19 21v22q0 19 20 19q46 1 69 35.5t23 116.5v267q0 20 20 20h46h215h27q20 0 20 -20v-190h122zM572 64q40 0 65.5 20.5t25.5 60.5t-25.5 60.5
t-65.5 20.5h-122v-162h122z" />
    <glyph glyph-name="uni045A" unicode="&#x45a;" horiz-adv-x="759" 
d="M572 290q67 0 112 -39t45 -106t-45 -106t-112 -39h-154h-14q-20 0 -20 20v206h-248v-206q0 -20 -20 -20h-26q-20 0 -20 20v460q0 20 20 20h26q20 0 20 -20v-190h248v190q0 20 20 20h26q20 0 20 -20v-190h122zM572 64q40 0 65.5 20.5t25.5 60.5t-25.5 60.5t-65.5 20.5
h-122v-162h122z" />
    <glyph glyph-name="uni045B" unicode="&#x45b;" horiz-adv-x="528" 
d="M300 512q72 0 121 -50.5t49 -134.5v-307q0 -20 -20 -20h-26q-20 0 -20 20v307q0 58 -32 89.5t-84 31.5q-59 0 -100.5 -40t-41.5 -126v-262q0 -20 -20 -20h-26q-20 0 -20 20v556h-50q-20 0 -20 20v14q0 20 20 20h50v50q0 20 20 20h26q20 0 20 -20v-50h124q20 0 20 -20v-14
q0 -20 -20 -20h-124v-142q52 78 154 78z" />
    <glyph glyph-name="uni045C" unicode="&#x45c;" horiz-adv-x="494" 
d="M221 570q-10 0 -13.5 6.5t1.5 15.5l60 96q7 12 21 12h39q11 0 14.5 -6.5t-3.5 -15.5l-72 -97q-8 -11 -22 -11h-25zM448 25q10 -9 6.5 -17t-16.5 -8h-38q-14 0 -24 10l-240 231v-221q0 -20 -20 -20h-26q-20 0 -20 20v460q0 20 20 20h26q20 0 20 -20v-202l230 212
q10 10 24 10h38q14 0 16.5 -7.5t-7.5 -17.5l-233 -215z" />
    <glyph glyph-name="uni045E" unicode="&#x45e;" horiz-adv-x="480" 
d="M133 580q-20 0 -20 20v18q0 20 20 20h220q20 0 20 -20v-18q0 -20 -20 -20h-220zM446 500q24 0 16 -23l-186 -523q-24 -69 -73 -111t-109 -43q-9 -1 -14.5 5t-5.5 15v22q0 19 20 19q40 3 70 31t46 74l13 37l-194 474q-4 10 0.5 16.5t15.5 6.5h28q18 0 23 -15l160 -390
l138 389q6 16 23 16h29z" />
    <glyph glyph-name="uni045F" unicode="&#x45f;" horiz-adv-x="530" 
d="M440 500q20 0 20 -20v-460q0 -20 -20 -20h-46h-96v-124q0 -20 -20 -20h-26q-20 0 -20 20v124h-119h-23q-20 0 -20 20v460q0 20 20 20h26q20 0 20 -20v-416h258v416q0 20 20 20h26z" />
    <glyph glyph-name="uni0490" unicode="&#x490;" horiz-adv-x="490" 
d="M450 820q20 0 20 -20v-130v-16q0 -20 -20 -20h-300v-614q0 -20 -20 -20h-30q-20 0 -20 20v660q0 20 20 20h50h250v100q0 20 20 20h30z" />
    <glyph glyph-name="uni0491" unicode="&#x491;" horiz-adv-x="375" 
d="M350 604q20 0 20 -20v-128v-20h-66h-168v-416q0 -20 -20 -20h-26q-20 0 -20 20v460q0 20 20 20h46h168v84q0 20 20 20h26z" />
    <glyph glyph-name="Wgrave" unicode="&#x1e80;" horiz-adv-x="860" 
d="M398 781l-72 97q-7 9 -3.5 15.5t14.5 6.5h39q14 0 21 -12l60 -96q5 -9 1.5 -15.5t-13.5 -6.5h-25q-14 0 -22 11zM826 700q11 0 15.5 -6.5t1.5 -16.5l-206 -660q-5 -17 -22 -17h-58q-17 0 -22 17l-105 337l-105 -337q-5 -17 -22 -17h-58q-17 0 -22 17l-206 660
q-3 10 1.5 16.5t15.5 6.5h27q17 0 22 -17l191 -612l122 391l-67 215q-3 10 1.5 16.5t15.5 6.5h27q17 0 22 -17l191 -612l191 612q5 17 22 17h27z" />
    <glyph glyph-name="wgrave" unicode="&#x1e81;" horiz-adv-x="680" 
d="M308 581l-72 97q-7 9 -3.5 15.5t14.5 6.5h39q14 0 21 -12l60 -96q5 -9 1.5 -15.5t-13.5 -6.5h-25q-14 0 -22 11zM646 500q7 0 11.5 -3t5.5 -8t-1 -12l-160 -461q-6 -16 -23 -16h-21h-17q-17 0 -23 16l-77 223l-79 -223q-6 -16 -23 -16h-21h-17q-17 0 -23 16l-160 461
q-4 10 0.5 16.5t15.5 6.5h29q16 0 22 -16l135 -408l89 254l-51 147q-8 23 16 23h29q16 0 22 -16l135 -407l135 407q6 16 22 16h29z" />
    <glyph glyph-name="Wacute" unicode="&#x1e82;" horiz-adv-x="860" 
d="M405 770q-10 0 -13.5 6.5t1.5 15.5l60 96q7 12 21 12h39q11 0 14.5 -6.5t-3.5 -15.5l-72 -97q-8 -11 -22 -11h-25zM826 700q11 0 15.5 -6.5t1.5 -16.5l-206 -660q-5 -17 -22 -17h-58q-17 0 -22 17l-105 337l-105 -337q-5 -17 -22 -17h-58q-17 0 -22 17l-206 660
q-3 10 1.5 16.5t15.5 6.5h27q17 0 22 -17l191 -612l122 391l-67 215q-3 10 1.5 16.5t15.5 6.5h27q17 0 22 -17l191 -612l191 612q5 17 22 17h27z" />
    <glyph glyph-name="wacute" unicode="&#x1e83;" horiz-adv-x="680" 
d="M315 570q-10 0 -13.5 6.5t1.5 15.5l60 96q7 12 21 12h39q11 0 14.5 -6.5t-3.5 -15.5l-72 -97q-8 -11 -22 -11h-25zM646 500q7 0 11.5 -3t5.5 -8t-1 -12l-160 -461q-6 -16 -23 -16h-21h-17q-17 0 -23 16l-77 223l-79 -223q-6 -16 -23 -16h-21h-17q-17 0 -23 16l-160 461
q-4 10 0.5 16.5t15.5 6.5h29q16 0 22 -16l135 -408l89 254l-51 147q-8 23 16 23h29q16 0 22 -16l135 -407l135 407q6 16 22 16h29z" />
    <glyph glyph-name="Wdieresis" unicode="&#x1e84;" horiz-adv-x="860" 
d="M308 780q-18 0 -18 18v44q0 18 18 18h44q18 0 18 -18v-44q0 -18 -18 -18h-44zM508 780q-18 0 -18 18v44q0 18 18 18h44q18 0 18 -18v-44q0 -18 -18 -18h-44zM826 700q11 0 15.5 -6.5t1.5 -16.5l-206 -660q-5 -17 -22 -17h-58q-17 0 -22 17l-105 337l-105 -337
q-5 -17 -22 -17h-58q-17 0 -22 17l-206 660q-3 10 1.5 16.5t15.5 6.5h27q17 0 22 -17l191 -612l122 391l-67 215q-3 10 1.5 16.5t15.5 6.5h27q17 0 22 -17l191 -612l191 612q5 17 22 17h27z" />
    <glyph glyph-name="wdieresis" unicode="&#x1e85;" horiz-adv-x="680" 
d="M218 580q-18 0 -18 18v44q0 18 18 18h44q18 0 18 -18v-44q0 -18 -18 -18h-44zM418 580q-18 0 -18 18v44q0 18 18 18h44q18 0 18 -18v-44q0 -18 -18 -18h-44zM646 500q7 0 11.5 -3t5.5 -8t-1 -12l-160 -461q-6 -16 -23 -16h-21h-17q-17 0 -23 16l-77 223l-79 -223
q-6 -16 -23 -16h-21h-17q-17 0 -23 16l-160 461q-4 10 0.5 16.5t15.5 6.5h29q16 0 22 -16l135 -408l89 254l-51 147q-8 23 16 23h29q16 0 22 -16l135 -407l135 407q6 16 22 16h29z" />
    <glyph glyph-name="Ygrave" unicode="&#x1ef2;" horiz-adv-x="575" 
d="M252 781l-72 97q-7 9 -3.5 15.5t14.5 6.5h39q14 0 21 -12l60 -96q5 -9 1.5 -15.5t-13.5 -6.5h-25q-14 0 -22 11zM536 700q12 0 16 -7t-3 -17l-227 -350v-306q0 -20 -20 -20h-30q-20 0 -20 20v308l-226 348q-7 10 -3 17t16 7h34q15 0 24 -13l191 -293l190 293q9 13 24 13
h34z" />
    <glyph glyph-name="ygrave" unicode="&#x1ef3;" horiz-adv-x="470" 
d="M250 570q10 0 13.5 6.5t-1.5 15.5l-60 96q-7 12 -21 12h-39q-11 0 -14.5 -6.5t3.5 -15.5l72 -97q8 -11 22 -11h25zM384 484q6 16 23 16h29q24 0 16 -23l-235 -661q-6 -16 -23 -16h-29q-24 0 -16 23l64 181l-193 473q-10 23 15 23h28q18 0 23 -15l160 -389z" />
    <glyph glyph-name="endash" unicode="&#x2013;" horiz-adv-x="660" 
d="M100 277q-20 0 -20 20v24q0 20 20 20h460q20 0 20 -20v-24q0 -20 -20 -20h-460z" />
    <glyph glyph-name="emdash" unicode="&#x2014;" horiz-adv-x="760" 
d="M100 277q-20 0 -20 20v24q0 20 20 20h560q20 0 20 -20v-24q0 -20 -20 -20h-560z" />
    <glyph glyph-name="quoteleft" unicode="&#x2018;" horiz-adv-x="230" 
d="M150 660q-35 -18 -35 -85h25q20 0 20 -20v-50q0 -20 -20 -20h-50q-20 0 -20 20v70q0 105 75 127q15 3 15 -13v-12q0 -10 -10 -17z" />
    <glyph glyph-name="quoteright" unicode="&#x2019;" horiz-adv-x="230" 
d="M140 700q20 0 20 -20v-70q0 -104 -75 -127q-15 -3 -15 13v12q0 10 10 17q35 17 35 85h-25q-20 0 -20 20v50q0 20 20 20h50z" />
    <glyph glyph-name="quotesinglbase" unicode="&#x201a;" horiz-adv-x="230" 
d="M140 90q20 0 20 -20v-70q0 -104 -75 -127q-15 -3 -15 13v12q0 10 10 17q35 17 35 85h-25q-20 0 -20 20v50q0 20 20 20h50z" />
    <glyph glyph-name="quotedblleft" unicode="&#x201c;" horiz-adv-x="370" 
d="M145 702q15 3 15 -13v-12q0 -10 -10 -17q-35 -18 -35 -85h25q20 0 20 -20v-50q0 -20 -20 -20h-50q-20 0 -20 20v70q0 105 75 127zM290 660q-35 -18 -35 -85h25q20 0 20 -20v-50q0 -20 -20 -20h-50q-20 0 -20 20v70q0 105 75 127q15 3 15 -13v-12q0 -10 -10 -17z" />
    <glyph glyph-name="quotedblright" unicode="&#x201d;" horiz-adv-x="370" 
d="M140 700q20 0 20 -20v-70q0 -104 -75 -127q-15 -3 -15 13v12q0 10 10 17q35 17 35 85h-25q-20 0 -20 20v50q0 20 20 20h50zM280 700q20 0 20 -20v-70q0 -104 -75 -127q-15 -3 -15 13v12q0 10 10 17q35 17 35 85h-25q-20 0 -20 20v50q0 20 20 20h50z" />
    <glyph glyph-name="quotedblbase" unicode="&#x201e;" horiz-adv-x="370" 
d="M140 90q20 0 20 -20v-70q0 -104 -75 -127q-15 -3 -15 13v12q0 10 10 17q35 17 35 85h-25q-20 0 -20 20v50q0 20 20 20h50zM280 90q20 0 20 -20v-70q0 -104 -75 -127q-15 -3 -15 13v12q0 10 10 17q35 17 35 85h-25q-20 0 -20 20v50q0 20 20 20h50z" />
    <glyph glyph-name="dagger" unicode="&#x2020;" horiz-adv-x="480" 
d="M400 535q20 0 20 -20v-24q0 -20 -20 -20h-127v-451q0 -20 -20 -20h-26q-20 0 -20 20v451h-127q-20 0 -20 20v24q0 20 20 20h127v145q0 20 20 20h26q20 0 20 -20v-145h127z" />
    <glyph glyph-name="daggerdbl" unicode="&#x2021;" horiz-adv-x="480" 
d="M400 471h-127v-242h127q20 0 20 -20v-24q0 -20 -20 -20h-127v-145q0 -20 -20 -20h-26q-20 0 -20 20v145h-127q-20 0 -20 20v24q0 20 20 20h127v242h-127q-20 0 -20 20v24q0 20 20 20h127v145q0 20 20 20h26q20 0 20 -20v-145h127q20 0 20 -20v-24q0 -20 -20 -20z" />
    <glyph glyph-name="bullet" unicode="&#x2022;" horiz-adv-x="300" 
d="M151 250q-42 0 -71.5 29.5t-29.5 71.5q0 41 29.5 70t71.5 29q41 0 70 -29t29 -70q0 -42 -29 -71.5t-70 -29.5z" />
    <glyph glyph-name="ellipsis" unicode="&#x2026;" horiz-adv-x="610" 
d="M90 0q-20 0 -20 20v50q0 20 20 20h50q20 0 20 -20v-50q0 -20 -20 -20h-50zM280 0q-20 0 -20 20v50q0 20 20 20h50q20 0 20 -20v-50q0 -20 -20 -20h-50zM470 0q-20 0 -20 20v50q0 20 20 20h50q20 0 20 -20v-50q0 -20 -20 -20h-50z" />
    <glyph glyph-name="perthousand" unicode="&#x2030;" horiz-adv-x="1089" 
d="M213 412q-65 0 -109 43.5t-44 106.5t44 106.5t109 43.5t109 -43.5t44 -106.5t-43 -106.5t-110 -43.5zM120 0q-12 0 -16 7t3 17l465 663q10 13 24 13h33q12 0 16 -7t-3 -17l-466 -663q-10 -13 -24 -13h-32zM213 472q39 0 64 26t25 64t-25 64t-64 26t-64 -26t-25 -64
t25 -64t64 -26zM536 -12q-65 0 -109 43.5t-44 106.5t44 106.5t109 43.5t109 -43.5t44 -106.5t-44 -106.5t-109 -43.5zM896 -12q-65 0 -109 43.5t-44 106.5t44 106.5t109 43.5t109 -43.5t44 -106.5t-44 -106.5t-109 -43.5zM536 48q39 0 64 26t25 64t-25 64t-64 26t-64 -26
t-25 -64t25 -64t64 -26zM896 48q39 0 64 26t25 64t-25 64t-64 26t-64 -26t-25 -64t25 -64t64 -26z" />
    <glyph glyph-name="guilsinglleft" unicode="&#x2039;" horiz-adv-x="332" 
d="M234 489q12 0 15.5 -6.5t-2.5 -17.5l-95 -156l95 -156q6 -11 2.5 -17.5t-15.5 -6.5h-38q-16 0 -24 13l-94 153q-9 14 0 28l94 153q8 13 24 13h38z" />
    <glyph glyph-name="guilsinglright" unicode="&#x203a;" horiz-adv-x="332" 
d="M98 489h38q16 0 24 -13l94 -153q9 -14 0 -28l-94 -153q-8 -13 -24 -13h-38q-12 0 -15.5 6.5t2.5 17.5l95 156l-95 156q-6 11 -2.5 17.5t15.5 6.5z" />
    <glyph glyph-name="fraction" unicode="&#x2044;" horiz-adv-x="220" 
d="M-92 0q-12 0 -16 7t2 17l378 662q7 14 24 14h16q12 0 16 -7t-2 -17l-378 -662q-7 -14 -24 -14h-16z" />
    <glyph glyph-name="Euro" unicode="&#x20ac;" horiz-adv-x="620" 
d="M568 234q10 0 15 -6t4 -16q-19 -105 -82 -164.5t-160 -59.5q-109 0 -176 74.5t-84 203.5h-55q-20 0 -20 20v18q0 20 20 20h50v26q0 17 1 34h-51q-20 0 -20 20v18q0 20 20 20h56q18 126 85 198t174 72q96 0 158 -57.5t81 -158.5q2 -10 -3 -16t-15 -6h-31q-18 0 -21 18
q-10 49 -33 83t-57.5 51.5t-78.5 17.5q-76 0 -124.5 -52.5t-63.5 -149.5h233q20 0 20 -20v-18q0 -20 -20 -20h-239q-1 -17 -1 -34v-26h240q20 0 20 -20v-18q0 -20 -20 -20h-234q14 -101 63 -155.5t126 -54.5q68 0 112.5 41.5t58.5 117.5q3 19 22 19h30z" />
    <glyph glyph-name="uni20BD" unicode="&#x20bd;" horiz-adv-x="590" 
d="M360 280h-180v-94h240q20 0 20 -20v-18q0 -20 -20 -20h-240v-108q0 -20 -20 -20h-30q-20 0 -20 20v108h-70q-20 0 -20 20v18q0 20 20 20h70v94h-70q-20 0 -20 20v26q0 20 20 20h70v334q0 20 20 20h50h180q87 0 148.5 -61.5t61.5 -148.5q0 -86 -61.5 -148t-148.5 -62z
M180 634v-288h180q58 0 99 42.5t41 101.5q0 60 -41 102t-99 42h-180z" />
    <glyph glyph-name="uni2116" unicode="&#x2116;" horiz-adv-x="966" 
d="M773 412q-65 0 -109 43.5t-44 106.5t44 106.5t109 43.5t109 -43.5t44 -106.5t-43 -106.5t-110 -43.5zM480 680q0 20 20 20h30q20 0 20 -20v-660q0 -20 -20 -20h-24q-17 0 -24 13l-332 547v-540q0 -20 -20 -20h-30q-20 0 -20 20v660q0 20 20 20h24q17 0 24 -13l332 -547
v540zM773 472q39 0 64 26t25 64t-25 64t-64 26t-64 -26t-25 -64t25 -64t64 -26zM652 278q-20 0 -20 20v24q0 20 20 20h242q20 0 20 -20v-24q0 -20 -20 -20h-242z" />
    <glyph glyph-name="trademark" unicode="&#x2122;" horiz-adv-x="464" 
d="M185 700q10 0 10 -10v-17q0 -10 -10 -10h-47v-153q0 -10 -10 -10h-20q-10 0 -10 10v153h-48q-10 0 -10 10v17q0 10 10 10h88h47zM414 700q10 0 10 -10v-180q0 -10 -10 -10h-20q-10 0 -10 10v119l-38 -78q-3 -7 -12 -7h-24q-9 0 -12 7l-39 79v-120q0 -10 -10 -10h-20
q-10 0 -10 10v180q0 10 10 10h20h9q9 0 12 -7l52 -108l52 108q3 7 12 7h20h8z" />
    <glyph glyph-name="estimated" unicode="&#x212e;" horiz-adv-x="820" 
d="M410 710q163 0 266.5 -104t103.5 -256q0 -15 -15 -15h-560q-15 0 -15 -15v-192q0 -11 7 -19q84 -89 233 -89q145 0 231 97q7 9 18 9h37q10 0 13 -6t-4 -13q-109 -117 -295 -117q-176 0 -283 103.5t-107 256.5q0 152 103.5 256t266.5 104zM630 572q0 11 -7 19
q-84 89 -213 89t-213 -89q-7 -8 -7 -19v-192q0 -15 15 -15h410q15 0 15 15v192z" />
    <glyph glyph-name="oneeighth" unicode="&#x215b;" horiz-adv-x="802" 
d="M170 300h-28q-17 0 -17 17v315l-85 -46q-9 -5 -14.5 -1.5t-5.5 13.5v31q0 13 12 21l83 45q9 5 21 5h34q17 0 17 -17v-366q0 -17 -17 -17zM559 700q12 0 16 -7t-2 -17l-378 -662q-7 -14 -24 -14h-16q-12 0 -16 7t2 17l378 662q7 14 24 14h16zM712 210q31 -15 48.5 -42
t17.5 -62t-18 -62t-50.5 -41.5t-74.5 -14.5q-64 0 -104 32t-40 86q0 14 3 27t8.5 24.5t14 21t18.5 17.5t22 14q-53 32 -53 88q0 53 37.5 83.5t93.5 30.5q55 0 92.5 -30.5t37.5 -83.5q0 -56 -53 -88zM635 354q-33 0 -51 -15t-18 -41q0 -27 18 -43t51 -16q22 0 37.5 7.5
t23 20.5t7.5 31q0 13 -4.5 23t-13 17.5t-21.5 11.5t-29 4zM635 48q38 0 59.5 18t21.5 48q0 20 -10.5 35t-28.5 22.5t-42 7.5q-40 0 -61 -17t-21 -48q0 -15 5.5 -27t15.5 -20.5t25.5 -13.5t35.5 -5z" />
    <glyph glyph-name="threeeighths" unicode="&#x215c;" horiz-adv-x="907" 
d="M317 417q0 -58 -40 -93.5t-106 -35.5q-40 0 -71.5 13.5t-50.5 39t-23 58.5q-2 18 17 18h28q13 0 18 -16q5 -25 26 -39t56 -14q27 0 46 9t28.5 24t9.5 36q0 31 -22.5 50t-61.5 19h-18q-17 0 -17 17v18q0 11 8 21l82 98h-167q-17 0 -17 17v26q0 17 17 17h224q17 0 17 -17
v-31q0 -10 -8 -21l-81 -97q50 -10 78 -40.5t28 -76.5zM664 700q12 0 16 -7t-2 -17l-378 -662q-7 -14 -24 -14h-16q-12 0 -16 7t2 17l378 662q7 14 24 14h16zM817 211q31 -16 48.5 -43t17.5 -62q0 -54 -39.5 -86t-103.5 -32t-104 32t-40 86q0 23 8 43.5t23 35.5t35 25
q-53 32 -53 88q0 53 37.5 83.5t93.5 30.5q55 0 92.5 -30.5t37.5 -83.5q0 -56 -53 -87zM740 354q-33 0 -51 -15t-18 -41q0 -18 8 -31t23.5 -20.5t37.5 -7.5t37.5 7.5t23 20.5t7.5 31q0 13 -4.5 23t-13 17.5t-21.5 11.5t-29 4zM740 48q38 0 59.5 18t21.5 48q0 20 -10.5 35
t-28.5 22.5t-42 7.5q-40 0 -61 -17t-21 -48q0 -30 21.5 -48t60.5 -18z" />
    <glyph glyph-name="fiveeighths" unicode="&#x215d;" horiz-adv-x="896" 
d="M306 417q0 -59 -38 -94t-105 -35q-62 0 -99.5 30t-42.5 82q-2 17 16 17h29q13 0 18 -16q12 -53 79 -53q38 0 59.5 19t21.5 50q0 34 -21.5 53.5t-59.5 19.5h-107q-18 0 -17 18l13 176q2 16 17 16h204q17 0 17 -17v-24q0 -17 -17 -17h-165l-6 -92h63q63 0 102 -36.5
t39 -96.5zM653 700q12 0 16 -7t-2 -17l-378 -662q-7 -14 -24 -14h-16q-12 0 -16 7t2 17l378 662q7 14 24 14h16zM806 210q31 -15 48.5 -42t17.5 -62t-18 -62t-50.5 -41.5t-74.5 -14.5q-64 0 -104 32t-40 86q0 14 3 27t8.5 24.5t14 21t18.5 17.5t22 14q-53 32 -53 88
q0 53 37.5 83.5t93.5 30.5q55 0 92.5 -30.5t37.5 -83.5q0 -56 -53 -88zM729 354q-33 0 -51 -15t-18 -41q0 -27 18 -43t51 -16q22 0 37.5 7.5t23 20.5t7.5 31q0 13 -4.5 23t-13 17.5t-21.5 11.5t-29 4zM729 48q38 0 59.5 18t21.5 48t-22 47.5t-59 17.5q-40 0 -61 -17t-21 -48
q0 -30 21.5 -48t60.5 -18z" />
    <glyph glyph-name="seveneighths" unicode="&#x215e;" horiz-adv-x="851" 
d="M276 661q0 -10 -4 -21l-138 -327q-6 -13 -20 -13h-30q-9 0 -13 6t0 14l137 320h-181q-17 0 -17 17v26q0 17 17 17h232q17 0 17 -17v-22zM608 700q12 0 16 -7t-2 -17l-378 -662q-7 -14 -24 -14h-16q-12 0 -16 7t2 17l378 662q7 14 24 14h16zM761 210q31 -15 48.5 -42
t17.5 -62t-18 -62t-50.5 -41.5t-74.5 -14.5q-64 0 -104 32t-40 86q0 23 8 43.5t23 35.5t35 25q-53 32 -53 88q0 53 37.5 83.5t93.5 30.5q55 0 92.5 -30.5t37.5 -83.5q0 -56 -53 -88zM684 354q-33 0 -51 -15t-18 -41q0 -27 18 -43t51 -16q22 0 37.5 7.5t23 20.5t7.5 31
q0 13 -4.5 23t-13 17.5t-21.5 11.5t-29 4zM684 48q38 0 59.5 18t21.5 48q0 20 -10.5 35t-28.5 22.5t-42 7.5q-40 0 -61 -17t-21 -48q0 -30 21.5 -48t60.5 -18z" />
    <glyph glyph-name="arrowleft" unicode="&#x2190;" horiz-adv-x="820" 
d="M740 382q20 0 20 -20v-24q0 -20 -20 -20h-558l243 -243q9 -9 6 -17t-16 -8h-41q-14 0 -24 10l-276 276q-14 14 0 28l276 276q10 10 24 10h41q13 0 16 -8t-6 -17l-243 -243h558z" />
    <glyph glyph-name="arrowup" unicode="&#x2191;" horiz-adv-x="720" 
d="M650 410q10 -10 10 -24v-41q0 -13 -8 -16t-17 6l-242 242v-557q0 -20 -20 -20h-26q-20 0 -20 20v557l-242 -242q-9 -9 -17 -6t-8 16v41q0 14 10 24l276 276q14 14 28 0z" />
    <glyph glyph-name="arrowright" unicode="&#x2192;" horiz-adv-x="820" 
d="M746 364q14 -14 0 -28l-276 -276q-10 -10 -24 -10h-41q-13 0 -16 8t6 17l243 243h-558q-20 0 -20 20v24q0 20 20 20h558l-243 243q-9 9 -6 17t16 8h41q14 0 24 -10z" />
    <glyph glyph-name="arrowdown" unicode="&#x2193;" horiz-adv-x="720" 
d="M635 365q9 9 17 6t8 -16v-41q0 -14 -10 -24l-276 -276q-14 -14 -28 0l-276 276q-10 10 -10 24v41q0 13 8 16t17 -6l242 -242v557q0 20 20 20h26q20 0 20 -20v-557z" />
    <glyph glyph-name="arrowboth" unicode="&#x2194;" horiz-adv-x="1040" 
d="M966 364q14 -14 0 -28l-225 -226q-10 -10 -24 -10h-41q-13 0 -16 8t6 17l192 193h-676l192 -193q9 -9 6 -17t-16 -8h-41q-14 0 -24 10l-225 226q-14 14 0 28l225 226q10 10 24 10h41q13 0 16 -8t-6 -17l-192 -193h676l-192 193q-9 9 -6 17t16 8h41q14 0 24 -10z" />
    <glyph glyph-name="arrowupdn" unicode="&#x2195;" horiz-adv-x="620" 
d="M535 496l-192 191v-674l192 191q9 9 17 6t8 -16v-41q0 -14 -10 -24l-226 -225q-14 -14 -28 0l-226 225q-10 10 -10 24v41q0 13 8 16t17 -6l192 -191v674l-192 -191q-9 -9 -17 -6t-8 16v41q0 14 10 24l226 225q14 14 28 0l226 -225q10 -10 10 -24v-41q0 -13 -8 -16t-17 6z
" />
    <glyph glyph-name="uni2196" unicode="&#x2196;" horiz-adv-x="638" 
d="M564 130q14 -14 0 -28l-19 -19q-14 -14 -28 0l-394 394v-342q0 -13 -8 -16t-17 6l-28 28q-10 10 -10 24v390q0 20 20 20h390q14 0 24 -10l28 -28q9 -9 6 -17t-16 -8h-342z" />
    <glyph glyph-name="uni2197" unicode="&#x2197;" horiz-adv-x="638" 
d="M558 587q20 0 20 -20v-390q0 -14 -10 -24l-28 -28q-9 -9 -17 -6t-8 16v342l-394 -394q-14 -14 -28 0l-19 19q-14 14 0 28l394 394h-342q-13 0 -16 8t6 17l28 28q10 10 24 10h390z" />
    <glyph glyph-name="uni2198" unicode="&#x2198;" horiz-adv-x="638" 
d="M568 523q10 -10 10 -24v-390q0 -20 -20 -20h-390q-14 0 -24 10l-28 28q-9 9 -6 17t16 8h342l-394 394q-14 14 0 28l19 19q14 14 28 0l394 -394v342q0 13 8 16t17 -6z" />
    <glyph glyph-name="uni2199" unicode="&#x2199;" horiz-adv-x="638" 
d="M564 574q14 -14 0 -28l-394 -394h342q13 0 16 -8t-6 -17l-28 -28q-10 -10 -24 -10h-390q-20 0 -20 20v390q0 14 10 24l28 28q9 9 17 6t8 -16v-342l394 394q14 14 28 0z" />
    <glyph glyph-name="partialdiff" unicode="&#x2202;" horiz-adv-x="576" 
d="M232 712q121 0 202.5 -100t81.5 -262q0 -170 -73 -266t-186 -96q-96 0 -151.5 60t-55.5 152q0 103 61 166.5t168 63.5q92 0 170 -53q-2 54 -17.5 102.5t-42.5 86t-67.5 59.5t-89.5 22q-62 0 -114 -26q-17 -9 -17 10v34q0 11 9 17q53 30 122 30zM257 52q82 0 133 68.5
t59 189.5q-72 56 -170 56q-49 0 -85.5 -18.5t-57 -56.5t-20.5 -91q0 -42 14.5 -74.5t47 -53t79.5 -20.5z" />
    <glyph glyph-name="emptyset" unicode="&#x2205;" horiz-adv-x="804" 
d="M654 610q52 -50 81 -117.5t29 -142.5q0 -98 -48.5 -181.5t-132 -132t-181.5 -48.5q-116 0 -209 67l-55 -66q-8 -9 -20 -9h-33q-10 0 -13 6.5t4 13.5l74 90q-52 50 -81 117.5t-29 142.5q0 150 106 256t256 106q116 0 209 -67l55 66q8 9 20 9h33q10 0 13 -6t-4 -14z
M100 350q0 -127 88 -215l386 465q-77 54 -172 54q-126 0 -214 -88.5t-88 -215.5zM402 46q126 0 214 88.5t88 215.5t-88 215l-386 -465q77 -54 172 -54z" />
    <glyph glyph-name="product" unicode="&#x220f;" horiz-adv-x="640" 
d="M100 -200q-20 0 -20 20v860q0 20 20 20h440q20 0 20 -20v-860q0 -20 -20 -20h-26q-20 0 -20 20v816h-348v-816q0 -20 -20 -20h-26z" />
    <glyph glyph-name="summation" unicode="&#x2211;" horiz-adv-x="540" 
d="M70 -200q-20 0 -20 20v32q0 11 7 24l233 384l-218 363q-7 13 -7 24v33q0 20 20 20h390q20 0 20 -20v-24q0 -20 -20 -20h-335l219 -362q9 -14 0 -28l-233 -382h364q20 0 20 -20v-24q0 -20 -20 -20h-420z" />
    <glyph glyph-name="minus" unicode="&#x2212;" horiz-adv-x="540" 
d="M80 318q-20 0 -20 20v24q0 20 20 20h380q20 0 20 -20v-24q0 -20 -20 -20h-380z" />
    <glyph glyph-name="radical" unicode="&#x221a;" horiz-adv-x="644" 
d="M301 0q-16 0 -24 14l-129 222h-68q-20 0 -20 20v24q0 20 20 20h90q16 0 24 -14l119 -206l236 704q6 16 22 16h29q24 0 16 -23l-256 -761q-6 -16 -22 -16h-37z" />
    <glyph glyph-name="infinity" unicode="&#x221e;" horiz-adv-x="800" 
d="M584 510q69 0 115 -46t46 -114t-46 -114t-115 -46q-57 0 -100.5 30.5t-83.5 79.5q-39 -49 -83 -79.5t-101 -30.5q-69 0 -115 46t-46 114t46 114t115 46q39 0 76 -17.5t60 -39.5t48 -53q40 49 83.5 79.5t100.5 30.5zM217 250q73 0 145 100q-72 100 -145 100q-43 0 -70 -28
t-27 -72t27 -72t70 -28zM584 250q43 0 70 28t27 72t-27 72t-70 28q-73 0 -145 -100q72 -100 145 -100z" />
    <glyph glyph-name="integral" unicode="&#x222b;" horiz-adv-x="439" 
d="M17 -207q-17 4 -17 23v23q0 21 23 16q43 -10 69 10t34 65l109 640q14 84 62 118t124 18q18 -3 18 -22v-23q0 -22 -23 -17q-99 23 -115 -74l-109 -640q-14 -83 -60 -117.5t-115 -19.5z" />
    <glyph glyph-name="approxequal" unicode="&#x2248;" horiz-adv-x="594" 
d="M101 375l-24 11q-17 8 -11 26q29 73 91 87t155 -41q71 -41 104.5 -35t50.5 51q8 20 26 11l24 -11q18 -8 12 -21q-27 -77 -88.5 -92t-158.5 41q-69 40 -103.5 34.5t-51.5 -50.5q-8 -20 -26 -11zM101 215l-24 11q-17 8 -11 26q29 73 91 87t155 -41q71 -41 104.5 -35
t50.5 51q8 20 26 11l24 -11q17 -8 11 -26q-29 -73 -89.5 -87.5t-156.5 41.5q-69 40 -103.5 34.5t-51.5 -50.5q-8 -20 -26 -11z" />
    <glyph glyph-name="notequal" unicode="&#x2260;" horiz-adv-x="540" 
d="M460 418h-135l-60 -136h195q20 0 20 -20v-24q0 -20 -20 -20h-224l-61 -137q-4 -11 -17 -11h-20q-17 0 -11 16l59 132h-106q-20 0 -20 20v24q0 20 20 20h135l60 136h-195q-20 0 -20 20v24q0 20 20 20h224l61 137q4 11 17 11h20q17 0 11 -16l-59 -132h106q20 0 20 -20v-24
q0 -20 -20 -20z" />
    <glyph glyph-name="lessequal" unicode="&#x2264;" horiz-adv-x="520" 
d="M437 231l-361 141q-16 6 -16 23v32q0 17 16 23l361 141q10 4 16.5 -0.5t6.5 -15.5v-32q0 -17 -16 -23l-301 -109l301 -109q16 -6 16 -23v-32q0 -11 -6.5 -15.5t-16.5 -0.5zM440 100h-360q-20 0 -20 20v24q0 20 20 20h360q20 0 20 -20v-24q0 -20 -20 -20z" />
    <glyph glyph-name="greaterequal" unicode="&#x2265;" horiz-adv-x="520" 
d="M83 231q-10 -4 -16.5 0.5t-6.5 15.5v32q0 17 16 23l301 109l-301 109q-16 6 -16 23v32q0 11 6.5 15.5t16.5 0.5l361 -141q16 -6 16 -23v-32q0 -17 -16 -23zM80 100q-20 0 -20 20v24q0 20 20 20h360q20 0 20 -20v-24q0 -20 -20 -20h-360z" />
    <glyph glyph-name="lozenge" unicode="&#x25ca;" horiz-adv-x="540" 
d="M252 0q-16 0 -24 14l-171 322q-8 14 0 28l171 322q8 14 24 14h36q16 0 24 -14l171 -322q8 -14 0 -28l-171 -322q-8 -14 -24 -14h-36zM270 71l149 279l-149 279l-149 -279z" />
    <glyph glyph-name="i.loclTRK" horiz-adv-x="206" 
d="M76 580q-18 0 -18 18v54q0 18 18 18h54q18 0 18 -18v-54q0 -18 -18 -18h-54zM90 0q-20 0 -20 20v460q0 20 20 20h26q20 0 20 -20v-460q0 -20 -20 -20h-26z" />
    <glyph glyph-name="a.ss01" horiz-adv-x="636" 
d="M546 500q20 0 20 -20v-460q0 -20 -20 -20h-26q-20 0 -20 20v78q-32 -52 -84 -81t-118 -29q-107 0 -182.5 76t-75.5 186t75.5 186t182.5 76q44 0 82.5 -13.5t68.5 -38t51 -58.5v78q0 20 20 20h26zM303 52q83 0 140 57.5t57 140.5t-57 140.5t-140 57.5t-140 -57.5
t-57 -140.5t57 -140.5t140 -57.5z" />
    <glyph glyph-name="aacute.ss01" horiz-adv-x="636" 
d="M275 570q-10 0 -13.5 6.5t1.5 15.5l60 96q7 12 21 12h39q11 0 14.5 -6.5t-3.5 -15.5l-72 -97q-8 -11 -22 -11h-25zM546 500q20 0 20 -20v-460q0 -20 -20 -20h-26q-20 0 -20 20v78q-32 -52 -84 -81t-118 -29q-107 0 -182.5 76t-75.5 186t75.5 186t182.5 76
q44 0 82.5 -13.5t68.5 -38t51 -58.5v78q0 20 20 20h26zM303 52q83 0 140 57.5t57 140.5t-57 140.5t-140 57.5t-140 -57.5t-57 -140.5t57 -140.5t140 -57.5z" />
    <glyph glyph-name="abreve.ss01" horiz-adv-x="636" 
d="M300 562q-59 0 -96 29t-43 82q-2 19 17 19h29q17 0 18 -18q8 -54 75 -54t75 54q1 18 18 18h29q18 0 17 -18q-5 -54 -42 -83t-97 -29zM546 500q20 0 20 -20v-460q0 -20 -20 -20h-26q-20 0 -20 20v78q-32 -52 -84 -81t-118 -29q-107 0 -182.5 76t-75.5 186t75.5 186
t182.5 76q44 0 82.5 -13.5t68.5 -38t51 -58.5v78q0 20 20 20h26zM303 52q83 0 140 57.5t57 140.5t-57 140.5t-140 57.5t-140 -57.5t-57 -140.5t57 -140.5t140 -57.5z" />
    <glyph glyph-name="acircumflex.ss01" horiz-adv-x="636" 
d="M183 570q-11 0 -14 6.5t4 15.5l79 98q8 10 22 10h33h19q14 0 22 -10l79 -98q7 -9 4 -15.5t-14 -6.5h-33q-14 0 -22 11l-62 76l-62 -76q-8 -11 -22 -11h-33zM546 500q20 0 20 -20v-460q0 -20 -20 -20h-26q-20 0 -20 20v78q-32 -52 -84 -81t-118 -29q-107 0 -182.5 76
t-75.5 186t75.5 186t182.5 76q44 0 82.5 -13.5t68.5 -38t51 -58.5v78q0 20 20 20h26zM303 52q83 0 140 57.5t57 140.5t-57 140.5t-140 57.5t-140 -57.5t-57 -140.5t57 -140.5t140 -57.5z" />
    <glyph glyph-name="adieresis.ss01" horiz-adv-x="636" 
d="M178 580q-18 0 -18 18v44q0 18 18 18h44q18 0 18 -18v-44q0 -18 -18 -18h-44zM378 580q-18 0 -18 18v44q0 18 18 18h44q18 0 18 -18v-44q0 -18 -18 -18h-44zM546 500q20 0 20 -20v-460q0 -20 -20 -20h-26q-20 0 -20 20v78q-32 -52 -84 -81t-118 -29q-107 0 -182.5 76
t-75.5 186t75.5 186t182.5 76q44 0 82.5 -13.5t68.5 -38t51 -58.5v78q0 20 20 20h26zM303 52q83 0 140 57.5t57 140.5t-57 140.5t-140 57.5t-140 -57.5t-57 -140.5t57 -140.5t140 -57.5z" />
    <glyph glyph-name="agrave.ss01" horiz-adv-x="636" 
d="M268 581l-72 97q-7 9 -3.5 15.5t14.5 6.5h39q14 0 21 -12l60 -96q5 -9 1.5 -15.5t-13.5 -6.5h-25q-14 0 -22 11zM546 500q20 0 20 -20v-460q0 -20 -20 -20h-26q-20 0 -20 20v78q-32 -52 -84 -81t-118 -29q-107 0 -182.5 76t-75.5 186t75.5 186t182.5 76q44 0 82.5 -13.5
t68.5 -38t51 -58.5v78q0 20 20 20h26zM303 52q83 0 140 57.5t57 140.5t-57 140.5t-140 57.5t-140 -57.5t-57 -140.5t57 -140.5t140 -57.5z" />
    <glyph glyph-name="amacron.ss01" horiz-adv-x="636" 
d="M188 580q-18 0 -18 18v22q0 18 18 18h224q18 0 18 -18v-22q0 -18 -18 -18h-224zM546 500q20 0 20 -20v-460q0 -20 -20 -20h-26q-20 0 -20 20v78q-32 -52 -84 -81t-118 -29q-107 0 -182.5 76t-75.5 186t75.5 186t182.5 76q44 0 82.5 -13.5t68.5 -38t51 -58.5v78
q0 20 20 20h26zM303 52q83 0 140 57.5t57 140.5t-57 140.5t-140 57.5t-140 -57.5t-57 -140.5t57 -140.5t140 -57.5z" />
    <glyph glyph-name="aogonek.ss01" horiz-adv-x="636" 
d="M566 480v-460v-2q0 -17 -20 -37q-56 -61 -56 -105q0 -22 14.5 -27.5t41.5 -1.5q20 5 20 -14v-19q0 -16 -12 -19q-20 -7 -47 -7q-39 0 -60.5 21t-21.5 55q0 55 76 150q-1 3 -1 6v78q-32 -52 -84 -81t-118 -29q-107 0 -182.5 76t-75.5 186t75.5 186t182.5 76
q44 0 82.5 -13.5t68.5 -38t51 -58.5v78q0 20 20 20h26q20 0 20 -20zM303 52q83 0 140 57.5t57 140.5t-57 140.5t-140 57.5q-33 0 -63 -10t-54 -28t-42 -42.5t-28 -54.5t-10 -63q0 -83 57 -140.5t140 -57.5z" />
    <glyph glyph-name="aring.ss01" horiz-adv-x="636" 
d="M300 550q-47 0 -76.5 28.5t-29.5 71.5t29.5 71.5t76.5 28.5t76.5 -28.5t29.5 -71.5t-29.5 -71.5t-76.5 -28.5zM300 699q-24 0 -37.5 -13.5t-13.5 -35.5t13.5 -35.5t37.5 -13.5q25 0 38.5 13.5t13.5 35.5t-13.5 35.5t-38.5 13.5zM546 500q20 0 20 -20v-460q0 -20 -20 -20
h-26q-20 0 -20 20v78q-32 -52 -84 -81t-118 -29q-107 0 -182.5 76t-75.5 186t75.5 186t182.5 76q44 0 82.5 -13.5t68.5 -38t51 -58.5v78q0 20 20 20h26zM303 52q83 0 140 57.5t57 140.5t-57 140.5t-140 57.5t-140 -57.5t-57 -140.5t57 -140.5t140 -57.5z" />
    <glyph glyph-name="atilde.ss01" horiz-adv-x="636" 
d="M178 580q-19 0 -17 19q3 51 24.5 75t52 21t63.5 -28q20 -16 32.5 -23.5t23.5 -9.5t17 7t7 30q1 19 19 19h22q19 0 17 -19q-3 -51 -24.5 -75t-51.5 -21t-63 28q-20 16 -32.5 23.5t-24 9.5t-17.5 -7t-7 -30q-1 -19 -19 -19h-22zM546 500q20 0 20 -20v-460q0 -20 -20 -20
h-26q-20 0 -20 20v78q-32 -52 -84 -81t-118 -29q-107 0 -182.5 76t-75.5 186t75.5 186t182.5 76q44 0 82.5 -13.5t68.5 -38t51 -58.5v78q0 20 20 20h26zM303 52q83 0 140 57.5t57 140.5t-57 140.5t-140 57.5t-140 -57.5t-57 -140.5t57 -140.5t140 -57.5z" />
    <glyph glyph-name="ae.ss01" horiz-adv-x="1029" 
d="M759 512q74 0 129.5 -38t83 -97t27.5 -129q0 -8 -1 -14q-3 -16 -16 -17h-51h-363q7 -50 32.5 -87.5t66 -57.5t90.5 -20q49 0 86.5 20t57.5 52q7 13 22 13h36q10 0 14.5 -5t1.5 -13q-26 -60 -81 -95.5t-130 -35.5q-137 0 -198 109v-79q0 -18 -18 -18h-30q-18 0 -18 18v80
q-32 -52 -84 -81t-118 -29q-70 0 -129 34.5t-94 94.5t-35 133q0 110 75.5 186t182.5 76q44 0 82.5 -13.5t68.5 -38t51 -58.5v80q0 18 18 18h30q18 0 18 -18v-81q19 34 46.5 58.5t65 38.5t81.5 14zM303 52q83 0 140 57.5t57 140.5t-57 140.5t-140 57.5q-55 0 -100 -26
t-71 -71.5t-26 -100.5q0 -83 57 -140.5t140 -57.5zM756 448q-78 0 -128.5 -46t-59.5 -121h363q-9 79 -58 123t-117 44z" />
    <glyph glyph-name="y.ss01" horiz-adv-x="518" 
d="M428 500q20 0 20 -20v-505q0 -86 -52.5 -136.5t-137.5 -50.5q-77 0 -129 40.5t-60 105.5q-2 21 20 21h26q16 0 21 -19q5 -27 23.5 -46.5t43.5 -28.5t55 -9q53 0 88.5 30t35.5 93v91q-52 -78 -154 -78q-72 0 -121 50.5t-49 134.5v307q0 20 20 20h26q20 0 20 -20v-307
q0 -58 32 -89.5t84 -31.5q59 0 100.5 40t41.5 126v262q0 20 20 20h26z" />
    <glyph glyph-name="yacute.ss01" horiz-adv-x="518" 
d="M228 570q-10 0 -13.5 6.5t1.5 15.5l60 96q7 12 21 12h39q11 0 14.5 -6.5t-3.5 -15.5l-72 -97q-8 -11 -22 -11h-25zM428 500q20 0 20 -20v-505q0 -86 -52.5 -136.5t-137.5 -50.5q-77 0 -129 40.5t-60 105.5q-2 21 20 21h26q16 0 21 -19q5 -27 23.5 -46.5t43.5 -28.5t55 -9
q53 0 88.5 30t35.5 93v91q-52 -78 -154 -78q-72 0 -121 50.5t-49 134.5v307q0 20 20 20h26q20 0 20 -20v-307q0 -58 32 -89.5t84 -31.5q59 0 100.5 40t41.5 126v262q0 20 20 20h26z" />
    <glyph glyph-name="ycircumflex.ss01" horiz-adv-x="518" 
d="M136 570q-11 0 -14 6.5t4 15.5l79 98q7 10 22 10h33h19q15 0 22 -10l79 -98q7 -9 4 -15.5t-14 -6.5h-33q-14 0 -22 11l-62 76l-62 -76q-8 -11 -22 -11h-33zM428 500q20 0 20 -20v-505q0 -86 -52.5 -136.5t-137.5 -50.5q-77 0 -129 40.5t-60 105.5q-2 21 20 21h26
q16 0 21 -19q5 -27 23.5 -46.5t43.5 -28.5t55 -9q53 0 88.5 30t35.5 93v91q-52 -78 -154 -78q-72 0 -121 50.5t-49 134.5v307q0 20 20 20h26q20 0 20 -20v-307q0 -58 32 -89.5t84 -31.5q59 0 100.5 40t41.5 126v262q0 20 20 20h26z" />
    <glyph glyph-name="ydieresis.ss01" horiz-adv-x="518" 
d="M131 580q-18 0 -18 18v44q0 18 18 18h44q18 0 18 -18v-44q0 -18 -18 -18h-44zM331 580q-18 0 -18 18v44q0 18 18 18h44q18 0 18 -18v-44q0 -18 -18 -18h-44zM428 500q20 0 20 -20v-505q0 -86 -52.5 -136.5t-137.5 -50.5q-77 0 -129 40.5t-60 105.5q-2 21 20 21h26
q16 0 21 -19q5 -27 23.5 -46.5t43.5 -28.5t55 -9q53 0 88.5 30t35.5 93v91q-52 -78 -154 -78q-72 0 -121 50.5t-49 134.5v307q0 20 20 20h26q20 0 20 -20v-307q0 -58 32 -89.5t84 -31.5q59 0 100.5 40t41.5 126v262q0 20 20 20h26z" />
    <glyph glyph-name="ygrave.ss01" horiz-adv-x="518" 
d="M221 581l-72 97q-7 9 -3.5 15.5t14.5 6.5h39q14 0 21 -12l60 -96q5 -9 1.5 -15.5t-13.5 -6.5h-25q-14 0 -22 11zM428 500q20 0 20 -20v-505q0 -86 -52.5 -136.5t-137.5 -50.5q-77 0 -129 40.5t-60 105.5q-2 21 20 21h26q16 0 21 -19q5 -27 23.5 -46.5t43.5 -28.5t55 -9
q53 0 88.5 30t35.5 93v91q-52 -78 -154 -78q-72 0 -121 50.5t-49 134.5v307q0 20 20 20h26q20 0 20 -20v-307q0 -58 32 -89.5t84 -31.5q59 0 100.5 40t41.5 126v262q0 20 20 20h26z" />
    <glyph glyph-name="f_f_j" horiz-adv-x="781" 
d="M691 500q20 0 20 -20v-520q0 -85 -41.5 -130t-118.5 -43q-20 0 -20 20v24q0 20 19 20q49 -1 72 25t23 84v476h-204v-416q0 -20 -20 -20h-26q-20 0 -20 20v416h-85h-119v-416q0 -20 -20 -20h-26q-20 0 -20 20v416h-65q-20 0 -20 20v24q0 20 20 20h65v20q0 93 49.5 143.5
t140.5 49.5q20 0 20 -21v-24q0 -19 -21 -19q-62 1 -92.5 -30.5t-30.5 -98.5v-20h144h60v30q0 192 210 192q33 0 78 -8q18 -4 18 -22v-20q0 -22 -22 -19q-33 5 -74 5q-75 0 -109.5 -29t-34.5 -99v-30h234h16z" />
    <glyph glyph-name="f_j" horiz-adv-x="511" 
d="M421 500q20 0 20 -20v-520q0 -85 -41.5 -130t-118.5 -43q-20 0 -20 20v24q0 20 19 20q49 -1 72 25t23 84v476h-204v-416q0 -20 -20 -20h-26q-20 0 -20 20v416h-65q-20 0 -20 20v24q0 20 20 20h65v20q0 192 210 192q33 0 78 -8q18 -4 18 -22v-20q0 -22 -22 -19
q-33 5 -74 5q-75 0 -109.5 -29t-34.5 -99v-20h234h16z" />
    <glyph glyph-name="uni0414.loclBGR" horiz-adv-x="700" 
d="M655 66q20 0 20 -20v-46v-124q0 -20 -20 -20h-30q-20 0 -20 20v124h-465h-45v-124q0 -20 -20 -20h-30q-20 0 -20 20v160v10q0 20 20 20h44l219 618q6 16 23 16h38q17 0 23 -16l219 -618h44zM163 66h374l-187 547z" />
    <glyph glyph-name="uni041B.loclBGR" horiz-adv-x="608" 
d="M285 700h38q17 0 23 -16l244 -661q4 -10 -1 -16.5t-16 -6.5h-32q-17 0 -23 16l-214 597l-214 -597q-6 -16 -23 -16h-32q-11 0 -16 6.5t-1 16.5l244 661q6 16 23 16z" />
    <glyph glyph-name="uni0424.loclBGR" horiz-adv-x="844" 
d="M804 350q0 -155 -95.5 -252.5t-251.5 -108.5v-69q0 -20 -20 -20h-30q-20 0 -20 20v69q-156 11 -251.5 108.5t-95.5 252.5t95.5 252.5t251.5 108.5v69q0 20 20 20h30q20 0 20 -20v-69q156 -11 251.5 -108.5t95.5 -252.5zM110 350q0 -127 75.5 -206.5t201.5 -90.5v594
q-126 -11 -201.5 -90.5t-75.5 -206.5zM457 53q126 11 201.5 90.5t75.5 206.5t-75.5 206.5t-201.5 90.5v-594z" />
    <glyph glyph-name="uni0414.ss01" horiz-adv-x="660" 
d="M605 66q20 0 20 -20v-26q0 -20 -20 -20h-125h-445q-20 0 -20 20v26q0 20 20 20h37q69 80 69 250v364q0 20 20 20h369q20 0 20 -20v-614h55zM155 66h325v568h-269v-320q0 -164 -56 -248z" />
    <glyph glyph-name="uni0426.ss01" horiz-adv-x="660" 
d="M550 66h55q20 0 20 -20v-26q0 -20 -20 -20h-505q-20 0 -20 20v660q0 20 20 20h30q20 0 20 -20v-614h330v614q0 20 20 20h30q20 0 20 -20v-614z" />
    <glyph glyph-name="uni0429.ss01" horiz-adv-x="940" 
d="M830 66h55q20 0 20 -20v-26q0 -20 -20 -20h-785q-20 0 -20 20v660q0 20 20 20h30q20 0 20 -20v-614h270v614q0 20 20 20h30q20 0 20 -20v-614h270v614q0 20 20 20h30q20 0 20 -20v-614z" />
    <glyph glyph-name="uni0414.loclBGR.ss01" horiz-adv-x="700" 
d="M655 66q20 0 20 -20v-26q0 -20 -20 -20h-95h-494h-21q-20 0 -20 20v26q0 20 20 20h44l219 618q6 16 23 16h38q17 0 23 -16l219 -618h44zM163 66h374l-187 547z" />
    <glyph glyph-name="uni0432.loclBGR" horiz-adv-x="570" 
d="M399 400q62 -20 96.5 -72t34.5 -128q0 -100 -60.5 -156t-169.5 -56t-169.5 64t-60.5 178v235q0 114 58 180.5t160 66.5q55 0 97 -21.5t63.5 -59.5t21.5 -87q0 -80 -71 -144zM288 648q-71 0 -111.5 -49.5t-40.5 -133.5v-81l103 21q43 9 82 8q83 60 83 131q0 45 -31 74.5
t-85 29.5zM300 52q77 0 120.5 39t43.5 109q0 84 -62 123t-163 18l-103 -21v-90q0 -84 43.5 -131t120.5 -47z" />
    <glyph glyph-name="uni0433.loclBGR" horiz-adv-x="450" 
d="M342 126q5 19 21 19h26q21 0 20 -21q-7 -63 -58 -99.5t-127 -36.5q-87 0 -135.5 36.5t-48.5 101.5q0 52 30 84.5t73 46.5t86 26t73 32.5t30 55.5q0 39 -30.5 58t-72.5 19q-43 0 -75 -18.5t-38 -57.5q-5 -19 -21 -19h-26q-21 0 -20 21q7 63 57 100.5t123 37.5t121 -40
t48 -101q0 -52 -30 -84.5t-73 -46.5t-86 -26t-73 -32.5t-30 -55.5q0 -42 30.5 -58t87.5 -16q46 0 78.5 17.5t39.5 56.5z" />
    <glyph glyph-name="uni0434.loclBGR" horiz-adv-x="636" 
d="M546 500q20 0 20 -20v-460q0 -109 -72.5 -170.5t-178.5 -61.5q-87 0 -157.5 48t-80.5 118q-1 21 20 21h26q17 0 21 -18q11 -41 57 -73t114 -32q89 0 137 45t48 123v78q-32 -52 -84 -81t-118 -29q-107 0 -182.5 76t-75.5 186t75.5 186t182.5 76q44 0 82.5 -13.5t68.5 -38
t51 -58.5v78q0 20 20 20h26zM303 52q83 0 140 57.5t57 140.5t-57 140.5t-140 57.5t-140 -57.5t-57 -140.5t57 -140.5t140 -57.5z" />
    <glyph glyph-name="uni0436.loclBGR" horiz-adv-x="674" 
d="M633 25q8 -10 5 -17.5t-16 -7.5h-33q-15 0 -25 11l-194 230v-221q0 -20 -20 -20h-26q-20 0 -20 20v221l-194 -230q-10 -11 -25 -11h-33q-13 0 -16 7.5t5 17.5l203 235l-192 215q-8 10 -5 17.5t16 7.5h32q15 0 25 -11l184 -211v402q0 20 20 20h26q20 0 20 -20v-402
l184 211q10 11 25 11h32q13 0 16 -7.5t-5 -17.5l-192 -215z" />
    <glyph glyph-name="uni0438.loclBGR" horiz-adv-x="518" 
d="M428 500q20 0 20 -20v-460q0 -20 -20 -20h-26q-20 0 -20 20v46q-52 -78 -154 -78q-72 0 -121 50.5t-49 134.5v307q0 20 20 20h26q20 0 20 -20v-307q0 -58 32 -89.5t84 -31.5q59 0 100.5 40t41.5 126v262q0 20 20 20h26z" />
    <glyph glyph-name="uni0439.loclBGR" horiz-adv-x="518" 
d="M145 580q-20 0 -20 20v18q0 20 20 20h220q20 0 20 -20v-18q0 -20 -20 -20h-220zM428 500q20 0 20 -20v-460q0 -20 -20 -20h-26q-20 0 -20 20v46q-52 -78 -154 -78q-72 0 -121 50.5t-49 134.5v307q0 20 20 20h26q20 0 20 -20v-307q0 -58 32 -89.5t84 -31.5q59 0 100.5 40
t41.5 126v262q0 20 20 20h26z" />
    <glyph glyph-name="uni043A.loclBGR" horiz-adv-x="494" 
d="M448 25q10 -9 6.5 -17t-16.5 -8h-38q-14 0 -24 10l-240 231v-221q0 -20 -20 -20h-26q-20 0 -20 20v660q0 20 20 20h26q20 0 20 -20v-402l230 212q10 10 24 10h38q14 0 16.5 -7.5t-7.5 -17.5l-233 -215z" />
    <glyph glyph-name="uni043B.loclBGR" horiz-adv-x="470" 
d="M451 23q8 -23 -16 -23h-28q-17 0 -23 16l-149 411l-149 -411q-6 -16 -23 -16h-28q-24 0 -16 23l170 461q6 16 23 16h25h21q17 0 23 -16z" />
    <glyph glyph-name="uni043F.loclBGR" horiz-adv-x="518" 
d="M290 512q35 0 66 -13t54 -36.5t36.5 -58.5t13.5 -77v-307q0 -20 -20 -20h-26q-20 0 -20 20v307q0 58 -32 89.5t-84 31.5q-59 0 -100.5 -40t-41.5 -126v-262q0 -20 -20 -20h-26q-20 0 -20 20v460q0 20 20 20h26q20 0 20 -20v-46q52 78 154 78z" />
    <glyph glyph-name="uni0442.loclBGR" horiz-adv-x="768" 
d="M552 512q67 0 112.5 -46t45.5 -129v-317q0 -20 -20 -20h-26q-20 0 -20 20v317q0 56 -28 83.5t-71 27.5q-21 0 -40.5 -7t-39 -22.5t-31 -45.5t-11.5 -71v-282q0 -20 -20 -20h-26q-20 0 -20 20v317q0 38 -14 63.5t-35.5 36.5t-49.5 11q-21 0 -40.5 -7t-39 -22.5t-31 -45.5
t-11.5 -71v-282q0 -20 -20 -20h-26q-20 0 -20 20v460q0 20 20 20h26q20 0 20 -20v-38q49 70 134 70q42 0 78 -22t56 -62q50 84 148 84z" />
    <glyph glyph-name="uni0446.loclBGR" horiz-adv-x="554" 
d="M504 64q20 0 20 -20v-44v-124q0 -20 -20 -20h-26q-20 0 -20 20v126q-27 4 -45.5 21.5t-26.5 43.5q-51 -79 -158 -79q-72 0 -121 50.5t-49 134.5v307q0 20 20 20h26q20 0 20 -20v-307q0 -58 32 -89.5t84 -31.5q59 0 100.5 40t41.5 126v262q0 20 20 20h26q20 0 20 -20v-380
q0 -16 10 -26t27 -10h19z" />
    <glyph glyph-name="uni0448.loclBGR" horiz-adv-x="768" 
d="M678 500q20 0 20 -20v-460q0 -20 -20 -20h-26q-20 0 -20 20v38q-49 -70 -134 -70q-42 0 -78 22t-56 62q-50 -84 -148 -84q-67 0 -112.5 46t-45.5 129v317q0 20 20 20h26q20 0 20 -20v-317q0 -56 28 -83.5t71 -27.5q47 0 84.5 34.5t37.5 111.5v282q0 20 20 20h26
q20 0 20 -20v-317q0 -56 28 -83.5t71 -27.5q47 0 84.5 34.5t37.5 111.5v282q0 20 20 20h26z" />
    <glyph glyph-name="uni0449.loclBGR" horiz-adv-x="804" 
d="M754 64q20 0 20 -20v-44v-124q0 -20 -20 -20h-26q-20 0 -20 20v126q-53 9 -70 59q-48 -73 -140 -73q-42 0 -78 22t-56 62q-50 -84 -148 -84q-67 0 -112.5 46t-45.5 129v317q0 20 20 20h26q20 0 20 -20v-317q0 -56 28 -83.5t71 -27.5q47 0 84.5 34.5t37.5 111.5v282
q0 20 20 20h26q20 0 20 -20v-317q0 -56 28 -83.5t71 -27.5q47 0 84.5 34.5t37.5 111.5v282q0 20 20 20h26q20 0 20 -20v-380q0 -16 10 -26t27 -10h19z" />
    <glyph glyph-name="uni044C.loclBGR" horiz-adv-x="478" 
d="M253 338q92 0 143.5 -45t51.5 -125q0 -74 -54.5 -127t-140.5 -53q-90 0 -142.5 51t-52.5 129v312q0 20 20 20h26q20 0 20 -20v-142h129zM253 52q56 0 92.5 35t36.5 81q0 50 -34 78t-95 28h-129v-106q0 -47 35.5 -81.5t93.5 -34.5z" />
    <glyph glyph-name="uni044A.loclBGR" horiz-adv-x="562" 
d="M335 338q92 0 143.5 -45t51.5 -125q0 -74 -54.5 -127t-140.5 -53q-90 0 -142.5 51t-52.5 129v268h-120q-20 0 -20 20v24q0 20 20 20h160h6q20 0 20 -20v-142h129zM335 52q56 0 92.5 35t36.5 81q0 50 -34 78t-95 28h-129v-106q0 -47 35.5 -81.5t93.5 -34.5z" />
    <glyph glyph-name="uni044E.loclBGR" horiz-adv-x="800" 
d="M497 512q110 0 186.5 -75.5t76.5 -186.5t-76.5 -186.5t-186.5 -75.5q-101 0 -173.5 65t-83.5 165h-104v-198q0 -20 -20 -20h-26q-20 0 -20 20v660q0 20 20 20h26q20 0 20 -20v-398h104q11 100 83.5 165t173.5 65zM497 52q83 0 140 57.5t57 140.5t-57 140.5t-140 57.5
t-140 -57.5t-57 -140.5t57 -140.5t140 -57.5z" />
    <glyph glyph-name="uni0430.ss01" horiz-adv-x="636" 
d="M546 500q20 0 20 -20v-460q0 -20 -20 -20h-26q-20 0 -20 20v78q-32 -52 -84 -81t-118 -29q-107 0 -182.5 76t-75.5 186t75.5 186t182.5 76q44 0 82.5 -13.5t68.5 -38t51 -58.5v78q0 20 20 20h26zM303 52q83 0 140 57.5t57 140.5t-57 140.5t-140 57.5t-140 -57.5
t-57 -140.5t57 -140.5t140 -57.5z" />
    <glyph glyph-name="uni0443.ss01" horiz-adv-x="518" 
d="M428 500q20 0 20 -20v-505q0 -86 -52.5 -136.5t-137.5 -50.5q-77 0 -129 40.5t-60 105.5q-2 21 20 21h26q16 0 21 -19q5 -27 23.5 -46.5t43.5 -28.5t55 -9q53 0 88.5 30t35.5 93v91q-52 -78 -154 -78q-72 0 -121 50.5t-49 134.5v307q0 20 20 20h26q20 0 20 -20v-307
q0 -58 32 -89.5t84 -31.5q59 0 100.5 40t41.5 126v262q0 20 20 20h26z" />
    <glyph glyph-name="zero.sinf" horiz-adv-x="410" 
d="M205 -172q-82 0 -128.5 58t-46.5 154t46.5 154t128.5 58t128.5 -58t46.5 -154t-46.5 -154t-128.5 -58zM205 -112q53 0 83 39t30 113t-30 113t-83 39t-83 -39t-30 -113t30 -113t83 -39z" />
    <glyph glyph-name="one.sinf" horiz-adv-x="247" 
d="M115 235q9 5 21 5h34q17 0 17 -17v-366q0 -17 -17 -17h-28q-17 0 -17 17v315l-85 -46q-9 -5 -14.5 -1.5t-5.5 13.5v31q0 13 12 21z" />
    <glyph glyph-name="two.sinf" horiz-adv-x="340" 
d="M47 -160q-17 0 -17 17v22q0 11 9 20l159 146q42 37 42 85q0 28 -19.5 45t-52.5 17q-64 0 -74 -51q-5 -16 -18 -16h-29q-17 0 -16 18q6 50 43.5 79.5t93.5 29.5q60 0 97 -35t37 -87q0 -69 -62 -125l-118 -105h171q17 0 17 -17v-26q0 -17 -17 -17h-246z" />
    <glyph glyph-name="three.sinf" horiz-adv-x="352" 
d="M211 74q50 -10 78 -40.5t28 -76.5q0 -58 -40 -93.5t-106 -35.5q-60 0 -99.5 30.5t-45.5 80.5q-2 18 17 18h28q13 0 18 -16q10 -53 82 -53q40 0 62 18.5t22 50.5q0 31 -22.5 50t-61.5 19h-18q-17 0 -17 17v18q0 11 8 21l82 98h-167q-17 0 -17 17v26q0 17 17 17h224
q17 0 17 -17v-31q0 -10 -8 -21z" />
    <glyph glyph-name="four.sinf" horiz-adv-x="354" 
d="M317 -27q17 0 17 -17v-24q0 -17 -17 -17h-34v-58q0 -17 -17 -17h-28q-17 0 -17 17v58h-189q-17 0 -17 17v30q0 12 5 21l137 245q6 12 21 12h30q10 0 13.5 -6t-1.5 -14l-137 -247h138v79q0 17 17 17h28q17 0 17 -17v-79h34z" />
    <glyph glyph-name="five.sinf" horiz-adv-x="341" 
d="M170 90q63 0 102 -36.5t39 -96.5q0 -59 -38 -94t-105 -35q-62 0 -99.5 30t-42.5 82q-2 17 16 17h29q13 0 18 -16q12 -53 79 -53q38 0 59.5 19t21.5 50q0 34 -21.5 53.5t-59.5 19.5h-107q-19 0 -17 18l13 176q2 16 17 16h204q17 0 17 -17v-24q0 -17 -17 -17h-165l-6 -92
h63z" />
    <glyph glyph-name="six.sinf" horiz-adv-x="335" 
d="M167 107q42 0 76 -18.5t53 -50t19 -70.5q0 -59 -42.5 -99.5t-105.5 -40.5t-105 40.5t-42 99.5q0 38 19 70v1q2 3 4 5l118 185q8 11 20 11h37q10 0 13.5 -6.5t-2.5 -14.5l-78 -113q8 1 16 1zM167 -112q39 0 62.5 22.5t23.5 57.5q0 23 -10.5 41t-30 28t-45.5 10
q-39 0 -62 -22t-23 -57t23.5 -57.5t61.5 -22.5z" />
    <glyph glyph-name="seven.sinf" horiz-adv-x="296" 
d="M10 223q0 17 17 17h232q17 0 17 -17v-22q0 -10 -4 -21l-138 -327q-6 -13 -20 -13h-30q-9 0 -13 6t0 14l137 320h-181q-17 0 -17 17v26z" />
    <glyph glyph-name="eight.sinf" horiz-adv-x="335" 
d="M245 50q31 -15 48.5 -42t17.5 -62q0 -54 -39.5 -86t-103.5 -32t-104 32t-40 86q0 35 17.5 62t48.5 42q-53 32 -53 88q0 53 37.5 83.5t93.5 30.5q36 0 65 -13t47 -39.5t18 -61.5q0 -56 -53 -88zM168 194q-22 0 -37.5 -7t-23.5 -19.5t-8 -29.5q0 -27 18 -43t51 -16
q32 0 50 16t18 43q0 26 -17.5 41t-50.5 15zM168 -112q38 0 59.5 18t21.5 48t-22 47.5t-59 17.5q-40 0 -61 -17t-21 -48q0 -30 21.5 -48t60.5 -18z" />
    <glyph glyph-name="nine.sinf" horiz-adv-x="335" 
d="M296 42v-1q-2 -3 -4 -5l-118 -185q-8 -11 -20 -11h-37q-10 0 -13.5 6.5t2.5 14.5l78 113q-8 -1 -16 -1q-63 0 -105.5 40t-42.5 99t42.5 99.5t105.5 40.5q41 0 75 -18.5t53 -50.5t19 -71q0 -38 -19 -70zM82 112q0 -17 6 -31.5t17 -25t27 -16.5t36 -6q26 0 45 10t29.5 28
t10.5 41q0 35 -23.5 57.5t-61.5 22.5q-26 0 -45.5 -10.5t-30 -28.5t-10.5 -41z" />
    <glyph glyph-name="zero.tf" horiz-adv-x="570" 
d="M285 -12q-126 0 -195.5 98.5t-69.5 263.5t69.5 263.5t195.5 98.5t195.5 -98.5t69.5 -263.5t-69.5 -263.5t-195.5 -98.5zM285 56q92 0 143.5 77t51.5 217t-51.5 217t-143.5 77t-143.5 -77t-51.5 -217t51.5 -217t143.5 -77z" />
    <glyph glyph-name="one.tf" horiz-adv-x="570" 
d="M60 0q-20 0 -20 20v26q0 20 20 20h220v557l-181 -101q-10 -6 -17 -1.5t-7 15.5v34q0 16 14 24l179 100q10 6 25 6h37q20 0 20 -20v-614h170q20 0 20 -20v-26q0 -20 -20 -20h-460z" />
    <glyph glyph-name="two.tf" horiz-adv-x="570" 
d="M65 0q-20 0 -20 20v28q0 15 11 25l242 208q73 62 110 110.5t37 100.5q0 71 -44 111.5t-117 40.5q-64 0 -112.5 -34.5t-55.5 -97.5q-2 -20 -20 -20h-31q-21 0 -19 21q8 92 78.5 145.5t159.5 53.5q99 0 165 -60t66 -160q0 -69 -44 -131.5t-125 -128.5l-201 -164h365
q20 0 20 -20v-28q0 -20 -20 -20h-445z" />
    <glyph glyph-name="three.tf" horiz-adv-x="570" 
d="M331 409q94 -10 151.5 -63.5t57.5 -142.5q0 -101 -72 -158t-183 -57q-105 0 -176 51.5t-78 142.5q-1 21 19 21h31q18 0 20 -19q7 -62 56 -95t128 -33q85 0 135 38t50 109t-50 109t-135 38v1l-1 -1h-29q-20 0 -20 20v12q0 13 9 25l182 227h-346q-20 0 -20 20v26
q0 20 20 20h410q20 0 20 -20v-32q0 -13 -9 -25z" />
    <glyph glyph-name="four.tf" horiz-adv-x="570" 
d="M530 206q20 0 20 -20v-26q0 -20 -20 -20h-70v-120q0 -20 -20 -20h-30q-20 0 -20 20v120h-350q-20 0 -20 20v33q0 13 6 25l246 468q7 14 24 14h33q11 0 15 -7t-1 -17l-247 -470h294v174q0 20 20 20h30q20 0 20 -20v-174h70z" />
    <glyph glyph-name="five.tf" horiz-adv-x="570" 
d="M285 418q104 0 174.5 -57.5t70.5 -157.5t-70.5 -157.5t-174.5 -57.5q-98 0 -167.5 51.5t-76.5 142.5q-1 21 19 21h31q18 0 20 -20q7 -61 54 -94t120 -33q78 0 126.5 38t48.5 109t-48.5 109t-126.5 38h-189q-22 0 -20 21l23 310q2 19 20 19h366q20 0 20 -20v-26
q0 -20 -20 -20h-321l-15 -216h136z" />
    <glyph glyph-name="six.tf" horiz-adv-x="570" 
d="M275 450q116 0 185.5 -63.5t69.5 -167.5t-69.5 -167.5t-185.5 -63.5t-185.5 63.5t-69.5 167.5q0 81 44 139l235 330q9 12 24 12h38q12 0 16 -7t-3 -17l-165 -232q31 6 66 6zM275 56q88 0 136.5 44t48.5 119q0 49 -21 85.5t-63 57t-101 20.5q-88 0 -136.5 -44t-48.5 -119
q0 -49 21 -85.5t63 -57t101 -20.5z" />
    <glyph glyph-name="seven.tf" horiz-adv-x="570" 
d="M40 680q0 20 20 20h450q20 0 20 -20v-33q0 -15 -5 -25l-273 -607q-6 -15 -24 -15h-29q-11 0 -15.5 6.5t-0.5 16.5l274 611h-397q-20 0 -20 20v26z" />
    <glyph glyph-name="eight.tf" horiz-adv-x="570" 
d="M418 361q55 -25 86 -69.5t31 -101.5q0 -96 -68.5 -149t-181.5 -53t-181.5 53t-68.5 149q0 57 31 101.5t86 69.5q-29 17 -49.5 40t-32 53t-11.5 64q0 93 64 143.5t162 50.5t162 -50.5t64 -143.5q0 -51 -25 -91t-68 -66zM285 644q-73 0 -114.5 -31.5t-41.5 -94.5
q0 -60 42.5 -93t113.5 -33t113.5 33t42.5 93q0 63 -41.5 94.5t-114.5 31.5zM285 56q87 0 133.5 35t46.5 99t-46.5 99t-133.5 35t-133.5 -35t-46.5 -99t46.5 -99t133.5 -35z" />
    <glyph glyph-name="nine.tf" horiz-adv-x="570" 
d="M550 481q0 -81 -44 -139l-235 -330q-9 -12 -24 -12h-38q-12 0 -16 7t3 17l165 232q-31 -6 -66 -6q-116 0 -185.5 63.5t-69.5 167.5t69.5 167.5t185.5 63.5t185.5 -63.5t69.5 -167.5zM110 481q0 -49 21 -85.5t63 -57t101 -20.5q88 0 136.5 44t48.5 119t-48.5 119
t-136.5 44t-136.5 -44t-48.5 -119z" />
    <glyph glyph-name="zero.dnom" horiz-adv-x="410" 
d="M205 -12q-82 0 -128.5 58t-46.5 154t46.5 154t128.5 58t128.5 -58t46.5 -154t-46.5 -154t-128.5 -58zM205 48q53 0 83 39t30 113t-30 113t-83 39t-83 -39t-30 -113t30 -113t83 -39z" />
    <glyph glyph-name="one.dnom" horiz-adv-x="247" 
d="M115 395q9 5 21 5h34q17 0 17 -17v-366q0 -17 -17 -17h-28q-17 0 -17 17v315l-85 -46q-9 -5 -14.5 -1.5t-5.5 13.5v31q0 13 12 21z" />
    <glyph glyph-name="two.dnom" horiz-adv-x="340" 
d="M47 0q-17 0 -17 17v22q0 11 9 20l159 146q42 37 42 85q0 28 -19.5 45t-52.5 17q-64 0 -74 -51q-5 -16 -18 -16h-29q-17 0 -16 18q6 50 43.5 79.5t93.5 29.5q60 0 97 -35t37 -87q0 -69 -62 -125l-118 -105h171q17 0 17 -17v-26q0 -17 -17 -17h-246z" />
    <glyph glyph-name="three.dnom" horiz-adv-x="352" 
d="M211 234q50 -10 78 -40.5t28 -76.5q0 -58 -40 -93.5t-106 -35.5q-60 0 -99.5 30.5t-45.5 80.5q-2 18 17 18h28q13 0 18 -16q10 -53 82 -53q40 0 62 18.5t22 50.5q0 31 -22.5 50t-61.5 19h-18q-17 0 -17 17v18q0 11 8 21l82 98h-167q-17 0 -17 17v26q0 17 17 17h224
q17 0 17 -17v-31q0 -10 -8 -21z" />
    <glyph glyph-name="four.dnom" horiz-adv-x="354" 
d="M317 133q17 0 17 -17v-24q0 -17 -17 -17h-34v-58q0 -17 -17 -17h-28q-17 0 -17 17v58h-189q-17 0 -17 17v30q0 12 5 21l137 245q6 12 21 12h30q10 0 13.5 -6t-1.5 -14l-137 -247h138v79q0 17 17 17h28q17 0 17 -17v-79h34z" />
    <glyph glyph-name="five.dnom" horiz-adv-x="341" 
d="M165 250q63 0 102 -36.5t39 -96.5q0 -59 -38 -94t-105 -35q-62 0 -99.5 30t-42.5 82q-2 17 16 17h29q13 0 18 -16q12 -53 79 -53q38 0 59.5 19t21.5 50q0 34 -21.5 53.5t-59.5 19.5h-107q-18 0 -17 18l13 176q2 16 17 16h204q17 0 17 -17v-24q0 -17 -17 -17h-165l-6 -92
h63z" />
    <glyph glyph-name="six.dnom" horiz-adv-x="335" 
d="M167 267q42 0 76 -18.5t53 -50t19 -70.5q0 -59 -42.5 -99.5t-105.5 -40.5t-105 40.5t-42 99.5q0 38 19 70v1q2 3 4 5l118 185q8 11 20 11h37q10 0 13.5 -6.5t-2.5 -14.5l-78 -113q8 1 16 1zM167 48q39 0 62.5 22.5t23.5 57.5t-23.5 57t-62.5 22t-62 -22t-23 -57
t23.5 -57.5t61.5 -22.5z" />
    <glyph glyph-name="seven.dnom" horiz-adv-x="296" 
d="M10 383q0 17 17 17h232q17 0 17 -17v-22q0 -10 -4 -21l-138 -327q-6 -13 -20 -13h-30q-9 0 -13 6t0 14l137 320h-181q-17 0 -17 17v26z" />
    <glyph glyph-name="eight.dnom" horiz-adv-x="335" 
d="M245 210q31 -15 48.5 -42t17.5 -62t-18 -62t-50.5 -41.5t-74.5 -14.5q-64 0 -104 32t-40 86q0 35 17.5 62t48.5 42q-53 32 -53 88q0 53 37.5 83.5t93.5 30.5q55 0 92.5 -30.5t37.5 -83.5q0 -56 -53 -88zM168 354q-22 0 -37.5 -7t-23.5 -19.5t-8 -29.5q0 -27 18 -43
t51 -16q22 0 37.5 7.5t23 20.5t7.5 31q0 17 -7.5 29.5t-23 19.5t-37.5 7zM168 48q38 0 59.5 18t21.5 48t-22 47.5t-59 17.5q-40 0 -61 -17t-21 -48q0 -30 21.5 -48t60.5 -18z" />
    <glyph glyph-name="nine.dnom" horiz-adv-x="335" 
d="M296 202v-1q-2 -3 -4 -5l-118 -185q-8 -11 -20 -11h-37q-10 0 -13.5 6.5t2.5 14.5l78 113q-8 -1 -16 -1q-63 0 -105.5 40t-42.5 99t42.5 99.5t105.5 40.5q41 0 75 -18.5t53 -50.5t19 -71q0 -38 -19 -70zM82 272q0 -35 23.5 -57t62.5 -22q26 0 45 10t29.5 28t10.5 41
q0 35 -23.5 57.5t-61.5 22.5q-39 0 -62.5 -22.5t-23.5 -57.5z" />
    <glyph glyph-name="zero.numr" horiz-adv-x="410" 
d="M205 288q-82 0 -128.5 58t-46.5 154t46.5 154t128.5 58t128.5 -58t46.5 -154t-46.5 -154t-128.5 -58zM205 348q53 0 83 39t30 113t-30 113t-83 39t-83 -39t-30 -113t30 -113t83 -39z" />
    <glyph glyph-name="one.numr" horiz-adv-x="247" 
d="M115 695q9 5 21 5h34q17 0 17 -17v-366q0 -17 -17 -17h-28q-17 0 -17 17v315l-85 -46q-9 -5 -14.5 -1.5t-5.5 13.5v31q0 13 12 21z" />
    <glyph glyph-name="two.numr" horiz-adv-x="340" 
d="M47 300q-17 0 -17 17v22q0 11 9 20l159 146q42 37 42 85q0 28 -19.5 45t-52.5 17q-64 0 -74 -51q-5 -16 -18 -16h-29q-17 0 -16 18q6 50 43.5 79.5t93.5 29.5q60 0 97 -35t37 -87q0 -69 -62 -125l-118 -105h171q17 0 17 -17v-26q0 -17 -17 -17h-246z" />
    <glyph glyph-name="three.numr" horiz-adv-x="352" 
d="M211 534q50 -10 78 -40.5t28 -76.5q0 -58 -40 -93.5t-106 -35.5q-60 0 -99.5 30.5t-45.5 80.5q-2 18 17 18h28q13 0 18 -16q10 -53 82 -53q40 0 62 18.5t22 50.5q0 31 -22.5 50t-61.5 19h-18q-17 0 -17 17v18q0 11 8 21l82 98h-167q-17 0 -17 17v26q0 17 17 17h224
q17 0 17 -17v-31q0 -10 -8 -21z" />
    <glyph glyph-name="four.numr" horiz-adv-x="354" 
d="M317 433q17 0 17 -17v-24q0 -17 -17 -17h-34v-58q0 -17 -17 -17h-28q-17 0 -17 17v58h-189q-17 0 -17 17v30q0 12 5 21l137 245q6 12 21 12h30q10 0 13.5 -6t-1.5 -14l-137 -247h138v79q0 17 17 17h28q17 0 17 -17v-79h34z" />
    <glyph glyph-name="five.numr" horiz-adv-x="341" 
d="M165 550q63 0 102 -36.5t39 -96.5q0 -59 -38 -94t-105 -35q-62 0 -99.5 30t-42.5 82q-2 17 16 17h29q13 0 18 -16q12 -53 79 -53q38 0 59.5 19t21.5 50q0 34 -21.5 53.5t-59.5 19.5h-107q-18 0 -17 18l13 176q2 16 17 16h204q17 0 17 -17v-24q0 -17 -17 -17h-165l-6 -92
h63z" />
    <glyph glyph-name="six.numr" horiz-adv-x="335" 
d="M167 567q42 0 76 -18.5t53 -50t19 -70.5q0 -59 -42.5 -99.5t-105.5 -40.5t-105 40.5t-42 99.5q0 38 19 70v1q2 3 4 5l118 185q8 11 20 11h37q10 0 13.5 -6.5t-2.5 -14.5l-78 -113q8 1 16 1zM167 348q39 0 62.5 22.5t23.5 57.5t-23.5 57t-62.5 22t-62 -22t-23 -57
t23.5 -57.5t61.5 -22.5z" />
    <glyph glyph-name="seven.numr" horiz-adv-x="296" 
d="M10 683q0 17 17 17h232q17 0 17 -17v-22q0 -10 -4 -21l-138 -327q-6 -13 -20 -13h-30q-9 0 -13 6t0 14l137 320h-181q-17 0 -17 17v26z" />
    <glyph glyph-name="eight.numr" horiz-adv-x="335" 
d="M245 510q31 -15 48.5 -42t17.5 -62q0 -54 -39.5 -86t-103.5 -32t-104 32t-40 86q0 35 17.5 62t48.5 42q-53 32 -53 88q0 53 37.5 83.5t93.5 30.5q36 0 65 -13t47 -39.5t18 -61.5q0 -56 -53 -88zM168 654q-22 0 -37.5 -7t-23.5 -19.5t-8 -29.5q0 -27 18 -43t51 -16
q32 0 50 16t18 43q0 26 -17.5 41t-50.5 15zM168 348q38 0 59.5 18t21.5 48t-22 47.5t-59 17.5q-40 0 -61 -17t-21 -48q0 -30 21.5 -48t60.5 -18z" />
    <glyph glyph-name="nine.numr" horiz-adv-x="335" 
d="M296 502v-1q-2 -3 -4 -5l-118 -185q-8 -11 -20 -11h-37q-10 0 -13.5 6.5t2.5 14.5l78 113q-8 -1 -16 -1q-63 0 -105.5 40t-42.5 99t42.5 99.5t105.5 40.5q41 0 75 -18.5t53 -50.5t19 -71q0 -38 -19 -70zM82 572q0 -35 23.5 -57t62.5 -22q26 0 45 10t29.5 28t10.5 41
q0 35 -23.5 57.5t-61.5 22.5q-26 0 -45.5 -10.5t-30 -28.5t-10.5 -41z" />
    <glyph glyph-name="zero.sups" horiz-adv-x="410" 
d="M205 448q-82 0 -128.5 58t-46.5 154t46.5 154t128.5 58t128.5 -58t46.5 -154t-46.5 -154t-128.5 -58zM205 508q53 0 83 39t30 113t-30 113t-83 39t-83 -39t-30 -113t30 -113t83 -39z" />
    <glyph glyph-name="one.sups" horiz-adv-x="247" 
d="M115 855q9 5 21 5h34q17 0 17 -17v-366q0 -17 -17 -17h-28q-17 0 -17 17v315l-85 -46q-9 -5 -14.5 -1.5t-5.5 13.5v31q0 13 12 21z" />
    <glyph glyph-name="two.sups" horiz-adv-x="340" 
d="M47 460q-17 0 -17 17v22q0 11 9 20l159 146q42 37 42 85q0 28 -19.5 45t-52.5 17q-64 0 -74 -51q-5 -16 -18 -16h-29q-17 0 -16 18q6 50 43.5 79.5t93.5 29.5q60 0 97 -35t37 -87q0 -69 -62 -125l-118 -105h171q17 0 17 -17v-26q0 -17 -17 -17h-246z" />
    <glyph glyph-name="three.sups" horiz-adv-x="352" 
d="M211 694q50 -10 78 -40.5t28 -76.5q0 -58 -40 -93.5t-106 -35.5q-60 0 -99.5 30.5t-45.5 80.5q-2 18 17 18h28q13 0 18 -16q10 -53 82 -53q40 0 62 18.5t22 50.5q0 31 -22.5 50t-61.5 19h-18q-17 0 -17 17v18q0 11 8 21l82 98h-167q-17 0 -17 17v26q0 17 17 17h224
q17 0 17 -17v-31q0 -10 -8 -21z" />
    <glyph glyph-name="four.sups" horiz-adv-x="354" 
d="M317 593q17 0 17 -17v-24q0 -17 -17 -17h-34v-58q0 -17 -17 -17h-28q-17 0 -17 17v58h-189q-17 0 -17 17v30q0 12 5 21l137 245q6 12 21 12h30q10 0 13.5 -6t-1.5 -14l-137 -247h138v79q0 17 17 17h28q17 0 17 -17v-79h34z" />
    <glyph glyph-name="five.sups" horiz-adv-x="341" 
d="M165 710q63 0 102 -36.5t39 -96.5q0 -59 -38 -94t-105 -35q-62 0 -99.5 30t-42.5 82q-2 17 16 17h29q13 0 18 -16q12 -53 79 -53q38 0 59.5 19t21.5 50q0 34 -21.5 53.5t-59.5 19.5h-107q-18 0 -17 18l13 176q2 16 17 16h204q17 0 17 -17v-24q0 -17 -17 -17h-165l-6 -92
h63z" />
    <glyph glyph-name="six.sups" horiz-adv-x="335" 
d="M167 727q42 0 76 -18.5t53 -50t19 -70.5q0 -59 -42.5 -99.5t-105.5 -40.5t-105 40.5t-42 99.5q0 38 19 70v1q2 3 4 5l118 185q8 11 20 11h37q10 0 13.5 -6.5t-2.5 -14.5l-78 -113q8 1 16 1zM167 508q39 0 62.5 22.5t23.5 57.5t-23.5 57t-62.5 22t-62 -22t-23 -57
t23.5 -57.5t61.5 -22.5z" />
    <glyph glyph-name="seven.sups" horiz-adv-x="296" 
d="M10 843q0 17 17 17h232q17 0 17 -17v-22q0 -10 -4 -21l-138 -327q-6 -13 -20 -13h-30q-9 0 -13 6t0 14l137 320h-181q-17 0 -17 17v26z" />
    <glyph glyph-name="eight.sups" horiz-adv-x="335" 
d="M245 670q20 -10 35 -25t23 -35.5t8 -43.5q0 -54 -39.5 -86t-103.5 -32t-104 32t-40 86q0 35 17.5 62t48.5 42q-53 32 -53 88q0 53 37.5 83.5t93.5 30.5q36 0 65 -13t47 -39.5t18 -61.5q0 -56 -53 -88zM168 814q-22 0 -37.5 -7t-23.5 -19.5t-8 -29.5q0 -27 18 -43t51 -16
q32 0 50 16t18 43q0 26 -17.5 41t-50.5 15zM168 508q38 0 59.5 18t21.5 48t-22 47.5t-59 17.5q-40 0 -61 -17t-21 -48q0 -15 5.5 -27t15.5 -20.5t25.5 -13.5t35.5 -5z" />
    <glyph glyph-name="nine.sups" horiz-adv-x="335" 
d="M296 662v-1q-2 -3 -4 -5l-118 -185q-8 -11 -20 -11h-37q-10 0 -13.5 6.5t2.5 14.5l78 113q-8 -1 -16 -1q-63 0 -105.5 40t-42.5 99t42.5 99.5t105.5 40.5q41 0 75 -18.5t53 -50.5t19 -71q0 -38 -19 -70zM82 732q0 -35 23.5 -57t62.5 -22q26 0 45 10t29.5 28t10.5 41
q0 35 -23.5 57.5t-61.5 22.5q-26 0 -45.5 -10.5t-30 -28.5t-10.5 -41z" />
    <glyph glyph-name="cent.tf" horiz-adv-x="570" 
d="M519 260q11 0 15.5 -6.5t0.5 -16.5q-26 -67 -89.5 -108t-142.5 -41q-35 0 -68 8l-27 -83q-4 -13 -18 -13h-17q-18 0 -13 18l30 94q-69 30 -109.5 94t-40.5 144q0 73 34 133t94.5 94.5t134.5 34.5q24 0 47 -4l26 79q4 13 18 13h17q18 0 13 -18l-28 -86q48 -18 84 -52.5
t55 -80.5q4 -10 -0.5 -16.5t-15.5 -6.5h-29q-16 0 -24 15q-29 56 -90 79l-121 -376q23 -6 48 -6q54 0 97.5 25t65.5 68q8 15 24 15h29zM106 350q0 -57 28.5 -104t75.5 -72l121 372q-14 2 -28 2q-55 0 -100 -26t-71 -71.5t-26 -100.5z" />
    <glyph glyph-name="dollar.tf" horiz-adv-x="570" 
d="M530 172q0 -80 -61 -129t-154 -54v-69q0 -20 -20 -20h-20q-20 0 -20 20v70q-90 10 -148.5 60t-65.5 132q-2 21 19 21h31q18 0 20 -19q6 -54 44 -86t100 -40v271q-36 13 -61 24t-53.5 29.5t-45.5 38t-28.5 49t-11.5 64.5q0 52 28 91.5t72.5 60.5t99.5 25v69q0 20 20 20h20
q20 0 20 -20v-70q82 -8 137 -54.5t62 -122.5q1 -21 -19 -21h-31q-18 0 -20 19q-6 47 -40.5 75.5t-88.5 35.5v-262q40 -15 65 -26t56.5 -29.5t50 -38.5t31 -49.5t12.5 -64.5zM125 534q0 -46 33 -75.5t97 -55.5v240q-59 -5 -94.5 -33t-35.5 -76zM315 57q66 4 105.5 34t39.5 81
q0 25 -10.5 45t-31.5 36.5t-45 28.5t-58 25v-250z" />
    <glyph glyph-name="Euro.tf" horiz-adv-x="570" 
d="M524 234q6 0 11 -2.5t7 -7.5t1 -11q-12 -104 -74 -164.5t-154 -60.5q-102 0 -165.5 74.5t-79.5 203.5h-45q-20 0 -20 20v18q0 20 20 20h40v26q0 17 1 34h-41q-20 0 -20 20v18q0 20 20 20h46q17 126 80 198t164 72q60 0 108 -26t79 -75.5t39 -115.5q1 -5 0 -9t-3.5 -6.5
t-6.5 -4t-9 -1.5h-31q-18 0 -21 19q-9 71 -52 111t-103 40q-46 0 -82 -23.5t-59 -68.5t-33 -110h224q20 0 20 -20v-18q0 -20 -20 -20h-229q-1 -17 -1 -34v-26h230q20 0 20 -20v-18q0 -20 -20 -20h-225q13 -101 58.5 -155.5t116.5 -54.5q62 0 105.5 42t51.5 116q3 20 21 20
h31z" />
    <glyph glyph-name="florin.tf" horiz-adv-x="570" 
d="M523 707q17 -3 17 -22v-23q0 -23 -23 -16q-97 22 -120 -75l-47 -188h130q20 0 20 -20v-24q0 -20 -20 -20h-146l-96 -388q-42 -168 -191 -136q-17 3 -17 22v23q0 23 23 16q96 -22 119 75l96 388h-129q-20 0 -20 20v24q0 20 20 20h145l47 188q42 168 192 136z" />
    <glyph glyph-name="uni20BD.tf" horiz-adv-x="570" 
d="M330 280h-160v-94h220q20 0 20 -20v-18q0 -20 -20 -20h-220v-108q0 -20 -20 -20h-30q-20 0 -20 20v108h-70q-20 0 -20 20v18q0 20 20 20h70v94h-70q-20 0 -20 20v26q0 20 20 20h70v334q0 20 20 20h50h160q87 0 148.5 -61.5t61.5 -148.5q0 -86 -61.5 -148t-148.5 -62z
M170 634v-288h160q58 0 99 42.5t41 101.5q0 60 -41 102t-99 42h-160z" />
    <glyph glyph-name="sterling.tf" horiz-adv-x="570" 
d="M510 68q20 0 20 -20v-28q0 -20 -20 -20h-490q-20 0 -20 20v28q0 20 20 20h74v211h-54q-20 0 -20 20v22q0 20 20 20h54v161q0 101 61 155.5t144 54.5q80 0 142.5 -55t62.5 -155v-2q0 -20 -20 -20h-30q-20 0 -20 20v2q0 70 -40.5 106t-94.5 36q-57 0 -96 -35.5t-39 -106.5
v-161h211q20 0 20 -20v-22q0 -20 -20 -20h-211v-211h346z" />
    <glyph glyph-name="yen.tf" horiz-adv-x="570" 
d="M534 700q12 0 16 -7t-3 -17l-213 -329h147q20 0 20 -20v-18q0 -20 -20 -20h-161v-60h161q20 0 20 -20v-18q0 -20 -20 -20h-161v-151q0 -20 -20 -20h-30q-20 0 -20 20v151h-159q-20 0 -20 20v18q0 20 20 20h159v60h-159q-20 0 -20 20v18q0 20 20 20h146l-213 329
q-7 10 -3 17t16 7h32q15 0 24 -13l193 -296l192 296q9 13 24 13h32z" />
    <glyph glyph-name="brevecy" horiz-adv-x="300" 
d="M40 580q-20 0 -20 20v18q0 20 20 20h220q20 0 20 -20v-18q0 -20 -20 -20h-220z" />
    </font>
</defs>
</svg>
