<svg xmlns="http://www.w3.org/2000/svg" viewBox="0 0 183.92 182.44"><defs><style>.cls-1{fill:none;stroke:#414141;stroke-miterlimit:10;stroke-width:5px;}</style></defs><title>vkРесурс 3</title><g id="Слой_2" data-name="Слой 2"><g id="Слой_1-2" data-name="Слой 1"><path class="cls-1" d="M91.82,179.93h-59c-17.76,0-30.25-12.43-30.25-30.08,0-39.31-.29-78.63.12-117.94C2.91,14.13,15.39,2.59,31.58,2.56q60.21-.12,120.44,0c16.46,0,29,11.44,29.17,29.57.43,39.31.14,78.63.13,118,0,17.28-12.65,29.84-30,29.85Q121.56,180,91.82,179.93ZM102.18,75.05h.12c0-1.5,0-3,0-4.5s.07-3,0-4.5c-.08-5.71-1.64-7.58-7.2-8a68.54,68.54,0,0,0-14-.2c-2.81.35-5.71.27-8.06,2.16-1.36,1.09-2.94,2.36.11,3.36,4,1.31,5.12,4.48,5.2,8.22.1,4.16.18,8.33,0,12.48-.09,2.61.11,6-2.76,7-3,1-4.63-2-6.21-4.05a89.85,89.85,0,0,1-11.9-21.31c-1.35-3.38-3.49-5-7.2-4.85-5,.18-10,0-15,.13-4.45.16-5.47,1.68-3.61,5.73,6.53,14.25,13.82,28.07,23.37,40.61C65.47,120.8,78.77,127.89,96.05,127c4-.22,6.31-1.68,6.2-6a14.8,14.8,0,0,1,1.39-6.8c1.69-3.58,4.13-4.26,7-1.46s5.51,5.79,8.29,8.65S124.91,127,129.2,127c5.82.12,11.67.15,17.48-.21s7.29-3.46,4.26-8.37-7.37-9-11.58-13c-8.61-8.25-8.61-8.22-1.15-17.83,4.9-6.31,10-12.51,13.32-19.87,2.22-4.91.93-6.83-4.43-6.87s-10.68.37-16,0c-4.71-.32-7.25,1.25-9,5.75a74.5,74.5,0,0,1-13.2,22.23c-1.08,1.24-2.41,2.72-4.19,2.19-2-.6-2.46-2.64-2.51-4.49C102.11,82.71,102.18,78.88,102.18,75.05Z"/></g></g></svg>